<?xml version="1.0" encoding="UTF-8" standalone="no"?>
<svg width="198px" height="50px" viewBox="0 0 198 50" version="1.1" xmlns="http://www.w3.org/2000/svg" xmlns:xlink="http://www.w3.org/1999/xlink">
    <!-- Generator: Sketch 3.8.3 (29802) - http://www.bohemiancoding.com/sketch -->
    <title>my-emma-logo</title>
    <desc>Created with Sketch.</desc>
    <defs></defs>
    <g id="em-drewes-logo" stroke="none" stroke-width="1" fill="none" fill-rule="evenodd">
        <path d="M35.3122781,38.9769453 C35.5132167,39.043752 35.7141523,39.1439606 35.915091,39.277574 C36.1160296,39.4111875 36.258359,39.5531496 36.3420834,39.7034648 C36.4258079,39.8537799 36.4090632,40.0040928 36.291849,40.1544079 C36.1746348,40.3047231 35.915093,40.4299838 35.5132157,40.5301939 C35.4462362,40.5301939 35.2536728,40.555246 34.93552,40.6053511 C34.6173671,40.6554561 34.2741021,40.7139111 33.9057146,40.7807179 C33.5038373,40.8809279 33.0517322,40.9644351 32.5493856,41.0312418 C30.2051014,41.231662 28.3213299,41.0395956 26.8980145,40.4550367 C25.4746992,39.8704778 24.3444363,38.6095198 23.5071919,36.6721247 C23.2727635,36.2044776 23.0634556,35.402809 22.8792618,34.2670946 C22.6950681,33.1313803 22.535994,31.9038251 22.4020349,30.5843922 C22.2680758,29.2649594 22.1592357,27.9872999 22.0755113,26.7513755 C21.9917868,25.515451 21.9331806,24.5634695 21.8996908,23.8954022 C21.8996908,22.2586374 21.9666694,20.77221 22.1006285,19.4360755 C22.2345876,18.099941 22.376917,16.897438 22.527621,15.8285303 C22.6783249,14.7596227 22.8206543,13.8159919 22.9546134,12.9976095 C23.0885725,12.1792271 23.1555511,11.4527148 23.1555511,10.8180509 C21.682001,12.2543955 20.5935997,13.6990693 19.8903145,15.1521156 C19.1870292,16.6051619 18.7265518,18.0080821 18.5088682,19.3609183 C18.2911847,20.7137545 18.2409508,22.0081154 18.358165,23.2440399 C18.4753792,24.4799643 18.6260809,25.6073109 18.8102747,26.6261135 C18.9944684,27.6449161 19.1367978,28.5551441 19.2372672,29.3568248 C19.3377365,30.1585055 19.2540133,30.7931599 18.9860951,31.260807 C18.6846872,31.6950507 18.3414221,31.9288707 17.9562897,31.9622741 C17.5711573,31.9956774 17.1776584,31.9121703 16.7757811,31.7117501 C16.3739038,31.5113299 16.0055219,31.2524577 15.6706241,30.9351258 C15.3357264,30.6177938 15.0845569,30.3088174 14.917108,30.0081871 C14.6491898,29.5739434 14.4231372,29.173109 14.2389435,28.805672 C14.0547497,28.438235 13.8873034,28.0708036 13.7365994,27.7033666 C13.5858954,27.3359296 13.443566,26.9517967 13.3096069,26.5509563 C13.1756478,26.1501159 13.0584354,25.6657744 12.957966,25.0979173 C12.8574967,24.5634635 12.7319119,24.1041741 12.581208,23.7200354 C12.430504,23.3358967 12.2798023,22.9517638 12.1290983,22.5676252 C11.9783943,22.1834865 11.8360649,21.7826521 11.7021058,21.3651101 C11.5681467,20.9475681 11.4509343,20.4381744 11.3504649,19.8369139 C11.2499956,19.20225 11.1579001,18.642752 11.0741757,18.1584033 C10.9904513,17.6740545 10.9234727,17.2147651 10.8732381,16.7805214 C10.8230034,16.3462777 10.7978864,15.8953391 10.7978864,15.427692 C10.7978864,14.9600449 10.8313757,14.3921962 10.8983553,13.724129 C10.2620496,13.9245492 9.80157209,14.4756964 9.51690902,15.3775872 C9.23224594,16.279478 9.03968263,17.306616 8.93921331,18.459032 C8.83874399,19.6114481 8.80525472,20.7888989 8.83874449,21.99142 C8.87223427,23.1939411 8.8889789,24.196027 8.8889789,24.9977077 C8.82199936,26.500859 8.91409485,27.7952199 9.16526815,28.8808292 C9.41644145,29.9664385 9.69272794,30.9267708 9.9941359,31.7618549 C10.2955439,32.596939 10.563458,33.3485034 10.7978864,34.0165706 C11.0323149,34.6846379 11.1327827,35.3359937 11.0992929,35.9706576 C9.92715083,36.2712879 8.84712184,36.3213922 7.85917352,36.120972 C6.8712252,35.9205518 5.98375951,35.5447696 5.19674984,34.9936141 C4.40974016,34.4424586 3.74832706,33.7493492 3.21249068,32.9142652 C2.6766543,32.0791811 2.25803842,31.1940052 1.95663045,30.2587111 C1.75569181,29.7242573 1.62173473,29.1480579 1.55475518,28.5300957 C1.48777563,27.9121334 1.44591405,27.2941805 1.42916916,26.6762183 C1.41242427,26.0582561 1.38730732,25.4653553 1.35381755,24.8974981 C1.32032777,24.3296409 1.25334923,23.828598 1.15287991,23.3943543 C0.985431042,22.6928836 0.884963228,22.0498785 0.851473455,21.4653197 C0.817983681,20.8807608 0.826355999,20.3212629 0.876590659,19.7868091 C0.92682532,19.2523553 0.993803862,18.7095588 1.0775283,18.1584033 C1.16125273,17.6072478 1.21985895,16.9976455 1.25334873,16.3295783 C1.25334873,16.1291581 1.21985946,15.6949209 1.15287991,15.0268536 C1.08590036,14.3587864 1.0105495,13.6489755 0.926825069,12.8973999 C0.843100635,12.1458242 0.759377457,11.4360134 0.675653023,10.7679461 C0.59192859,10.0998788 0.51657773,9.66564164 0.449598183,9.46522146 C0.349128862,8.96417101 0.240288731,8.43807593 0.123074524,7.88692044 C0.00586031652,7.33576495 -0.0276289546,6.83472202 0.0226057056,6.38377662 C0.0728403658,5.93283121 0.248659039,5.58210116 0.550067001,5.33157594 C0.851474962,5.08105071 1.37055866,4.97249141 2.10733368,5.00589477 C3.11202689,5.10610486 3.97437562,5.44013348 4.69440575,6.00799066 C5.41443588,6.57584783 6.03398739,7.28565865 6.55307888,8.13744441 C7.07217037,8.98923017 7.5075309,9.9161596 7.85917352,10.9182605 C8.21081614,11.9203614 8.5205919,12.8890444 8.78851008,13.8243386 C9.19038737,13.4569016 9.5838863,13.0059629 9.9690187,12.4715091 C10.3541511,11.9370553 10.7811393,11.536221 11.2499961,11.2689941 C11.9197916,10.9015571 12.5979493,10.9015571 13.2844897,11.2689941 C13.9710301,11.636431 14.3980183,12.137474 14.5654671,12.7721379 C14.732916,13.3399951 14.8668731,14.016403 14.9673424,14.801382 C15.0678117,15.5863611 15.1682795,16.3128733 15.2687489,16.9809406 C15.4027079,17.6824112 15.5868989,18.3671699 15.8213274,19.0352372 C16.0557558,19.7033044 16.2566914,20.3546602 16.4241403,20.9893241 C16.759038,20.0206266 17.0688138,19.1020479 17.3534768,18.2335605 C17.6381399,17.365073 17.9395433,16.5383522 18.2576962,15.7533731 C18.575849,14.9683941 18.944231,14.2001283 19.3628532,13.4485526 C19.7814754,12.6969769 20.2754421,11.9704647 20.8447683,11.2689941 C21.0457069,11.0351705 21.2968764,10.7595969 21.5982844,10.4422649 C21.8996924,10.124933 22.2262127,9.80760581 22.5778554,9.49027386 C22.929498,9.17294191 23.2895077,8.88066686 23.6578952,8.61343996 C24.0262827,8.34621305 24.3611754,8.16249731 24.6625833,8.06228722 C25.3658686,7.82846368 25.9016969,7.77000867 26.2700844,7.88692044 C26.6384719,8.00383221 26.9147584,8.23765225 27.0989522,8.58838756 C27.2831459,8.93912287 27.4003584,9.37336008 27.450593,9.89111221 C27.5008277,10.4088643 27.5761786,10.918258 27.6766479,11.4193084 C27.9445661,13.5237203 28.2208526,15.6281006 28.5055156,17.7325125 C28.7901787,19.8369244 28.9325081,22.0415133 28.9325081,24.3463453 C28.8990183,25.2816395 28.8822737,26.3421804 28.8822737,27.5279998 C28.8822737,28.7138192 28.9325076,29.8996208 29.0329769,31.0854402 C29.1334463,32.2712596 29.2925203,33.3819047 29.5102038,34.417409 C29.7278873,35.4529133 30.0711524,36.2879848 30.5400092,36.9226487 C31.1428251,37.7243294 31.586558,38.2587752 31.871221,38.5260021 C32.1558841,38.793229 32.4237983,38.9351912 32.6749716,38.9518929 C32.9261449,38.9685946 33.2359206,38.9435424 33.6043082,38.8767357 C33.9726957,38.809929 34.5420133,38.8433318 35.3122781,38.9769453 L35.3122781,38.9769453 Z M67.8641751,23.2440399 C68.031624,23.6448802 67.9144115,24.1041696 67.5125343,24.6219217 C67.110657,25.1396738 66.558084,25.6824704 65.8547988,26.2503275 C65.1515135,26.8181847 64.3561433,27.3776826 63.4686643,27.9288381 C62.5811853,28.4799936 61.7272089,28.9893873 60.9067095,29.4570344 C60.08621,29.9246814 59.3661907,30.3255158 58.7466299,30.6595494 C58.1270691,30.9935831 57.7503148,31.2107017 57.6163557,31.3109117 C57.415417,31.4779286 57.2312261,31.5864879 57.0637772,31.6365929 C56.8963283,31.686698 56.7456266,31.745153 56.6116675,31.8119597 C56.4777084,31.8787664 56.360496,31.9706243 56.2600266,32.0875361 C56.1595573,32.2044478 56.0758341,32.4132157 56.0088546,32.713846 C55.6404671,34.2504007 55.1883619,35.7368281 54.6525255,37.1731727 C54.1166892,38.6095173 53.5306269,40.0625418 52.8943212,41.5322898 C52.2245258,43.1356512 51.5128788,44.463415 50.7593588,45.5156209 C50.0058389,46.5678269 49.059767,47.5782634 47.9211147,48.546961 C47.7201761,48.7139778 47.5527297,48.8475892 47.4187706,48.9477993 C47.2848116,49.0480094 47.1508545,49.1231659 47.0168954,49.1732709 C46.8829363,49.2233759 46.7238622,49.2651295 46.5396685,49.2985329 C46.3554747,49.3319362 46.1294222,49.398742 45.861504,49.4989521 C45.6605653,49.5657588 45.4596297,49.6492659 45.2586911,49.749476 C45.0577524,49.8496861 44.9070507,49.9331933 44.8065814,50 C44.572153,50 44.4130789,49.9582464 44.3293545,49.874738 C44.2456301,49.7912296 44.0530667,49.749476 43.7516588,49.749476 C43.4837406,49.749476 43.2660603,49.7828789 43.0986115,49.8496856 C42.9311626,49.9164923 42.6799931,49.8997909 42.3450953,49.7995808 C42.2111362,49.7995808 42.1274131,49.7828794 42.0939233,49.749476 C42.0604335,49.7160727 42.0269442,49.6826698 41.9934545,49.6492664 C41.9599647,49.6158631 41.9013585,49.5741095 41.817634,49.5240045 C41.7339096,49.4738994 41.5748356,49.398743 41.3404071,49.2985329 C40.0677958,48.8308858 39.3310318,48.0292171 39.1300932,46.8935028 C38.9291545,45.7577884 39.1635794,44.6053897 39.8333749,43.436272 C40.5031703,42.4341711 41.2231897,41.5990995 41.9934545,40.9310322 C42.7637193,40.262965 43.5507171,39.5949077 44.3544717,38.9268405 C44.6893694,38.6596136 44.9740282,38.442495 45.2084566,38.2754781 C45.4428851,38.1084613 45.7442885,37.8913427 46.112676,37.6241158 C46.6485124,37.1898721 47.192713,36.780687 47.7452943,36.3965484 C48.2978756,36.0124097 48.8588209,35.5865232 49.428147,35.1188761 C49.4951266,33.8495483 49.6207113,32.655396 49.8049051,31.5363833 C49.9890988,30.4173707 50.0811943,29.1898155 50.0811943,27.8536809 C50.0811943,27.3192271 50.097939,26.7012742 50.1314287,25.9998036 C50.1649185,25.2983329 50.1900355,24.6052235 50.2067803,23.9204546 C50.2235252,23.2356857 50.2318976,22.609382 50.2318976,22.0415248 C50.2318976,21.4736676 50.2151529,21.0561319 50.1816631,20.788905 C49.9807245,20.9893251 49.7881612,21.198093 49.6039674,21.4152149 C49.4197737,21.6323367 49.2272104,21.8912089 49.0262717,22.1918392 C48.5239251,22.8265031 48.0383307,23.2774417 47.5694739,23.5446686 C47.100617,23.8118955 46.782469,24.1626256 46.6150201,24.5968693 C46.5145508,24.7972895 46.388966,24.989356 46.238262,25.1730745 C46.0875581,25.356793 45.6773145,25.4653523 45.007519,25.4987556 C44.8065804,25.5655623 44.5972724,25.5822638 44.3795889,25.5488604 C44.1619054,25.515457 43.9525974,25.5321585 43.7516588,25.5989652 C43.5172304,25.5989652 43.374901,25.6240174 43.3246663,25.6741224 C43.2744316,25.7242274 43.1153576,25.7826825 42.8474394,25.8494892 C42.6465008,25.8828925 42.3283527,25.9747504 41.8929856,26.1250655 C41.4576186,26.2753807 41.1059812,26.3338357 40.8380631,26.3004323 C39.364513,25.9998021 38.2509948,25.5572141 37.4974749,24.9726553 C36.743955,24.3880964 36.1997543,23.6866363 35.8648566,22.8682539 C35.5299588,22.0498715 35.3206509,21.1479942 35.2369265,20.162595 C35.153202,19.1771958 35.0108726,18.1333564 34.809934,17.0310454 C34.7429544,16.7638185 34.6843482,16.4130884 34.6341135,15.9788447 C34.5838789,15.544601 34.5252727,15.1771695 34.4582931,14.8765392 C34.3578238,14.3754888 34.2741006,14.0665123 34.2071211,13.9496005 C34.1401415,13.8326888 34.0229291,13.5738166 33.8554802,13.1729762 L32.850792,10.5174221 C32.7503227,10.2835986 32.6917165,10.124935 32.6749716,10.0414266 C32.6582267,9.95791819 32.6498544,9.78255316 32.6498544,9.51532625 C32.9512623,9.21469599 33.3196443,9.03098024 33.7550114,8.96417352 C34.1903784,8.89736679 34.6341113,8.90571751 35.0862232,8.98922592 C35.5383352,9.07273432 35.9904403,9.18964434 36.4425523,9.33995948 C36.8946642,9.49027461 37.2714185,9.6489382 37.5728265,9.81595502 C38.0416833,10.0163752 38.4268099,10.2251431 38.7282179,10.4422649 C39.0296258,10.6593868 39.2807954,10.9015576 39.481734,11.1687845 C39.6826727,11.4360114 39.8584913,11.7533386 40.0091953,12.1207756 C40.1598993,12.4882126 40.3189733,12.9391512 40.4864222,13.473605 C40.6873608,14.2752857 40.8882965,15.1270587 41.0892351,16.0289495 C41.2901737,16.9308403 41.5245986,17.8076654 41.7925168,18.6594512 C42.060435,19.511237 42.3953277,20.3129057 42.797205,21.0644813 C43.1990823,21.816057 43.718166,22.4089578 44.3544717,22.8432015 C44.5889001,22.7095881 44.7730911,22.6594838 44.9070502,22.6928871 C45.0410093,22.7262905 45.1665941,22.7680441 45.2838083,22.8181491 C45.4010225,22.8682542 45.5266072,22.8933063 45.6605663,22.8933063 C45.7945254,22.8933063 45.9787164,22.7930977 46.2131448,22.5926776 C46.4140835,22.3922574 46.6317637,22.2168923 46.8661921,22.0665772 C47.1006206,21.9162621 47.3852794,21.7408971 47.7201771,21.5404769 C48.0885646,21.27325 48.4234573,20.9225199 48.7248653,20.4882762 C49.0262732,20.0540325 49.4783784,19.5195867 50.0811943,18.8849228 C50.0142148,18.3170656 49.8970023,17.5989041 49.7295535,16.7304166 C49.5621046,15.8619292 49.3695413,14.9517012 49.1518578,13.9997053 C48.9341742,13.0477095 48.716494,12.1207801 48.4988104,11.2188893 C48.2811269,10.3169985 48.0885636,9.54873262 47.9211147,8.91406872 C47.8206454,8.58003509 47.703433,8.3128122 47.5694739,8.11239202 C47.4355148,7.91197184 47.335047,7.6781518 47.2680674,7.4109249 C47.2680674,7.34411817 47.2596951,7.22720815 47.2429502,7.06019134 C47.2262053,6.89317452 47.217833,6.70945878 47.217833,6.5090386 C47.217833,6.30861842 47.2094607,6.11655196 47.1927158,5.93283347 C47.1759709,5.74911497 47.1675986,5.60715281 47.1675986,5.50694272 L48.7750997,5.25641874 C48.9425486,5.42343556 49.1016226,5.61550202 49.2523266,5.83262388 C49.4030306,6.04974574 49.6123385,6.1917079 49.8802567,6.25851463 C50.2151544,6.39212808 50.5333025,6.49233667 50.8347105,6.55914339 C51.1361184,6.62595012 51.4207772,6.69275585 51.6886954,6.75956257 C52.2245318,6.92657939 52.676637,7.11029513 53.0450245,7.31071531 C53.413412,7.51113549 53.73156,7.72825409 53.9994782,7.96207763 C54.2673964,8.19590118 54.5101936,8.45477336 54.7278772,8.73870194 C54.9455607,9.02263053 55.1883579,9.33160701 55.4562761,9.66564064 C55.7911738,10.0998844 56.0172264,10.6176287 56.1344406,11.2188893 C56.2516548,11.8201498 56.4274735,12.4381027 56.6619019,13.0727666 C56.7623712,13.4402036 56.8544667,13.6740237 56.9381912,13.7742338 C57.0219156,13.8744439 57.0972665,14.1416668 57.164246,14.5759105 C57.3651846,15.3441878 57.4991417,16.4464823 57.5661213,17.8828269 C57.6331008,19.3191715 57.6414731,20.8139496 57.5912385,22.367206 C57.5410038,23.9204624 57.4321637,25.398539 57.2647148,26.8014803 C57.097266,28.2044215 56.8963303,29.2566117 56.6619019,29.9580823 C56.9967996,29.8912756 57.2647138,29.7743656 57.4656525,29.6073487 C57.6665911,29.4403319 57.9345053,29.2566162 58.269403,29.056196 C58.8052394,28.7221624 59.2405999,28.4549395 59.5754976,28.2545193 C59.9103954,28.0540991 60.2285434,27.8536819 60.5299514,27.6532618 C60.8313594,27.4528416 61.1578798,27.235723 61.5095224,27.0018994 C61.861165,26.7680759 62.3216425,26.4507487 62.8909686,26.0499084 C63.2593561,25.7158747 63.6193658,25.4235997 63.9710084,25.1730745 C64.322651,24.9225492 64.6826607,24.6970799 65.0510482,24.4966597 C65.084538,24.429853 65.2352397,24.2795401 65.5031579,24.0457166 C65.7710761,23.811893 66.0557349,23.5864237 66.3571429,23.3693019 C66.6585508,23.15218 66.9515819,23.0102178 67.236245,22.9434111 C67.5209081,22.8766044 67.730216,22.976813 67.8641751,23.2440399 L67.8641751,23.2440399 Z M48.0215836,43.9373199 C48.2225222,43.5698829 48.3899686,43.1022428 48.5239276,42.5343857 C48.6578867,41.9665285 48.7583546,41.3736277 48.8253341,40.7556655 C48.8923136,40.1377032 48.9258029,39.528101 48.9258029,38.9268405 C48.9258029,38.3255799 48.9090583,37.8078356 48.8755685,37.3735919 C48.4736912,37.574012 47.9546075,37.8913392 47.3183018,38.3255829 C46.6819961,38.7598267 46.020583,39.2441682 45.3340427,39.778622 C44.6475023,40.3130758 44.0112062,40.8475216 43.4251351,41.3819754 C42.8390641,41.9164292 42.3953312,42.3506664 42.0939233,42.6847 L40.9385319,43.9874247 C40.6036341,44.4884751 40.3943262,45.1064281 40.3106018,45.8413021 C40.2268773,46.5761761 40.402696,47.1774276 40.8380631,47.6450747 C41.0390017,47.8788982 41.2901712,48.0208604 41.5915792,48.0709654 C41.8929872,48.1210705 42.2027629,48.1294212 42.5209158,48.0960178 C42.8390686,48.0626145 43.1572167,48.0041594 43.4753695,47.920651 C43.7935224,47.8371426 44.0865535,47.7452848 44.3544717,47.6450747 C44.9907774,47.4446545 45.4679995,47.2609388 45.7861524,47.0939219 C46.1043052,46.9269051 46.3638471,46.7097865 46.5647857,46.4425596 C46.7657243,46.1753327 46.96666,45.8413041 47.1675986,45.4404637 C47.3685372,45.0396234 47.653196,44.5385804 48.0215836,43.9373199 L48.0215836,43.9373199 Z M96.4475539,14.6260153 C97.3517778,14.6260153 97.8373722,14.7429253 97.9043517,14.9767488 C97.9713313,15.2105724 97.8541188,15.4694446 97.5527109,15.7533731 C97.2513029,16.0373017 96.8745486,16.3128753 96.4224367,16.5801022 C95.9703247,16.8473291 95.6940382,17.0143435 95.5935689,17.0811502 C95.1247121,17.4485872 94.622373,17.9412794 94.0865367,18.5592416 C93.5507003,19.1772038 93.0148719,19.7200003 92.4790356,20.1876474 C92.1106481,20.4882777 91.6836598,20.9308656 91.1980581,21.5154245 C90.7124564,22.0999833 90.2603513,22.7680406 89.8417291,23.5196162 C89.4231069,24.2711919 89.0714696,25.0561592 88.7868065,25.8745416 C88.5021434,26.692924 88.3933033,27.4695405 88.4602828,28.2044145 C88.5272624,29.4737423 88.6863364,30.4173732 88.9375097,31.0353354 C89.188683,31.6532976 89.4984588,32.0624827 89.8668463,32.2629028 C90.2352338,32.463323 90.6454774,32.521778 91.0975893,32.4382696 C91.5497013,32.3547612 92.0101787,32.2462019 92.4790356,32.1125885 C92.9478924,31.978975 93.3916252,31.8704157 93.8102474,31.7869073 C94.2288696,31.7033989 94.6056239,31.7618539 94.9405216,31.9622741 C95.0744807,32.4299212 94.9154067,32.8975612 94.4632947,33.3652083 C94.0111828,33.8328554 93.3916313,34.225339 92.6046216,34.542671 C91.8176119,34.8600029 90.9217739,35.0604201 89.9170807,35.1439285 C88.9123875,35.2274369 87.899337,35.1272283 86.877899,34.8432997 C85.8564609,34.5593712 84.8936443,34.0583282 83.9894204,33.3401559 C83.0851966,32.6219836 82.3651772,31.6282485 81.8293408,30.3589207 C80.8916272,28.2879121 80.6572023,26.2169347 81.1260591,24.1459262 C81.5949159,22.0749177 82.465637,20.2043574 83.7382484,18.5341892 C84.0396564,18.1667522 84.3159428,17.8828279 84.5671161,17.6824077 C84.8182894,17.4819875 85.0610867,17.3066225 85.2955151,17.1563074 C85.5299435,17.0059922 85.7643684,16.8556794 85.9987968,16.7053642 C86.2332252,16.5550491 86.4843947,16.3629826 86.7523129,16.1291591 C86.2834561,15.6949154 85.8229786,15.2857303 85.3708667,14.9015916 C84.9187547,14.517453 84.4415326,14.0915665 83.939186,13.6239194 C83.6712678,13.4234992 83.4535876,13.1479256 83.2861387,12.7971903 C83.1186898,12.446455 82.9763604,12.0873742 82.8591462,11.7199372 C82.741932,11.3525002 82.6330919,11.0184716 82.5326226,10.7178413 C82.4321533,10.417211 82.3316854,10.2167939 82.2312161,10.1165838 C81.9632979,9.91616361 81.5363097,9.8076043 80.9502387,9.79090262 C80.3641677,9.77420094 79.7362438,9.79925309 79.0664483,9.86605981 C78.3966529,9.93286654 77.768729,10.0247244 77.182658,10.1416362 C76.596587,10.258548 76.1695988,10.3671073 75.9016806,10.4673173 C75.399334,10.6343342 74.9304842,10.8514528 74.4951171,11.1186797 C74.0597501,11.3859066 73.6243895,11.5863237 73.1890225,11.7199372 C72.820635,11.8535507 72.5192315,11.9955128 72.2848031,12.145828 C72.0503747,12.2961431 71.8578114,12.4381053 71.7071074,12.5717187 C71.5564034,12.7053322 71.4057017,12.8222422 71.2549977,12.9224523 C71.1042938,13.0226624 70.9284751,13.0894681 70.7275364,13.1228714 C70.493108,12.3879975 70.5014803,11.8786038 70.7526536,11.5946752 C71.003827,11.3107466 71.4308152,10.9850687 72.0336311,10.6176317 C73.0383243,10.0163712 73.9425346,9.57378327 74.7462892,9.28985468 C75.5500437,9.00592609 76.3454139,8.82221035 77.1324236,8.73870194 C77.9194333,8.65519354 78.7399204,8.65519354 79.5939096,8.73870194 C80.4478989,8.82221035 81.4442047,8.93076965 82.582857,9.06438311 C82.8842649,8.5299293 83.1521791,8.06228923 83.3866075,7.66144887 C83.6210359,7.26060851 83.9056947,6.90987846 84.2405925,6.60924819 C84.5754902,6.30861792 84.9689892,6.05809645 85.4211011,5.85767628 C85.873213,5.6572561 86.4676476,5.47354035 87.2044226,5.30652354 C88.3430749,5.03929663 89.5654333,4.98084162 90.8715345,5.13115676 C92.1776356,5.28147189 93.215803,5.67395552 93.9860678,6.30861942 C94.2874758,6.57584633 94.6307408,6.91822567 95.0158732,7.33576771 C95.4010056,7.75330975 95.6940367,8.18754695 95.8949754,8.63849236 C96.095914,9.08943776 96.1545202,9.5403764 96.0707958,9.9913218 C95.9870714,10.4422672 95.6438063,10.8180494 95.0409904,11.1186797 C93.8688484,11.6865368 92.7385855,11.9370583 91.6501678,11.8702516 C90.5617502,11.8034449 89.3310195,11.6698334 87.9579387,11.4694132 C88.1588774,12.2710939 88.5523763,12.8806962 89.1384474,13.2982382 C89.7245184,13.7157803 90.4194208,14.016406 91.2231753,14.2001245 C92.0269299,14.383843 92.8892786,14.4924023 93.8102474,14.5258057 C94.7312162,14.559209 95.6103095,14.5926119 96.4475539,14.6260153 L96.4475539,14.6260153 Z M87.5058291,8.56333516 C87.2044211,9.13119234 87.1123256,9.55707883 87.2295398,9.84100742 C87.346754,10.124936 87.5811789,10.3170025 87.9328215,10.4172126 C88.2844642,10.5174226 88.7030801,10.5675269 89.1886818,10.5675269 L90.6203624,10.5675269 C91.0222397,10.5675269 91.4492279,10.5424748 91.9013399,10.4923697 C92.3534518,10.4422647 92.7636954,10.3420561 93.1320829,10.191741 C93.5004704,10.0414258 93.7935015,9.84935939 94.011185,9.61553584 C94.2288686,9.3817123 94.3209641,9.06438511 94.2874743,8.66354475 C94.1200254,7.99547749 93.6762926,7.45268098 92.9562624,7.03513894 C92.2362323,6.6175969 91.491096,6.35872472 90.7208312,6.25851463 C90.2519744,6.1917079 89.8501032,6.20005862 89.5152054,6.28356703 C89.1803077,6.36707543 88.8956489,6.5090376 88.6612205,6.70945778 C88.4267921,6.90987796 88.2258564,7.16875014 88.0584076,7.48608209 C87.8909587,7.80341404 87.7067677,8.16249481 87.5058291,8.56333516 L87.5058291,8.56333516 Z M174.553689,23.9643012 C174.383661,24.2326578 174.160397,24.5353715 173.883895,24.8724457 C173.431783,25.4236012 173.071774,25.9329948 172.803856,26.4006419 C172.401978,27.1689193 172.125692,27.6950143 171.974988,27.9789429 C171.824284,28.2628715 171.681955,28.5217437 171.547995,28.7555672 C171.414036,28.9893908 171.229845,29.2733151 170.995417,29.6073487 C170.760988,29.9413824 170.359117,30.509231 169.789791,31.3109117 C169.588852,31.2775084 169.438151,31.2942098 169.337681,31.3610165 C169.237212,31.4278233 169.145117,31.5196811 169.061392,31.6365929 C168.977668,31.7535047 168.885572,31.8704147 168.785103,31.9873265 C168.684634,32.1042382 168.533932,32.1793947 168.332993,32.212798 C168.366483,31.8453611 168.324621,31.553086 168.207407,31.3359641 C168.090193,31.1188423 167.947864,30.9017237 167.780415,30.6846018 C167.612966,30.46748 167.420403,30.2086078 167.202719,29.9079775 C166.985035,29.6073472 166.775728,29.17311 166.574789,28.6052529 C166.40734,27.9371856 166.256638,27.2023226 166.122679,26.4006419 C165.98872,25.5989612 165.921742,24.8306954 165.921742,24.0958214 C165.854762,23.5279642 165.779411,22.8265041 165.695687,21.99142 C165.611962,21.1563359 165.49475,20.3129137 165.344046,19.4611279 C165.193342,18.6093422 165.025896,17.7993227 164.841702,17.0310454 C164.657508,16.262768 164.4482,15.678218 164.213772,15.2773776 C163.878874,14.7429238 163.560726,14.4005444 163.259318,14.2502293 C162.95791,14.0999142 162.639762,14.0498099 162.304864,14.0999149 C161.969966,14.15002 161.618329,14.2585793 161.249942,14.4255961 C160.881554,14.5926129 160.462938,14.7095229 159.994081,14.7763297 L159.692675,14.8765392 C159.592206,14.9099426 159.466621,15.0018005 159.315917,15.1521156 C159.165213,15.3024307 159.006139,15.4777958 158.83869,15.6782159 C158.671241,15.8786361 158.512167,16.0623519 158.361463,16.2293687 C158.210759,16.3963855 158.101919,16.5299969 158.034939,16.630207 C157.298164,17.6991147 156.753964,18.6427455 156.402321,19.4611279 C156.050678,20.2795103 155.791137,20.9976718 155.623688,21.6156341 C155.456239,22.2335963 155.339026,22.7596914 155.272047,23.1939351 C155.205067,23.6281788 155.087855,23.9622074 154.920406,24.196031 C154.819937,23.8619973 154.719469,23.5864237 154.619,23.3693019 C154.51853,23.15218 154.434807,22.8933078 154.367828,22.5926776 C154.267358,22.3254506 154.183635,22.0415263 154.116655,21.740896 C154.049676,21.4402658 153.949208,21.13964 153.815249,20.8390098 C153.71478,20.4715728 153.547333,20.229402 153.312905,20.1124902 C153.078477,19.9955785 152.827307,19.9538249 152.559389,19.9872283 C152.291471,20.0206316 152.031929,20.1041388 151.780755,20.2377522 C151.529582,20.3713657 151.320274,20.5216786 151.152825,20.6886954 C150.851417,20.9893256 150.566759,21.3818093 150.29884,21.866158 C150.030922,22.3505068 149.779753,22.8682512 149.545324,23.4194067 C149.310896,23.9705621 149.093216,24.5384108 148.892277,25.1229697 C148.691338,25.7075285 148.507147,26.2336236 148.339698,26.7012707 C147.971311,26.1334135 147.636418,25.3651477 147.33501,24.3964501 C147.033602,23.4277526 146.715454,22.5592782 146.380556,21.7910008 C146.112638,21.0895302 145.786118,20.2711601 145.400985,19.3358659 C145.015853,18.4005718 144.655843,17.5989031 144.320946,16.9308358 C144.120007,16.6302055 143.919071,16.2711248 143.718133,15.8535827 C143.517194,15.4360407 143.291142,15.0519078 143.039968,14.7011725 C142.788795,14.3504371 142.487392,14.0665128 142.135749,13.849391 C141.784106,13.6322691 141.357118,13.5571127 140.854771,13.6239194 C140.385915,13.6907261 139.975671,13.8326883 139.624028,14.0498101 C139.272386,14.266932 138.828653,14.3754913 138.292817,14.3754913 C137.924429,14.442298 137.648143,14.4339473 137.463949,14.3504389 C137.279755,14.2669305 137.087192,14.2418783 136.886253,14.2752817 C136.618335,14.3420884 136.392282,14.4088942 136.208089,14.4757009 C136.023895,14.5425076 135.814587,14.6093133 135.580159,14.6761201 L135.580159,16.4297879 C136.082505,16.8640316 136.484376,17.2732166 136.785784,17.6573553 C137.087192,18.041494 137.346734,18.4339776 137.564418,18.834818 C137.782101,19.2356583 137.999781,19.6615448 138.217465,20.1124902 C138.435149,20.5634356 138.711435,21.0561279 139.046333,21.5905817 C139.247271,22.0582288 139.448207,22.5926745 139.649146,23.1939351 C139.725619,23.4227637 139.794816,23.6443338 139.856737,23.8586463 C139.680121,24.1524339 139.435104,24.4903656 139.121684,24.8724457 C138.669572,25.4236012 138.309563,25.9329948 138.041645,26.4006419 C137.639767,27.1689193 137.363481,27.6950143 137.212777,27.9789429 C137.062073,28.2628715 136.919743,28.5217437 136.785784,28.7555672 C136.651825,28.9893908 136.467634,29.2733151 136.233206,29.6073487 C135.998777,29.9413824 135.596906,30.509231 135.02758,31.3109117 C134.826641,31.2775084 134.67594,31.2942098 134.57547,31.3610165 C134.475001,31.4278233 134.382906,31.5196811 134.299181,31.6365929 C134.215457,31.7535047 134.123361,31.8704147 134.022892,31.9873265 C133.922423,32.1042382 133.771721,32.1793947 133.570782,32.212798 C133.604272,31.8453611 133.56241,31.553086 133.445196,31.3359641 C133.327982,31.1188423 133.185653,30.9017237 133.018204,30.6846018 C132.850755,30.46748 132.658191,30.2086078 132.440508,29.9079775 C132.222824,29.6073472 132.013516,29.17311 131.812578,28.6052529 C131.645129,27.9371856 131.494427,27.2023226 131.360468,26.4006419 C131.226509,25.5989612 131.159531,24.8306954 131.159531,24.0958214 C131.092551,23.5279642 131.0172,22.8265041 130.933476,21.99142 C130.849751,21.1563359 130.732539,20.3129137 130.581835,19.4611279 C130.431131,18.6093422 130.263684,17.7993227 130.079491,17.0310454 C129.895297,16.262768 129.685989,15.678218 129.451561,15.2773776 C129.116663,14.7429238 128.798515,14.4005444 128.497107,14.2502293 C128.195699,14.0999142 127.877551,14.0498099 127.542653,14.0999149 C127.207755,14.15002 126.856118,14.2585793 126.48773,14.4255961 C126.119343,14.5926129 125.700727,14.7095229 125.23187,14.7763297 L124.930464,14.8765392 C124.829994,14.9099426 124.70441,15.0018005 124.553706,15.1521156 C124.403002,15.3024307 124.243928,15.4777958 124.076479,15.6782159 C123.90903,15.8786361 123.749956,16.0623519 123.599252,16.2293687 C123.448548,16.3963855 123.339708,16.5299969 123.272728,16.630207 C122.535953,17.6991147 121.991753,18.6427455 121.64011,19.4611279 C121.288467,20.2795103 121.028926,20.9976718 120.861477,21.6156341 C120.694028,22.2335963 120.576815,22.7596914 120.509836,23.1939351 C120.442856,23.6281788 120.325644,23.9622074 120.158195,24.196031 C120.057726,23.8619973 119.957258,23.5864237 119.856788,23.3693019 C119.756319,23.15218 119.672596,22.8933078 119.605616,22.5926776 C119.505147,22.3254506 119.421424,22.0415263 119.354444,21.740896 C119.287465,21.4402658 119.186997,21.13964 119.053038,20.8390098 C118.952569,20.4715728 118.785122,20.229402 118.550694,20.1124902 C118.316265,19.9955785 118.065096,19.9538249 117.797178,19.9872283 C117.52926,20.0206316 117.269718,20.1041388 117.018544,20.2377522 C116.767371,20.3713657 116.558063,20.5216786 116.390614,20.6886954 C116.089206,20.9893256 115.804548,21.3818093 115.536629,21.866158 C115.268711,22.3505068 115.017542,22.8682512 114.783113,23.4194067 C114.548685,23.9705621 114.331005,24.5384108 114.130066,25.1229697 C113.929127,25.7075285 113.744936,26.2336236 113.577487,26.7012707 C113.2091,26.1334135 112.874207,25.3651477 112.572799,24.3964501 C112.271391,23.4277526 111.953243,22.5592782 111.618345,21.7910008 C111.350427,21.0895302 111.023907,20.2711601 110.638774,19.3358659 C110.253642,18.4005718 109.893632,17.5989031 109.558735,16.9308358 C109.357796,16.6302055 109.15686,16.2711248 108.955922,15.8535827 C108.754983,15.4360407 108.528931,15.0519078 108.277757,14.7011725 C108.026584,14.3504371 107.72518,14.0665128 107.373538,13.849391 C107.021895,13.6322691 106.594907,13.5571127 106.09256,13.6239194 C105.623704,13.6907261 105.21346,13.8326883 104.861817,14.0498101 C104.510175,14.266932 104.066442,14.3754913 103.530606,14.3754913 C103.162218,14.442298 102.885932,14.4339473 102.701738,14.3504389 C102.517544,14.2669305 102.324981,14.2418783 102.124042,14.2752817 C101.856124,14.3420884 101.630071,14.4088942 101.445878,14.4757009 C101.261684,14.5425076 101.052376,14.6093133 100.817947,14.6761201 L100.817947,16.4297879 C101.320294,16.8640316 101.722165,17.2732166 102.023573,17.6573553 C102.324981,18.041494 102.584523,18.4339776 102.802207,18.834818 C103.01989,19.2356583 103.23757,19.6615448 103.455254,20.1124902 C103.672937,20.5634356 103.949224,21.0561279 104.284122,21.5905817 C104.48506,22.0582288 104.685996,22.5926745 104.886935,23.1939351 C105.087873,23.7951956 105.238575,24.3463428 105.339044,24.8473933 C105.473003,25.4820572 105.632077,26.0415551 105.816271,26.5259039 C106.000465,27.0102527 106.176284,27.586452 106.343732,28.2545193 C106.67863,29.4904437 107.055384,30.5760368 107.474007,31.5113309 C107.892629,32.4466251 108.453574,33.3150995 109.156859,34.1167802 C109.692696,34.7514441 110.128056,35.1272263 110.462954,35.2441381 C110.797852,35.3610499 111.249957,35.4195049 111.819283,35.4195049 C112.455589,35.4863116 112.907694,35.4779609 113.175612,35.3944525 C113.44353,35.3109441 113.636094,35.2107355 113.753308,35.0938237 C113.870522,34.9769119 113.987734,34.8433005 114.104949,34.6929854 C114.222163,34.5426702 114.481705,34.4341109 114.883582,34.3673042 C114.883582,33.9998672 114.950561,33.5906821 115.08452,33.1397367 C115.218479,32.6887913 115.184989,32.0457862 114.984051,31.2107022 C114.850092,30.8432652 114.783113,30.3756251 114.783113,29.8077679 C114.783113,29.2399107 114.816602,28.7889721 114.883582,28.4549385 C114.950562,28.2211149 115.034285,28.0373992 115.134754,27.9037857 C115.235223,27.7701723 115.335691,27.6532623 115.436161,27.5530522 C115.53663,27.4528421 115.64547,27.3359321 115.762684,27.2023186 C115.879898,27.0687052 116.005483,26.868288 116.139442,26.6010611 C116.239912,26.3672375 116.323635,26.208574 116.390614,26.1250655 C116.457594,26.0415571 116.532945,25.9747514 116.616669,25.9246464 C116.700394,25.8745413 116.784117,25.824437 116.867841,25.774332 C116.951566,25.7242269 117.07715,25.6156676 117.244599,25.4486508 C117.512517,25.1814239 117.688336,25.031111 117.772061,24.9977077 C117.855785,24.9643043 118.148816,24.9142 118.651163,24.8473933 C118.684652,25.3150404 118.734886,25.6156661 118.801866,25.7492796 C118.868845,25.882893 118.927452,26.0332059 118.977686,26.2002227 C119.027921,26.3672396 119.086527,26.6595146 119.153507,27.0770566 C119.220486,27.4945987 119.304209,28.2211109 119.404679,29.2566152 C119.471658,29.7576656 119.580498,30.0833435 119.731202,30.2336587 C119.881906,30.3839738 120.091214,30.5927417 120.359133,30.8599686 C120.69403,31.1940022 120.953572,31.3693673 121.137766,31.3860689 C121.32196,31.4027706 121.64848,31.2274056 122.117337,30.8599686 C122.117337,30.3923215 122.075475,30.0582929 121.991751,29.8578727 C121.908026,29.6574525 121.866165,29.4069311 121.866165,29.1063008 L121.966634,27.102109 C121.966634,26.7680754 121.941517,26.5175539 121.891282,26.3505371 C121.841047,26.1835203 121.807558,25.9998046 121.790813,25.7993844 C121.774068,25.5989642 121.782441,25.3317413 121.81593,24.9977077 C121.84942,24.663674 121.949888,24.1459297 122.117337,23.4444591 C122.217806,22.976812 122.360136,22.4507169 122.544329,21.866158 C122.728523,21.2815992 122.946203,20.7137505 123.197377,20.162595 C123.44855,19.6114395 123.708092,19.1103966 123.97601,18.6594512 C124.243928,18.2085058 124.511842,17.8661265 124.779761,17.6323029 C124.91372,17.9329332 125.005815,18.3170661 125.05605,18.7847132 C125.106284,19.2523603 125.131401,19.7367018 125.131401,20.2377522 C125.131401,20.7388027 125.123029,21.2398456 125.106284,21.740896 C125.089539,22.2419465 125.064422,22.6928851 125.030933,23.0937255 C125.030933,24.1626331 125.047677,25.1814204 125.081167,26.1501179 C125.114657,27.1188155 125.164891,28.1041999 125.23187,29.1063008 C125.26536,29.7743681 125.290477,30.3088139 125.307222,30.7096542 C125.323967,31.1104946 125.365828,31.4779261 125.432808,31.8119597 C125.499787,32.1459933 125.600255,32.4800219 125.734214,32.8140556 C125.868173,33.1480892 126.069109,33.5823264 126.337027,34.1167802 C126.638435,34.7514441 127.09054,35.3276435 127.693356,35.8453956 C128.296172,36.3631478 129.032936,36.6387214 129.90367,36.6721247 C130.740915,36.7055281 131.4107,36.6888267 131.913047,36.6220199 C132.415393,36.5552132 132.834009,36.4383032 133.168907,36.2712864 C133.503805,36.1042696 133.81358,35.8788002 134.098243,35.5948717 C134.382907,35.3109431 134.759661,34.9518623 135.228518,34.5176186 C135.563415,34.2169883 135.814585,33.9414147 135.982034,33.6908895 C136.149483,33.4403643 136.28344,33.1898428 136.383909,32.9393176 C136.484378,32.6887923 136.593219,32.4132187 136.710433,32.1125885 C136.827647,31.8119582 137.02021,31.4445267 137.288128,31.010283 L138.192348,29.6073487 C138.560735,28.9058781 139.021213,28.1125601 139.573794,27.227371 C139.873417,26.7474008 140.136114,26.2993516 140.361888,25.8832196 C140.429749,26.1104231 140.501947,26.3246508 140.578482,26.5259039 C140.762676,27.0102527 140.938495,27.586452 141.105944,28.2545193 C141.440841,29.4904437 141.817596,30.5760368 142.236218,31.5113309 C142.65484,32.4466251 143.215785,33.3150995 143.91907,34.1167802 C144.454907,34.7514441 144.890267,35.1272263 145.225165,35.2441381 C145.560063,35.3610499 146.012168,35.4195049 146.581494,35.4195049 C147.2178,35.4863116 147.669905,35.4779609 147.937823,35.3944525 C148.205741,35.3109441 148.398305,35.2107355 148.515519,35.0938237 C148.632733,34.9769119 148.749946,34.8433005 148.86716,34.6929854 C148.984374,34.5426702 149.243916,34.4341109 149.645793,34.3673042 C149.645793,33.9998672 149.712772,33.5906821 149.846731,33.1397367 C149.98069,32.6887913 149.947201,32.0457862 149.746262,31.2107022 C149.612303,30.8432652 149.545324,30.3756251 149.545324,29.8077679 C149.545324,29.2399107 149.578814,28.7889721 149.645793,28.4549385 C149.712773,28.2211149 149.796496,28.0373992 149.896965,27.9037857 C149.997434,27.7701723 150.097902,27.6532623 150.198372,27.5530522 C150.298841,27.4528421 150.407681,27.3359321 150.524895,27.2023186 C150.642109,27.0687052 150.767694,26.868288 150.901653,26.6010611 C151.002123,26.3672375 151.085846,26.208574 151.152825,26.1250655 C151.219805,26.0415571 151.295156,25.9747514 151.37888,25.9246464 C151.462605,25.8745413 151.546328,25.824437 151.630052,25.774332 C151.713777,25.7242269 151.839361,25.6156676 152.00681,25.4486508 C152.274728,25.1814239 152.450547,25.031111 152.534272,24.9977077 C152.617996,24.9643043 152.911027,24.9142 153.413374,24.8473933 C153.446864,25.3150404 153.497097,25.6156661 153.564077,25.7492796 C153.631057,25.882893 153.689663,26.0332059 153.739897,26.2002227 C153.790132,26.3672396 153.848738,26.6595146 153.915718,27.0770566 C153.982697,27.4945987 154.066421,28.2211109 154.16689,29.2566152 C154.233869,29.7576656 154.34271,30.0833435 154.493414,30.2336587 C154.644118,30.3839738 154.853425,30.5927417 155.121344,30.8599686 C155.456241,31.1940022 155.715783,31.3693673 155.899977,31.3860689 C156.084171,31.4027706 156.410691,31.2274056 156.879548,30.8599686 C156.879548,30.3923215 156.837686,30.0582929 156.753962,29.8578727 C156.670238,29.6574525 156.628376,29.4069311 156.628376,29.1063008 L156.728845,27.102109 C156.728845,26.7680754 156.703728,26.5175539 156.653493,26.3505371 C156.603258,26.1835203 156.569769,25.9998046 156.553024,25.7993844 C156.536279,25.5989642 156.544652,25.3317413 156.578142,24.9977077 C156.611631,24.663674 156.712099,24.1459297 156.879548,23.4444591 C156.980017,22.976812 157.122347,22.4507169 157.30654,21.866158 C157.490734,21.2815992 157.708414,20.7137505 157.959588,20.162595 C158.210761,19.6114395 158.470303,19.1103966 158.738221,18.6594512 C159.006139,18.2085058 159.274053,17.8661265 159.541972,17.6323029 C159.675931,17.9329332 159.768026,18.3170661 159.818261,18.7847132 C159.868496,19.2523603 159.893613,19.7367018 159.893613,20.2377522 C159.893613,20.7388027 159.88524,21.2398456 159.868495,21.740896 C159.85175,22.2419465 159.826633,22.6928851 159.793144,23.0937255 C159.793144,24.1626331 159.809888,25.1814204 159.843378,26.1501179 C159.876868,27.1188155 159.927102,28.1041999 159.994081,29.1063008 C160.027571,29.7743681 160.052688,30.3088139 160.069433,30.7096542 C160.086178,31.1104946 160.128039,31.4779261 160.195019,31.8119597 C160.261999,32.1459933 160.362466,32.4800219 160.496425,32.8140556 C160.630385,33.1480892 160.83132,33.5823264 161.099238,34.1167802 C161.400646,34.7514441 161.852751,35.3276435 162.455567,35.8453956 C163.058383,36.3631478 163.795147,36.6387214 164.665881,36.6721247 C165.503126,36.7055281 166.172911,36.6888267 166.675258,36.6220199 C167.177604,36.5552132 167.59622,36.4383032 167.931118,36.2712864 C168.266016,36.1042696 168.575791,35.8788002 168.860455,35.5948717 C169.145118,35.3109431 169.521872,34.9518623 169.990729,34.5176186 C170.325626,34.2169883 170.576796,33.9414147 170.744245,33.6908895 C170.911694,33.4403643 171.045651,33.1898428 171.14612,32.9393176 C171.246589,32.6887923 171.35543,32.4132187 171.472644,32.1125885 C171.589858,31.8119582 171.782421,31.4445267 172.05034,31.010283 L172.954559,29.6073487 C173.098401,29.3334494 173.256284,29.0455467 173.428207,28.7436394 C173.383261,29.5727139 173.417944,30.3700082 173.532255,31.135545 C173.649469,31.920524 173.892266,32.5468277 174.260653,33.0144748 C174.696021,33.5155252 175.097892,33.8913074 175.466279,34.1418326 C175.834667,34.3923578 176.353751,34.5009171 177.023546,34.4675138 C177.559382,34.4341104 177.952881,34.3923568 178.204055,34.3422518 C178.455228,34.2921468 178.647791,34.2420425 178.78175,34.1919374 C178.915709,34.1418324 179.007805,34.0750266 179.05804,33.9915182 C179.108274,33.9080098 179.20037,33.7994505 179.334329,33.6658371 C179.501778,33.565627 179.627362,33.4904705 179.711087,33.4403655 C179.794811,33.3902605 179.920396,33.3318055 180.087845,33.2649987 L182.097221,31.0603878 C182.398629,31.3276147 182.633054,31.5948376 182.800503,31.8620645 C182.967952,32.1292914 183.127026,32.404865 183.27773,32.6887936 C183.428434,32.9727222 183.620997,33.2733479 183.855426,33.5906799 C184.089854,33.9080118 184.408002,34.2503912 184.809879,34.6178282 C184.943838,34.7180383 185.044306,34.7931947 185.111286,34.8432997 C185.178265,34.8934048 185.295478,35.0019641 185.462927,35.1689809 C185.663865,35.3694011 185.806195,35.5113632 185.889919,35.5948717 C185.973644,35.6783801 186.057367,35.7451858 186.141091,35.7952908 C186.224816,35.8453959 186.316911,35.8955002 186.41738,35.9456052 C186.51785,35.9957103 186.685296,36.0875681 186.919725,36.2211816 C187.355092,36.4550051 187.715101,36.6303702 187.999764,36.7472819 C188.284427,36.8641937 188.552342,36.9393501 188.803515,36.9727535 C189.054688,37.0061569 189.330975,36.9894554 189.632383,36.9226487 C189.933791,36.855842 190.318917,36.738932 190.787774,36.5719151 C191.825957,36.2712849 192.562721,36.0124127 192.998088,35.7952908 C193.433455,35.578169 193.718114,35.3526997 193.852073,35.1188761 C193.986032,34.8850526 194.069755,34.6345311 194.103245,34.3673042 C194.136735,34.1000773 194.270692,33.7660487 194.50512,33.3652083 C194.672569,33.0311747 194.789782,32.8140561 194.856761,32.713846 C194.923741,32.6136359 194.965602,32.5635316 194.982347,32.5635316 C194.999092,32.5635316 195.015837,32.5551809 195.032582,32.5384792 C195.049327,32.5217775 195.107933,32.4299197 195.208402,32.2629028 L196.162856,30.6094446 C196.397284,30.1752009 196.614965,29.6992101 196.815903,29.181458 C197.016842,28.6637059 197.167544,28.1543122 197.268013,27.6532618 C197.301503,27.4528416 197.385226,27.1355144 197.519185,26.7012707 C197.653144,26.267027 197.770356,25.8411405 197.870826,25.4235984 C197.971295,25.0060564 198.013157,24.6219235 197.996412,24.2711882 C197.979667,23.9204528 197.820593,23.711685 197.519185,23.6448782 C197.251267,23.6114749 197.033586,23.6782806 196.866138,23.8452974 C196.698689,24.0123142 196.556359,24.254485 196.439145,24.5718169 C196.321931,24.8891489 196.196346,25.2732818 196.062387,25.7242272 C195.928428,26.1751726 195.760982,26.6678648 195.560043,27.2023186 C195.493063,27.5697556 195.40934,27.8703814 195.308871,28.1042049 C195.208402,28.3380285 195.107934,28.6386542 195.007464,29.0060912 C194.873505,29.4069316 194.722804,29.6908559 194.555355,29.8578727 C194.387906,30.0248895 194.22046,30.2921124 194.053011,30.6595494 C193.651133,31.1271965 193.391592,31.5196801 193.274377,31.8370121 C193.157163,32.154344 193.07344,32.4048655 193.023205,32.588584 C192.972971,32.7723025 192.86413,32.9059139 192.696682,32.9894224 C192.529233,33.0729308 192.19434,33.1146843 191.691993,33.1146843 C191.591524,33.1146843 191.43245,33.0979829 191.214767,33.0645795 C190.997083,33.0311762 190.77103,32.9977733 190.536602,32.96437 C190.302174,32.9309666 190.076121,32.8975637 189.858438,32.8641604 C189.640754,32.830757 189.515169,32.8140556 189.481679,32.8140556 C189.213761,32.7138455 189.004453,32.5134283 188.853749,32.212798 C188.703045,31.9121678 188.543971,31.611542 188.376522,31.3109117 C188.209074,30.8432647 188.075116,30.4340796 187.974647,30.0833443 C187.874178,29.732609 187.790455,29.4069311 187.723475,29.1063008 C187.656496,28.8056705 187.589517,28.5133955 187.522537,28.2294669 C187.455558,27.9455383 187.371835,27.6532633 187.271365,27.352633 C187.103917,26.6845657 187.003449,26.0165085 186.969959,25.3484412 C186.936469,24.680374 186.819257,23.9956153 186.618318,23.2941447 C186.450869,22.592674 186.249934,21.8160575 186.015505,20.9642717 C185.781077,20.112486 185.446184,19.3358694 185.010817,18.6343988 C184.57545,17.9329282 184.006132,17.3984824 183.302847,17.0310454 C182.599562,16.6636084 181.712096,16.5968027 180.640423,16.8306262 C180.004118,16.9642397 179.610619,17.0560975 179.459915,17.1062026 C179.309211,17.1563076 179.23386,17.1980612 179.23386,17.2314646 L179.23386,17.3316742 C179.23386,17.3650775 179.083158,17.4318832 178.78175,17.5320933 C178.915709,17.6323034 178.99106,17.6991091 179.007805,17.7325125 C179.02455,17.7659159 179.032922,17.7993187 179.032922,17.8327221 C179.032922,17.8661255 179.041295,17.9245805 179.05804,18.0080889 C179.074784,18.0915973 179.16688,18.216858 179.334329,18.3838748 C179.434798,18.5508917 179.510149,18.6845031 179.560384,18.7847132 C179.610618,18.8849233 179.660852,18.9851319 179.711087,19.085342 C179.761322,19.185552 179.836672,19.2941113 179.937142,19.4110231 C180.037611,19.5279349 180.205057,19.6865985 180.439486,19.8870187 C179.568752,19.9538254 178.84036,20.0790861 178.254289,20.2628046 C177.668218,20.4465231 177.157507,20.7053953 176.72214,21.0394289 C176.286772,21.3734626 175.893274,21.7909983 175.541631,22.2920488 C175.219348,22.7512651 174.890037,23.3086778 174.553689,23.9643012 Z M180.94183,21.9413152 C181.042299,21.4402648 181.11765,21.0978854 181.167885,20.9141669 C181.218119,20.7304484 181.226492,20.6302399 181.193002,20.6135382 C181.159512,20.5968365 181.067417,20.6218886 180.916713,20.6886954 C180.766009,20.7555021 180.523212,20.7722035 180.188314,20.7388002 C179.819926,20.7053968 179.518523,20.6803447 179.284094,20.663643 C179.049666,20.6469413 178.823613,20.6803442 178.60593,20.7638526 C178.388246,20.847361 178.170566,21.0060246 177.952883,21.2398481 C177.735199,21.4736716 177.458913,21.8244017 177.124015,22.2920488 C176.990056,22.4590656 176.948194,22.5843263 176.998429,22.6678347 C177.048663,22.7513432 177.006802,22.9768125 176.872843,23.3442495 C176.805863,23.6782831 176.72214,23.8954017 176.621671,23.9956118 C176.521201,24.0958219 176.437478,24.2795376 176.370499,24.5467645 C176.303519,24.9476049 176.253285,25.4402971 176.219795,26.024856 C176.186306,26.6094148 176.303518,27.0520027 176.571436,27.352633 C176.772375,27.5196498 176.906332,27.661612 176.973312,27.7785238 C177.040291,27.8954355 177.157504,28.0039948 177.324952,28.1042049 C177.559381,28.0708016 177.860784,27.8787351 178.229172,27.5279998 C178.597559,27.1772645 178.882218,26.9183923 179.083157,26.7513755 C179.451544,26.3839385 179.736203,26.0248577 179.937142,25.6741224 C180.13808,25.3233871 180.297154,24.9559556 180.414369,24.5718169 C180.531583,24.1876782 180.623678,23.7784932 180.690658,23.3442495 C180.757637,22.9100057 180.841361,22.4423657 180.94183,21.9413152 L180.94183,21.9413152 Z" id="My-Emma" fill="#E62565"></path>
    </g>
</svg>