<?xml version="1.0" encoding="utf-8"?>
<!-- Generator: Adobe Illustrator 19.1.0, SVG Export Plug-In . SVG Version: 6.00 Build 0)  -->
<svg version="1.1"
	 id="svg3006" inkscape:export-ydpi="10.791795" inkscape:export-filename="/mnt/hgfs/Helmut auf meinem Mac/Documents/Marketing/Branding/S-Bahn/147x42.png" sodipodi:docname="Agrista Logo (RGB).svg" inkscape:export-xdpi="10.791795" inkscape:version="0.47 r22583" xmlns:svg="http://www.w3.org/2000/svg" xmlns:cc="http://creativecommons.org/ns#" xmlns:inkscape="http://www.inkscape.org/namespaces/inkscape" xmlns:sodipodi="http://sodipodi.sourceforge.net/DTD/sodipodi-0.dtd" xmlns:rdf="http://www.w3.org/1999/02/22-rdf-syntax-ns#" xmlns:dc="http://purl.org/dc/elements/1.1/"
	 xmlns="http://www.w3.org/2000/svg" xmlns:xlink="http://www.w3.org/1999/xlink" x="0px" y="0px" viewBox="7.067 -3.367 1225 350"
	 enable-background="new 7.067 -3.367 1225 350" xml:space="preserve">
<defs>
	
	
		<inkscape:perspective  inkscape:persp3d-origin="0.5 : 0.33333333 : 1" sodipodi:type="inkscape:persp3d" inkscape:vp_z="1 : 0.5 : 1" inkscape:vp_x="0 : 0.5 : 1" id="perspective3014" inkscape:vp_y="0 : 1000 : 0">
		</inkscape:perspective>
	
		<inkscape:perspective  inkscape:persp3d-origin="0.5 : 0.33333333 : 1" sodipodi:type="inkscape:persp3d" inkscape:vp_z="1 : 0.5 : 1" inkscape:vp_x="0 : 0.5 : 1" id="perspective4531" inkscape:vp_y="0 : 1000 : 0">
		</inkscape:perspective>
	
		<inkscape:perspective  inkscape:persp3d-origin="0.5 : 0.33333333 : 1" sodipodi:type="inkscape:persp3d" inkscape:vp_z="1 : 0.5 : 1" inkscape:vp_x="0 : 0.5 : 1" id="perspective4556" inkscape:vp_y="0 : 1000 : 0">
		</inkscape:perspective>
	
		<inkscape:perspective  inkscape:persp3d-origin="0.5 : 0.33333333 : 1" sodipodi:type="inkscape:persp3d" inkscape:vp_z="1 : 0.5 : 1" inkscape:vp_x="0 : 0.5 : 1" id="perspective4618" inkscape:vp_y="0 : 1000 : 0">
		</inkscape:perspective>
	
		<inkscape:perspective  inkscape:persp3d-origin="0.5 : 0.33333333 : 1" sodipodi:type="inkscape:persp3d" inkscape:vp_z="1 : 0.5 : 1" inkscape:vp_x="0 : 0.5 : 1" id="perspective4649" inkscape:vp_y="0 : 1000 : 0">
		</inkscape:perspective>
	
		<inkscape:perspective  inkscape:persp3d-origin="0.5 : 0.33333333 : 1" sodipodi:type="inkscape:persp3d" inkscape:vp_z="1 : 0.5 : 1" inkscape:vp_x="0 : 0.5 : 1" id="perspective4674" inkscape:vp_y="0 : 1000 : 0">
		</inkscape:perspective>
	
		<inkscape:perspective  inkscape:persp3d-origin="0.5 : 0.33333333 : 1" sodipodi:type="inkscape:persp3d" inkscape:vp_z="1 : 0.5 : 1" inkscape:vp_x="0 : 0.5 : 1" id="perspective4674-9" inkscape:vp_y="0 : 1000 : 0">
		</inkscape:perspective>
	
		<inkscape:perspective  inkscape:persp3d-origin="0.5 : 0.33333333 : 1" sodipodi:type="inkscape:persp3d" inkscape:vp_z="1 : 0.5 : 1" inkscape:vp_x="0 : 0.5 : 1" id="perspective4712" inkscape:vp_y="0 : 1000 : 0">
		</inkscape:perspective>
	
		<inkscape:perspective  inkscape:persp3d-origin="0.5 : 0.33333333 : 1" sodipodi:type="inkscape:persp3d" inkscape:vp_z="1 : 0.5 : 1" inkscape:vp_x="0 : 0.5 : 1" id="perspective4737" inkscape:vp_y="0 : 1000 : 0">
		</inkscape:perspective>
	
		<inkscape:perspective  inkscape:persp3d-origin="0.5 : 0.33333333 : 1" sodipodi:type="inkscape:persp3d" inkscape:vp_z="1 : 0.5 : 1" inkscape:vp_x="0 : 0.5 : 1" id="perspective4776" inkscape:vp_y="0 : 1000 : 0">
		</inkscape:perspective>
	
		<inkscape:perspective  inkscape:persp3d-origin="0.5 : 0.33333333 : 1" sodipodi:type="inkscape:persp3d" inkscape:vp_z="1 : 0.5 : 1" inkscape:vp_x="0 : 0.5 : 1" id="perspective4809" inkscape:vp_y="0 : 1000 : 0">
		</inkscape:perspective>
	
		<inkscape:perspective  inkscape:persp3d-origin="0.5 : 0.33333333 : 1" sodipodi:type="inkscape:persp3d" inkscape:vp_z="1 : 0.5 : 1" inkscape:vp_x="0 : 0.5 : 1" id="perspective5114" inkscape:vp_y="0 : 1000 : 0">
		</inkscape:perspective>
	
		<inkscape:perspective  inkscape:persp3d-origin="0.5 : 0.33333333 : 1" sodipodi:type="inkscape:persp3d" inkscape:vp_z="1 : 0.5 : 1" inkscape:vp_x="0 : 0.5 : 1" id="perspective5145" inkscape:vp_y="0 : 1000 : 0">
		</inkscape:perspective>
	
		<inkscape:perspective  inkscape:persp3d-origin="0.5 : 0.33333333 : 1" sodipodi:type="inkscape:persp3d" inkscape:vp_z="1 : 0.5 : 1" inkscape:vp_x="0 : 0.5 : 1" id="perspective5176" inkscape:vp_y="0 : 1000 : 0">
		</inkscape:perspective>
	
		<inkscape:perspective  inkscape:persp3d-origin="0.5 : 0.33333333 : 1" sodipodi:type="inkscape:persp3d" inkscape:vp_z="1 : 0.5 : 1" inkscape:vp_x="0 : 0.5 : 1" id="perspective5209" inkscape:vp_y="0 : 1000 : 0">
		</inkscape:perspective>
	
		<inkscape:perspective  inkscape:persp3d-origin="0.5 : 0.33333333 : 1" sodipodi:type="inkscape:persp3d" inkscape:vp_z="1 : 0.5 : 1" inkscape:vp_x="0 : 0.5 : 1" id="perspective5328" inkscape:vp_y="0 : 1000 : 0">
		</inkscape:perspective>
	
		<inkscape:perspective  inkscape:persp3d-origin="0.5 : 0.33333333 : 1" sodipodi:type="inkscape:persp3d" inkscape:vp_z="1 : 0.5 : 1" inkscape:vp_x="0 : 0.5 : 1" id="perspective5359" inkscape:vp_y="0 : 1000 : 0">
		</inkscape:perspective>
	
		<inkscape:perspective  inkscape:persp3d-origin="0.5 : 0.33333333 : 1" sodipodi:type="inkscape:persp3d" inkscape:vp_z="1 : 0.5 : 1" inkscape:vp_x="0 : 0.5 : 1" id="perspective5390" inkscape:vp_y="0 : 1000 : 0">
		</inkscape:perspective>
	
		<inkscape:perspective  inkscape:persp3d-origin="0.5 : 0.33333333 : 1" sodipodi:type="inkscape:persp3d" inkscape:vp_z="1 : 0.5 : 1" inkscape:vp_x="0 : 0.5 : 1" id="perspective5427" inkscape:vp_y="0 : 1000 : 0">
		</inkscape:perspective>
	
		<inkscape:perspective  inkscape:persp3d-origin="0.5 : 0.33333333 : 1" sodipodi:type="inkscape:persp3d" inkscape:vp_z="1 : 0.5 : 1" inkscape:vp_x="0 : 0.5 : 1" id="perspective5548" inkscape:vp_y="0 : 1000 : 0">
		</inkscape:perspective>
	
		<inkscape:perspective  inkscape:persp3d-origin="0.5 : 0.33333333 : 1" sodipodi:type="inkscape:persp3d" inkscape:vp_z="1 : 0.5 : 1" inkscape:vp_x="0 : 0.5 : 1" id="perspective5601" inkscape:vp_y="0 : 1000 : 0">
		</inkscape:perspective>
	
		<inkscape:perspective  inkscape:persp3d-origin="0.5 : 0.33333333 : 1" sodipodi:type="inkscape:persp3d" inkscape:vp_z="1 : 0.5 : 1" inkscape:vp_x="0 : 0.5 : 1" id="perspective5601-0" inkscape:vp_y="0 : 1000 : 0">
		</inkscape:perspective>
	
		<inkscape:perspective  inkscape:persp3d-origin="0.5 : 0.33333333 : 1" sodipodi:type="inkscape:persp3d" inkscape:vp_z="1 : 0.5 : 1" inkscape:vp_x="0 : 0.5 : 1" id="perspective5601-1" inkscape:vp_y="0 : 1000 : 0">
		</inkscape:perspective>
	
		<inkscape:perspective  inkscape:persp3d-origin="0.5 : 0.33333333 : 1" sodipodi:type="inkscape:persp3d" inkscape:vp_z="1 : 0.5 : 1" inkscape:vp_x="0 : 0.5 : 1" id="perspective5601-6" inkscape:vp_y="0 : 1000 : 0">
		</inkscape:perspective>
	
		<inkscape:perspective  inkscape:persp3d-origin="0.5 : 0.33333333 : 1" sodipodi:type="inkscape:persp3d" inkscape:vp_z="1 : 0.5 : 1" inkscape:vp_x="0 : 0.5 : 1" id="perspective5951" inkscape:vp_y="0 : 1000 : 0">
		</inkscape:perspective>
	
		<inkscape:perspective  inkscape:persp3d-origin="0.5 : 0.33333333 : 1" sodipodi:type="inkscape:persp3d" inkscape:vp_z="1 : 0.5 : 1" inkscape:vp_x="0 : 0.5 : 1" id="perspective6090" inkscape:vp_y="0 : 1000 : 0">
		</inkscape:perspective>
	
		<inkscape:perspective  inkscape:persp3d-origin="0.5 : 0.33333333 : 1" sodipodi:type="inkscape:persp3d" inkscape:vp_z="1 : 0.5 : 1" inkscape:vp_x="0 : 0.5 : 1" id="perspective6121" inkscape:vp_y="0 : 1000 : 0">
		</inkscape:perspective>
	
		<inkscape:perspective  inkscape:persp3d-origin="0.5 : 0.33333333 : 1" sodipodi:type="inkscape:persp3d" inkscape:vp_z="1 : 0.5 : 1" inkscape:vp_x="0 : 0.5 : 1" id="perspective6152" inkscape:vp_y="0 : 1000 : 0">
		</inkscape:perspective>
	
		<inkscape:perspective  inkscape:persp3d-origin="0.5 : 0.33333333 : 1" sodipodi:type="inkscape:persp3d" inkscape:vp_z="1 : 0.5 : 1" inkscape:vp_x="0 : 0.5 : 1" id="perspective6195" inkscape:vp_y="0 : 1000 : 0">
		</inkscape:perspective>
	
		<inkscape:perspective  inkscape:persp3d-origin="0.5 : 0.33333333 : 1" sodipodi:type="inkscape:persp3d" inkscape:vp_z="1 : 0.5 : 1" inkscape:vp_x="0 : 0.5 : 1" id="perspective6256" inkscape:vp_y="0 : 1000 : 0">
		</inkscape:perspective>
</defs>
<sodipodi:namedview  inkscape:window-width="1430" inkscape:window-height="803" inkscape:pageshadow="2" inkscape:window-x="0" inkscape:snap-global="true" inkscape:window-maximized="0" inkscape:guide-bbox="true" inkscape:snap-bbox="true" inkscape:pageopacity="0" inkscape:current-layer="g3016" inkscape:snap-grids="true" inkscape:window-y="41" objecttolerance="10" guidetolerance="10" showgrid="false" gridtolerance="10" bordercolor="#666666" borderopacity="1" showguides="false" inkscape:cy="163.96358" pagecolor="#ffffff" inkscape:cx="629.78852" inkscape:zoom="0.43581081" id="namedview3008">
	<inkscape:grid  type="xygrid" snapvisiblegridlinesonly="true" empspacing="5" visible="true" enabled="true" id="grid4497">
		</inkscape:grid>
	<sodipodi:guide  position="60,225.2661" orientation="0,1" id="guide4499"></sodipodi:guide>
	<sodipodi:guide  position="75,218.2661" orientation="1,0" id="guide4501"></sodipodi:guide>
	<sodipodi:guide  position="79,200.2661" orientation="0,1" id="guide4503"></sodipodi:guide>
	<sodipodi:guide  position="100,212.2661" orientation="1,0" id="guide4505"></sodipodi:guide>
	<sodipodi:guide  position="125,224.2661" orientation="1,0" id="guide4507"></sodipodi:guide>
	<sodipodi:guide  position="150,223.2661" orientation="1,0" id="guide4573"></sodipodi:guide>
	<sodipodi:guide  position="175,203.2661" orientation="1,0" id="guide4575"></sodipodi:guide>
	<sodipodi:guide  position="167,175.2661" orientation="0,1" id="guide4577"></sodipodi:guide>
	<sodipodi:guide  position="166,150.2661" orientation="0,1" id="guide4579"></sodipodi:guide>
	<sodipodi:guide  position="165,125.2661" orientation="0,1" id="guide4581"></sodipodi:guide>
	<sodipodi:guide  position="155,275.2661" orientation="0,1" id="guide4606"></sodipodi:guide>
	<sodipodi:guide  position="200,240.2661" orientation="1,0" id="guide4608"></sodipodi:guide>
	<sodipodi:guide  position="225,242.52334" orientation="1,0" id="guide4635"></sodipodi:guide>
	<sodipodi:guide  position="250,240.2661" orientation="1,0" id="guide4637"></sodipodi:guide>
	<sodipodi:guide  position="275,240.2661" orientation="1,0" id="guide4639"></sodipodi:guide>
	<sodipodi:guide  position="135,100.2661" orientation="0,1" id="guide4702"></sodipodi:guide>
	<sodipodi:guide  position="210,75.266105" orientation="0,1" id="guide4766"></sodipodi:guide>
	<sodipodi:guide  position="300,180.2661" orientation="1,0" id="guide4799"></sodipodi:guide>
	<sodipodi:guide  position="325,85.266105" orientation="1,0" id="guide5084"></sodipodi:guide>
	<sodipodi:guide  position="350,75.266105" orientation="1,0" id="guide5086"></sodipodi:guide>
	<sodipodi:guide  position="375,65.266105" orientation="1,0" id="guide5088"></sodipodi:guide>
	<sodipodi:guide  position="400,75.266105" orientation="1,0" id="guide5090"></sodipodi:guide>
	<sodipodi:guide  position="425,65.266105" orientation="1,0" id="guide5092"></sodipodi:guide>
	<sodipodi:guide  position="450,250.2661" orientation="1,0" id="guide5094"></sodipodi:guide>
	<sodipodi:guide  position="475,85.266105" orientation="1,0" id="guide5096"></sodipodi:guide>
	<sodipodi:guide  position="500,40.266105" orientation="1,0" id="guide5098"></sodipodi:guide>
	<sodipodi:guide  position="415,50.266105" orientation="0,1" id="guide5100"></sodipodi:guide>
	<sodipodi:guide  position="450,25.266105" orientation="0,1" id="guide5102"></sodipodi:guide>
	<sodipodi:guide  position="490,0.26610484" orientation="0,1" id="guide5104"></sodipodi:guide>
	<sodipodi:guide  position="525,210.2661" orientation="1,0" id="guide5193"></sodipodi:guide>
	<sodipodi:guide  position="550,190.2661" orientation="1,0" id="guide5195"></sodipodi:guide>
	<sodipodi:guide  position="575,160.2661" orientation="1,0" id="guide5197"></sodipodi:guide>
	<sodipodi:guide  position="600,160.2661" orientation="1,0" id="guide5199"></sodipodi:guide>
	<sodipodi:guide  position="625,150.2661" orientation="1,0" id="guide5316"></sodipodi:guide>
	<sodipodi:guide  position="650,155.2661" orientation="1,0" id="guide5318"></sodipodi:guide>
	<sodipodi:guide  position="675,170.2661" orientation="1,0" id="guide5413"></sodipodi:guide>
	<sodipodi:guide  position="700,150.2661" orientation="1,0" id="guide5415"></sodipodi:guide>
	<sodipodi:guide  position="725,155.2661" orientation="1,0" id="guide5417"></sodipodi:guide>
	<sodipodi:guide  position="695,300.2661" orientation="0,1" id="guide5534"></sodipodi:guide>
	<sodipodi:guide  position="715,325.2661" orientation="0,1" id="guide5536"></sodipodi:guide>
	<sodipodi:guide  position="715,350.2661" orientation="0,1" id="guide5538"></sodipodi:guide>
	<sodipodi:guide  position="750,260.2661" orientation="1,0" id="guide5583"></sodipodi:guide>
	<sodipodi:guide  position="775,250.2661" orientation="1,0" id="guide5585"></sodipodi:guide>
	<sodipodi:guide  position="800,245.2661" orientation="1,0" id="guide5587"></sodipodi:guide>
	<sodipodi:guide  position="825,245.2661" orientation="1,0" id="guide5589"></sodipodi:guide>
	<sodipodi:guide  position="850,240.2661" orientation="1,0" id="guide5591"></sodipodi:guide>
	<sodipodi:guide  position="875,95.266105" orientation="1,0" id="guide5850"></sodipodi:guide>
	<sodipodi:guide  position="900,70.266105" orientation="1,0" id="guide5852"></sodipodi:guide>
	<sodipodi:guide  position="920,250.2661" orientation="0,1" id="guide5925"></sodipodi:guide>
	<sodipodi:guide  position="925,115.2661" orientation="1,0" id="guide5927"></sodipodi:guide>
	<sodipodi:guide  position="950,60.266105" orientation="1,0" id="guide5929"></sodipodi:guide>
	<sodipodi:guide  position="975,255.2661" orientation="1,0" id="guide5931"></sodipodi:guide>
	<sodipodi:guide  position="1000,245.2661" orientation="1,0" id="guide5933"></sodipodi:guide>
	<sodipodi:guide  position="1025,250.2661" orientation="1,0" id="guide5935"></sodipodi:guide>
	<sodipodi:guide  position="1050,215.2661" orientation="1,0" id="guide5937"></sodipodi:guide>
	<sodipodi:guide  position="1075,220.2661" orientation="1,0" id="guide5939"></sodipodi:guide>
	<sodipodi:guide  position="1100,255.2661" orientation="1,0" id="guide5941"></sodipodi:guide>
	<sodipodi:guide  position="50,95.266105" orientation="1,0" id="guide6230"></sodipodi:guide>
	<sodipodi:guide  position="25,70.266105" orientation="1,0" id="guide6232"></sodipodi:guide>
	<sodipodi:guide  position="0,90.266105" orientation="1,0" id="guide6234"></sodipodi:guide>
	<sodipodi:guide  position="1125,125.2661" orientation="1,0" id="guide6236"></sodipodi:guide>
	<sodipodi:guide  position="1150,175.2661" orientation="1,0" id="guide6238"></sodipodi:guide>
	<sodipodi:guide  position="1175,195.2661" orientation="1,0" id="guide6240"></sodipodi:guide>
	<sodipodi:guide  position="1200,160.2661" orientation="1,0" id="guide6242"></sodipodi:guide>
	<sodipodi:guide  position="1225,120.2661" orientation="1,0" id="guide6244"></sodipodi:guide>
</sodipodi:namedview>
<circle fill="#689F38" cx="619.567" cy="9.133" r="12.5"/>
<circle fill="#689F38" cx="619.567" cy="34.133" r="12.5"/>
<circle fill="#689F38" cx="644.567" cy="9.133" r="12.5"/>
<circle fill="#689F38" cx="644.567" cy="34.133" r="12.5"/>
<circle fill="#689F38" cx="619.567" cy="84.133" r="12.5"/>
<circle fill="#689F38" cx="644.567" cy="84.133" r="12.5"/>
<circle fill="#689F38" cx="619.567" cy="109.133" r="12.5"/>
<circle fill="#689F38" cx="644.567" cy="109.133" r="12.5"/>
<circle fill="#689F38" cx="619.567" cy="134.133" r="12.5"/>
<circle fill="#689F38" cx="644.567" cy="134.133" r="12.5"/>
<circle fill="#689F38" cx="619.567" cy="159.133" r="12.5"/>
<circle fill="#689F38" cx="644.567" cy="159.133" r="12.5"/>
<circle fill="#689F38" cx="619.567" cy="184.133" r="12.5"/>
<circle fill="#689F38" cx="644.567" cy="184.133" r="12.5"/>
<circle fill="#689F38" cx="544.567" cy="84.133" r="12.5"/>
<circle fill="#689F38" cx="569.567" cy="84.133" r="12.5"/>
<circle fill="#689F38" cx="544.567" cy="109.133" r="12.5"/>
<circle fill="#689F38" cx="569.567" cy="109.133" r="12.5"/>
<circle fill="#689F38" cx="519.567" cy="109.133" r="12.5"/>
<circle fill="#689F38" cx="519.567" cy="134.133" r="12.5"/>
<circle fill="#689F38" cx="469.567" cy="84.133" r="12.5"/>
<circle fill="#689F38" cx="494.567" cy="84.133" r="12.5"/>
<circle fill="#689F38" cx="469.567" cy="109.133" r="12.5"/>
<circle fill="#689F38" cx="494.567" cy="109.133" r="12.5"/>
<circle fill="#689F38" cx="469.567" cy="134.133" r="12.5"/>
<circle fill="#689F38" cx="494.567" cy="134.133" r="12.5"/>
<circle fill="#689F38" cx="469.567" cy="159.133" r="12.5"/>
<circle fill="#689F38" cx="494.567" cy="159.133" r="12.5"/>
<circle fill="#689F38" cx="469.567" cy="184.133" r="12.5"/>
<circle fill="#689F38" cx="494.567" cy="184.133" r="12.5"/>
<circle fill="#689F38" cx="394.567" cy="84.133" r="12.5"/>
<circle fill="#689F38" cx="419.567" cy="84.133" r="12.5"/>
<circle fill="#689F38" cx="394.567" cy="109.133" r="12.5"/>
<circle fill="#689F38" cx="419.567" cy="109.133" r="12.5"/>
<circle fill="#689F38" cx="394.567" cy="134.133" r="12.5"/>
<circle fill="#689F38" cx="419.567" cy="134.133" r="12.5"/>
<circle fill="#689F38" cx="394.567" cy="159.133" r="12.5"/>
<circle fill="#689F38" cx="419.567" cy="159.133" r="12.5"/>
<circle fill="#689F38" cx="394.567" cy="184.133" r="12.5"/>
<circle fill="#689F38" cx="419.567" cy="184.133" r="12.5"/>
<circle fill="#689F38" cx="369.567" cy="109.133" r="12.5"/>
<circle fill="#689F38" cx="369.567" cy="134.133" r="12.5"/>
<circle fill="#689F38" cx="344.567" cy="84.133" r="12.5"/>
<circle fill="#689F38" cx="319.567" cy="84.133" r="12.5"/>
<circle fill="#689F38" cx="294.567" cy="84.133" r="12.5"/>
<circle fill="#689F38" cx="344.567" cy="109.133" r="12.5"/>
<circle fill="#689F38" cx="319.567" cy="109.133" r="12.5"/>
<circle fill="#689F38" cx="294.567" cy="109.133" r="12.5"/>
<circle fill="#689F38" cx="269.567" cy="109.133" r="12.5"/>
<circle fill="#689F38" cx="244.567" cy="134.133" r="12.5"/>
<circle fill="#689F38" cx="269.567" cy="134.133" r="12.5"/>
<circle fill="#689F38" cx="294.567" cy="134.133" r="12.5"/>
<circle fill="#689F38" cx="244.567" cy="159.133" r="12.5"/>
<circle fill="#689F38" cx="269.567" cy="159.133" r="12.5"/>
<circle fill="#689F38" cx="244.567" cy="184.133" r="12.5"/>
<circle fill="#689F38" cx="269.567" cy="184.133" r="12.5"/>
<circle fill="#689F38" cx="169.567" cy="84.133" r="12.5"/>
<circle fill="#689F38" cx="194.567" cy="84.133" r="12.5"/>
<circle fill="#689F38" cx="169.567" cy="109.133" r="12.5"/>
<circle fill="#689F38" cx="194.567" cy="109.133" r="12.5"/>
<circle fill="#689F38" cx="169.567" cy="134.133" r="12.5"/>
<circle fill="#689F38" cx="194.567" cy="134.133" r="12.5"/>
<circle fill="#689F38" cx="169.567" cy="159.133" r="12.5"/>
<circle fill="#689F38" cx="194.567" cy="159.133" r="12.5"/>
<circle fill="#689F38" cx="169.567" cy="184.133" r="12.5"/>
<circle fill="#689F38" cx="194.567" cy="184.133" r="12.5"/>
<circle fill="#689F38" cx="144.567" cy="109.133" r="12.5"/>
<circle fill="#689F38" cx="144.567" cy="134.133" r="12.5"/>
<circle fill="#689F38" cx="119.567" cy="84.133" r="12.5"/>
<circle fill="#689F38" cx="94.567" cy="84.133" r="12.5"/>
<circle fill="#689F38" cx="69.567" cy="84.133" r="12.5"/>
<circle fill="#689F38" cx="119.567" cy="109.133" r="12.5"/>
<circle fill="#689F38" cx="94.567" cy="109.133" r="12.5"/>
<circle fill="#689F38" cx="69.567" cy="109.133" r="12.5"/>
<circle fill="#689F38" cx="44.567" cy="109.133" r="12.5"/>
<circle fill="#689F38" cx="19.567" cy="134.133" r="12.5"/>
<circle fill="#689F38" cx="44.567" cy="134.133" r="12.5"/>
<circle fill="#689F38" cx="69.567" cy="134.133" r="12.5"/>
<circle fill="#689F38" cx="19.567" cy="159.133" r="12.5"/>
<circle fill="#689F38" cx="44.567" cy="159.133" r="12.5"/>
<circle fill="#689F38" cx="19.567" cy="184.133" r="12.5"/>
<circle fill="#689F38" cx="44.567" cy="184.133" r="12.5"/>
<circle fill="#689F38" cx="744.567" cy="84.133" r="12.5"/>
<circle fill="#689F38" cx="719.567" cy="84.133" r="12.5"/>
<circle fill="#689F38" cx="769.567" cy="84.133" r="12.5"/>
<circle fill="#689F38" cx="794.567" cy="84.133" r="12.5"/>
<circle fill="#689F38" cx="819.567" cy="84.133" r="12.5"/>
<circle fill="#689F38" cx="694.567" cy="109.133" r="12.5"/>
<circle fill="#689F38" cx="719.567" cy="109.133" r="12.5"/>
<circle fill="#689F38" cx="744.567" cy="109.133" r="12.5"/>
<circle fill="#689F38" cx="769.567" cy="109.133" r="12.5"/>
<circle fill="#689F38" cx="794.567" cy="109.133" r="12.5"/>
<circle fill="#689F38" cx="819.567" cy="109.133" r="12.5"/>
<circle fill="#689F38" cx="844.567" cy="109.133" r="12.5"/>
<circle fill="#689F38" cx="694.567" cy="134.133" r="12.5"/>
<circle fill="#689F38" cx="719.567" cy="134.133" r="12.5"/>
<circle fill="#689F38" cx="819.567" cy="134.133" r="12.5"/>
<circle fill="#689F38" cx="844.567" cy="134.133" r="12.5"/>
<circle fill="#689F38" cx="719.567" cy="159.133" r="12.5"/>
<circle fill="#689F38" cx="744.567" cy="159.133" r="12.5"/>
<circle fill="#689F38" cx="769.567" cy="159.133" r="12.5"/>
<circle fill="#689F38" cx="794.567" cy="159.133" r="12.5"/>
<circle fill="#689F38" cx="744.567" cy="184.133" r="12.5"/>
<circle fill="#689F38" cx="769.567" cy="184.133" r="12.5"/>
<circle fill="#689F38" cx="794.567" cy="184.133" r="12.5"/>
<circle fill="#689F38" cx="819.567" cy="184.133" r="12.5"/>
<circle fill="#689F38" cx="919.567" cy="9.133" r="12.5"/>
<circle fill="#689F38" cx="944.567" cy="9.133" r="12.5"/>
<circle fill="#689F38" cx="919.567" cy="34.133" r="12.5"/>
<circle fill="#689F38" cx="944.567" cy="34.133" r="12.5"/>
<circle fill="#689F38" cx="919.567" cy="59.133" r="12.5"/>
<circle fill="#689F38" cx="944.567" cy="59.133" r="12.5"/>
<circle fill="#689F38" cx="919.567" cy="84.133" r="12.5"/>
<circle fill="#689F38" cx="944.567" cy="84.133" r="12.5"/>
<circle fill="#689F38" cx="919.567" cy="109.133" r="12.5"/>
<circle fill="#689F38" cx="944.567" cy="109.133" r="12.5"/>
<circle fill="#689F38" cx="919.567" cy="134.133" r="12.5"/>
<circle fill="#689F38" cx="944.567" cy="134.133" r="12.5"/>
<circle fill="#689F38" cx="919.567" cy="159.133" r="12.5"/>
<circle fill="#689F38" cx="944.567" cy="159.133" r="12.5"/>
<circle fill="#689F38" cx="919.567" cy="184.133" r="12.5"/>
<circle fill="#689F38" cx="944.567" cy="184.133" r="12.5"/>
<circle fill="#689F38" cx="894.567" cy="84.133" r="12.5"/>
<circle fill="#689F38" cx="894.567" cy="109.133" r="12.5"/>
<circle fill="#689F38" cx="969.567" cy="84.133" r="12.5"/>
<circle fill="#689F38" cx="994.567" cy="84.133" r="12.5"/>
<circle fill="#689F38" cx="969.567" cy="109.133" r="12.5"/>
<circle fill="#689F38" cx="994.567" cy="109.133" r="12.5"/>
<circle fill="#825C26" cx="19.567" cy="209.133" r="12.5"/>
<circle fill="#825C26" cx="44.567" cy="209.133" r="12.5"/>
<circle fill="#825C26" cx="69.567" cy="209.133" r="12.5"/>
<circle fill="#825C26" cx="144.567" cy="209.133" r="12.5"/>
<circle fill="#825C26" cx="169.567" cy="209.133" r="12.5"/>
<circle fill="#825C26" cx="194.567" cy="209.133" r="12.5"/>
<circle fill="#6C4D23" cx="44.567" cy="234.133" r="12.5"/>
<circle fill="#6C4D23" cx="69.567" cy="234.133" r="12.5"/>
<circle fill="#6C4D23" cx="94.567" cy="234.133" r="12.5"/>
<circle fill="#6C4D23" cx="119.567" cy="234.133" r="12.5"/>
<circle fill="#6C4D23" cx="144.567" cy="234.133" r="12.5"/>
<circle fill="#6C4D23" cx="169.567" cy="234.133" r="12.5"/>
<circle fill="#6C4D23" cx="194.567" cy="234.133" r="12.5"/>
<circle fill="#6C4D23" cx="69.567" cy="259.133" r="12.5"/>
<circle fill="#6C4D23" cx="94.567" cy="259.133" r="12.5"/>
<circle fill="#6C4D23" cx="119.567" cy="259.133" r="12.5"/>
<circle fill="#6C4D23" cx="169.567" cy="259.133" r="12.5"/>
<circle fill="#6C4D23" cx="194.567" cy="259.133" r="12.5"/>
<circle fill="#825C26" cx="244.567" cy="209.133" r="12.5"/>
<circle fill="#825C26" cx="269.567" cy="209.133" r="12.5"/>
<circle fill="#825C26" cx="294.567" cy="209.133" r="12.5"/>
<circle fill="#825C26" cx="369.567" cy="209.133" r="12.5"/>
<circle fill="#825C26" cx="394.567" cy="209.133" r="12.5"/>
<circle fill="#825C26" cx="419.567" cy="209.133" r="12.5"/>
<circle fill="#6C4D23" cx="269.567" cy="234.133" r="12.5"/>
<circle fill="#6C4D23" cx="294.567" cy="234.133" r="12.5"/>
<circle fill="#6C4D23" cx="319.567" cy="234.133" r="12.5"/>
<circle fill="#6C4D23" cx="344.567" cy="234.133" r="12.5"/>
<circle fill="#6C4D23" cx="369.567" cy="234.133" r="12.5"/>
<circle fill="#6C4D23" cx="394.567" cy="234.133" r="12.5"/>
<circle fill="#6C4D23" cx="419.567" cy="234.133" r="12.5"/>
<circle fill="#6C4D23" cx="294.567" cy="259.133" r="12.5"/>
<circle fill="#6C4D23" cx="319.567" cy="259.133" r="12.5"/>
<circle fill="#6C4D23" cx="344.567" cy="259.133" r="12.5"/>
<circle fill="#6C4D23" cx="394.567" cy="259.133" r="12.5"/>
<circle fill="#6C4D23" cx="419.567" cy="259.133" r="12.5"/>
<circle fill="#5D4037" cx="244.567" cy="284.133" r="12.5"/>
<circle fill="#5D4037" cx="269.567" cy="284.133" r="12.5"/>
<circle fill="#5D4037" cx="244.567" cy="309.133" r="12.5"/>
<circle fill="#5D4037" cx="269.567" cy="309.133" r="12.5"/>
<circle fill="#5D4037" cx="269.567" cy="334.133" r="12.5"/>
<circle fill="#5D4037" cx="294.567" cy="309.133" r="12.5"/>
<circle fill="#5D4037" cx="319.567" cy="309.133" r="12.5"/>
<circle fill="#5D4037" cx="294.567" cy="334.133" r="12.5"/>
<circle fill="#5D4037" cx="319.567" cy="334.133" r="12.5"/>
<circle fill="#5D4037" cx="344.567" cy="309.133" r="12.5"/>
<circle fill="#5D4037" cx="344.567" cy="334.133" r="12.5"/>
<circle fill="#5D4037" cx="369.567" cy="309.133" r="12.5"/>
<circle fill="#5D4037" cx="369.567" cy="334.133" r="12.5"/>
<circle fill="#5D4037" cx="394.567" cy="309.133" r="12.5"/>
<circle fill="#5D4037" cx="394.567" cy="284.133" r="12.5"/>
<circle fill="#5D4037" cx="419.567" cy="284.133" r="12.5"/>
<circle fill="#825C26" cx="469.567" cy="209.133" r="12.5"/>
<circle fill="#825C26" cx="494.567" cy="209.133" r="12.5"/>
<circle fill="#6C4D23" cx="469.567" cy="234.133" r="12.5"/>
<circle fill="#6C4D23" cx="494.567" cy="234.133" r="12.5"/>
<circle fill="#6C4D23" cx="469.567" cy="259.133" r="12.5"/>
<circle fill="#6C4D23" cx="494.567" cy="259.133" r="12.5"/>
<circle fill="#825C26" cx="619.567" cy="209.133" r="12.5"/>
<circle fill="#825C26" cx="644.567" cy="209.133" r="12.5"/>
<circle fill="#6C4D23" cx="619.567" cy="234.133" r="12.5"/>
<circle fill="#6C4D23" cx="644.567" cy="234.133" r="12.5"/>
<circle fill="#6C4D23" cx="619.567" cy="259.133" r="12.5"/>
<circle fill="#6C4D23" cx="644.567" cy="259.133" r="12.5"/>
<circle fill="#825C26" cx="694.567" cy="209.133" r="12.5"/>
<circle fill="#825C26" cx="719.567" cy="209.133" r="12.5"/>
<circle fill="#6C4D23" cx="694.567" cy="234.133" r="12.5"/>
<circle fill="#6C4D23" cx="719.567" cy="234.133" r="12.5"/>
<circle fill="#6C4D23" cx="719.567" cy="259.133" r="12.5"/>
<circle fill="#825C26" cx="819.567" cy="209.133" r="12.5"/>
<circle fill="#825C26" cx="844.567" cy="209.133" r="12.5"/>
<circle fill="#6C4D23" cx="819.567" cy="234.133" r="12.5"/>
<circle fill="#6C4D23" cx="844.567" cy="234.133" r="12.5"/>
<circle fill="#6C4D23" cx="744.567" cy="234.133" r="12.5"/>
<circle fill="#6C4D23" cx="769.567" cy="234.133" r="12.5"/>
<circle fill="#6C4D23" cx="794.567" cy="234.133" r="12.5"/>
<circle fill="#6C4D23" cx="744.567" cy="259.133" r="12.5"/>
<circle fill="#6C4D23" cx="769.567" cy="259.133" r="12.5"/>
<circle fill="#6C4D23" cx="794.567" cy="259.133" r="12.5"/>
<circle fill="#6C4D23" cx="819.567" cy="259.133" r="12.5"/>
<circle fill="#825C26" cx="919.567" cy="209.133" r="12.5"/>
<circle fill="#825C26" cx="944.567" cy="209.133" r="12.5"/>
<circle fill="#6C4D23" cx="919.567" cy="234.133" r="12.5"/>
<circle fill="#6C4D23" cx="944.567" cy="234.133" r="12.5"/>
<circle fill="#6C4D23" cx="944.567" cy="259.133" r="12.5"/>
<circle fill="#6C4D23" cx="969.567" cy="234.133" r="12.5"/>
<circle fill="#6C4D23" cx="994.567" cy="234.133" r="12.5"/>
<circle fill="#6C4D23" cx="969.567" cy="259.133" r="12.5"/>
<circle fill="#6C4D23" cx="994.567" cy="259.133" r="12.5"/>
<circle fill="#689F38" cx="1194.567" cy="84.133" r="12.5"/>
<circle fill="#689F38" cx="1219.567" cy="84.133" r="12.5"/>
<circle fill="#689F38" cx="1194.567" cy="109.133" r="12.5"/>
<circle fill="#689F38" cx="1219.567" cy="109.133" r="12.5"/>
<circle fill="#689F38" cx="1194.567" cy="134.133" r="12.5"/>
<circle fill="#689F38" cx="1219.567" cy="134.133" r="12.5"/>
<circle fill="#689F38" cx="1194.567" cy="159.133" r="12.5"/>
<circle fill="#689F38" cx="1219.567" cy="159.133" r="12.5"/>
<circle fill="#689F38" cx="1194.567" cy="184.133" r="12.5"/>
<circle fill="#689F38" cx="1219.567" cy="184.133" r="12.5"/>
<circle fill="#689F38" cx="1169.567" cy="109.133" r="12.5"/>
<circle fill="#689F38" cx="1169.567" cy="134.133" r="12.5"/>
<circle fill="#689F38" cx="1144.567" cy="84.133" r="12.5"/>
<circle fill="#689F38" cx="1119.567" cy="84.133" r="12.5"/>
<circle fill="#689F38" cx="1094.567" cy="84.133" r="12.5"/>
<circle fill="#689F38" cx="1144.567" cy="109.133" r="12.5"/>
<circle fill="#689F38" cx="1119.567" cy="109.133" r="12.5"/>
<circle fill="#689F38" cx="1094.567" cy="109.133" r="12.5"/>
<circle fill="#689F38" cx="1069.567" cy="109.133" r="12.5"/>
<circle fill="#689F38" cx="1044.567" cy="134.133" r="12.5"/>
<circle fill="#689F38" cx="1069.567" cy="134.133" r="12.5"/>
<circle fill="#689F38" cx="1094.567" cy="134.133" r="12.5"/>
<circle fill="#689F38" cx="1044.567" cy="159.133" r="12.5"/>
<circle fill="#689F38" cx="1069.567" cy="159.133" r="12.5"/>
<circle fill="#689F38" cx="1044.567" cy="184.133" r="12.5"/>
<circle fill="#689F38" cx="1069.567" cy="184.133" r="12.5"/>
<circle fill="#825C26" cx="1044.567" cy="209.133" r="12.5"/>
<circle fill="#825C26" cx="1069.567" cy="209.133" r="12.5"/>
<circle fill="#825C26" cx="1094.567" cy="209.133" r="12.5"/>
<circle fill="#825C26" cx="1169.567" cy="209.133" r="12.5"/>
<circle fill="#825C26" cx="1194.567" cy="209.133" r="12.5"/>
<circle fill="#825C26" cx="1219.567" cy="209.133" r="12.5"/>
<circle fill="#6C4D23" cx="1069.567" cy="234.133" r="12.5"/>
<circle fill="#6C4D23" cx="1094.567" cy="234.133" r="12.5"/>
<circle fill="#6C4D23" cx="1119.567" cy="234.133" r="12.5"/>
<circle fill="#6C4D23" cx="1144.567" cy="234.133" r="12.5"/>
<circle fill="#6C4D23" cx="1169.567" cy="234.133" r="12.5"/>
<circle fill="#6C4D23" cx="1194.567" cy="234.133" r="12.5"/>
<circle fill="#6C4D23" cx="1219.567" cy="234.133" r="12.5"/>
<circle fill="#6C4D23" cx="1094.567" cy="259.133" r="12.5"/>
<circle fill="#6C4D23" cx="1119.567" cy="259.133" r="12.5"/>
<circle fill="#6C4D23" cx="1144.567" cy="259.133" r="12.5"/>
<circle fill="#6C4D23" cx="1194.567" cy="259.133" r="12.5"/>
<circle fill="#6C4D23" cx="1219.567" cy="259.133" r="12.5"/>
</svg>
