<?xml version="1.0" encoding="UTF-8" standalone="no"?>
<svg width="175px" height="50px" viewBox="0 0 175 50" version="1.1" xmlns="http://www.w3.org/2000/svg" xmlns:xlink="http://www.w3.org/1999/xlink">
    <!-- Generator: Sketch 3.8 (29681) - http://www.bohemiancoding.com/sketch -->
    <title>agrista-logo-white</title>
    <desc>Created with Sketch.</desc>
    <defs></defs>
    <g id="Page-1" stroke="none" stroke-width="1" fill="none" fill-rule="evenodd">
        <g id="agrista-logo-white" fill="#FFFFFF">
            <ellipse id="Oval" cx="87.4381933" cy="1.87079772" rx="1.78425775" ry="1.78062678"></ellipse>
            <ellipse id="Oval" cx="87.4381933" cy="5.43205128" rx="1.78425775" ry="1.78062678"></ellipse>
            <ellipse id="Oval" cx="91.0067088" cy="1.87079772" rx="1.78425775" ry="1.78062678"></ellipse>
            <ellipse id="Oval" cx="91.0067088" cy="5.43205128" rx="1.78425775" ry="1.78062678"></ellipse>
            <ellipse id="Oval" cx="87.4381933" cy="12.5545584" rx="1.78425775" ry="1.78062678"></ellipse>
            <ellipse id="Oval" cx="91.0067088" cy="12.5545584" rx="1.78425775" ry="1.78062678"></ellipse>
            <ellipse id="Oval" cx="87.4381933" cy="16.115812" rx="1.78425775" ry="1.78062678"></ellipse>
            <ellipse id="Oval" cx="91.0067088" cy="16.115812" rx="1.78425775" ry="1.78062678"></ellipse>
            <ellipse id="Oval" cx="87.4381933" cy="19.6770655" rx="1.78425775" ry="1.78062678"></ellipse>
            <ellipse id="Oval" cx="91.0067088" cy="19.6770655" rx="1.78425775" ry="1.78062678"></ellipse>
            <ellipse id="Oval" cx="87.4381933" cy="23.2383191" rx="1.78425775" ry="1.78062678"></ellipse>
            <ellipse id="Oval" cx="91.0067088" cy="23.2383191" rx="1.78425775" ry="1.78062678"></ellipse>
            <ellipse id="Oval" cx="87.4381933" cy="26.7995726" rx="1.78425775" ry="1.78062678"></ellipse>
            <ellipse id="Oval" cx="91.0067088" cy="26.7995726" rx="1.78425775" ry="1.78062678"></ellipse>
            <ellipse id="Oval" cx="76.7326468" cy="12.5545584" rx="1.78425775" ry="1.78062678"></ellipse>
            <ellipse id="Oval" cx="80.3011623" cy="12.5545584" rx="1.78425775" ry="1.78062678"></ellipse>
            <ellipse id="Oval" cx="76.7326468" cy="16.115812" rx="1.78425775" ry="1.78062678"></ellipse>
            <ellipse id="Oval" cx="80.3011623" cy="16.115812" rx="1.78425775" ry="1.78062678"></ellipse>
            <ellipse id="Oval" cx="73.1641313" cy="16.115812" rx="1.78425775" ry="1.78062678"></ellipse>
            <ellipse id="Oval" cx="73.1641313" cy="19.6770655" rx="1.78425775" ry="1.78062678"></ellipse>
            <ellipse id="Oval" cx="66.0271003" cy="12.5545584" rx="1.78425775" ry="1.78062678"></ellipse>
            <ellipse id="Oval" cx="69.5956158" cy="12.5545584" rx="1.78425775" ry="1.78062678"></ellipse>
            <ellipse id="Oval" cx="66.0271003" cy="16.115812" rx="1.78425775" ry="1.78062678"></ellipse>
            <ellipse id="Oval" cx="69.5956158" cy="16.115812" rx="1.78425775" ry="1.78062678"></ellipse>
            <ellipse id="Oval" cx="66.0271003" cy="19.6770655" rx="1.78425775" ry="1.78062678"></ellipse>
            <ellipse id="Oval" cx="69.5956158" cy="19.6770655" rx="1.78425775" ry="1.78062678"></ellipse>
            <ellipse id="Oval" cx="66.0271003" cy="23.2383191" rx="1.78425775" ry="1.78062678"></ellipse>
            <ellipse id="Oval" cx="69.5956158" cy="23.2383191" rx="1.78425775" ry="1.78062678"></ellipse>
            <ellipse id="Oval" cx="66.0271003" cy="26.7995726" rx="1.78425775" ry="1.78062678"></ellipse>
            <ellipse id="Oval" cx="69.5956158" cy="26.7995726" rx="1.78425775" ry="1.78062678"></ellipse>
            <ellipse id="Oval" cx="55.3215538" cy="12.5545584" rx="1.78425775" ry="1.78062678"></ellipse>
            <ellipse id="Oval" cx="58.8900693" cy="12.5545584" rx="1.78425775" ry="1.78062678"></ellipse>
            <ellipse id="Oval" cx="55.3215538" cy="16.115812" rx="1.78425775" ry="1.78062678"></ellipse>
            <ellipse id="Oval" cx="58.8900693" cy="16.115812" rx="1.78425775" ry="1.78062678"></ellipse>
            <ellipse id="Oval" cx="55.3215538" cy="19.6770655" rx="1.78425775" ry="1.78062678"></ellipse>
            <ellipse id="Oval" cx="58.8900693" cy="19.6770655" rx="1.78425775" ry="1.78062678"></ellipse>
            <ellipse id="Oval" cx="55.3215538" cy="23.2383191" rx="1.78425775" ry="1.78062678"></ellipse>
            <ellipse id="Oval" cx="58.8900693" cy="23.2383191" rx="1.78425775" ry="1.78062678"></ellipse>
            <ellipse id="Oval" cx="55.3215538" cy="26.7995726" rx="1.78425775" ry="1.78062678"></ellipse>
            <ellipse id="Oval" cx="58.8900693" cy="26.7995726" rx="1.78425775" ry="1.78062678"></ellipse>
            <ellipse id="Oval" cx="51.7530383" cy="16.115812" rx="1.78425775" ry="1.78062678"></ellipse>
            <ellipse id="Oval" cx="51.7530383" cy="19.6770655" rx="1.78425775" ry="1.78062678"></ellipse>
            <ellipse id="Oval" cx="48.1845228" cy="12.5545584" rx="1.78425775" ry="1.78062678"></ellipse>
            <ellipse id="Oval" cx="44.6160073" cy="12.5545584" rx="1.78425775" ry="1.78062678"></ellipse>
            <ellipse id="Oval" cx="41.0474918" cy="12.5545584" rx="1.78425775" ry="1.78062678"></ellipse>
            <ellipse id="Oval" cx="48.1845228" cy="16.115812" rx="1.78425775" ry="1.78062678"></ellipse>
            <ellipse id="Oval" cx="44.6160073" cy="16.115812" rx="1.78425775" ry="1.78062678"></ellipse>
            <ellipse id="Oval" cx="41.0474918" cy="16.115812" rx="1.78425775" ry="1.78062678"></ellipse>
            <ellipse id="Oval" cx="37.4789763" cy="16.115812" rx="1.78425775" ry="1.78062678"></ellipse>
            <ellipse id="Oval" cx="33.9104608" cy="19.6770655" rx="1.78425775" ry="1.78062678"></ellipse>
            <ellipse id="Oval" cx="37.4789763" cy="19.6770655" rx="1.78425775" ry="1.78062678"></ellipse>
            <ellipse id="Oval" cx="41.0474918" cy="19.6770655" rx="1.78425775" ry="1.78062678"></ellipse>
            <ellipse id="Oval" cx="33.9104608" cy="23.2383191" rx="1.78425775" ry="1.78062678"></ellipse>
            <ellipse id="Oval" cx="37.4789763" cy="23.2383191" rx="1.78425775" ry="1.78062678"></ellipse>
            <ellipse id="Oval" cx="33.9104608" cy="26.7995726" rx="1.78425775" ry="1.78062678"></ellipse>
            <ellipse id="Oval" cx="37.4789763" cy="26.7995726" rx="1.78425775" ry="1.78062678"></ellipse>
            <ellipse id="Oval" cx="23.2049144" cy="12.5545584" rx="1.78425775" ry="1.78062678"></ellipse>
            <ellipse id="Oval" cx="26.7734299" cy="12.5545584" rx="1.78425775" ry="1.78062678"></ellipse>
            <ellipse id="Oval" cx="23.2049144" cy="16.115812" rx="1.78425775" ry="1.78062678"></ellipse>
            <ellipse id="Oval" cx="26.7734299" cy="16.115812" rx="1.78425775" ry="1.78062678"></ellipse>
            <ellipse id="Oval" cx="23.2049144" cy="19.6770655" rx="1.78425775" ry="1.78062678"></ellipse>
            <ellipse id="Oval" cx="26.7734299" cy="19.6770655" rx="1.78425775" ry="1.78062678"></ellipse>
            <ellipse id="Oval" cx="23.2049144" cy="23.2383191" rx="1.78425775" ry="1.78062678"></ellipse>
            <ellipse id="Oval" cx="26.7734299" cy="23.2383191" rx="1.78425775" ry="1.78062678"></ellipse>
            <ellipse id="Oval" cx="23.2049144" cy="26.7995726" rx="1.78425775" ry="1.78062678"></ellipse>
            <ellipse id="Oval" cx="26.7734299" cy="26.7995726" rx="1.78425775" ry="1.78062678"></ellipse>
            <ellipse id="Oval" cx="19.6363989" cy="16.115812" rx="1.78425775" ry="1.78062678"></ellipse>
            <ellipse id="Oval" cx="19.6363989" cy="19.6770655" rx="1.78425775" ry="1.78062678"></ellipse>
            <ellipse id="Oval" cx="16.0678834" cy="12.5545584" rx="1.78425775" ry="1.78062678"></ellipse>
            <ellipse id="Oval" cx="12.4993679" cy="12.5545584" rx="1.78425775" ry="1.78062678"></ellipse>
            <ellipse id="Oval" cx="8.93085237" cy="12.5545584" rx="1.78425775" ry="1.78062678"></ellipse>
            <ellipse id="Oval" cx="16.0678834" cy="16.115812" rx="1.78425775" ry="1.78062678"></ellipse>
            <ellipse id="Oval" cx="12.4993679" cy="16.115812" rx="1.78425775" ry="1.78062678"></ellipse>
            <ellipse id="Oval" cx="8.93085237" cy="16.115812" rx="1.78425775" ry="1.78062678"></ellipse>
            <ellipse id="Oval" cx="5.36233687" cy="16.115812" rx="1.78425775" ry="1.78062678"></ellipse>
            <ellipse id="Oval" cx="1.79382137" cy="19.6770655" rx="1.78425775" ry="1.78062678"></ellipse>
            <ellipse id="Oval" cx="5.36233687" cy="19.6770655" rx="1.78425775" ry="1.78062678"></ellipse>
            <ellipse id="Oval" cx="8.93085237" cy="19.6770655" rx="1.78425775" ry="1.78062678"></ellipse>
            <ellipse id="Oval" cx="1.79382137" cy="23.2383191" rx="1.78425775" ry="1.78062678"></ellipse>
            <ellipse id="Oval" cx="5.36233687" cy="23.2383191" rx="1.78425775" ry="1.78062678"></ellipse>
            <ellipse id="Oval" cx="1.79382137" cy="26.7995726" rx="1.78425775" ry="1.78062678"></ellipse>
            <ellipse id="Oval" cx="5.36233687" cy="26.7995726" rx="1.78425775" ry="1.78062678"></ellipse>
            <ellipse id="Oval" cx="105.280771" cy="12.5545584" rx="1.78425775" ry="1.78062678"></ellipse>
            <ellipse id="Oval" cx="101.712255" cy="12.5545584" rx="1.78425775" ry="1.78062678"></ellipse>
            <ellipse id="Oval" cx="108.849286" cy="12.5545584" rx="1.78425775" ry="1.78062678"></ellipse>
            <ellipse id="Oval" cx="112.417802" cy="12.5545584" rx="1.78425775" ry="1.78062678"></ellipse>
            <ellipse id="Oval" cx="115.986317" cy="12.5545584" rx="1.78425775" ry="1.78062678"></ellipse>
            <ellipse id="Oval" cx="98.1437398" cy="16.115812" rx="1.78425775" ry="1.78062678"></ellipse>
            <ellipse id="Oval" cx="101.712255" cy="16.115812" rx="1.78425775" ry="1.78062678"></ellipse>
            <ellipse id="Oval" cx="105.280771" cy="16.115812" rx="1.78425775" ry="1.78062678"></ellipse>
            <ellipse id="Oval" cx="108.849286" cy="16.115812" rx="1.78425775" ry="1.78062678"></ellipse>
            <ellipse id="Oval" cx="112.417802" cy="16.115812" rx="1.78425775" ry="1.78062678"></ellipse>
            <ellipse id="Oval" cx="115.986317" cy="16.115812" rx="1.78425775" ry="1.78062678"></ellipse>
            <ellipse id="Oval" cx="119.554833" cy="16.115812" rx="1.78425775" ry="1.78062678"></ellipse>
            <ellipse id="Oval" cx="98.1437398" cy="19.6770655" rx="1.78425775" ry="1.78062678"></ellipse>
            <ellipse id="Oval" cx="101.712255" cy="19.6770655" rx="1.78425775" ry="1.78062678"></ellipse>
            <ellipse id="Oval" cx="115.986317" cy="19.6770655" rx="1.78425775" ry="1.78062678"></ellipse>
            <ellipse id="Oval" cx="119.554833" cy="19.6770655" rx="1.78425775" ry="1.78062678"></ellipse>
            <ellipse id="Oval" cx="101.712255" cy="23.2383191" rx="1.78425775" ry="1.78062678"></ellipse>
            <ellipse id="Oval" cx="105.280771" cy="23.2383191" rx="1.78425775" ry="1.78062678"></ellipse>
            <ellipse id="Oval" cx="108.849286" cy="23.2383191" rx="1.78425775" ry="1.78062678"></ellipse>
            <ellipse id="Oval" cx="112.417802" cy="23.2383191" rx="1.78425775" ry="1.78062678"></ellipse>
            <ellipse id="Oval" cx="105.280771" cy="26.7995726" rx="1.78425775" ry="1.78062678"></ellipse>
            <ellipse id="Oval" cx="108.849286" cy="26.7995726" rx="1.78425775" ry="1.78062678"></ellipse>
            <ellipse id="Oval" cx="112.417802" cy="26.7995726" rx="1.78425775" ry="1.78062678"></ellipse>
            <ellipse id="Oval" cx="115.986317" cy="26.7995726" rx="1.78425775" ry="1.78062678"></ellipse>
            <ellipse id="Oval" cx="130.260379" cy="1.87079772" rx="1.78425775" ry="1.78062678"></ellipse>
            <ellipse id="Oval" cx="133.828895" cy="1.87079772" rx="1.78425775" ry="1.78062678"></ellipse>
            <ellipse id="Oval" cx="130.260379" cy="5.43205128" rx="1.78425775" ry="1.78062678"></ellipse>
            <ellipse id="Oval" cx="133.828895" cy="5.43205128" rx="1.78425775" ry="1.78062678"></ellipse>
            <ellipse id="Oval" cx="130.260379" cy="8.99330484" rx="1.78425775" ry="1.78062678"></ellipse>
            <ellipse id="Oval" cx="133.828895" cy="8.99330484" rx="1.78425775" ry="1.78062678"></ellipse>
            <ellipse id="Oval" cx="130.260379" cy="12.5545584" rx="1.78425775" ry="1.78062678"></ellipse>
            <ellipse id="Oval" cx="133.828895" cy="12.5545584" rx="1.78425775" ry="1.78062678"></ellipse>
            <ellipse id="Oval" cx="130.260379" cy="16.115812" rx="1.78425775" ry="1.78062678"></ellipse>
            <ellipse id="Oval" cx="133.828895" cy="16.115812" rx="1.78425775" ry="1.78062678"></ellipse>
            <ellipse id="Oval" cx="130.260379" cy="19.6770655" rx="1.78425775" ry="1.78062678"></ellipse>
            <ellipse id="Oval" cx="133.828895" cy="19.6770655" rx="1.78425775" ry="1.78062678"></ellipse>
            <ellipse id="Oval" cx="130.260379" cy="23.2383191" rx="1.78425775" ry="1.78062678"></ellipse>
            <ellipse id="Oval" cx="133.828895" cy="23.2383191" rx="1.78425775" ry="1.78062678"></ellipse>
            <ellipse id="Oval" cx="130.260379" cy="26.7995726" rx="1.78425775" ry="1.78062678"></ellipse>
            <ellipse id="Oval" cx="133.828895" cy="26.7995726" rx="1.78425775" ry="1.78062678"></ellipse>
            <ellipse id="Oval" cx="126.691864" cy="12.5545584" rx="1.78425775" ry="1.78062678"></ellipse>
            <ellipse id="Oval" cx="126.691864" cy="16.115812" rx="1.78425775" ry="1.78062678"></ellipse>
            <ellipse id="Oval" cx="137.39741" cy="12.5545584" rx="1.78425775" ry="1.78062678"></ellipse>
            <ellipse id="Oval" cx="140.965926" cy="12.5545584" rx="1.78425775" ry="1.78062678"></ellipse>
            <ellipse id="Oval" cx="137.39741" cy="16.115812" rx="1.78425775" ry="1.78062678"></ellipse>
            <ellipse id="Oval" cx="140.965926" cy="16.115812" rx="1.78425775" ry="1.78062678"></ellipse>
            <ellipse id="Oval" cx="1.79382137" cy="30.3608262" rx="1.78425775" ry="1.78062678"></ellipse>
            <ellipse id="Oval" cx="5.36233687" cy="30.3608262" rx="1.78425775" ry="1.78062678"></ellipse>
            <ellipse id="Oval" cx="8.93085237" cy="30.3608262" rx="1.78425775" ry="1.78062678"></ellipse>
            <ellipse id="Oval" cx="19.6363989" cy="30.3608262" rx="1.78425775" ry="1.78062678"></ellipse>
            <ellipse id="Oval" cx="23.2049144" cy="30.3608262" rx="1.78425775" ry="1.78062678"></ellipse>
            <ellipse id="Oval" cx="26.7734299" cy="30.3608262" rx="1.78425775" ry="1.78062678"></ellipse>
            <ellipse id="Oval" cx="5.36233687" cy="33.9220798" rx="1.78425775" ry="1.78062678"></ellipse>
            <ellipse id="Oval" cx="8.93085237" cy="33.9220798" rx="1.78425775" ry="1.78062678"></ellipse>
            <ellipse id="Oval" cx="12.4993679" cy="33.9220798" rx="1.78425775" ry="1.78062678"></ellipse>
            <ellipse id="Oval" cx="16.0678834" cy="33.9220798" rx="1.78425775" ry="1.78062678"></ellipse>
            <ellipse id="Oval" cx="19.6363989" cy="33.9220798" rx="1.78425775" ry="1.78062678"></ellipse>
            <ellipse id="Oval" cx="23.2049144" cy="33.9220798" rx="1.78425775" ry="1.78062678"></ellipse>
            <ellipse id="Oval" cx="26.7734299" cy="33.9220798" rx="1.78425775" ry="1.78062678"></ellipse>
            <ellipse id="Oval" cx="8.93085237" cy="37.4833333" rx="1.78425775" ry="1.78062678"></ellipse>
            <ellipse id="Oval" cx="12.4993679" cy="37.4833333" rx="1.78425775" ry="1.78062678"></ellipse>
            <ellipse id="Oval" cx="16.0678834" cy="37.4833333" rx="1.78425775" ry="1.78062678"></ellipse>
            <ellipse id="Oval" cx="23.2049144" cy="37.4833333" rx="1.78425775" ry="1.78062678"></ellipse>
            <ellipse id="Oval" cx="26.7734299" cy="37.4833333" rx="1.78425775" ry="1.78062678"></ellipse>
            <ellipse id="Oval" cx="33.9104608" cy="30.3608262" rx="1.78425775" ry="1.78062678"></ellipse>
            <ellipse id="Oval" cx="37.4789763" cy="30.3608262" rx="1.78425775" ry="1.78062678"></ellipse>
            <ellipse id="Oval" cx="41.0474918" cy="30.3608262" rx="1.78425775" ry="1.78062678"></ellipse>
            <ellipse id="Oval" cx="51.7530383" cy="30.3608262" rx="1.78425775" ry="1.78062678"></ellipse>
            <ellipse id="Oval" cx="55.3215538" cy="30.3608262" rx="1.78425775" ry="1.78062678"></ellipse>
            <ellipse id="Oval" cx="58.8900693" cy="30.3608262" rx="1.78425775" ry="1.78062678"></ellipse>
            <ellipse id="Oval" cx="37.4789763" cy="33.9220798" rx="1.78425775" ry="1.78062678"></ellipse>
            <ellipse id="Oval" cx="41.0474918" cy="33.9220798" rx="1.78425775" ry="1.78062678"></ellipse>
            <ellipse id="Oval" cx="44.6160073" cy="33.9220798" rx="1.78425775" ry="1.78062678"></ellipse>
            <ellipse id="Oval" cx="48.1845228" cy="33.9220798" rx="1.78425775" ry="1.78062678"></ellipse>
            <ellipse id="Oval" cx="51.7530383" cy="33.9220798" rx="1.78425775" ry="1.78062678"></ellipse>
            <ellipse id="Oval" cx="55.3215538" cy="33.9220798" rx="1.78425775" ry="1.78062678"></ellipse>
            <ellipse id="Oval" cx="58.8900693" cy="33.9220798" rx="1.78425775" ry="1.78062678"></ellipse>
            <ellipse id="Oval" cx="41.0474918" cy="37.4833333" rx="1.78425775" ry="1.78062678"></ellipse>
            <ellipse id="Oval" cx="44.6160073" cy="37.4833333" rx="1.78425775" ry="1.78062678"></ellipse>
            <ellipse id="Oval" cx="48.1845228" cy="37.4833333" rx="1.78425775" ry="1.78062678"></ellipse>
            <ellipse id="Oval" cx="55.3215538" cy="37.4833333" rx="1.78425775" ry="1.78062678"></ellipse>
            <ellipse id="Oval" cx="58.8900693" cy="37.4833333" rx="1.78425775" ry="1.78062678"></ellipse>
            <ellipse id="Oval" cx="33.9104608" cy="41.0445869" rx="1.78425775" ry="1.78062678"></ellipse>
            <ellipse id="Oval" cx="37.4789763" cy="41.0445869" rx="1.78425775" ry="1.78062678"></ellipse>
            <ellipse id="Oval" cx="33.9104608" cy="44.6058405" rx="1.78425775" ry="1.78062678"></ellipse>
            <ellipse id="Oval" cx="37.4789763" cy="44.6058405" rx="1.78425775" ry="1.78062678"></ellipse>
            <ellipse id="Oval" cx="37.4789763" cy="48.167094" rx="1.78425775" ry="1.78062678"></ellipse>
            <ellipse id="Oval" cx="41.0474918" cy="44.6058405" rx="1.78425775" ry="1.78062678"></ellipse>
            <ellipse id="Oval" cx="44.6160073" cy="44.6058405" rx="1.78425775" ry="1.78062678"></ellipse>
            <ellipse id="Oval" cx="41.0474918" cy="48.167094" rx="1.78425775" ry="1.78062678"></ellipse>
            <ellipse id="Oval" cx="44.6160073" cy="48.167094" rx="1.78425775" ry="1.78062678"></ellipse>
            <ellipse id="Oval" cx="48.1845228" cy="44.6058405" rx="1.78425775" ry="1.78062678"></ellipse>
            <ellipse id="Oval" cx="48.1845228" cy="48.167094" rx="1.78425775" ry="1.78062678"></ellipse>
            <ellipse id="Oval" cx="51.7530383" cy="44.6058405" rx="1.78425775" ry="1.78062678"></ellipse>
            <ellipse id="Oval" cx="51.7530383" cy="48.167094" rx="1.78425775" ry="1.78062678"></ellipse>
            <ellipse id="Oval" cx="55.3215538" cy="44.6058405" rx="1.78425775" ry="1.78062678"></ellipse>
            <ellipse id="Oval" cx="55.3215538" cy="41.0445869" rx="1.78425775" ry="1.78062678"></ellipse>
            <ellipse id="Oval" cx="58.8900693" cy="41.0445869" rx="1.78425775" ry="1.78062678"></ellipse>
            <ellipse id="Oval" cx="66.0271003" cy="30.3608262" rx="1.78425775" ry="1.78062678"></ellipse>
            <ellipse id="Oval" cx="69.5956158" cy="30.3608262" rx="1.78425775" ry="1.78062678"></ellipse>
            <ellipse id="Oval" cx="66.0271003" cy="33.9220798" rx="1.78425775" ry="1.78062678"></ellipse>
            <ellipse id="Oval" cx="69.5956158" cy="33.9220798" rx="1.78425775" ry="1.78062678"></ellipse>
            <ellipse id="Oval" cx="66.0271003" cy="37.4833333" rx="1.78425775" ry="1.78062678"></ellipse>
            <ellipse id="Oval" cx="69.5956158" cy="37.4833333" rx="1.78425775" ry="1.78062678"></ellipse>
            <ellipse id="Oval" cx="87.4381933" cy="30.3608262" rx="1.78425775" ry="1.78062678"></ellipse>
            <ellipse id="Oval" cx="91.0067088" cy="30.3608262" rx="1.78425775" ry="1.78062678"></ellipse>
            <ellipse id="Oval" cx="87.4381933" cy="33.9220798" rx="1.78425775" ry="1.78062678"></ellipse>
            <ellipse id="Oval" cx="91.0067088" cy="33.9220798" rx="1.78425775" ry="1.78062678"></ellipse>
            <ellipse id="Oval" cx="87.4381933" cy="37.4833333" rx="1.78425775" ry="1.78062678"></ellipse>
            <ellipse id="Oval" cx="91.0067088" cy="37.4833333" rx="1.78425775" ry="1.78062678"></ellipse>
            <ellipse id="Oval" cx="98.1437398" cy="30.3608262" rx="1.78425775" ry="1.78062678"></ellipse>
            <ellipse id="Oval" cx="101.712255" cy="30.3608262" rx="1.78425775" ry="1.78062678"></ellipse>
            <ellipse id="Oval" cx="98.1437398" cy="33.9220798" rx="1.78425775" ry="1.78062678"></ellipse>
            <ellipse id="Oval" cx="101.712255" cy="33.9220798" rx="1.78425775" ry="1.78062678"></ellipse>
            <ellipse id="Oval" cx="101.712255" cy="37.4833333" rx="1.78425775" ry="1.78062678"></ellipse>
            <ellipse id="Oval" cx="115.986317" cy="30.3608262" rx="1.78425775" ry="1.78062678"></ellipse>
            <ellipse id="Oval" cx="119.554833" cy="30.3608262" rx="1.78425775" ry="1.78062678"></ellipse>
            <ellipse id="Oval" cx="115.986317" cy="33.9220798" rx="1.78425775" ry="1.78062678"></ellipse>
            <ellipse id="Oval" cx="119.554833" cy="33.9220798" rx="1.78425775" ry="1.78062678"></ellipse>
            <ellipse id="Oval" cx="105.280771" cy="33.9220798" rx="1.78425775" ry="1.78062678"></ellipse>
            <ellipse id="Oval" cx="108.849286" cy="33.9220798" rx="1.78425775" ry="1.78062678"></ellipse>
            <ellipse id="Oval" cx="112.417802" cy="33.9220798" rx="1.78425775" ry="1.78062678"></ellipse>
            <ellipse id="Oval" cx="105.280771" cy="37.4833333" rx="1.78425775" ry="1.78062678"></ellipse>
            <ellipse id="Oval" cx="108.849286" cy="37.4833333" rx="1.78425775" ry="1.78062678"></ellipse>
            <ellipse id="Oval" cx="112.417802" cy="37.4833333" rx="1.78425775" ry="1.78062678"></ellipse>
            <ellipse id="Oval" cx="115.986317" cy="37.4833333" rx="1.78425775" ry="1.78062678"></ellipse>
            <ellipse id="Oval" cx="130.260379" cy="30.3608262" rx="1.78425775" ry="1.78062678"></ellipse>
            <ellipse id="Oval" cx="133.828895" cy="30.3608262" rx="1.78425775" ry="1.78062678"></ellipse>
            <ellipse id="Oval" cx="130.260379" cy="33.9220798" rx="1.78425775" ry="1.78062678"></ellipse>
            <ellipse id="Oval" cx="133.828895" cy="33.9220798" rx="1.78425775" ry="1.78062678"></ellipse>
            <ellipse id="Oval" cx="133.828895" cy="37.4833333" rx="1.78425775" ry="1.78062678"></ellipse>
            <ellipse id="Oval" cx="137.39741" cy="33.9220798" rx="1.78425775" ry="1.78062678"></ellipse>
            <ellipse id="Oval" cx="140.965926" cy="33.9220798" rx="1.78425775" ry="1.78062678"></ellipse>
            <ellipse id="Oval" cx="137.39741" cy="37.4833333" rx="1.78425775" ry="1.78062678"></ellipse>
            <ellipse id="Oval" cx="140.965926" cy="37.4833333" rx="1.78425775" ry="1.78062678"></ellipse>
            <ellipse id="Oval" cx="169.51405" cy="12.5545584" rx="1.78425775" ry="1.78062678"></ellipse>
            <ellipse id="Oval" cx="173.082565" cy="12.5545584" rx="1.78425775" ry="1.78062678"></ellipse>
            <ellipse id="Oval" cx="169.51405" cy="16.115812" rx="1.78425775" ry="1.78062678"></ellipse>
            <ellipse id="Oval" cx="173.082565" cy="16.115812" rx="1.78425775" ry="1.78062678"></ellipse>
            <ellipse id="Oval" cx="169.51405" cy="19.6770655" rx="1.78425775" ry="1.78062678"></ellipse>
            <ellipse id="Oval" cx="173.082565" cy="19.6770655" rx="1.78425775" ry="1.78062678"></ellipse>
            <ellipse id="Oval" cx="169.51405" cy="23.2383191" rx="1.78425775" ry="1.78062678"></ellipse>
            <ellipse id="Oval" cx="173.082565" cy="23.2383191" rx="1.78425775" ry="1.78062678"></ellipse>
            <ellipse id="Oval" cx="169.51405" cy="26.7995726" rx="1.78425775" ry="1.78062678"></ellipse>
            <ellipse id="Oval" cx="173.082565" cy="26.7995726" rx="1.78425775" ry="1.78062678"></ellipse>
            <ellipse id="Oval" cx="165.945534" cy="16.115812" rx="1.78425775" ry="1.78062678"></ellipse>
            <ellipse id="Oval" cx="165.945534" cy="19.6770655" rx="1.78425775" ry="1.78062678"></ellipse>
            <ellipse id="Oval" cx="162.377019" cy="12.5545584" rx="1.78425775" ry="1.78062678"></ellipse>
            <ellipse id="Oval" cx="158.808503" cy="12.5545584" rx="1.78425775" ry="1.78062678"></ellipse>
            <ellipse id="Oval" cx="155.239988" cy="12.5545584" rx="1.78425775" ry="1.78062678"></ellipse>
            <ellipse id="Oval" cx="162.377019" cy="16.115812" rx="1.78425775" ry="1.78062678"></ellipse>
            <ellipse id="Oval" cx="158.808503" cy="16.115812" rx="1.78425775" ry="1.78062678"></ellipse>
            <ellipse id="Oval" cx="155.239988" cy="16.115812" rx="1.78425775" ry="1.78062678"></ellipse>
            <ellipse id="Oval" cx="151.671472" cy="16.115812" rx="1.78425775" ry="1.78062678"></ellipse>
            <ellipse id="Oval" cx="148.102957" cy="19.6770655" rx="1.78425775" ry="1.78062678"></ellipse>
            <ellipse id="Oval" cx="151.671472" cy="19.6770655" rx="1.78425775" ry="1.78062678"></ellipse>
            <ellipse id="Oval" cx="155.239988" cy="19.6770655" rx="1.78425775" ry="1.78062678"></ellipse>
            <ellipse id="Oval" cx="148.102957" cy="23.2383191" rx="1.78425775" ry="1.78062678"></ellipse>
            <ellipse id="Oval" cx="151.671472" cy="23.2383191" rx="1.78425775" ry="1.78062678"></ellipse>
            <ellipse id="Oval" cx="148.102957" cy="26.7995726" rx="1.78425775" ry="1.78062678"></ellipse>
            <ellipse id="Oval" cx="151.671472" cy="26.7995726" rx="1.78425775" ry="1.78062678"></ellipse>
            <ellipse id="Oval" cx="148.102957" cy="30.3608262" rx="1.78425775" ry="1.78062678"></ellipse>
            <ellipse id="Oval" cx="151.671472" cy="30.3608262" rx="1.78425775" ry="1.78062678"></ellipse>
            <ellipse id="Oval" cx="155.239988" cy="30.3608262" rx="1.78425775" ry="1.78062678"></ellipse>
            <ellipse id="Oval" cx="165.945534" cy="30.3608262" rx="1.78425775" ry="1.78062678"></ellipse>
            <ellipse id="Oval" cx="169.51405" cy="30.3608262" rx="1.78425775" ry="1.78062678"></ellipse>
            <ellipse id="Oval" cx="173.082565" cy="30.3608262" rx="1.78425775" ry="1.78062678"></ellipse>
            <ellipse id="Oval" cx="151.671472" cy="33.9220798" rx="1.78425775" ry="1.78062678"></ellipse>
            <ellipse id="Oval" cx="155.239988" cy="33.9220798" rx="1.78425775" ry="1.78062678"></ellipse>
            <ellipse id="Oval" cx="158.808503" cy="33.9220798" rx="1.78425775" ry="1.78062678"></ellipse>
            <ellipse id="Oval" cx="162.377019" cy="33.9220798" rx="1.78425775" ry="1.78062678"></ellipse>
            <ellipse id="Oval" cx="165.945534" cy="33.9220798" rx="1.78425775" ry="1.78062678"></ellipse>
            <ellipse id="Oval" cx="169.51405" cy="33.9220798" rx="1.78425775" ry="1.78062678"></ellipse>
            <ellipse id="Oval" cx="173.082565" cy="33.9220798" rx="1.78425775" ry="1.78062678"></ellipse>
            <ellipse id="Oval" cx="155.239988" cy="37.4833333" rx="1.78425775" ry="1.78062678"></ellipse>
            <ellipse id="Oval" cx="158.808503" cy="37.4833333" rx="1.78425775" ry="1.78062678"></ellipse>
            <ellipse id="Oval" cx="162.377019" cy="37.4833333" rx="1.78425775" ry="1.78062678"></ellipse>
            <ellipse id="Oval" cx="169.51405" cy="37.4833333" rx="1.78425775" ry="1.78062678"></ellipse>
            <ellipse id="Oval" cx="173.082565" cy="37.4833333" rx="1.78425775" ry="1.78062678"></ellipse>
        </g>
    </g>
</svg>