<?xml version="1.0" encoding="UTF-8" standalone="no"?>
<svg width="175px" height="40px" viewBox="0 0 175 40" version="1.1" xmlns="http://www.w3.org/2000/svg" xmlns:xlink="http://www.w3.org/1999/xlink" xmlns:sketch="http://www.bohemiancoding.com/sketch/ns">
    <!-- Generator: Sketch 3.3.3 (12081) - http://www.bohemiancoding.com/sketch -->
    <title>abank-logo-white</title>
    <desc>Created with Sketch.</desc>
    <defs></defs>
    <g id="Page-1" stroke="none" stroke-width="1" fill="none" fill-rule="evenodd" sketch:type="MSPage">
        <g id="Path" sketch:type="MSLayerGroup" fill="#FFFFFF">
            <g id="Group" sketch:type="MSShapeGroup">
                <path d="M23.7557173,13.0219799 L34.162412,0.450448629 L44.5691067,13.0219799 L23.7557173,13.0219799" id="Fill-1"></path>
                <path d="M28.9298107,11.1686487 L39.5589892,11.1686487 L39.5589892,33.3079831 L28.9298107,33.3079831 L28.9298107,11.1686487 Z" id="Fill-2"></path>
                <path d="M14.5060918,16.5118785 L25.1345004,16.5118785 L25.1345004,33.307209 L14.5060918,33.307209 L14.5060918,16.5118785 Z" id="Fill-3"></path>
                <path d="M0.0816030213,24.9099308 L10.7107815,24.9099308 L10.7107815,33.3079831 L0.0816030213,33.3079831 L0.0816030213,24.9099308 Z" id="Fill-4"></path>
                <path d="M0.0816030213,35.7504477 L39.5589892,35.7504477 L39.5589892,39.9494738 L0.0816030213,39.9494738 L0.0816030213,35.7504477 Z" id="Fill-5"></path>
            </g>
            <path d="M78.3626709,35.8083603 C76.4183607,36.3209249 74.5430258,36.5772033 72.7366099,36.5772033 C72.3780847,35.4551025 71.764464,31.9364685 70.8957297,26.021196 L59.8504482,26.021196 C57.5338233,29.442911 55.968746,32.8160896 55.1551694,36.140833 C53.8589626,36.0577144 52.8661382,36.0161557 52.1766665,36.0161557 C50.8942491,36.0161557 49.9083194,36.0577144 49.2188477,36.140833 C49.7290567,35.6975338 50.4978061,34.7174419 51.525119,33.2005278 C52.5524318,31.6836136 54.1485349,29.2074096 56.313476,25.7718415 L61.8361168,17.0028748 C63.3529545,14.5924359 64.7353246,12.2997827 65.9832684,10.1248464 C67.2312121,7.94991015 67.8551747,6.60617988 67.8551747,6.09361528 C69.2065392,6.17673386 70.0683659,6.21829253 70.4406806,6.21829253 C70.8405742,6.21829253 71.647244,6.17673386 72.8607142,6.09361528 C73.3847127,10.4157816 74.0776214,15.3681896 74.939461,20.9509878 C75.8013007,26.533786 76.4597363,30.3433306 76.9147876,32.3797359 C77.3698389,34.4161412 77.8524619,35.5590045 78.3626709,35.8083603 L78.3626709,35.8083603 Z M70.4406806,23.1743988 L68.7445887,11.5378553 L61.5879082,23.1743988 L70.4406806,23.1743988 Z M90.524891,16.6496226 C92.717411,14.5023925 94.9167928,13.4287936 97.1231022,13.4287936 C99.2328856,13.4287936 100.85312,14.1526071 101.983853,15.6002557 C103.114587,17.0479044 103.679945,19.1154481 103.679945,21.802949 C103.679945,25.8480534 102.469941,29.2697171 100.049895,32.0680427 C97.6298493,34.8663684 94.4962474,36.2655102 90.6489953,36.2655102 C89.338999,36.2655102 87.8428679,35.9399673 86.1605569,35.2888717 L81.444594,36.140833 C82.0926974,34.5892861 82.761475,32.1927362 83.4509467,28.9511114 L87.2568115,10.9560281 C87.7394417,8.65641396 87.9807531,6.897097 87.9807531,5.67802444 C87.9807531,5.15160675 87.9049124,4.83991673 87.7532286,4.74294505 L93.3999736,3.974102 C93.0828167,5.01308429 92.8759782,5.76114032 92.7794522,6.21829253 L90.524891,16.6496226 Z M91.1867805,33.418713 C93.3655111,33.418713 95.1201903,32.282776 96.4508707,30.0108681 C97.7815511,27.7389601 98.4468813,25.0999847 98.4468813,22.0938626 C98.4468813,18.7552662 97.4402677,17.085993 95.4270103,17.085993 C94.654802,17.085993 93.8929472,17.2937863 93.141423,17.7093792 C92.3898989,18.1249722 91.7176741,18.6617716 91.1247284,19.3197937 C90.5317827,19.9778159 90.0974221,20.587343 89.8216334,21.1483934 C89.5458447,21.7094439 89.2700601,22.6341242 88.9942715,23.9224623 L88.2082777,27.6627798 C87.9462784,28.8679993 87.8152807,29.7892164 87.8152807,30.4264589 C87.8152807,32.4213049 88.9391028,33.418713 91.1867805,33.418713 L91.1867805,33.418713 Z M129.142008,13.636589 C128.659378,14.5647465 128.280174,15.4963533 128.004386,16.4314374 C127.728597,17.3665215 127.301131,19.1708603 126.721975,21.8445081 L125.149987,29.0965682 C124.681146,31.2437983 124.446729,32.6983517 124.446729,33.460272 C124.446729,34.2914579 124.674252,34.8455735 125.129303,35.1226354 C123.98478,35.7183186 122.654119,36.1893168 121.137282,36.5356442 C120.434021,35.8984018 120.082395,34.8455822 120.082395,33.3771539 C118.01398,35.4828247 115.938701,36.5356442 113.856497,36.5356442 C111.636398,36.5356442 109.895508,35.7598824 108.633775,34.2083355 C107.372042,32.6567887 106.741184,30.5511495 106.741184,27.8913548 C106.741184,24.1925778 107.999451,20.8574947 110.516023,17.8860053 C113.032595,14.914516 116.2903,13.4287936 120.289236,13.4287936 C120.716708,13.4287936 121.188989,13.4599626 121.706093,13.5223015 C122.223197,13.5846405 122.729951,13.6781475 123.22637,13.8028253 L124.65357,14.2184162 L129.142008,13.636589 Z M115.035488,33.1693585 C115.807696,33.1693585 116.597129,32.8299627 117.403811,32.1511609 C118.210493,31.4723591 118.934427,30.6307961 119.575636,29.6264465 C120.216845,28.622097 120.671889,27.7424385 120.940783,26.9874447 C121.209677,26.2324509 121.56475,24.7813608 122.006012,22.6341307 C122.447274,20.4869006 122.667901,19.1154646 122.667901,18.5197814 C122.667901,17.8409796 122.416248,17.2903273 121.912933,16.8678078 C121.409619,16.4452883 120.71671,16.2340318 119.834187,16.2340318 C117.393457,16.2340318 115.462965,17.4461596 114.042653,19.8704516 C112.622342,22.2947436 111.912196,24.9544984 111.912196,27.8497957 C111.912196,29.4706081 112.181086,30.76239 112.718874,31.7251803 C113.256662,32.6879705 114.028859,33.1693585 115.035488,33.1693585 L115.035488,33.1693585 Z M138.077517,18.5197814 C141.276665,15.1257725 144.131036,13.4287936 146.640713,13.4287936 C149.798493,13.4287936 151.377359,15.070361 151.377359,18.353545 C151.377359,18.6998725 150.798212,21.5674206 149.639899,26.9562754 C148.826323,30.6550524 148.419541,33.5641592 148.419541,35.683683 L148.419541,36.0161557 L143.248529,36.0161557 L145.337618,26.1874324 C145.971931,23.139751 146.327004,21.3631179 146.402846,20.8574798 C146.478688,20.3518418 146.516608,19.9120126 146.516608,19.5379789 C146.516608,18.1803754 145.896093,17.5015838 144.655044,17.5015838 C143.78631,17.5015838 142.703855,17.9483395 141.407648,18.8418643 C140.111442,19.735389 139.015198,20.7605029 138.118885,21.9172365 C137.222572,23.0739701 136.453822,25.5744166 135.812614,29.4186511 C135.171405,33.2628856 134.850805,35.4481789 134.850805,35.9745966 L134.850805,36.0161557 L129.390217,36.0161557 C129.955584,34.8386424 130.576099,32.6637388 131.251781,29.4913795 L133.092661,20.9925469 C133.644239,18.4851363 133.920023,16.5595846 133.920023,15.2158342 C133.920023,14.6894165 133.851077,14.3708 133.713183,14.2599753 L139.359928,13.4287936 C139.153086,14.0383299 138.72562,15.7353088 138.077517,18.5197814 L138.077517,18.5197814 Z M174.688281,13.4287936 C174.688281,14.8418095 173.898848,16.4556711 172.319958,18.2704269 C170.741068,20.0851826 168.531344,21.9276169 165.69072,23.797785 C166.380192,25.7372186 167.521251,28.1580111 169.11393,31.0602349 C170.70661,33.9624588 171.985561,35.5728572 172.950821,35.8914784 C171.971771,36.1685404 170.048174,36.3971131 167.179972,36.5772033 C165.083978,33.6264936 163.291378,30.1494184 161.80212,26.1458733 L160.023291,27.247189 C159.388977,30.1701925 158.940828,33.0931522 158.678828,36.0161557 L153.156188,36.0161557 C153.625028,35.3373539 154.273122,33.0377743 155.100488,29.1173478 L158.968405,11.1222644 C159.451035,8.71182552 159.692347,6.897097 159.692347,5.67802444 C159.692347,5.31784391 159.630295,5.0061539 159.50619,4.74294505 L165.111567,3.974102 C164.670305,5.42867721 164.001528,8.30315177 163.105215,12.5976119 L160.747233,23.8809032 C164.456591,21.5397298 166.900731,19.6557368 168.079728,18.2288678 C169.258725,16.8019988 169.848214,15.451342 169.848214,14.1768571 L174.688281,13.4287936 Z" id="Abank" sketch:type="MSShapeGroup"></path>
        </g>
    </g>
</svg>