<?xml version="1.0" encoding="UTF-8" standalone="no"?>
<svg width="306px" height="95px" viewBox="0 0 306 95" version="1.1" xmlns="http://www.w3.org/2000/svg" xmlns:xlink="http://www.w3.org/1999/xlink" xmlns:sketch="http://www.bohemiancoding.com/sketch/ns">
    <!-- Generator: Sketch 3.4 (15588) - http://www.bohemiancoding.com/sketch -->
    <title>abank-logo</title>
    <desc>Created with Sketch.</desc>
    <defs></defs>
    <g id="Page-1" stroke="none" stroke-width="1" fill="none" fill-rule="evenodd" sketch:type="MSPage">
        <g id="Path" sketch:type="MSLayerGroup" transform="translate(0.000000, 13.000000)">
            <g id="Group" fill="#D50F2D" sketch:type="MSShapeGroup">
                <path d="M41.4986897,22.5184615 L59.678069,0.658269231 L77.8574483,22.5184615 L41.4986897,22.5184615" id="Fill-1"></path>
                <path d="M50.5372759,19.2957692 L69.1053103,19.2957692 L69.1053103,57.7930769 L50.5372759,57.7930769 L50.5372759,19.2957692 Z" id="Fill-2"></path>
                <path d="M25.3405862,28.5869231 L43.9072759,28.5869231 L43.9072759,57.7917308 L25.3405862,57.7917308 L25.3405862,28.5869231 Z" id="Fill-3"></path>
                <path d="M0.142551724,43.19 L18.7105862,43.19 L18.7105862,57.7930769 L0.142551724,57.7930769 L0.142551724,43.19 Z" id="Fill-4"></path>
                <path d="M0.142551724,62.0401923 L69.1053103,62.0401923 L69.1053103,69.3417308 L0.142551724,69.3417308 L0.142551724,62.0401923 Z" id="Fill-5"></path>
            </g>
            <path d="M136.89118,62.1408945 C133.494678,63.032175 130.218669,63.4778086 127.063055,63.4778086 C126.436749,61.526627 125.36482,55.4081986 123.847234,45.1223398 L104.552312,45.1223398 C100.505417,51.0722394 97.7713951,56.9377406 96.3501641,62.7190195 C94.0858298,62.5744876 92.3514722,62.5022227 91.1470391,62.5022227 C88.9067935,62.5022227 87.18448,62.5744876 85.9800469,62.7190195 C86.8713274,61.9481823 88.2142501,60.2439351 90.0088555,57.6062266 C91.8034608,54.9685181 94.5916816,50.6627343 98.3736016,44.6887461 L108.021062,29.4406992 C110.670815,25.249272 113.085667,21.2626582 115.265691,17.4807383 C117.445715,13.6988183 118.535711,11.3622532 118.535711,10.4709727 C120.8964,10.6155046 122.401919,10.6877695 123.052312,10.6877695 C123.750884,10.6877695 125.160049,10.6155046 127.279852,10.4709727 C128.195221,17.9866352 129.405658,26.5982028 130.911199,36.3059336 C132.416741,46.0136644 133.566957,52.6379471 134.361883,56.1789805 C135.156809,59.7200138 135.999899,61.7072986 136.89118,62.1408945 L136.89118,62.1408945 Z M123.052312,40.1721445 L120.089422,19.9377695 L107.587469,40.1721445 L123.052312,40.1721445 Z M158.137273,28.8264414 C161.967371,25.0926988 165.809455,23.2258555 169.663641,23.2258555 C173.349206,23.2258555 176.179581,24.4844692 178.154852,27.0017344 C180.130122,29.5189996 181.117742,33.1141785 181.117742,37.7873789 C181.117742,44.8212682 179.003994,50.7710785 174.776434,55.6369883 C170.548873,60.502898 165.074807,62.9358164 158.35407,62.9358164 C156.065647,62.9358164 153.452067,62.3697413 150.51325,61.2375742 L142.274969,62.7190195 C143.407136,60.0210894 144.575418,55.8538133 145.779852,50.2170664 L152.428289,18.9260508 C153.271392,14.9273329 153.692937,11.8681187 153.692937,9.74831641 C153.692937,8.83294725 153.560452,8.29096048 153.295477,8.12233984 L163.159734,6.78542578 C162.605695,8.59207544 162.244371,9.89284368 162.07575,10.6877695 L158.137273,28.8264414 Z M159.293523,57.9856211 C163.099532,57.9856211 166.164768,56.0103804 168.489324,52.0598398 C170.81388,48.1092993 171.976141,43.520478 171.976141,38.2932383 C171.976141,32.4878707 170.217695,29.5852305 166.70075,29.5852305 C165.351785,29.5852305 164.020906,29.946555 162.708074,30.6692148 C161.395242,31.3918747 160.220937,32.3252964 159.185125,33.4695078 C158.149313,34.6137193 157.390531,35.6736045 156.908758,36.6491953 C156.426985,37.6247861 155.945219,39.2326802 155.463445,41.4729258 L154.090398,47.976832 C153.632714,50.0725456 153.403875,51.6744176 153.403875,52.7824961 C153.403875,56.2512634 155.367072,57.9856211 159.293523,57.9856211 L159.293523,57.9856211 Z M225.597234,23.5871836 C224.754131,25.201124 224.091703,26.8210622 223.60993,28.4470469 C223.128156,30.0730316 222.381419,33.2105327 221.369695,37.8596445 L218.623602,50.4699961 C217.804587,54.2037387 217.395086,56.7330103 217.395086,58.0578867 C217.395086,59.5032064 217.792543,60.4667385 218.587469,60.9485117 C216.58811,61.9843242 214.263589,62.8033264 211.613836,63.405543 C210.385314,62.2974645 209.771062,60.4667537 209.771062,57.9133555 C206.157763,61.5748321 202.532474,63.405543 198.895086,63.405543 C195.016811,63.405543 191.975663,62.0565981 189.771551,59.358668 C187.567438,56.6607378 186.465398,52.9993161 186.465398,48.374293 C186.465398,41.9426202 188.663456,36.1433618 193.059637,30.9763438 C197.455818,25.8093257 203.146679,23.2258555 210.132391,23.2258555 C210.879139,23.2258555 211.704163,23.2800541 212.607488,23.3884531 C213.510813,23.4968521 214.396058,23.6594481 215.26325,23.8762461 L217.756414,24.5989023 L225.597234,23.5871836 Z M200.954656,57.5520273 C202.303621,57.5520273 203.682677,56.961864 205.091863,55.7815195 C206.50105,54.6011751 207.765686,53.1378108 208.885809,51.3913828 C210.005931,49.6449548 210.800845,48.1153477 211.270574,46.8025156 C211.740303,45.4896835 212.360577,42.966434 213.131414,39.2326914 C213.902251,35.4989488 214.287664,33.114207 214.287664,32.0783945 C214.287664,30.8980501 213.848053,29.9405401 212.968816,29.2058359 C212.08958,28.4711317 210.879143,28.1037852 209.337469,28.1037852 C205.073776,28.1037852 201.701413,30.2115115 199.220281,34.4270273 C196.739149,38.6425432 195.498602,43.267497 195.498602,48.3020273 C195.498602,51.1204008 195.968323,53.3666349 196.907781,55.0407969 C197.847239,56.7149589 199.196184,57.5520273 200.954656,57.5520273 L200.954656,57.5520273 Z M241.206609,32.0783945 C246.795179,26.1766723 251.781457,23.2258555 256.165594,23.2258555 C261.681897,23.2258555 264.440008,26.0803191 264.440008,31.789332 C264.440008,32.3915486 263.428299,37.3778268 261.404852,46.7483164 C259.98362,53.1799892 259.273016,58.2385324 259.273016,61.9240977 L259.273016,62.5022227 L250.239812,62.5022227 L253.889227,45.4114023 C254.997305,40.1118967 255.617579,37.0225721 255.750066,36.1433359 C255.882554,35.2640998 255.948797,34.4992962 255.948797,33.8489023 C255.948797,31.4882135 254.864823,30.3078867 252.696844,30.3078867 C251.179258,30.3078867 249.288326,31.0847344 247.023992,32.6384531 C244.759658,34.1921718 242.844638,35.9747061 241.278875,37.9861094 C239.713112,39.9975127 238.370189,44.345451 237.250066,51.0300547 C236.129944,57.7146584 235.569891,61.5145879 235.569891,62.429957 L235.569891,62.5022227 L226.030828,62.5022227 C227.018463,60.4546864 228.102437,56.6728232 229.282781,51.1565195 L232.498602,36.3781992 C233.462148,32.0181514 233.943914,28.6698776 233.943914,26.3332773 C233.943914,25.4179082 233.823473,24.8638773 233.582586,24.671168 L243.446844,23.2258555 C243.085514,24.2857566 242.338776,27.2365734 241.206609,32.0783945 L241.206609,32.0783945 Z M305.161687,23.2258555 C305.161687,25.682899 303.782632,28.489186 301.02448,31.6448008 C298.266329,34.8004155 294.406178,38.0041595 289.443914,41.2561289 C290.648347,44.6285416 292.641654,48.8379722 295.423895,53.8845469 C298.206135,58.9311216 300.440325,61.7313866 302.126531,62.2854258 C300.416236,62.767199 297.055918,63.164656 292.045477,63.4778086 C288.384,58.3469236 285.252521,52.3007601 282.650945,45.3391367 L279.543523,47.2541758 C278.435445,52.3368835 277.652575,57.419515 277.194891,62.5022227 L267.54743,62.5022227 C268.366444,61.3218782 269.498594,57.3232203 270.943914,50.5061289 L277.70075,19.2151133 C278.543853,15.0236861 278.965398,11.8681187 278.965398,9.74831641 C278.965398,9.12201119 278.857001,8.58002442 278.640203,8.12233984 L288.432195,6.78542578 C287.661358,9.3147353 286.493076,14.3130577 284.927312,21.780543 L280.808172,41.4006602 C287.288022,37.3296763 291.557673,34.0536674 293.617254,31.5725352 C295.676835,29.091403 296.706609,26.7427936 296.706609,24.5266367 L305.161687,23.2258555 Z" id="Abank" fill="#D80F2E" sketch:type="MSShapeGroup"></path>
        </g>
    </g>
</svg>