<?xml version="1.0" encoding="UTF-8" standalone="no"?>
<svg width="47px" height="40px" viewBox="0 0 47 40" version="1.1" xmlns="http://www.w3.org/2000/svg" xmlns:xlink="http://www.w3.org/1999/xlink" xmlns:sketch="http://www.bohemiancoding.com/sketch/ns">
    <!-- Generator: Sketch 3.3.3 (12081) - http://www.bohemiancoding.com/sketch -->
    <title>ferticore-logo-white</title>
    <desc>Created with Sketch.</desc>
    <defs></defs>
    <g id="Page-1" stroke="none" stroke-width="1" fill="none" fill-rule="evenodd" sketch:type="MSPage">
        <g id="Logo-+-Ferticore" sketch:type="MSLayerGroup" transform="translate(1.000000, 0.000000)" fill="#FFFFFF">
            <g id="logo" transform="translate(7.345029, 0.000000)" sketch:type="MSShapeGroup">
                <path d="M14.7426901,27.2108844 C22.3325682,27.2108844 28.4853801,21.1195204 28.4853801,13.6054422 C28.4853801,6.09136395 22.3325682,0 14.7426901,0 C7.15281192,0 1,6.09136395 1,13.6054422 C1,21.1195204 7.15281192,27.2108844 14.7426901,27.2108844 Z M7.17761404,10.9896599 C8.44166667,13.1877551 10.121848,13.2797279 10.121848,13.2797279 L15.6554795,13.2487075 C15.6554795,13.2487075 16.2876433,13.0201361 16.2876433,12.3330612 C16.2876433,11.6465306 15.6249708,11.432381 15.6249708,11.432381 L12.1865497,11.417415 C11.954848,11.2797279 12.1865497,11.1273469 12.1865497,11.1273469 C12.1865497,11.1273469 19.1582164,11.1085714 19.6141988,11.2770068 C20.2768713,11.5227211 22.2593918,13.7268027 22.2593918,13.7268027 L22.2712105,13.7156463 C22.4490409,13.9028571 22.6977836,14.0234014 22.9778596,14.0234014 C23.5157485,14.0234014 23.9522164,13.5912925 23.9522164,13.0587755 C23.9522164,12.7763265 23.8252339,12.5281633 23.6292632,12.3521088 L20.608345,9.31183673 C19.8126433,8.46095238 18.6939883,8.54312925 18.6939883,8.54312925 L13.6743333,8.54312925 C10.7171813,8.54312925 10.4486491,6.50231293 10.4486491,6.50231293 L4.98345614,6.50231293 L7.17761404,10.9896599 Z M18.8990292,20.1602721 C18.8990292,20.1602721 17.5582924,21.7235374 16.1950175,21.7235374 C14.8317427,21.7235374 13.4910058,20.1602721 13.4910058,20.1602721 C13.4910058,20.1602721 14.8317427,18.5970068 16.1950175,18.5970068 C17.5582924,18.5970068 18.8990292,20.1602721 18.8990292,20.1602721 Z M14.9389357,16.5303401 C14.9389357,16.5303401 13.5981988,18.0936054 12.234924,18.0936054 C10.8716491,18.0936054 9.53091228,16.5303401 9.53091228,16.5303401 C9.53091228,16.5303401 10.8716491,14.9670748 12.234924,14.9670748 C13.5981988,14.9670748 14.9389357,16.5303401 14.9389357,16.5303401 Z M22.0760643,16.5303401 C22.0760643,16.5303401 20.7353275,18.0936054 19.3720526,18.0936054 C18.0087778,18.0936054 16.6680409,16.5303401 16.6680409,16.5303401 C16.6680409,16.5303401 18.0087778,14.9670748 19.3720526,14.9670748 C20.7353275,14.9670748 22.0760643,16.5303401 22.0760643,16.5303401 Z" id="oval"></path>
            </g>
            <path d="M0.0146793826,38.2108844 L0.0146793826,30.3484473 L4.40808174,30.3484473 L4.40808174,31.1825031 L1.13029546,31.1825031 L1.13029546,33.817482 L3.88214844,33.817482 L3.88214844,34.6409129 L1.13029546,34.6409129 L1.13029546,38.2108844 L0.0146793826,38.2108844 Z M10.1083486,38.0249483 C9.40710074,38.2374477 8.80679904,38.3436958 8.30742554,38.3436958 C7.45742809,38.3436958 6.76415932,38.061253 6.22759843,37.4963588 C5.69103754,36.9314647 5.42276112,36.1992383 5.42276112,35.2996576 C5.42276112,34.4248686 5.65916311,33.707694 6.13197419,33.1481124 C6.60478528,32.5885307 7.20951397,32.3087441 7.94617843,32.3087441 C8.64388467,32.3087441 9.18309371,32.5566563 9.56382174,33.0524881 C9.94454976,33.54832 10.1349109,34.2530989 10.1349109,35.1668462 L10.1295985,35.4909061 L6.49056508,35.4909061 C6.64285629,36.861527 7.31399004,37.5468272 8.50398647,37.5468272 C8.93961016,37.5468272 9.4743922,37.4299543 10.1083486,37.196205 L10.1083486,38.0249483 Z M6.53837719,34.7046624 L9.08304434,34.7046624 C9.08304434,33.6315406 8.68284321,33.0949878 7.88242894,33.0949878 C7.07847302,33.0949878 6.63046025,33.6315406 6.53837719,34.7046624 L6.53837719,34.7046624 Z M11.9411465,38.2108844 L11.9411465,32.4415555 L12.9877006,32.4415555 L12.9877006,33.5252968 C13.4020744,32.7177993 14.0041469,32.3140565 14.7939361,32.3140565 C14.9001858,32.3140565 15.0117463,32.3229105 15.128621,32.3406188 L15.128621,33.318111 C14.9479965,33.2579028 14.7886244,33.2277992 14.6504998,33.2277992 C13.9882101,33.2277992 13.4339493,33.6209171 12.9877006,34.4071648 L12.9877006,38.2108844 L11.9411465,38.2108844 Z M18.124847,38.3436958 C17.5935986,38.3436958 17.1792311,38.1914069 16.8817319,37.8868244 C16.5842328,37.582242 16.4354855,37.1590205 16.4354855,36.6171471 L16.4354855,33.2277992 L15.7129913,33.2277992 L15.7129913,32.4415555 L16.4354855,32.4415555 L16.4354855,31.3950014 L17.4820396,31.2940647 L17.4820396,32.4415555 L18.9907776,32.4415555 L18.9907776,33.2277992 L17.4820396,33.2277992 L17.4820396,36.4258986 C17.4820396,37.1802714 17.8078671,37.5574521 18.4595318,37.5574521 C18.5976564,37.5574521 18.7658825,37.5344317 18.9642153,37.4883901 L18.9642153,38.2108844 C18.6419246,38.2994258 18.362138,38.3436958 18.124847,38.3436958 L18.124847,38.3436958 Z M20.4623283,38.2108844 L20.4623283,32.4415555 L21.5088824,32.4415555 L21.5088824,38.2108844 L20.4623283,38.2108844 Z M20.4623283,31.3950014 L20.4623283,30.3484473 L21.5088824,30.3484473 L21.5088824,31.3950014 L20.4623283,31.3950014 Z M25.8597851,38.3436958 C25.0806208,38.3436958 24.4342783,38.0550552 23.9207381,37.4777652 C23.407198,36.9004753 23.1504318,36.1726759 23.1504318,35.2943452 C23.1504318,34.3558063 23.4045418,33.6244653 23.9127694,33.1003002 C24.4209971,32.5761351 25.1302031,32.3140565 26.0404087,32.3140565 C26.490199,32.3140565 26.9931066,32.3760346 27.5491466,32.4999925 L27.5491466,33.376548 C26.95769,33.2030069 26.4760321,33.1162376 26.1041582,33.1162376 C25.5693681,33.1162376 25.1399488,33.3172236 24.8158872,33.7192015 C24.4918257,34.1211795 24.3297974,34.6568469 24.3297974,35.3262199 C24.3297974,35.974343 24.4962527,36.4985002 24.8291684,36.8987074 C25.162084,37.2989145 25.5977012,37.499015 26.1360329,37.499015 C26.6141565,37.499015 27.1064393,37.3768297 27.6128961,37.1324555 L27.6128961,38.0355733 C26.9364398,38.2409893 26.3520753,38.3436958 25.8597851,38.3436958 L25.8597851,38.3436958 Z M31.4378655,38.3436958 C30.6126596,38.3436958 29.9539215,38.070107 29.4616313,37.5229211 C28.9693411,36.9757352 28.7231997,36.2435088 28.7231997,35.3262199 C28.7231997,34.398306 28.9702265,33.6643088 29.4642875,33.1242063 C29.9583486,32.5841038 30.6285969,32.3140565 31.4750527,32.3140565 C32.3215085,32.3140565 32.9917568,32.5841038 33.4858179,33.1242063 C33.9798789,33.6643088 34.2269057,34.3947644 34.2269057,35.315595 C34.2269057,36.2576755 33.9789935,36.9978705 33.4831616,37.5362023 C32.9873298,38.074534 32.3055712,38.3436958 31.4378655,38.3436958 L31.4378655,38.3436958 Z M31.4538029,37.5574521 C32.5623412,37.5574521 33.1166021,36.8101739 33.1166021,35.315595 C33.1166021,33.8387244 32.5694244,33.1003002 31.4750527,33.1003002 C30.3842226,33.1003002 29.8388158,33.842266 29.8388158,35.3262199 C29.8388158,36.8137155 30.3771394,37.5574521 31.4538029,37.5574521 L31.4538029,37.5574521 Z M35.8631426,38.2108844 L35.8631426,32.4415555 L36.9096967,32.4415555 L36.9096967,33.5252968 C37.3240705,32.7177993 37.926143,32.3140565 38.7159323,32.3140565 C38.822182,32.3140565 38.9337424,32.3229105 39.0506171,32.3406188 L39.0506171,33.318111 C38.8699926,33.2579028 38.7106205,33.2277992 38.5724959,33.2277992 C37.9102062,33.2277992 37.3559454,33.6209171 36.9096967,34.4071648 L36.9096967,38.2108844 L35.8631426,38.2108844 Z M44.5436982,38.0249483 C43.8424503,38.2374477 43.2421486,38.3436958 42.7427751,38.3436958 C41.8927776,38.3436958 41.1995088,38.061253 40.6629479,37.4963588 C40.1263871,36.9314647 39.8581106,36.1992383 39.8581106,35.2996576 C39.8581106,34.4248686 40.0945126,33.707694 40.5673237,33.1481124 C41.0401348,32.5885307 41.6448635,32.3087441 42.3815279,32.3087441 C43.0792342,32.3087441 43.6184432,32.5566563 43.9991713,33.0524881 C44.3798993,33.54832 44.5702604,34.2530989 44.5702604,35.1668462 L44.564948,35.4909061 L40.9259146,35.4909061 C41.0782058,36.861527 41.7493396,37.5468272 42.939336,37.5468272 C43.3749597,37.5468272 43.9097417,37.4299543 44.5436982,37.196205 L44.5436982,38.0249483 Z M40.9737267,34.7046624 L43.5183939,34.7046624 C43.5183939,33.6315406 43.1181927,33.0949878 42.3177785,33.0949878 C41.5138225,33.0949878 41.0658098,33.6315406 40.9737267,34.7046624 L40.9737267,34.7046624 Z" id="Ferticore" sketch:type="MSShapeGroup"></path>
        </g>
    </g>
</svg>