<?xml version="1.0" encoding="UTF-8" standalone="no"?>
<svg width="40px" height="40px" viewBox="0 0 40 40" version="1.1" xmlns="http://www.w3.org/2000/svg" xmlns:xlink="http://www.w3.org/1999/xlink" xmlns:sketch="http://www.bohemiancoding.com/sketch/ns">
    <!-- Generator: Sketch 3.3.3 (12081) - http://www.bohemiancoding.com/sketch -->
    <title>sunfarm-logo-white</title>
    <desc>Created with Sketch.</desc>
    <defs></defs>
    <g id="Page-1" stroke="none" stroke-width="1" fill="none" fill-rule="evenodd" sketch:type="MSPage">
        <g id="Group-+-Group" sketch:type="MSLayerGroup" fill="#FFFFFF">
            <g id="Group" transform="translate(0.000000, 31.688312)" sketch:type="MSShapeGroup">
                <path d="M0,6.10194805 L1.57813505,6.10194805 C1.5933119,6.41454545 1.70945338,6.64896104 1.92630225,6.80493506 C2.15832797,6.9612987 2.46765273,7.03935065 2.85466238,7.03935065 C3.13311897,7.03935065 3.37286174,6.98467532 3.57414791,6.87519481 C3.75974277,6.7661039 3.8526045,6.61753247 3.8526045,6.42987013 C3.8526045,6.1487013 3.52771704,5.93779221 2.87794212,5.79714286 C2.59935691,5.75038961 2.39048232,5.70337662 2.25131833,5.65662338 C1.43099678,5.45376623 0.882057878,5.2112987 0.603472669,4.93012987 C0.293890675,4.64883117 0.139421222,4.2738961 0.139421222,3.80519481 C0.139421222,3.21168831 0.363472669,2.71961039 0.812347267,2.32883117 C1.27652733,1.96961039 1.88,1.78987013 2.62263666,1.78987013 C3.42700965,1.78987013 4.06919614,1.96974026 4.54906752,2.32883117 C4.99755627,2.71961039 5.23729904,3.2274026 5.26855305,3.85207792 L4.27048232,3.85207792 C3.97646302,3.85207792 3.75202572,3.71961039 3.59755627,3.45376623 C3.5355627,3.39142857 3.47344051,3.32883117 3.4118328,3.26623377 C3.22623794,3.12571429 2.97093248,3.05532468 2.64604502,3.05532468 C2.33633441,3.05532468 2.10418006,3.10220779 1.94971061,3.19597403 C1.81054662,3.28974026 1.74083601,3.43038961 1.74083601,3.61779221 C1.74083601,3.86792208 2.14302251,4.07883117 2.94778135,4.25051948 C3.04064309,4.28194805 3.12192926,4.30545455 3.19138264,4.32077922 C3.26096463,4.33662338 3.3266881,4.34428571 3.38868167,4.34428571 C4.1777492,4.54753247 4.7266881,4.78181818 5.03652733,5.0474026 C5.33016077,5.32857143 5.47755627,5.70350649 5.47755627,6.17220779 C5.47755627,6.85987013 5.22983923,7.39077922 4.73491961,7.76571429 C4.27073955,8.10948052 3.57453376,8.2812987 2.64617363,8.2812987 C1.76424437,8.2812987 1.10636656,8.10181818 0.673440514,7.74233766 C0.224051447,7.38311688 0,6.85987013 0,6.17220779 L0,6.10194805 L0,6.10194805 Z" id="Shape"></path>
                <path d="M11.3545981,1.93051948 L11.3545981,5.58636364 C11.3545981,6.69597403 11.0680386,7.42246753 10.4958199,7.76584416 C9.92321543,8.10961039 9.29659164,8.28142857 8.61594855,8.28142857 C7.95048232,8.25 7.34315113,8.06272727 6.7940836,7.71896104 C6.24475884,7.37545455 5.97016077,6.66441558 5.97016077,5.58636364 L5.97016077,1.93051948 L7.59485531,1.93051948 L7.59485531,5.91441558 C7.59485531,6.28948052 7.70289389,6.56285714 7.91974277,6.73467532 C8.13620579,6.90675325 8.38379421,6.99233766 8.6622508,6.99233766 C8.94083601,6.99233766 9.19215434,6.90675325 9.41659164,6.73467532 C9.64064309,6.56285714 9.75305466,6.28935065 9.75305466,5.91441558 L9.75305466,2.72727273 C9.75305466,2.50857143 9.82623794,2.32116883 9.97350482,2.16480519 C10.1205145,2.00883117 10.3100965,1.93038961 10.5421222,1.93038961 L11.3545981,1.93038961 L11.3545981,1.93051948 Z" id="Shape"></path>
                <path d="M17.3606431,8.16415584 L16.5484244,8.16415584 C16.3162701,8.16415584 16.1266881,8.09025974 15.9798071,7.94155844 C15.8325402,7.79311688 15.7593569,7.60168831 15.7593569,7.3674026 L15.7593569,4.18025974 C15.7593569,3.80519481 15.6469453,3.53207792 15.4227653,3.36012987 C15.198328,3.18831169 14.9470096,3.10233766 14.6685531,3.10233766 C14.3900965,3.10233766 14.1423794,3.18831169 13.9259164,3.36012987 C13.7090675,3.53207792 13.6010289,3.80532468 13.6010289,4.18025974 L13.6010289,8.16415584 L11.9762058,8.16415584 L11.9762058,4.50844156 C11.9762058,3.4461039 12.2506752,2.73545455 12.8,2.37584416 C13.3491961,2.01662338 13.9565273,1.82142857 14.621865,1.78987013 C15.3026367,1.78987013 15.9292605,1.96974026 16.5017363,2.32883117 C17.073955,2.68844156 17.3605145,3.41493506 17.3605145,4.50831169 L17.3605145,8.16415584 L17.3606431,8.16415584 Z" id="Shape"></path>
                <path d="M18.1107395,8.16415584 L18.1107395,1.74311688 C18.1107395,1.18064935 18.2576206,0.758831169 18.5517685,0.477662338 C18.8302251,0.212207792 19.2864309,0.0793506494 19.9210289,0.0793506494 C20.0754984,0.0793506494 20.1994855,0.0874025974 20.2923473,0.102727273 C20.4623794,0.102727273 20.5940836,0.110779221 20.6868167,0.126233766 L20.6868167,1.41519481 L20.2690675,1.41519481 C20.0522186,1.41519481 19.8977492,1.44662338 19.8050161,1.50896104 C19.7273312,1.57155844 19.6890032,1.69636364 19.6890032,1.88402597 L19.6890032,2.30584416 L20.6869453,2.30584416 L20.6869453,2.65727273 C20.6869453,2.89168831 20.6092605,3.08311688 20.4549196,3.23142857 C20.3000643,3.38012987 20.1219293,3.45415584 19.9211576,3.45415584 L19.6890032,3.45415584 L19.6890032,8.16454545 L18.1107395,8.16454545 L18.1107395,8.16415584 Z" id="Shape"></path>
                <path d="M24.9861093,7.90623377 C24.6612219,8.07831169 24.3167846,8.18350649 23.9534405,8.22272727 C23.5897106,8.26155844 23.2688103,8.2812987 22.9902251,8.2812987 C22.4333119,8.2812987 21.9458521,8.12896104 21.5281029,7.82428571 C21.1103537,7.51961039 20.9014791,7.01571429 20.9014791,6.31272727 C20.9014791,5.65649351 21.0908039,5.18779221 21.4700965,4.90662338 C21.8490032,4.62545455 22.3324759,4.43792208 22.9206431,4.34415584 C22.9979421,4.34415584 23.0906752,4.33246753 23.1990997,4.30896104 C23.3072669,4.28545455 23.431254,4.2661039 23.5705466,4.25038961 C24.2511897,4.15662338 24.5916399,3.95376623 24.5916399,3.64116883 C24.5916399,3.40675325 24.4715113,3.25441558 24.2318971,3.18415584 C23.9918971,3.11376623 23.7713183,3.0787013 23.570418,3.0787013 C23.3534405,3.0787013 23.1602572,3.11012987 22.9900965,3.17246753 C22.8196785,3.23506494 22.6960772,3.35233766 22.6187781,3.52402597 L21.0637942,3.52402597 C21.1254019,3.04 21.3422508,2.64155844 21.7136977,2.32883117 C22.1314469,1.96961039 22.7268167,1.78987013 23.5007074,1.78987013 C24.367074,1.78987013 25.0169775,1.93857143 25.4502894,2.23519481 C25.8987781,2.54792208 26.1232154,2.98519481 26.1232154,3.54753247 L26.1232154,5.68012987 C26.1232154,6.30506494 26.0108039,6.79311688 25.7867524,7.14467532 C25.5623151,7.49623377 25.2954341,7.75038961 24.9861093,7.90623377 L24.9861093,7.90623377 Z M24.614791,5.0238961 C24.3978135,5.13337662 24.0962058,5.23480519 23.709582,5.32857143 L23.1759486,5.44571429 C22.8973633,5.52415584 22.6962058,5.62545455 22.5724759,5.75038961 C22.4640514,5.92246753 22.4100322,6.09415584 22.4100322,6.26597403 C22.4100322,6.50038961 22.4796141,6.68779221 22.6189068,6.82844156 C22.7581994,6.95363636 22.9590997,7.01584416 23.2222508,7.01584416 C23.6551768,7.01584416 23.9957556,6.89090909 24.2434727,6.64077922 C24.4908039,6.39103896 24.6149196,6.04727273 24.6149196,5.60961039 L24.6149196,5.0238961 L24.614791,5.0238961 Z" id="Shape"></path>
                <path d="M26.7218006,8.16415584 L26.7218006,5.14116883 C26.7218006,4.53181818 26.8106752,4.02025974 26.9886817,3.60623377 C27.1664309,3.19246753 27.4100322,2.86038961 27.7197428,2.61025974 C28.0135048,2.37584416 28.3580707,2.20415584 28.7525402,2.09467532 C29.1470096,1.98545455 29.5533119,1.93051948 29.9710611,1.93051948 L30.087074,1.93051948 L30.2030868,1.93051948 L30.2030868,3.59441558 L29.6693248,3.59441558 C29.2203215,3.59441558 28.8878457,3.70402597 28.671254,3.92246753 C28.4544051,4.14155844 28.3463666,4.48493506 28.3463666,4.95350649 L28.3463666,8.16415584 L26.7218006,8.16415584 L26.7218006,8.16415584 Z" id="Shape"></path>
                <path d="M36.1161415,8.16415584 L34.5148553,8.16415584 L34.5148553,4.50844156 L34.5148553,4.18038961 C34.5148553,3.80532468 34.4024437,3.53220779 34.1783923,3.36025974 C33.9538264,3.18844156 33.7026367,3.10246753 33.4240514,3.10246753 C33.1455949,3.10246753 32.8978778,3.18844156 32.6814148,3.36025974 C32.4645659,3.53220779 32.3565273,3.80545455 32.3565273,4.18038961 L32.3565273,8.16428571 L30.7319614,8.16428571 L30.7319614,4.50857143 C30.7319614,3.44623377 31.0065595,2.73558442 31.5558842,2.37597403 C32.1049518,2.01675325 32.712283,1.82155844 33.3777492,1.79 C33.7335048,1.79 34.081672,1.82922078 34.4221222,1.90714286 C34.7623151,1.98545455 35.0718971,2.14155844 35.3504823,2.37584416 C35.5826367,2.17298701 35.8571061,2.02831169 36.1742765,1.94220779 C36.4913183,1.85662338 36.8200643,1.80571429 37.1606431,1.78987013 C37.8414148,1.78987013 38.4680386,1.96974026 39.0405145,2.32883117 C39.6127331,2.68844156 39.8992926,3.41493506 39.8992926,4.50831169 L39.8992926,8.16402597 L39.0868167,8.16402597 C38.8546624,8.16402597 38.6650804,8.09012987 38.5181994,7.94142857 C38.3709325,7.79298701 38.2977492,7.60155844 38.2977492,7.36727273 L38.2977492,4.18012987 C38.2977492,3.80506494 38.1853376,3.53194805 37.9611576,3.36 C37.7367203,3.18818182 37.4854019,3.10220779 37.2069453,3.10220779 C36.9284887,3.10220779 36.6767846,3.18818182 36.4527331,3.36 C36.2282958,3.53194805 36.1161415,3.80519481 36.1161415,4.18012987 L36.1161415,4.50818182 L36.1161415,8.16415584 L36.1161415,8.16415584 Z" id="Shape"></path>
            </g>
            <g id="Group" transform="translate(5.016077, 0.000000)" sketch:type="MSShapeGroup">
                <path d="M29.7536977,14.9645455 C29.7536977,14.4348052 29.726045,13.9118182 29.6727974,13.3963636 C26.4178778,16.1438961 19.8036013,13.965974 16.5158842,20.511039 C16.8806431,21.3777922 17.023537,22.4146753 17.2536334,23.4598701 C20.1236013,15.9315584 26.6469453,16.9272727 27.8324116,16.6602597 C26.6555627,17.2094805 20.7787781,17.6112987 17.9223151,25.9927273 C18.1558842,27.1306494 18.3332476,28.3933766 18.4177492,29.5120779 C24.9212862,27.9293506 29.7536977,22.0172727 29.7536977,14.9645455 L29.7536977,14.9645455 Z" id="Shape"></path>
                <path d="M13.6483601,29.8722078 C14.0720257,29.908961 14.5004502,29.928961 14.9335048,29.928961 C15.4397428,29.928961 15.9399357,29.9031169 16.4330547,29.8532468 C14.9790354,11.1424675 5.11382637,18.3355844 0.278456592,12.7272727 C0.170160772,13.4571429 0.113440514,14.2041558 0.113440514,14.9645455 C0.113440514,21.9207792 4.81440514,27.7679221 11.1832797,29.4451948 C10.3036656,23.0918182 7.01144695,19.7066234 3.27048232,17.8488312 C7.84913183,18.8906494 12.4270096,21.1209091 13.6483601,29.8722078 L13.6483601,29.8722078 Z" id="Shape"></path>
                <path d="M28.553955,9.05844156 L24.0787138,11.0377922 C23.8926045,10.6844156 23.6863023,10.3441558 23.4627653,10.0171429 L27.7654019,7.47376623 C27.2762701,6.62103896 26.7058521,5.82207792 26.065209,5.08662338 L22.2300965,8.53116883 C21.9557556,8.25701299 21.6671383,7.99753247 21.3639871,7.75597403 L24.8276527,3.82428571 C24.1046945,3.16909091 23.3174277,2.58467532 22.4766559,2.08181818 L19.7864952,6.72181818 C19.4518328,6.54363636 19.1072669,6.3825974 18.7525402,6.24181818 L20.9100965,1.26779221 C20.026881,0.874285714 19.0986495,0.565584416 18.1350482,0.351168831 L16.9711897,5.71961039 C16.6054019,5.64766234 16.2336977,5.59337662 15.8555627,5.56194805 L16.393955,0.0723376623 C15.9133119,0.0248051948 15.4263666,0 14.9335048,0 C14.4407717,0 13.9536977,0.0248051948 13.4733119,0.0723376623 L14.0129904,5.5761039 C13.6358842,5.6125974 13.2646945,5.66831169 12.9013505,5.74441558 L11.7323473,0.351038961 C10.768746,0.565324675 9.84038585,0.874155844 8.95717042,1.26766234 L11.1350482,6.28831169 C10.7837942,6.43233766 10.4424437,6.59532468 10.112283,6.77597403 L7.39073955,2.08168831 C6.55009646,2.58467532 5.76270096,3.16896104 5.03961415,3.82415584 L8.55948553,7.81961039 C8.2614791,8.06233766 7.97710611,8.32090909 7.7081672,8.59493506 L3.80192926,5.08662338 C3.16141479,5.82207792 2.59099678,6.62103896 2.10160772,7.47376623 L6.50032154,10.0738961 C6.28141479,10.398961 6.08038585,10.737013 5.8985209,11.0866234 L1.31318328,9.05857143 C1.01157556,9.76688312 0.762572347,10.5031169 0.571189711,11.2628571 C1.64874598,12.0123377 4.08514469,12.8607792 6.03151125,12.9727273 C7.51652733,13.0580519 9.27755627,13.2314286 11.0682958,14.0620779 C12.7394212,14.8371429 14.1274598,16.0433766 15.2127331,17.66 C16.5041801,15.9549351 18.0425723,14.7162338 19.8034727,13.9661039 C21.7214148,13.1490909 23.3140836,13.0598701 24.6771704,12.9455844 C27.004373,12.7503896 29.4325402,11.8561039 29.4325402,11.8561039 C29.2294534,10.8854545 28.9335048,9.94961039 28.553955,9.05844156 L28.553955,9.05844156 Z" id="Shape"></path>
            </g>
        </g>
    </g>
</svg>