<?xml version="1.0" encoding="UTF-8" standalone="no"?>
<svg width="100px" height="100px" viewBox="0 0 100 100" version="1.1" xmlns="http://www.w3.org/2000/svg" xmlns:xlink="http://www.w3.org/1999/xlink" xmlns:sketch="http://www.bohemiancoding.com/sketch/ns">
    <!-- Generator: Sketch 3.3.3 (12081) - http://www.bohemiancoding.com/sketch -->
    <title>syngrow-logo</title>
    <desc>Created with Sketch.</desc>
    <defs></defs>
    <g id="Page-1" stroke="none" stroke-width="1" fill="none" fill-rule="evenodd" sketch:type="MSPage">
        <g id="Shape-+-syngrow" sketch:type="MSLayerGroup" transform="translate(4.000000, 36.000000)">
            <path d="M55.154,0 C53.325,3.1 54.119,5.906 52.33,7.696 C50.893,9.133 49.56,9.087 47.993,9.087 C47.448,9.087 46.389,9.134 45.945,9.456 C45.688,8.637 45.577,7.736 45.577,6.877 C45.577,5.401 45.908,4.089 46.969,3.029 C49.001,0.998 52.682,0.352 55.154,0" id="Shape" fill="#009F3C" sketch:type="MSShapeGroup"></path>
            <path d="M8.95996094,10.0004883 L8.95996094,14.8100586 C8.31705408,14.8100586 7.87557086,14.9300932 7.63549805,15.170166 C7.39542523,15.4102388 7.24283887,15.8842738 7.17773438,16.5922852 C6.96614478,18.9441849 6.05469556,20.6043246 4.44335938,21.5727539 C3.58886292,22.0773137 2.37630994,22.3295898 0.805664062,22.3295898 L0.170898438,22.3295898 L0.170898438,17.4956055 L0.378417969,17.4956055 C1.11084351,17.4956055 1.63370612,17.3430191 1.94702148,17.0378418 C2.26033685,16.7326645 2.44140601,16.197595 2.49023438,15.4326172 C2.55533887,14.1874938 2.6713045,13.3126653 2.83813477,12.8081055 C3.00496503,12.3035457 3.344724,11.8030624 3.85742188,11.3066406 C4.75260864,10.435868 5.99364441,10.0004883 7.58056641,10.0004883 L8.95996094,10.0004883 Z M12.0239258,27.3344727 L12.0239258,23.3671875 C12.6424185,23.6276055 13.1835914,23.7578125 13.6474609,23.7578125 C15.1285881,23.7578125 16.088865,22.9236737 16.5283203,21.2553711 C15.7307903,21.7273787 14.9495481,21.9633789 14.1845703,21.9633789 C13.0533798,21.9633789 12.1215857,21.5422405 11.3891602,20.6999512 C10.6567346,19.8576618 10.2905273,18.7854883 10.2905273,17.4833984 L10.2905273,9.82958984 L14.855957,9.82958984 L14.855957,16.3725586 C14.855957,17.0968461 15.1570608,17.4589844 15.7592773,17.4589844 C16.3370797,17.4589844 16.6259766,17.0602253 16.6259766,16.2626953 L16.6259766,9.82958984 L21.1914062,9.82958984 L21.1914062,20.6938477 C21.1914062,22.720225 20.6217505,24.3559508 19.4824219,25.6010742 C18.1233656,27.0822014 16.4795018,27.8227539 14.5507812,27.8227539 C13.7044229,27.8227539 12.8621461,27.6599951 12.0239258,27.3344727 L12.0239258,27.3344727 Z M34.7045898,22 L30.1391602,22 L30.1391602,15.1274414 C30.1391602,14.4275681 29.8502633,14.0776367 29.2724609,14.0776367 C28.7027966,14.0776367 28.4179688,14.4275681 28.4179688,15.1274414 L28.4179688,22 L23.8525391,22 L23.8525391,15.2128906 C23.8525391,13.6259686 24.3774362,12.2893121 25.4272461,11.2028809 C26.477056,10.1164496 27.7628505,9.57324219 29.284668,9.57324219 C31.0262131,9.57324219 32.4218698,10.2039325 33.4716797,11.465332 C34.2936239,12.4500375 34.7045898,13.8212803 34.7045898,15.5791016 L34.7045898,22 Z M43.8598633,16.9829102 L43.8598633,21.1699219 C43.2006803,21.4140637 42.56999,21.5361328 41.9677734,21.5361328 C40.4947843,21.5361328 39.2476451,20.978684 38.2263184,19.8637695 C37.2049916,18.7488551 36.6943359,17.3857502 36.6943359,15.7744141 C36.6943359,14.0328689 37.3087504,12.5639708 38.5375977,11.3676758 C39.7664449,10.1713807 41.2760327,9.57324219 43.0664062,9.57324219 C44.0185594,9.57324219 44.9300087,9.76448376 45.8007812,10.1469727 C46.6715538,10.5294615 47.3551407,11.0421517 47.8515625,11.6850586 C48.6816448,12.7511447 49.0966797,14.2973531 49.0966797,16.3237305 L49.0966797,20.3276367 C49.0966797,22.5004991 48.4802308,24.2643975 47.2473145,25.6193848 C46.0143981,26.974372 44.4091896,27.6518555 42.4316406,27.6518555 C41.8294241,27.6518555 41.0685267,27.5013036 40.1489258,27.2001953 L40.1489258,23.0498047 C40.7430043,23.3753271 41.3452118,23.5380859 41.9555664,23.5380859 C42.7775106,23.5380859 43.4122699,23.2674995 43.8598633,22.7263184 C44.3074567,22.1851373 44.53125,21.4099985 44.53125,20.4008789 L44.53125,15.8232422 C44.53125,14.5455665 44.0144908,13.9067383 42.980957,13.9067383 C42.5415017,13.9067383 42.1569841,14.0756005 41.8273926,14.4133301 C41.4978011,14.7510596 41.3330078,15.1396462 41.3330078,15.5791016 C41.3330078,16.0429711 41.4896631,16.4295232 41.8029785,16.7387695 C42.1162939,17.0480159 42.5048805,17.2026367 42.96875,17.2026367 C43.2779963,17.2026367 43.5750311,17.1293953 43.8598633,16.9829102 L43.8598633,16.9829102 Z M58.4594727,9.70751953 L58.4594727,14.590332 C58.1420883,14.4112947 57.8531914,14.3217773 57.5927734,14.3217773 C56.7626912,14.3217773 56.3476562,14.9565366 56.3476562,16.2260742 L56.3476562,22 L51.7822266,22 L51.7822266,15.347168 C51.7822266,13.5893467 52.262365,12.1875866 53.2226562,11.1418457 C54.1829475,10.0961048 55.464673,9.57324219 57.0678711,9.57324219 C57.4259458,9.57324219 57.8898083,9.61800085 58.4594727,9.70751953 L58.4594727,9.70751953 Z M65.5761719,9.57324219 C67.3014409,9.57324219 68.7805114,10.1937601 70.0134277,11.4348145 C71.2463441,12.6758688 71.862793,14.1630773 71.862793,15.8964844 C71.862793,17.6543057 71.2382061,19.1516865 69.9890137,20.3886719 C68.7398212,21.6256572 67.2322679,22.2441406 65.4663086,22.2441406 C63.7003492,22.2441406 62.1907615,21.6236227 60.9375,20.3825684 C59.6842385,19.141514 59.0576172,17.6461676 59.0576172,15.8964844 C59.0576172,14.1142489 59.6842385,12.6148336 60.9375,11.3981934 C62.1907615,10.1815532 63.73697,9.57324219 65.5761719,9.57324219 L65.5761719,9.57324219 Z M65.4541016,14.0776367 C64.9658179,14.0776367 64.550783,14.2546369 64.2089844,14.6086426 C63.8671858,14.9626483 63.6962891,15.3959935 63.6962891,15.9086914 C63.6962891,16.4132512 63.8692203,16.844562 64.2150879,17.2026367 C64.5609555,17.5607114 64.9739559,17.7397461 65.4541016,17.7397461 C65.9423853,17.7397461 66.3594547,17.5607114 66.7053223,17.2026367 C67.0511899,16.844562 67.2241211,16.4132512 67.2241211,15.9086914 C67.2241211,15.3959935 67.0532244,14.9626483 66.7114258,14.6086426 C66.3696272,14.2546369 65.9505233,14.0776367 65.4541016,14.0776367 L65.4541016,14.0776367 Z M73.7670898,10.0004883 L78.3325195,10.0004883 L78.3325195,16.5556641 C78.3325195,17.0683619 78.3854161,17.4243968 78.4912109,17.6237793 C78.5970057,17.8231618 78.7882473,17.9228516 79.0649414,17.9228516 C79.5776393,17.9228516 79.8339844,17.467127 79.8339844,16.5556641 L79.8339844,10.0004883 L84.3994141,10.0004883 L84.3994141,16.5556641 C84.3994141,17.0683619 84.4543452,17.4243968 84.564209,17.6237793 C84.6740728,17.8231618 84.8673489,17.9228516 85.144043,17.9228516 C85.6486028,17.9228516 85.9008789,17.467127 85.9008789,16.5556641 L85.9008789,10.0004883 L90.4663086,10.0004883 L90.4663086,17.4956055 C90.4663086,18.8627998 90.006515,20.0244907 89.0869141,20.9807129 C88.1673131,21.9369351 87.0524154,22.4150391 85.7421875,22.4150391 C84.3912693,22.4150391 83.1787163,21.8453833 82.1044922,20.7060547 C80.9163352,21.8453833 79.7200581,22.4150391 78.515625,22.4150391 C76.9938075,22.4150391 75.7731166,21.8616592 74.8535156,20.7548828 C74.1292281,19.8841102 73.7670898,18.6267986 73.7670898,16.9829102 L73.7670898,10.0004883 Z" id="syngrow" fill="#36398E" sketch:type="MSShapeGroup"></path>
        </g>
    </g>
</svg>