<?xml version="1.0" encoding="UTF-8" standalone="no"?>
<svg width="35px" height="40px" viewBox="0 0 35 40" version="1.1" xmlns="http://www.w3.org/2000/svg" xmlns:xlink="http://www.w3.org/1999/xlink" xmlns:sketch="http://www.bohemiancoding.com/sketch/ns">
    <!-- Generator: Sketch 3.3.3 (12081) - http://www.bohemiancoding.com/sketch -->
    <title>verkyk-logo-white</title>
    <desc>Created with Sketch.</desc>
    <defs></defs>
    <g id="Page-1" stroke="none" stroke-width="1" fill="none" fill-rule="evenodd" sketch:type="MSPage">
        <g id="verkyk-logo-white" sketch:type="MSLayerGroup" fill="#FFFFFF">
            <path d="M17.6461299,0 C10.6311017,0 4.92372881,5.7724 4.92372881,12.8678 C4.92372881,16.8474 6.70002825,20.538 9.79723164,22.9936 C10.0671469,23.2074 10.4574859,23.1598 10.6686723,22.8868 C10.8802542,22.614 10.8329944,22.2192 10.5630791,22.0052 C7.76841808,19.7894 6.16533898,16.459 6.16533898,12.8678 C6.16533898,6.465 11.315678,1.2558 17.6461299,1.2558 C23.9777684,1.2558 29.1288983,6.465 29.1288983,12.8678 C29.1288983,19.0602 24.3111582,24.1358 18.2670339,24.463 L18.2678249,18.8618 C19.7358475,18.1642 24.4865537,15.3272 22.8573729,8.4318 C22.7905367,8.1492 22.540791,7.9498 22.2534746,7.9498 L13.0575706,7.9498 C13.0532203,7.9498 13.0492655,7.951 13.0449153,7.951 C12.7623446,7.949 12.5052825,8.142 12.4368644,8.4316 C11.7372599,11.3932 11.9759322,13.5742 13.1463559,14.9138 C14.1791525,16.096 15.614548,16.2398 16.2512712,16.2398 C16.4377401,16.2398 16.555791,16.2276 16.5749718,16.2252 C16.9144915,16.1868 17.1579096,15.8784 17.1219209,15.5348 C17.0857345,15.191 16.7804237,14.9446 16.4403107,14.9768 C16.4252825,14.9786 14.9699153,15.115 14.0688136,14.0732 C13.2580791,13.1362 13.0773446,11.4588 13.5384746,9.2056 L21.7539831,9.2056 C23.0321751,15.775 17.6761864,17.7724 17.4434463,17.8554 C17.1938983,17.9432 17.0266102,18.1812 17.0266102,18.4486 L17.0254237,25.1076 C17.0254237,25.274 17.0908757,25.4338 17.2071469,25.5516 C17.3236158,25.6694 17.4814124,25.7356 17.6461299,25.7356 C24.6623446,25.7356 30.3705085,19.9632 30.3705085,12.8678 C30.3705085,5.7724 24.6625424,0 17.6461299,0 L17.6461299,0 Z" id="Shape" sketch:type="MSShapeGroup"></path>
            <g id="Group" transform="translate(0.000000, 28.400000)" sketch:type="MSShapeGroup">
                <path d="M0,0.8434 L2.76341808,0.8434 L2.76341808,1.3238 L2.07409605,1.3942 L1.94655367,1.5642 L4.17686441,7.611 L6.32036723,1.5642 L6.20449153,1.3942 L5.46870056,1.3238 L5.46870056,0.8434 L7.83228814,0.8434 L7.83228814,1.3238 L7.09649718,1.4644 L4.3680791,8.9528 L3.54548023,8.9528 L0.758926554,1.4646 L0,1.324 L0,0.8434 L0,0.8434 Z" id="Shape"></path>
                <path d="M11.6848588,7.6228 L11.6848588,8.285 C11.3328814,8.5194 10.9674576,8.6972 10.5885876,8.8182 C10.2097175,8.9392 9.82887006,8.9998 9.4460452,8.9998 C8.66101695,8.9998 8.02409605,8.7274 7.53468927,8.1824 C7.04548023,7.6374 6.80107345,6.9276 6.80107345,6.0526 C6.80107345,5.1542 7.05714689,4.4208 7.56949153,3.8524 C8.08183616,3.284 8.74011299,2.9998 9.54451977,2.9998 C10.2018079,2.9998 10.7228531,3.2118 11.1074576,3.6356 C11.4922599,4.0594 11.684661,4.6366 11.684661,5.367 C11.684661,5.4646 11.6836723,5.5388 11.6816949,5.5896 C11.6797175,5.6404 11.6749718,5.6892 11.6672599,5.736 L7.82081921,5.736 L7.82081921,5.8708 C7.82081921,6.6248 8.00076271,7.2214 8.36045198,7.6608 C8.72014124,8.1002 9.20559322,8.32 9.81680791,8.32 C10.0991808,8.32 10.3922316,8.2634 10.6957627,8.15 C10.9992938,8.0366 11.3289266,7.861 11.6848588,7.6228 L11.6848588,7.6228 Z M10.6188418,5.2322 L10.6188418,5.0452 C10.6188418,4.5626 10.5136441,4.1928 10.3030508,3.9358 C10.0924576,3.679 9.78655367,3.5504 9.38474576,3.5504 C8.99084746,3.5504 8.6499435,3.709 8.36223164,4.0264 C8.07451977,4.3436 7.91316384,4.7456 7.87855932,5.232 L10.6188418,5.232 L10.6188418,5.2322 Z" id="Shape"></path>
                <path d="M12.5422599,8.8942 L12.5422599,8.4606 L13.1736441,8.402 L13.3763277,8.2086 L13.3763277,3.8668 L12.5420621,3.8668 L12.5420621,3.4918 L13.920904,3.064 L14.3727401,3.064 L14.3727401,4.189 C14.5659322,3.9898 14.7676271,3.7934 14.9782203,3.6002 C15.1886158,3.4068 15.409887,3.2164 15.6414407,3.029 C15.6762429,3.0172 15.7138136,3.0094 15.7543503,3.0056 C15.794887,3.0018 15.855791,2.9998 15.9368644,2.9998 C16.0564972,2.9998 16.1743503,3.0124 16.290226,3.0378 C16.4061017,3.0632 16.5257345,3.1032 16.649322,3.158 L16.649322,4.1892 L16.2728249,4.1892 C16.1955085,4.0954 16.1057345,4.0242 16.0035028,3.9754 C15.9010734,3.9266 15.7881638,3.9022 15.6645763,3.9022 C15.475339,3.9022 15.2754237,3.9734 15.0650282,4.116 C14.854435,4.2586 14.6238701,4.4802 14.3727401,4.781 L14.3727401,8.2088 L14.5754237,8.4022 L15.4037571,8.4608 L15.4037571,8.8944 L12.5422599,8.8944 L12.5422599,8.8942 Z" id="Shape"></path>
                <path d="M17.014548,8.8942 L17.014548,8.4606 L17.6575989,8.402 L17.8602825,8.2086 L17.8602825,0.8668 L16.9449435,0.8668 L16.9449435,0.4918 L18.3931921,0.064 L18.8450282,0.064 L18.8450282,5.8354 L19.0710452,5.8354 L20.884322,3.7846 L20.8032486,3.6146 L20.2644068,3.5678 L20.2644068,3.1224 L22.5178531,3.1224 L22.5178531,3.5678 L21.7589266,3.6616 L20.1368644,5.4018 L22.2224294,8.3784 L22.9813559,8.437 L22.9813559,8.894 L21.1332768,8.894 L21.1332768,8.4956 L19.5286158,6.1694 L18.8450282,6.1694 L18.8450282,8.2084 L19.0536441,8.4018 L19.6156215,8.4604 L19.6156215,8.894 L17.014548,8.894 L17.014548,8.8942 Z" id="Shape"></path>
                <path d="M22.8423446,3.1228 L25.414548,3.1228 L25.414548,3.5682 L24.7888983,3.615 L24.6441525,3.8084 L26.0692655,7.5408 L27.5523164,3.8084 L27.4595763,3.615 L26.8165254,3.5682 L26.8165254,3.1228 L28.9309605,3.1228 L28.9309605,3.5682 L28.2416384,3.662 L25.8663842,9.492 C25.5766949,10.199 25.2812712,10.7118 24.980113,11.03 C24.6789548,11.3482 24.3427966,11.5076 23.9720339,11.5076 C23.7248588,11.5076 23.5259322,11.446 23.3752542,11.323 C23.2245763,11.2 23.1492373,11.0388 23.1492373,10.8396 C23.1492373,10.7224 23.1755367,10.6092 23.2275424,10.4998 C23.279548,10.3904 23.355678,10.287 23.4561299,10.1892 L24.5972881,10.6462 C24.7711017,10.4586 24.9401695,10.2106 25.1042938,9.902 C25.2684181,9.5934 25.419887,9.2418 25.5588983,8.8474 L23.5660734,3.6384 L22.8419492,3.568 L22.8419492,3.1228 L22.8423446,3.1228 Z" id="Shape"></path>
                <path d="M29.0237006,8.8942 L29.0237006,8.4606 L29.6667514,8.402 L29.869435,8.2086 L29.869435,0.8668 L28.954096,0.8668 L28.954096,0.4918 L30.4023446,0.064 L30.8541808,0.064 L30.8541808,5.8354 L31.0801977,5.8354 L32.8934746,3.7846 L32.8124011,3.6146 L32.2735593,3.5678 L32.2735593,3.1224 L34.5270056,3.1224 L34.5270056,3.5678 L33.7680791,3.6616 L32.1460169,5.4018 L34.2315819,8.3784 L34.9905085,8.437 L34.9905085,8.894 L33.1424294,8.894 L33.1424294,8.4956 L31.5377684,6.1694 L30.8541808,6.1694 L30.8541808,8.2084 L31.0627966,8.4018 L31.624774,8.4604 L31.624774,8.894 L29.0237006,8.894 L29.0237006,8.8942 Z" id="Shape"></path>
            </g>
        </g>
    </g>
</svg>