<?xml version="1.0" encoding="utf-8"?>
<!-- Generator: Adobe Illustrator 17.1.0, SVG Export Plug-In . SVG Version: 6.00 Build 0)  -->
<!DOCTYPE svg PUBLIC "-//W3C//DTD SVG 1.1//EN" "http://www.w3.org/Graphics/SVG/1.1/DTD/svg11.dtd">
<svg version="1.1" id="Layer_1" xmlns="http://www.w3.org/2000/svg" xmlns:xlink="http://www.w3.org/1999/xlink" x="0px" y="0px"
	 viewBox="0 0 512 512" enable-background="new 0 0 512 512" xml:space="preserve">
<path d="M241.4,416c0-7,5.6-12.6,12.6-12.6l0,0c7,0,12.6,5.6,12.6,12.6v50.4c0,7-5.6,12.6-12.6,12.6l0,0c-7,0-12.6-5.6-12.6-12.6
	V416z M172.6,315.7c-2.1,19.7,4.3,40.2,19.4,55.3s35.6,21.6,55.3,19.4c2.1-19.7-4.3-40.2-19.4-55.3
	C212.7,320,192.3,313.6,172.6,315.7z M280.1,335.1c-15.1,15.1-21.6,35.6-19.4,55.3c19.7,2.1,40.2-4.3,55.3-19.4
	c15.1-15.1,21.6-35.6,19.4-55.3C315.7,313.6,295.3,320,280.1,335.1z M172.6,246.4c-2.1,19.7,4.3,40.2,19.4,55.3s35.6,21.6,55.3,19.4
	c2.1-19.7-4.3-40.2-19.4-55.3C212.7,250.8,192.3,244.3,172.6,246.4z M280.1,265.9c-15.1,15.1-21.6,35.6-19.4,55.3
	c19.7,2.1,40.2-4.3,55.3-19.4c15.1-15.1,21.6-35.6,19.4-55.3C315.7,244.3,295.3,250.8,280.1,265.9z M172.6,177.2
	c-2.1,19.7,4.3,40.2,19.4,55.3c15.1,15.1,35.6,21.6,55.3,19.4c2.1-19.7-4.3-40.2-19.4-55.3C212.7,181.5,192.3,175.1,172.6,177.2z
	 M280.1,196.6c-15.1,15.1-21.6,35.6-19.4,55.3c19.7,2.1,40.2-4.3,55.3-19.4c15.1-15.1,21.6-35.6,19.4-55.3
	C315.7,175.1,295.3,181.5,280.1,196.6z M172.6,107.9c-2.1,19.7,4.3,40.2,19.4,55.3c15.1,15.1,35.6,21.6,55.3,19.4
	c2.1-19.7-4.3-40.2-19.4-55.3C212.7,112.3,192.3,105.8,172.6,107.9z M280.1,127.4c-15.1,15.1-21.6,35.6-19.4,55.3
	c19.7,2.1,40.2-4.3,55.3-19.4c15.1-15.1,21.6-35.6,19.4-55.3C315.7,105.8,295.3,112.3,280.1,127.4z M254,32
	c-15.5,12.4-25.4,31.5-25.4,52.9s9.9,40.4,25.4,52.8c15.4-12.4,25.4-31.5,25.4-52.9C279.4,63.5,269.5,44.4,254,32z"/>
</svg>
