<?xml version="1.0" encoding="utf-8"?>
<!-- Generator: Adobe Illustrator 17.1.0, SVG Export Plug-In . SVG Version: 6.00 Build 0)  -->
<!DOCTYPE svg PUBLIC "-//W3C//DTD SVG 1.1//EN" "http://www.w3.org/Graphics/SVG/1.1/DTD/svg11.dtd">
<svg version="1.1" id="Layer_1" xmlns="http://www.w3.org/2000/svg" xmlns:xlink="http://www.w3.org/1999/xlink" x="0px" y="0px"
	 viewBox="0 0 512 512" enable-background="new 0 0 512 512" xml:space="preserve">
<g>
	<path d="M334.4,110.6c0-12.8,10.4-23.2,23.2-23.2c12.8,0,23.2,10.3,23.2,23.2c0,12.8-10.4,23.2-23.2,23.2
		C344.7,133.8,334.4,123.4,334.4,110.6"/>
	<path d="M366.2,140.5c0,0,20.5-2,20.5,20.4c-0.4,0,0,60.9,0,60.9s0.8,10.2-13.8,12.6c0.4-0.4-64.5,14.2-64.5,14.2s-4.7,0.4-6.3,5.1
		c0,0.4-18.1,66.4-18.1,66.4s-2,10.6-14.9,7.5c1.2,0-13.4-0.8-9.8-16.5c0.4,0.4,17.7-72.4,17.7-72.4s2-13.7,18.1-16.9
		c0.4,0,43.7-8.7,43.7-8.7s3.9-1.2,2.7-4.3c0-0.4-6.7-18.5-6.7-18.5s-2-3.2-6.3-0.8c0.4,0-43.3,21.2-43.3,21.2s-11.4,5.1-16.1-5.5
		c0.4,0-7.5-11.8,4.7-19.3c0.4-0.4,77.1-42.5,77.1-42.5S356.8,140.1,366.2,140.5"/>
	<path d="M91.7,305.2c-32.2,0-58.2,26.1-58.2,58.2s26,58.2,58.2,58.2c32.2,0,58.2-26.1,58.2-58.2S123.9,305.2,91.7,305.2z M91.7,387
		c-13,0-23.6-10.6-23.6-23.6c0-13.1,10.5-23.6,23.6-23.6c13,0,23.6,10.5,23.6,23.6C115.3,376.5,104.8,387,91.7,387z"/>
	<path d="M386.7,241.5c-51.3,0-92.8,41.6-92.8,92.8c0,51.3,41.6,92.8,92.8,92.8c51.2,0,92.8-41.5,92.8-92.8
		C479.5,283.1,437.9,241.5,386.7,241.5z M386.7,370.1c-19.8,0-35.8-16-35.8-35.8s16-35.8,35.8-35.8c19.8,0,35.8,16,35.8,35.8
		S406.4,370.1,386.7,370.1z"/>
	<path d="M268.8,217l-28.2-28.2c-1.9-1.9-5.3-1.9-7.3,0l-5.5,5.5c-1,1-1.5,2.3-1.5,3.6c0,1.4,0.5,2.7,1.5,3.6l5.9,5.9
		c1.7,1.7,1.7,4.4,0,6.1l-4.5,4.5c-1.6,1.6-3.3,1.1-3.9-1l-2.8-10.6c-0.7-2.7-3.5-4.9-6.3-4.9H40c-1.4,0-2.6,0.5-3.3,1.5
		c-0.7,1-1,2.2-0.6,3.6L60,298c0.7,2.7,3.5,4.9,6.3,4.9h176.2c1.4,0,2.6-0.5,3.3-1.5c0.7-1,1-2.2,0.6-3.6l-14.7-56.2
		c-0.6-2.4,0.3-5.8,2-7.5l10.2-10.2c1.6-1.6,4.5-1.6,6.1,0l5.9,5.9c1.9,1.9,5.3,1.9,7.3,0l5.5-5.5c1-1,1.5-2.3,1.5-3.6
		S269.8,217.9,268.8,217z"/>
	<path d="M254.5,328.1l-4.2-16.1c-0.7-2.7-3.5-4.9-6.3-4.9H133.5c-1.4,0-2.4,0.5-2.8,1.3c-0.4,0.8,0,1.9,0.9,2.9l16.7,18.2
		c1.8,2,5.5,3.6,8.2,3.6h94c1.4,0,2.6-0.5,3.3-1.5C254.6,330.8,254.8,329.5,254.5,328.1z"/>
</g>
</svg>
