<?xml version="1.0" encoding="utf-8"?>
<!-- Generator: Adobe Illustrator 17.1.0, SVG Export Plug-In . SVG Version: 6.00 Build 0)  -->
<!DOCTYPE svg PUBLIC "-//W3C//DTD SVG 1.1//EN" "http://www.w3.org/Graphics/SVG/1.1/DTD/svg11.dtd">
<svg version="1.1" id="Layer_1" xmlns="http://www.w3.org/2000/svg" xmlns:xlink="http://www.w3.org/1999/xlink" x="0px" y="0px"
	 viewBox="0 0 512 512" enable-background="new 0 0 512 512" xml:space="preserve">
<path d="M410.2,192.7c0,0-7.6-6.7-14.7-15c-5.9-6.6-12.3-14.5-18.1-20.7c-2.9-3.1-5.6-5.9-8.1-8.1c-0.7-0.5-1.3-1-1.9-1.5
	c1-0.9,2-1.9,3-2.8c6.3-6.5,10.3-12.6,10.4-12.7c2.1-3.2,1.3-7.6-1.9-9.7s-7.4-1.3-9.5,2c0,0-0.8,1.2-2.3,3.2
	c-2.3,3-6.2,7.6-10.5,11.1c-1.7,1.4-3.4,2.6-5.1,3.5c-2-0.6-4.3-1-7-1.2c-4.1-0.1-9,1.7-12.6,5.5c-0.3,0.4-3.4,2.4-8.7,4
	c-15.8,5.1-50.1,9.5-101.3,9.5c-34.2,0-49-1.9-59.1-3.7c-9.9-1.9-16.9-4-32.8-4c-15.6,0.1-24.9,1.3-32,4.8
	c-7.1,3.7-10.2,9.9-12.6,14.5c-0.1,0.1-0.1,0.3-0.2,0.4c-0.1,0.2-0.2,0.3-0.3,0.5c-1.8,4.2-2.4,8.7-2.5,13.3c-1,5-2.5,11.3-4.3,18.1
	c-4.6,16.9-12.1,37.5-22.6,51.8c-2.6,2.7-16.1,16.9-23.7,32.3c-1.4,2.7-0.8,6,1.3,8.1c1.3,1.4,3.1,2,4.8,2c1,0,2.1-0.3,3.1-0.8
	c16.6-8.9,24.1-28.7,25.9-33.8c9.3-12.8,16-28.7,20.7-43.4c2.4,10.4,4.6,20,4.5,24.5c0,6.5-1.5,11.4-3.5,17.2
	c-1.9,5.9-4.2,12.7-4.2,21.7c0.1,17.3,7.8,48,7.8,48.3l7.7,31c0.8,3.1,3.5,5.3,6.7,5.3h7.7c2.2,0,4.3-1.1,5.6-2.9
	c1.3-1.8,1.6-4.2,0.9-6.3c0,0-1.9-5.7-3.7-12.3c-1.9-6.5-3.7-14.5-3.6-16.5c0-5.3,0.8-10.5,2.1-15.4c2.9,1,5.7,1.7,8.3,2.1l2.7,11.1
	c0.8,3.1,3.6,5.3,6.6,5.3c0.5,0,1.1-0.1,1.7-0.3c3.7-0.9,6-4.7,5-8.4l-1.8-8.3c5.2-1.4,9.5-4.3,12.6-7.7l5.9,3.9
	c1.2,0.8,2.5,1.2,3.8,1.2c2.2,0,4.4-1.1,5.7-3.1c2.1-3.2,1.3-7.5-2-9.7l-6.7-4.5c0.8-2.6,1.3-4.8,1.6-6.8c13.3,2.6,27,8.5,47.3,8.7
	c14.5,0,29.6-4.6,42.8-8.9c12.8-4.3,24.7-8.4,28.7-8.2c0.1,0,0.2,0,0.3,0c0.8,2.1,2,7.9,2.6,14.5c2.9,24.7,2.9,65.5,2.9,65.6
	c0,1.8,0.8,3.7,2,4.9s3.1,2,4.8,2h7.7c1.9,0,3.6-0.7,4.8-2s2-3.1,2-4.9v-22.9l6.8-48.6c5.5-1.4,10.4-4.7,14.5-8.7
	c16.3-15.9,26-45.7,31.6-56.5c0.7-1.4,2.6-3.1,6.3-4.2c3.6-1.1,8.6-1.6,13.3-1.6c4.8,0,9.6,0.4,13.2,0.9c3.5,0.4,5.6,0.9,5.6,0.9
	c3.1,0.6,6.1-0.9,7.5-3.7l7.7-15.6C413.2,198.2,412.5,194.7,410.2,192.7z M143.5,294.8C143.5,294.9,143.4,294.9,143.5,294.8
	c-0.3,0.5-0.6,0.9-0.8,1.4c-0.3,0.5-0.5,1-0.9,1.4c-2.4,3.2-4.9,5.4-11.1,5.5c-2.5,0-5.6-0.4-9.5-1.7c3.8-7.1,9.2-11.5,10.4-11.5
	c5.1-1.3,9.6-1.9,13.9-2C145.2,290.3,144.5,292.7,143.5,294.8z M246.7,270.8c-0.3,0.1-20.2,12.2-39.6,12.3c-1.5,0-3.1-0.1-4.5-0.3
	c-32.4-3.8-45.8-20.5-59.7-20c-1.4,0-2.8,0.2-4.3,0.4c-1.9,0.4-3.7-0.9-4.1-2.7c-0.4-1.9,0.8-3.7,2.7-4.1c2-0.4,3.8-0.6,5.7-0.6
	c18.9,0.5,30.2,16.7,60.5,20c1.3,0.2,2.5,0.2,3.8,0.2c8.3,0,17.5-2.8,24.4-5.7c7-2.9,11.7-5.7,11.7-5.7c1.6-0.9,3.7-0.4,4.7,1.3
	C248.9,267.6,248.3,269.9,246.7,270.8z M371.2,182.4c-2.1,0-3.8-1.7-3.8-3.9s1.7-3.9,3.8-3.9c2.1,0,3.8,1.7,3.8,3.9
	C375,180.7,373.3,182.4,371.2,182.4z"/>
<g>
	<path d="M471.5,275.6c-7.3,7.3-22.5,27-40.5,27c-9,0-14.7-0.1-18-4.5c-13.5-18-14.8-31.4-36-31.4c-9.8,0-22.5,20-22.5,22.5
		c0,2.8,3.1,4.5,9,4.5c13.5,0,18-0.1,18,8.9c0,4.3,2.3,27.8,9,36c12.6,15.4,40.6,18.3,29.2,18l-8.7,13.1c3.8-0.5,7.7-0.9,11.7-1.3
		l5-7.4c30.5-4.9,34.9-26.8,34.9-26.8c13.5-9,9-22.5,9-22.5C486.9,301.4,476.6,270.5,471.5,275.6z M377,284.7c-2.5,0-4.5-2-4.5-4.5
		s2-4.5,4.5-4.5c2.5,0,4.5,2,4.5,4.5S379.5,284.7,377,284.7z M408.5,320.7c27,13.5,49.5,0,49.5,0C422,361.2,396.4,314.7,408.5,320.7
		z"/>
</g>
</svg>
