<?xml version="1.0" encoding="utf-8"?>
<!-- Generator: Adobe Illustrator 17.1.0, SVG Export Plug-In . SVG Version: 6.00 Build 0)  -->
<!DOCTYPE svg PUBLIC "-//W3C//DTD SVG 1.1//EN" "http://www.w3.org/Graphics/SVG/1.1/DTD/svg11.dtd">
<svg version="1.1" id="Layer_1" xmlns="http://www.w3.org/2000/svg" xmlns:xlink="http://www.w3.org/1999/xlink" x="0px" y="0px"
	 viewBox="0 0 512 512" enable-background="new 0 0 512 512" xml:space="preserve">
<path d="M456.8,438.9h-77.3c-3.9,0-7.1-2.6-7.1-5.8v-20.7c0-3.2-3.2-5.8-7.1-5.8h-94.2c-3.9,0-7.1-2.6-7.1-5.8v-28.8
	c0-3.2-3.2-5.8-7.1-5.8H64.2c-3.9,0-7.1,2.6-7.1,5.8v101.6c0,3.2,3.2,5.8,7.1,5.8h94.2c3.9,0,10.3,0,14.2,0h77.3c3.9,0,8.7,0,10.6,0
	c1.9,0,6.7,0,10.6,0h94.2c3.9,0,10.3,0,14.2,0h77.3c3.9,0,7.1-2.6,7.1-5.8v-28.8C463.9,441.5,460.7,438.9,456.8,438.9z"/>
<path d="M271.9,142.1c0.3,0,0.7-0.1,1-0.1c0.3,0,0.7,0.1,1,0.1H396c0.9,0,1.7-0.1,2.6-0.3c13.9-1.2,25-11.9,27-25.6
	c-21.8-4.1-38.4-23.1-38.8-46c-5.3-8.2-14.4-13.7-24.9-13.7c-13.4,0-24.6,8.8-28.4,20.9c-4.3-2.4-9.1-3.8-14.4-3.8
	c-11.9,0-22.1,7-26.9,17.1h-18.7c-0.2,0-0.5,0.1-0.7,0.1c-0.2,0-0.5-0.1-0.7-0.1c-14.2,0-25.7,11.5-25.7,25.7
	C246.2,130.6,257.7,142.1,271.9,142.1z"/>
<circle cx="434.3" cy="69.4" r="38.5"/>
<path d="M33.6,131.7L33.6,131.7c0.2,0.6,0.4,1.1,0.7,1.7l72.7,174.3h25.5l0-0.1h10.3l-45.1,43.2c-3.3,3.2-2.3,5.8,2.3,5.8l15.7,0.2
	c4.6,0.1,11-2.5,14.3-5.6l39.1-36.9c0.3-0.3,0.4-0.6,0.6-0.9c0.3,0.4,0.4,0.8,0.7,1.2l33.8,35.9c3.1,3.3,9.4,6,14,6l15.8-0.1
	c4.6,0,5.7-2.7,2.6-6l-40.8-42.7h43.8c0.1,0,0.2,0.1,0.4,0.1c6.3,0,11.4-5.2,11.4-11.6c0-6.4-5.1-11.6-11.4-11.6
	c-0.1,0-0.2,0.1-0.3,0.1H122.8L55.1,123.4l-0.1,0c-1.8-4-5.8-6.9-10.6-6.9c-6.4,0-11.6,5.2-11.6,11.6
	C32.9,129.4,33.3,130.6,33.6,131.7L33.6,131.7z"/>
<path d="M269.6,271.9c2.7,9.3,12.5,14.7,21.8,11.9c9-2.6,14.1-11.8,12.1-20.7h0l-0.1-0.2c-0.1-0.3-0.1-0.6-0.2-0.9
	c-0.1-0.2-0.2-0.4-0.3-0.7l-24.9-88.1l-37.5,11l-41.8,43.7h50.7h3.3l0.1-0.1l0,0.1h4l12.3,43.3L269.6,271.9z"/>
<path d="M138.6,277.4h106.6l8,8.6l75.7,72.6c7.4,7.4,19.6,7.1,27.3-0.5c7.3-7.4,7.7-18.9,1.2-26.3l-0.8-1l-51-48.7
	c-3,4.1-7.3,7.4-12.6,9c-2.2,0.7-4.6,1-6.9,1c-8.8,0-21.2-3.6-23.4-14.5l-0.7-2.9l-4.1-15.1l-6.3-24.2l-0.1-0.3h-85.4l-21.9-46.7
	l27.9,0.4l20.3-22.3l-57.2-48.6c-2.6-16.5-16.8-29.1-34-29.1c-19.1,0-34.6,15.5-34.6,34.6c0,19.1,15.5,34.6,34.6,34.6
	c8.6,0,16.3-3.2,22.4-8.4l15.6,13.2l-49.6,1.9c-4.6,0.2-6.9,3.7-5.1,8l42.4,100.8c0.7,1.6,1.4,3.6,3.2,3.6"/>
</svg>
