<?xml version="1.0" encoding="utf-8"?>
<!-- Generator: Adobe Illustrator 17.1.0, SVG Export Plug-In . SVG Version: 6.00 Build 0)  -->
<!DOCTYPE svg PUBLIC "-//W3C//DTD SVG 1.1//EN" "http://www.w3.org/Graphics/SVG/1.1/DTD/svg11.dtd">
<svg version="1.1" id="Layer_1" xmlns="http://www.w3.org/2000/svg" xmlns:xlink="http://www.w3.org/1999/xlink" x="0px" y="0px"
	 viewBox="0 0 512 512" enable-background="new 0 0 512 512" xml:space="preserve">
<path d="M427.4,189.6c-0.7,5.3-2.2,10.3-5.7,14.6c-2.3,2.9-5.8,5.9-9.2,7.5c-3.9,1.9-9.3,3.7-13.6,3.8c-2.7,0.1-6.7-0.4-9.1-1.9
	c-9.7-5.8-8.2-26,3.3-45.1c11.5-19.1,41.8-34.7,38.3-24c-2.2,7-3.2,14.3-3.6,21.6C427.4,173.6,428.3,181.9,427.4,189.6z
	 M279.7,331.3c-3.2-6.6-5.8-13.5-7.2-20.7c-2.1-11.1-21.2,17.2-22.1,39.5c-0.9,22.2,7.5,40.7,18.8,41.1c2.8,0.1,6.5-1.4,8.9-2.8
	c3.8-2.2,7.6-6.4,10.1-9.9c2.2-3,3.8-7.3,4.4-11c1-5.4-0.1-10.6-2-15.5C287.8,344.8,282.9,338,279.7,331.3z M315.4,367
	c-5.3,0.6-10.3,2-14.7,5.5c-2.9,2.3-6,5.7-7.7,9c-1.9,3.8-3.9,9.2-4.1,13.6c-0.1,2.7,0.3,6.7,1.7,9.1c5.7,9.8,25.9,8.6,45.1-2.6
	c19.3-11.2,35.4-41.2,24.6-37.9c-7,2.1-14.3,3-21.6,3.3C331.4,367.2,323.1,366.2,315.4,367z M309.1,282.7
	c-3.2-6.6-5.8-13.5-7.2-20.7c-2.1-11.1-21.2,17.2-22.1,39.5c-0.9,22.2,7.5,40.7,18.8,41.1c2.8,0.1,6.5-1.4,8.9-2.8
	c3.8-2.2,7.6-6.4,10.1-9.9c2.2-3,3.8-7.3,4.4-11c1-5.4-0.1-10.6-2-15.5C317.1,296.2,312.3,289.4,309.1,282.7z M344.7,318.4
	c-5.3,0.6-10.3,2-14.7,5.5c-2.9,2.3-6,5.7-7.7,9c-1.9,3.8-3.9,9.2-4.1,13.6c-0.1,2.7,0.3,6.7,1.7,9.1c5.7,9.8,25.9,8.6,45.1-2.6
	c19.3-11.2,35.4-41.2,24.6-37.9c-7,2.1-14.3,3-21.6,3.2C360.7,318.6,352.5,317.5,344.7,318.4z M338.8,233.4
	c-3.2-6.6-5.8-13.5-7.2-20.7c-2.1-11.1-21.2,17.2-22.1,39.5c-0.9,22.3,7.5,40.7,18.8,41.1c2.8,0.1,6.5-1.4,8.9-2.8
	c3.8-2.2,7.6-6.4,10.1-9.9c2.2-3,3.8-7.3,4.4-11c1-5.5-0.1-10.6-2-15.5C346.8,246.9,342,240.1,338.8,233.4z M374.5,269.1
	c-5.3,0.6-10.3,2-14.7,5.5c-2.9,2.3-6,5.7-7.7,9c-1.9,3.9-3.9,9.2-4.1,13.6c-0.1,2.7,0.3,6.7,1.7,9.1c5.7,9.8,25.9,8.6,45.1-2.6
	c19.3-11.2,35.4-41.2,24.6-37.9c-7,2.1-14.3,3-21.6,3.2C390.4,269.4,382.2,268.3,374.5,269.1z M368.2,184.8
	c-3.2-6.6-5.8-13.5-7.2-20.7c-2.1-11.1-21.2,17.2-22.1,39.5c-0.9,22.3,7.5,40.7,18.8,41.1c2.8,0.1,6.5-1.4,8.9-2.8
	c3.8-2.2,7.6-6.4,10.1-9.9c2.2-3,3.8-7.3,4.4-11c1-5.5-0.1-10.6-2-15.5C376.2,198.3,371.4,191.5,368.2,184.8z M403.8,220.5
	c-5.3,0.6-10.3,2-14.7,5.5c-2.9,2.3-6,5.7-7.7,9c-1.9,3.9-3.9,9.2-4.1,13.6c-0.1,2.7,0.3,6.7,1.7,9.2c5.7,9.8,25.9,8.6,45.1-2.6
	c19.3-11.2,35.4-41.2,24.6-37.9c-7,2.1-14.3,3-21.6,3.2C419.8,220.7,411.6,219.6,403.8,220.5z M280.8,394.6
	c-0.9,0.5-2.4,1.2-4.1,2.1c-1.7,0.9-3.7,2-6,3.3c-1.1,0.6-2.3,1.3-3.5,2c-0.7,0.3-0.9,0.9-1.1,1.6c-0.2,0.6-0.6,1.2-1,1.7
	c-5.7,9.2-14,21.2-23.4,31.9c-2.4,2.7-4.8,5.3-7.2,7.7c-2.4,2.5-4.9,4.8-7.4,6.9c-2.5,2.1-4.9,4-7.3,5.8c-1.2,0.9-2.4,1.6-3.5,2.4
	c-1.1,0.7-2.3,1.4-3.3,2c-0.5,0.3-1,0.7-1.6,0.8c-0.6,0.1-1.1,0.3-1.4,1c-0.7,1.2-1.4,2.2-2.1,3.2c-1.3,2.1-2.6,3.8-3.8,5.3
	c-1.1,1.4-2.1,2.6-2.8,3.4c-0.7,0.8-1.1,1.3-1.1,1.3s0.5,0.2,1.5,0.6c0.5,0.2,1.1,0.4,1.9,0.6c0.8,0.2,1.6,0.5,2.6,0.7
	c1.9,0.4,4.4,0.9,7.2,1c1.4,0.1,2.9,0.1,4.5,0.1c0.8,0.1,1.5-0.3,2.1-0.8c0.6-0.5,1.3-0.8,2-1.2c1.3-0.8,2.8-1.6,4.1-2.5
	c1.4-0.9,2.8-1.9,4.3-2.9c2.8-2.1,5.7-4.3,8.6-6.8c2.8-2.5,5.7-5.1,8.4-7.8c2.8-2.7,5.4-5.6,8-8.6c10.4-11.8,19.1-24.5,25.2-34.3
	c0.4-0.6,0.7-1.2,1.2-1.8c0.5-0.5,0.9-1,0.9-1.8c0.1-1.5,0.2-2.9,0.2-4.2c0.1-2.7,0-5-0.1-7c-0.1-2-0.3-3.5-0.4-4.6
	c-0.1-1.1-0.3-1.7-0.3-1.7S281.7,394.1,280.8,394.6z"/>
<g>
	<path d="M162.5,141.5c0-6.8-5.5-12.2-12.2-12.2c-6.8,0-12.2,5.5-12.2,12.2s5.5,12.2,12.2,12.2C157.1,153.8,162.5,148.3,162.5,141.5
		z"/>
	<path d="M60.5,156.9c27.3-0.9,49.1,17.3,64.3,36.6c15.5,19.8,26.9,44.5,34.5,68.2c7.9,24.8,12.4,49.4,12.8,75.6
		c0.3,23.8-3.1,52.7-18.3,73.2c-1.2,1.6-2.4,3.1-3.7,4.6c-0.7,0.7-1.3,1.4-2,2.1c-0.1,0.1-0.7,0.8-0.9,0.8c-0.2,0-0.3,0-0.5,0
		c-1.3-0.1-2.6-0.2-3.9-0.4c-2.7-0.4-5.4-0.9-8-1.7c-5.7-1.6-10.9-4-15.9-7.3c-10.3-6.8-18.1-16.7-22.3-28.3c-2.4-6.5-3.5-13-3.4-20
		c0.1-6,1.1-11.8,1.8-17.7c1.4-12.9,2.1-25.7,2.2-38.7c0.1-25.9-2.3-51-8.2-76.2c-4.3-18.4-10-35.9-18.3-52.9
		c-2.2-4.6-4.6-9.1-7.2-13.5c-0.7-1.1-1.4-2.3-2.1-3.4c-0.2-0.3-0.4-0.6-0.6-0.9C60.6,157.1,60.5,156.6,60.5,156.9z"/>
	<path d="M184.6,227.4c8,1.1,12.8,9.6,9.5,17c-0.2,0.5-0.4,0.9-0.7,1.3c-0.1,0.1-0.1,0.2-0.2,0.3c-0.1,0.1-0.1,0-0.2-0.1
		c-0.1-0.2-0.2-0.4-0.3-0.6c-0.3-0.8-0.7-1.7-1.1-2.6c-0.7-1.7-1.5-3.4-2.3-5.2C188,234.1,186.4,230.7,184.6,227.4z"/>
	<path d="M179.8,218.7c6.4,1.7,13-2,14.9-8.3c1.9-6.3-1.6-13-7.9-15.1c-6.3-2.1-13.1,1.2-15.4,7.4c-0.1,0.4-0.8,2-0.5,2.5
		c0.2,0.3,0.4,0.5,0.6,0.8c0.4,0.5,0.7,1.1,1.1,1.6c0.7,1.1,1.5,2.1,2.2,3.2C176.6,213.3,178.2,216,179.8,218.7z"/>
	<path d="M154.4,185.7c6-2.2,9.3-8.5,7.7-14.6c-1.6-6.1-7.6-10-13.9-9c-3.3,0.6-5.6,1.9-7.6,4.5c-0.7,0.9-1.3,1.9-1.7,2.9
		c-0.1,0.3-1,2.3-0.5,2.7c0.8,0.5,1.5,1.1,2.3,1.6C145.6,177.5,150.1,181.4,154.4,185.7z"/>
	<path d="M129.9,141.5c0-6.8-5.5-12.2-12.2-12.2c-6.8,0-12.2,5.5-12.2,12.2s5.5,12.2,12.2,12.2C124.4,153.8,129.9,148.3,129.9,141.5
		z"/>
	<path d="M195.2,76.2c0-6.8-5.5-12.2-12.2-12.2s-12.2,5.5-12.2,12.2c0,6.8,5.5,12.2,12.2,12.2S195.2,83,195.2,76.2z"/>
	<path d="M162.5,108.9c0-6.8-5.5-12.2-12.2-12.2c-6.8,0-12.2,5.5-12.2,12.2c0,6.8,5.5,12.2,12.2,12.2
		C157.1,121.1,162.5,115.6,162.5,108.9z"/>
	<path d="M93.3,160.6c55.5,13.5,84.9,61.1,99.9,110c7.7,25.1,12,50.3,13.7,76.5c0.8,13.2,1.4,23.3-4,36.1
		c-5.4,12.8-15.3,23.2-27.9,29.2c-6.4,3.1-12.9,4.8-20,5.4c-0.4,0-0.8,0.1-1.2,0.1c-0.2,0-0.4,0-0.6,0c-0.1,0-0.4,0.1-0.3,0
		c0.2-0.2,0.4-0.4,0.6-0.7c1.6-1.8,3.1-3.7,4.4-5.6c2.9-4.1,5.2-8.3,7.3-12.8c4.5-9.9,7.2-20,8.8-30.7c4-25.2,1.9-52.8-3.1-77.5
		C162.4,247.9,137.6,183.8,93.3,160.6z"/>
	<path d="M195.2,108.9c0-6.8-5.5-12.2-12.2-12.2s-12.2,5.5-12.2,12.2c0,6.8,5.5,12.2,12.2,12.2S195.2,115.6,195.2,108.9z"/>
	<path d="M212.9,323.7c0.3-33.6,8.8-80.7,51.8-95.1c0,0-23.1-23.1-69.3,23.1c1.9,4.9,3.5,9.8,5.1,14.6c1.9,5.9,3.5,11.7,4.9,17.4
		c1.4,5.7,2.6,11.3,3.7,16.6C210.7,308.7,212,316.6,212.9,323.7z"/>
	<path d="M162.5,43.6c0-6.8-5.5-12.2-12.2-12.2c-6.8,0-12.2,5.5-12.2,12.2c0,6.8,5.5,12.2,12.2,12.2
		C157.1,55.8,162.5,50.3,162.5,43.6z"/>
	<path d="M162.5,76.2c0-6.8-5.5-12.2-12.2-12.2c-6.8,0-12.2,5.5-12.2,12.2c0,6.8,5.5,12.2,12.2,12.2C157.1,88.5,162.5,83,162.5,76.2
		z"/>
	<path d="M129.9,76.2c0-6.8-5.5-12.2-12.2-12.2c-6.8,0-12.2,5.5-12.2,12.2c0,6.8,5.5,12.2,12.2,12.2C124.4,88.5,129.9,83,129.9,76.2
		z"/>
	<path d="M129.9,108.9c0-6.8-5.5-12.2-12.2-12.2c-6.8,0-12.2,5.5-12.2,12.2c0,6.8,5.5,12.2,12.2,12.2
		C124.4,121.1,129.9,115.6,129.9,108.9z"/>
	<path d="M195.2,174.2c0-6.8-5.5-12.2-12.2-12.2s-12.2,5.5-12.2,12.2c0,6.8,5.5,12.2,12.2,12.2S195.2,180.9,195.2,174.2z"/>
	<circle cx="182.9" cy="141.5" r="12.2"/>
</g>
</svg>
