<?xml version="1.0" encoding="utf-8"?>
<!-- Generator: Adobe Illustrator 17.1.0, SVG Export Plug-In . SVG Version: 6.00 Build 0)  -->
<!DOCTYPE svg PUBLIC "-//W3C//DTD SVG 1.1//EN" "http://www.w3.org/Graphics/SVG/1.1/DTD/svg11.dtd">
<svg version="1.1" id="Layer_1" xmlns="http://www.w3.org/2000/svg" xmlns:xlink="http://www.w3.org/1999/xlink" x="0px" y="0px"
	 viewBox="0 0 512 512" enable-background="new 0 0 512 512" xml:space="preserve">
<path d="M477.1,327L477.1,327c-5.3-34.8-42.6-96.5-42.6-138.1c0-29-22.2-53.1-51.3-57.8v-0.8c0-18.3,14.9-33.2,33.2-33.2V76.7
	c-29.4,0-53.4,23.9-53.6,53.3c0-6.2-0.9-35.8-19.2-54.1c-20.6-20.6-55.3-19.2-55.3-19.2s-1.4,34.7,19.2,55.3
	c20.6,20.6,55.3,19.2,55.3,19.2c-29.1,4.6-51.3,28.7-51.3,57.8c0,16.5-5.9,36.3-13.4,56.3c16.3,19.9,22.6,45.5,22.6,75.7
	c0,35.1-9.7,67.1-31.2,91.5c19.6,23.4,49.7,38.4,83.6,38.4c59,0,106.8-45.5,106.8-101.6C479.7,341.5,478.8,334.1,477.1,327z"/>
<path d="M236.8,210c-16.5-7.3-38.6-6.9-59.4-6.6c-11.2-18.5-22.5-40.1-21.8-44.2l0.4-2l-6.5-5.2l-14.2,10.8l5.8,8.1l1.1-0.1
	c1.3,1,7,6.4,18.5,32.6c-22.7-0.2-40.1-1-59.1,7.9C60,230.8,32,268.9,32,320.3c0,52.9,29.6,98.8,73.1,122.2
	c19.5,10.5,41.9,2.5,65.6,2.5c24.2,0,46.9,7.8,66.7-3.1c42.9-23.6,72-69.2,72-121.6C309.4,267.7,280,229,236.8,210z M109.9,263.7
	c-21.4,26.4-29.6,56.6-38.2,56.6s-2.5-36.1,7.1-56.6c3.6-7.8,6.9-15.5,15.5-15.5S115.3,257.1,109.9,263.7z"/>
</svg>
