<?xml version="1.0" encoding="utf-8"?>
<!-- Generator: Adobe Illustrator 17.1.0, SVG Export Plug-In . SVG Version: 6.00 Build 0)  -->
<!DOCTYPE svg PUBLIC "-//W3C//DTD SVG 1.1//EN" "http://www.w3.org/Graphics/SVG/1.1/DTD/svg11.dtd">
<svg version="1.1" id="Layer_1" xmlns="http://www.w3.org/2000/svg" xmlns:xlink="http://www.w3.org/1999/xlink" x="0px" y="0px"
	 viewBox="0 0 512 512" enable-background="new 0 0 512 512" xml:space="preserve">
<path fill="#010101" d="M477.7,195.7c0,0-8.9-7.9-17.3-17.6c-6.9-7.8-14.5-17-21.3-24.3c-3.4-3.7-6.6-6.9-9.5-9.5
	c-0.8-0.6-1.5-1.2-2.2-1.8c1.2-1.1,2.4-2.2,3.5-3.3c7.4-7.6,12.1-14.8,12.2-14.9c2.5-3.8,1.5-8.9-2.2-11.4s-8.7-1.5-11.2,2.3
	c0,0-0.9,1.4-2.7,3.8c-2.7,3.5-7.3,8.9-12.3,13.1c-2,1.7-4,3-6,4.1c-2.4-0.7-5.1-1.2-8.2-1.4c-4.8-0.1-10.6,2-14.8,6.5
	c-0.3,0.5-4,2.8-10.2,4.7c-18.6,6-58.9,11.2-119.1,11.2c-40.2,0-57.6-2.2-69.5-4.4c-11.7-2.2-19.9-4.7-38.6-4.7
	c-18.4,0.1-29.3,1.5-37.6,5.7c-8.4,4.3-12,11.6-14.8,17.1c-0.1,0.1-0.1,0.3-0.2,0.5s-0.2,0.4-0.3,0.6c-2.1,4.9-2.8,10.2-2.9,15.6
	c-1.2,5.9-2.9,13.3-5.1,21.3c-5.4,19.9-14.2,44.1-26.6,60.9c-3,3.2-18.9,19.9-27.9,38c-1.6,3.2-0.9,7,1.5,9.5
	c1.5,1.6,3.6,2.4,5.7,2.4c1.2,0,2.5-0.3,3.6-0.9c19.5-10.5,28.3-33.7,30.5-39.8c10.9-15.1,18.8-33.8,24.4-51
	c2.8,12.2,5.4,23.5,5.3,28.8c0,7.7-1.8,13.4-4.1,20.2c-2.2,6.9-4.9,14.9-4.9,25.5c0.1,20.3,9.2,56.4,9.2,56.8l9,36.5
	c0.9,3.7,4.1,6.2,7.9,6.2h9c2.6,0,5-1.3,6.6-3.4c1.5-2.1,1.9-4.9,1.1-7.4c0,0-2.2-6.7-4.4-14.5c-2.2-7.6-4.3-17.1-4.2-19.4
	c0-6.2,0.9-12.4,2.5-18.1c3.4,1.2,6.7,2,9.8,2.5l3.2,13c0.9,3.7,4.2,6.2,7.8,6.2c0.6,0,1.3-0.1,2-0.3c4.3-1.1,7-5.5,5.9-9.9
	l-2.1-9.8c6.1-1.7,11.2-5,14.8-9l6.9,4.6c1.4,0.9,2.9,1.4,4.5,1.4c2.6,0,5.2-1.3,6.7-3.7c2.5-3.8,1.5-8.8-2.3-11.4l-7.9-5.3
	c0.9-3,1.5-5.7,1.9-8c15.7,3.1,31.7,10,55.6,10.2c17.1,0,34.8-5.4,50.3-10.5c15.1-5.1,29-9.9,33.8-9.6c0.1,0,0.2,0,0.3,0
	c0.9,2.5,2.4,9.3,3.1,17c3.4,29.1,3.4,77,3.4,77.1c0,2.1,0.9,4.3,2.4,5.8c1.5,1.5,3.6,2.4,5.7,2.4h9c2.2,0,4.2-0.8,5.7-2.4
	s2.4-3.6,2.4-5.8v-26.9l8-57.2c6.5-1.7,12.2-5.5,17-10.2c19.2-18.7,30.6-53.7,37.2-66.5c0.8-1.7,3-3.6,7.4-4.9
	c4.2-1.3,10.1-1.9,15.7-1.9c5.7,0,11.3,0.5,15.5,1.1c4.1,0.5,6.6,1.1,6.6,1.1c3.6,0.7,7.2-1.1,8.8-4.4l9-18.3
	C481.3,202.2,480.5,198.1,477.7,195.7z M164.1,315.8C164.1,315.9,164,315.9,164.1,315.8c-0.4,0.6-0.7,1.1-0.9,1.6
	c-0.3,0.6-0.6,1.2-1,1.7c-2.8,3.8-5.8,6.3-13,6.5c-2.9,0-6.6-0.5-11.2-2c4.5-8.4,10.8-13.5,12.2-13.5c6-1.5,11.3-2.2,16.3-2.3
	C166.1,310.5,165.3,313.3,164.1,315.8z M285.4,287.6c-0.3,0.1-23.8,14.4-46.6,14.5c-1.8,0-3.6-0.1-5.3-0.3
	c-38.1-4.5-53.9-24.1-70.2-23.5c-1.7,0-3.3,0.2-5.1,0.5c-2.2,0.5-4.3-1-4.8-3.2s0.9-4.4,3.2-4.8c2.3-0.5,4.5-0.7,6.7-0.7
	c22.2,0.6,35.5,19.6,71.2,23.5c1.5,0.2,2.9,0.2,4.5,0.2c9.8,0,20.6-3.3,28.7-6.7c8.2-3.4,13.8-6.7,13.8-6.7c1.9-1.1,4.4-0.5,5.5,1.5
	C288,283.8,287.3,286.5,285.4,287.6z M431.9,183.6c-2.5,0-4.5-2-4.5-4.6s2-4.6,4.5-4.6c2.5,0,4.5,2,4.5,4.6
	C436.3,181.6,434.4,183.6,431.9,183.6z"/>
</svg>
