<?xml version="1.0" encoding="utf-8"?>
<!-- Generator: Adobe Illustrator 19.1.0, SVG Export Plug-In . SVG Version: 6.00 Build 0)  -->
<svg version="1.1"
	 id="svg3006" inkscape:export-xdpi="10.791795" sodipodi:docname="Agrista Logo (RGB).svg" inkscape:export-filename="/mnt/hgfs/Helmut auf meinem Mac/Documents/Marketing/Branding/S-Bahn/147x42.png" inkscape:export-ydpi="10.791795" inkscape:version="0.47 r22583" xmlns:svg="http://www.w3.org/2000/svg" xmlns:dc="http://purl.org/dc/elements/1.1/" xmlns:inkscape="http://www.inkscape.org/namespaces/inkscape" xmlns:cc="http://creativecommons.org/ns#" xmlns:sodipodi="http://sodipodi.sourceforge.net/DTD/sodipodi-0.dtd" xmlns:rdf="http://www.w3.org/1999/02/22-rdf-syntax-ns#"
	 xmlns="http://www.w3.org/2000/svg" xmlns:xlink="http://www.w3.org/1999/xlink" x="0px" y="0px" viewBox="7.067 -3.367 1225 350"
	 enable-background="new 7.067 -3.367 1225 350" xml:space="preserve">
<defs>
	
	
		<inkscape:perspective  inkscape:persp3d-origin="0.5 : 0.33333333 : 1" id="perspective3014" inkscape:vp_x="0 : 0.5 : 1" inkscape:vp_y="0 : 1000 : 0" sodipodi:type="inkscape:persp3d" inkscape:vp_z="1 : 0.5 : 1">
		</inkscape:perspective>
	
		<inkscape:perspective  inkscape:persp3d-origin="0.5 : 0.33333333 : 1" id="perspective4531" inkscape:vp_x="0 : 0.5 : 1" inkscape:vp_y="0 : 1000 : 0" sodipodi:type="inkscape:persp3d" inkscape:vp_z="1 : 0.5 : 1">
		</inkscape:perspective>
	
		<inkscape:perspective  inkscape:persp3d-origin="0.5 : 0.33333333 : 1" id="perspective4556" inkscape:vp_x="0 : 0.5 : 1" inkscape:vp_y="0 : 1000 : 0" sodipodi:type="inkscape:persp3d" inkscape:vp_z="1 : 0.5 : 1">
		</inkscape:perspective>
	
		<inkscape:perspective  inkscape:persp3d-origin="0.5 : 0.33333333 : 1" id="perspective4618" inkscape:vp_x="0 : 0.5 : 1" inkscape:vp_y="0 : 1000 : 0" sodipodi:type="inkscape:persp3d" inkscape:vp_z="1 : 0.5 : 1">
		</inkscape:perspective>
	
		<inkscape:perspective  inkscape:persp3d-origin="0.5 : 0.33333333 : 1" id="perspective4649" inkscape:vp_x="0 : 0.5 : 1" inkscape:vp_y="0 : 1000 : 0" sodipodi:type="inkscape:persp3d" inkscape:vp_z="1 : 0.5 : 1">
		</inkscape:perspective>
	
		<inkscape:perspective  inkscape:persp3d-origin="0.5 : 0.33333333 : 1" id="perspective4674" inkscape:vp_x="0 : 0.5 : 1" inkscape:vp_y="0 : 1000 : 0" sodipodi:type="inkscape:persp3d" inkscape:vp_z="1 : 0.5 : 1">
		</inkscape:perspective>
	
		<inkscape:perspective  inkscape:persp3d-origin="0.5 : 0.33333333 : 1" id="perspective4674-9" inkscape:vp_x="0 : 0.5 : 1" inkscape:vp_y="0 : 1000 : 0" sodipodi:type="inkscape:persp3d" inkscape:vp_z="1 : 0.5 : 1">
		</inkscape:perspective>
	
		<inkscape:perspective  inkscape:persp3d-origin="0.5 : 0.33333333 : 1" id="perspective4712" inkscape:vp_x="0 : 0.5 : 1" inkscape:vp_y="0 : 1000 : 0" sodipodi:type="inkscape:persp3d" inkscape:vp_z="1 : 0.5 : 1">
		</inkscape:perspective>
	
		<inkscape:perspective  inkscape:persp3d-origin="0.5 : 0.33333333 : 1" id="perspective4737" inkscape:vp_x="0 : 0.5 : 1" inkscape:vp_y="0 : 1000 : 0" sodipodi:type="inkscape:persp3d" inkscape:vp_z="1 : 0.5 : 1">
		</inkscape:perspective>
	
		<inkscape:perspective  inkscape:persp3d-origin="0.5 : 0.33333333 : 1" id="perspective4776" inkscape:vp_x="0 : 0.5 : 1" inkscape:vp_y="0 : 1000 : 0" sodipodi:type="inkscape:persp3d" inkscape:vp_z="1 : 0.5 : 1">
		</inkscape:perspective>
	
		<inkscape:perspective  inkscape:persp3d-origin="0.5 : 0.33333333 : 1" id="perspective4809" inkscape:vp_x="0 : 0.5 : 1" inkscape:vp_y="0 : 1000 : 0" sodipodi:type="inkscape:persp3d" inkscape:vp_z="1 : 0.5 : 1">
		</inkscape:perspective>
	
		<inkscape:perspective  inkscape:persp3d-origin="0.5 : 0.33333333 : 1" id="perspective5114" inkscape:vp_x="0 : 0.5 : 1" inkscape:vp_y="0 : 1000 : 0" sodipodi:type="inkscape:persp3d" inkscape:vp_z="1 : 0.5 : 1">
		</inkscape:perspective>
	
		<inkscape:perspective  inkscape:persp3d-origin="0.5 : 0.33333333 : 1" id="perspective5145" inkscape:vp_x="0 : 0.5 : 1" inkscape:vp_y="0 : 1000 : 0" sodipodi:type="inkscape:persp3d" inkscape:vp_z="1 : 0.5 : 1">
		</inkscape:perspective>
	
		<inkscape:perspective  inkscape:persp3d-origin="0.5 : 0.33333333 : 1" id="perspective5176" inkscape:vp_x="0 : 0.5 : 1" inkscape:vp_y="0 : 1000 : 0" sodipodi:type="inkscape:persp3d" inkscape:vp_z="1 : 0.5 : 1">
		</inkscape:perspective>
	
		<inkscape:perspective  inkscape:persp3d-origin="0.5 : 0.33333333 : 1" id="perspective5209" inkscape:vp_x="0 : 0.5 : 1" inkscape:vp_y="0 : 1000 : 0" sodipodi:type="inkscape:persp3d" inkscape:vp_z="1 : 0.5 : 1">
		</inkscape:perspective>
	
		<inkscape:perspective  inkscape:persp3d-origin="0.5 : 0.33333333 : 1" id="perspective5328" inkscape:vp_x="0 : 0.5 : 1" inkscape:vp_y="0 : 1000 : 0" sodipodi:type="inkscape:persp3d" inkscape:vp_z="1 : 0.5 : 1">
		</inkscape:perspective>
	
		<inkscape:perspective  inkscape:persp3d-origin="0.5 : 0.33333333 : 1" id="perspective5359" inkscape:vp_x="0 : 0.5 : 1" inkscape:vp_y="0 : 1000 : 0" sodipodi:type="inkscape:persp3d" inkscape:vp_z="1 : 0.5 : 1">
		</inkscape:perspective>
	
		<inkscape:perspective  inkscape:persp3d-origin="0.5 : 0.33333333 : 1" id="perspective5390" inkscape:vp_x="0 : 0.5 : 1" inkscape:vp_y="0 : 1000 : 0" sodipodi:type="inkscape:persp3d" inkscape:vp_z="1 : 0.5 : 1">
		</inkscape:perspective>
	
		<inkscape:perspective  inkscape:persp3d-origin="0.5 : 0.33333333 : 1" id="perspective5427" inkscape:vp_x="0 : 0.5 : 1" inkscape:vp_y="0 : 1000 : 0" sodipodi:type="inkscape:persp3d" inkscape:vp_z="1 : 0.5 : 1">
		</inkscape:perspective>
	
		<inkscape:perspective  inkscape:persp3d-origin="0.5 : 0.33333333 : 1" id="perspective5548" inkscape:vp_x="0 : 0.5 : 1" inkscape:vp_y="0 : 1000 : 0" sodipodi:type="inkscape:persp3d" inkscape:vp_z="1 : 0.5 : 1">
		</inkscape:perspective>
	
		<inkscape:perspective  inkscape:persp3d-origin="0.5 : 0.33333333 : 1" id="perspective5601" inkscape:vp_x="0 : 0.5 : 1" inkscape:vp_y="0 : 1000 : 0" sodipodi:type="inkscape:persp3d" inkscape:vp_z="1 : 0.5 : 1">
		</inkscape:perspective>
	
		<inkscape:perspective  inkscape:persp3d-origin="0.5 : 0.33333333 : 1" id="perspective5601-0" inkscape:vp_x="0 : 0.5 : 1" inkscape:vp_y="0 : 1000 : 0" sodipodi:type="inkscape:persp3d" inkscape:vp_z="1 : 0.5 : 1">
		</inkscape:perspective>
	
		<inkscape:perspective  inkscape:persp3d-origin="0.5 : 0.33333333 : 1" id="perspective5601-1" inkscape:vp_x="0 : 0.5 : 1" inkscape:vp_y="0 : 1000 : 0" sodipodi:type="inkscape:persp3d" inkscape:vp_z="1 : 0.5 : 1">
		</inkscape:perspective>
	
		<inkscape:perspective  inkscape:persp3d-origin="0.5 : 0.33333333 : 1" id="perspective5601-6" inkscape:vp_x="0 : 0.5 : 1" inkscape:vp_y="0 : 1000 : 0" sodipodi:type="inkscape:persp3d" inkscape:vp_z="1 : 0.5 : 1">
		</inkscape:perspective>
	
		<inkscape:perspective  inkscape:persp3d-origin="0.5 : 0.33333333 : 1" id="perspective5951" inkscape:vp_x="0 : 0.5 : 1" inkscape:vp_y="0 : 1000 : 0" sodipodi:type="inkscape:persp3d" inkscape:vp_z="1 : 0.5 : 1">
		</inkscape:perspective>
	
		<inkscape:perspective  inkscape:persp3d-origin="0.5 : 0.33333333 : 1" id="perspective6090" inkscape:vp_x="0 : 0.5 : 1" inkscape:vp_y="0 : 1000 : 0" sodipodi:type="inkscape:persp3d" inkscape:vp_z="1 : 0.5 : 1">
		</inkscape:perspective>
	
		<inkscape:perspective  inkscape:persp3d-origin="0.5 : 0.33333333 : 1" id="perspective6121" inkscape:vp_x="0 : 0.5 : 1" inkscape:vp_y="0 : 1000 : 0" sodipodi:type="inkscape:persp3d" inkscape:vp_z="1 : 0.5 : 1">
		</inkscape:perspective>
	
		<inkscape:perspective  inkscape:persp3d-origin="0.5 : 0.33333333 : 1" id="perspective6152" inkscape:vp_x="0 : 0.5 : 1" inkscape:vp_y="0 : 1000 : 0" sodipodi:type="inkscape:persp3d" inkscape:vp_z="1 : 0.5 : 1">
		</inkscape:perspective>
	
		<inkscape:perspective  inkscape:persp3d-origin="0.5 : 0.33333333 : 1" id="perspective6195" inkscape:vp_x="0 : 0.5 : 1" inkscape:vp_y="0 : 1000 : 0" sodipodi:type="inkscape:persp3d" inkscape:vp_z="1 : 0.5 : 1">
		</inkscape:perspective>
	
		<inkscape:perspective  inkscape:persp3d-origin="0.5 : 0.33333333 : 1" id="perspective6256" inkscape:vp_x="0 : 0.5 : 1" inkscape:vp_y="0 : 1000 : 0" sodipodi:type="inkscape:persp3d" inkscape:vp_z="1 : 0.5 : 1">
		</inkscape:perspective>
</defs>
<sodipodi:namedview  inkscape:window-y="41" inkscape:snap-grids="true" inkscape:current-layer="g3016" inkscape:pageopacity="0" inkscape:snap-bbox="true" inkscape:guide-bbox="true" inkscape:window-maximized="0" inkscape:snap-global="true" inkscape:window-x="0" inkscape:pageshadow="2" inkscape:window-height="803" inkscape:window-width="1430" id="namedview3008" inkscape:zoom="0.43581081" inkscape:cx="629.78852" pagecolor="#ffffff" inkscape:cy="163.96358" showguides="false" borderopacity="1" bordercolor="#666666" gridtolerance="10" showgrid="false" guidetolerance="10" objecttolerance="10">
	<inkscape:grid  type="xygrid" snapvisiblegridlinesonly="true" id="grid4497" enabled="true" visible="true" empspacing="5">
		</inkscape:grid>
	<sodipodi:guide  id="guide4499" position="60,225.2661" orientation="0,1"></sodipodi:guide>
	<sodipodi:guide  id="guide4501" position="75,218.2661" orientation="1,0"></sodipodi:guide>
	<sodipodi:guide  id="guide4503" position="79,200.2661" orientation="0,1"></sodipodi:guide>
	<sodipodi:guide  id="guide4505" position="100,212.2661" orientation="1,0"></sodipodi:guide>
	<sodipodi:guide  id="guide4507" position="125,224.2661" orientation="1,0"></sodipodi:guide>
	<sodipodi:guide  id="guide4573" position="150,223.2661" orientation="1,0"></sodipodi:guide>
	<sodipodi:guide  id="guide4575" position="175,203.2661" orientation="1,0"></sodipodi:guide>
	<sodipodi:guide  id="guide4577" position="167,175.2661" orientation="0,1"></sodipodi:guide>
	<sodipodi:guide  id="guide4579" position="166,150.2661" orientation="0,1"></sodipodi:guide>
	<sodipodi:guide  id="guide4581" position="165,125.2661" orientation="0,1"></sodipodi:guide>
	<sodipodi:guide  id="guide4606" position="155,275.2661" orientation="0,1"></sodipodi:guide>
	<sodipodi:guide  id="guide4608" position="200,240.2661" orientation="1,0"></sodipodi:guide>
	<sodipodi:guide  id="guide4635" position="225,242.52334" orientation="1,0"></sodipodi:guide>
	<sodipodi:guide  id="guide4637" position="250,240.2661" orientation="1,0"></sodipodi:guide>
	<sodipodi:guide  id="guide4639" position="275,240.2661" orientation="1,0"></sodipodi:guide>
	<sodipodi:guide  id="guide4702" position="135,100.2661" orientation="0,1"></sodipodi:guide>
	<sodipodi:guide  id="guide4766" position="210,75.266105" orientation="0,1"></sodipodi:guide>
	<sodipodi:guide  id="guide4799" position="300,180.2661" orientation="1,0"></sodipodi:guide>
	<sodipodi:guide  id="guide5084" position="325,85.266105" orientation="1,0"></sodipodi:guide>
	<sodipodi:guide  id="guide5086" position="350,75.266105" orientation="1,0"></sodipodi:guide>
	<sodipodi:guide  id="guide5088" position="375,65.266105" orientation="1,0"></sodipodi:guide>
	<sodipodi:guide  id="guide5090" position="400,75.266105" orientation="1,0"></sodipodi:guide>
	<sodipodi:guide  id="guide5092" position="425,65.266105" orientation="1,0"></sodipodi:guide>
	<sodipodi:guide  id="guide5094" position="450,250.2661" orientation="1,0"></sodipodi:guide>
	<sodipodi:guide  id="guide5096" position="475,85.266105" orientation="1,0"></sodipodi:guide>
	<sodipodi:guide  id="guide5098" position="500,40.266105" orientation="1,0"></sodipodi:guide>
	<sodipodi:guide  id="guide5100" position="415,50.266105" orientation="0,1"></sodipodi:guide>
	<sodipodi:guide  id="guide5102" position="450,25.266105" orientation="0,1"></sodipodi:guide>
	<sodipodi:guide  id="guide5104" position="490,0.26610484" orientation="0,1"></sodipodi:guide>
	<sodipodi:guide  id="guide5193" position="525,210.2661" orientation="1,0"></sodipodi:guide>
	<sodipodi:guide  id="guide5195" position="550,190.2661" orientation="1,0"></sodipodi:guide>
	<sodipodi:guide  id="guide5197" position="575,160.2661" orientation="1,0"></sodipodi:guide>
	<sodipodi:guide  id="guide5199" position="600,160.2661" orientation="1,0"></sodipodi:guide>
	<sodipodi:guide  id="guide5316" position="625,150.2661" orientation="1,0"></sodipodi:guide>
	<sodipodi:guide  id="guide5318" position="650,155.2661" orientation="1,0"></sodipodi:guide>
	<sodipodi:guide  id="guide5413" position="675,170.2661" orientation="1,0"></sodipodi:guide>
	<sodipodi:guide  id="guide5415" position="700,150.2661" orientation="1,0"></sodipodi:guide>
	<sodipodi:guide  id="guide5417" position="725,155.2661" orientation="1,0"></sodipodi:guide>
	<sodipodi:guide  id="guide5534" position="695,300.2661" orientation="0,1"></sodipodi:guide>
	<sodipodi:guide  id="guide5536" position="715,325.2661" orientation="0,1"></sodipodi:guide>
	<sodipodi:guide  id="guide5538" position="715,350.2661" orientation="0,1"></sodipodi:guide>
	<sodipodi:guide  id="guide5583" position="750,260.2661" orientation="1,0"></sodipodi:guide>
	<sodipodi:guide  id="guide5585" position="775,250.2661" orientation="1,0"></sodipodi:guide>
	<sodipodi:guide  id="guide5587" position="800,245.2661" orientation="1,0"></sodipodi:guide>
	<sodipodi:guide  id="guide5589" position="825,245.2661" orientation="1,0"></sodipodi:guide>
	<sodipodi:guide  id="guide5591" position="850,240.2661" orientation="1,0"></sodipodi:guide>
	<sodipodi:guide  id="guide5850" position="875,95.266105" orientation="1,0"></sodipodi:guide>
	<sodipodi:guide  id="guide5852" position="900,70.266105" orientation="1,0"></sodipodi:guide>
	<sodipodi:guide  id="guide5925" position="920,250.2661" orientation="0,1"></sodipodi:guide>
	<sodipodi:guide  id="guide5927" position="925,115.2661" orientation="1,0"></sodipodi:guide>
	<sodipodi:guide  id="guide5929" position="950,60.266105" orientation="1,0"></sodipodi:guide>
	<sodipodi:guide  id="guide5931" position="975,255.2661" orientation="1,0"></sodipodi:guide>
	<sodipodi:guide  id="guide5933" position="1000,245.2661" orientation="1,0"></sodipodi:guide>
	<sodipodi:guide  id="guide5935" position="1025,250.2661" orientation="1,0"></sodipodi:guide>
	<sodipodi:guide  id="guide5937" position="1050,215.2661" orientation="1,0"></sodipodi:guide>
	<sodipodi:guide  id="guide5939" position="1075,220.2661" orientation="1,0"></sodipodi:guide>
	<sodipodi:guide  id="guide5941" position="1100,255.2661" orientation="1,0"></sodipodi:guide>
	<sodipodi:guide  id="guide6230" position="50,95.266105" orientation="1,0"></sodipodi:guide>
	<sodipodi:guide  id="guide6232" position="25,70.266105" orientation="1,0"></sodipodi:guide>
	<sodipodi:guide  id="guide6234" position="0,90.266105" orientation="1,0"></sodipodi:guide>
	<sodipodi:guide  id="guide6236" position="1125,125.2661" orientation="1,0"></sodipodi:guide>
	<sodipodi:guide  id="guide6238" position="1150,175.2661" orientation="1,0"></sodipodi:guide>
	<sodipodi:guide  id="guide6240" position="1175,195.2661" orientation="1,0"></sodipodi:guide>
	<sodipodi:guide  id="guide6242" position="1200,160.2661" orientation="1,0"></sodipodi:guide>
	<sodipodi:guide  id="guide6244" position="1225,120.2661" orientation="1,0"></sodipodi:guide>
</sodipodi:namedview>
<circle fill="#FFFFFF" cx="619.567" cy="9.133" r="12.5"/>
<circle fill="#FFFFFF" cx="619.567" cy="34.133" r="12.5"/>
<circle fill="#FFFFFF" cx="644.567" cy="9.133" r="12.5"/>
<circle fill="#FFFFFF" cx="644.567" cy="34.133" r="12.5"/>
<circle fill="#FFFFFF" cx="619.567" cy="84.133" r="12.5"/>
<circle fill="#FFFFFF" cx="644.567" cy="84.133" r="12.5"/>
<circle fill="#FFFFFF" cx="619.567" cy="109.133" r="12.5"/>
<circle fill="#FFFFFF" cx="644.567" cy="109.133" r="12.5"/>
<circle fill="#FFFFFF" cx="619.567" cy="134.133" r="12.5"/>
<circle fill="#FFFFFF" cx="644.567" cy="134.133" r="12.5"/>
<circle fill="#FFFFFF" cx="619.567" cy="159.133" r="12.5"/>
<circle fill="#FFFFFF" cx="644.567" cy="159.133" r="12.5"/>
<circle fill="#FFFFFF" cx="619.567" cy="184.133" r="12.5"/>
<circle fill="#FFFFFF" cx="644.567" cy="184.133" r="12.5"/>
<circle fill="#FFFFFF" cx="544.567" cy="84.133" r="12.5"/>
<circle fill="#FFFFFF" cx="569.567" cy="84.133" r="12.5"/>
<circle fill="#FFFFFF" cx="544.567" cy="109.133" r="12.5"/>
<circle fill="#FFFFFF" cx="569.567" cy="109.133" r="12.5"/>
<circle fill="#FFFFFF" cx="519.567" cy="109.133" r="12.5"/>
<circle fill="#FFFFFF" cx="519.567" cy="134.133" r="12.5"/>
<circle fill="#FFFFFF" cx="469.567" cy="84.133" r="12.5"/>
<circle fill="#FFFFFF" cx="494.567" cy="84.133" r="12.5"/>
<circle fill="#FFFFFF" cx="469.567" cy="109.133" r="12.5"/>
<circle fill="#FFFFFF" cx="494.567" cy="109.133" r="12.5"/>
<circle fill="#FFFFFF" cx="469.567" cy="134.133" r="12.5"/>
<circle fill="#FFFFFF" cx="494.567" cy="134.133" r="12.5"/>
<circle fill="#FFFFFF" cx="469.567" cy="159.133" r="12.5"/>
<circle fill="#FFFFFF" cx="494.567" cy="159.133" r="12.5"/>
<circle fill="#FFFFFF" cx="469.567" cy="184.133" r="12.5"/>
<circle fill="#FFFFFF" cx="494.567" cy="184.133" r="12.5"/>
<circle fill="#FFFFFF" cx="394.567" cy="84.133" r="12.5"/>
<circle fill="#FFFFFF" cx="419.567" cy="84.133" r="12.5"/>
<circle fill="#FFFFFF" cx="394.567" cy="109.133" r="12.5"/>
<circle fill="#FFFFFF" cx="419.567" cy="109.133" r="12.5"/>
<circle fill="#FFFFFF" cx="394.567" cy="134.133" r="12.5"/>
<circle fill="#FFFFFF" cx="419.567" cy="134.133" r="12.5"/>
<circle fill="#FFFFFF" cx="394.567" cy="159.133" r="12.5"/>
<circle fill="#FFFFFF" cx="419.567" cy="159.133" r="12.5"/>
<circle fill="#FFFFFF" cx="394.567" cy="184.133" r="12.5"/>
<circle fill="#FFFFFF" cx="419.567" cy="184.133" r="12.5"/>
<circle fill="#FFFFFF" cx="369.567" cy="109.133" r="12.5"/>
<circle fill="#FFFFFF" cx="369.567" cy="134.133" r="12.5"/>
<circle fill="#FFFFFF" cx="344.567" cy="84.133" r="12.5"/>
<circle fill="#FFFFFF" cx="319.567" cy="84.133" r="12.5"/>
<circle fill="#FFFFFF" cx="294.567" cy="84.133" r="12.5"/>
<circle fill="#FFFFFF" cx="344.567" cy="109.133" r="12.5"/>
<circle fill="#FFFFFF" cx="319.567" cy="109.133" r="12.5"/>
<circle fill="#FFFFFF" cx="294.567" cy="109.133" r="12.5"/>
<circle fill="#FFFFFF" cx="269.567" cy="109.133" r="12.5"/>
<circle fill="#FFFFFF" cx="244.567" cy="134.133" r="12.5"/>
<circle fill="#FFFFFF" cx="269.567" cy="134.133" r="12.5"/>
<circle fill="#FFFFFF" cx="294.567" cy="134.133" r="12.5"/>
<circle fill="#FFFFFF" cx="244.567" cy="159.133" r="12.5"/>
<circle fill="#FFFFFF" cx="269.567" cy="159.133" r="12.5"/>
<circle fill="#FFFFFF" cx="244.567" cy="184.133" r="12.5"/>
<circle fill="#FFFFFF" cx="269.567" cy="184.133" r="12.5"/>
<circle fill="#FFFFFF" cx="169.567" cy="84.133" r="12.5"/>
<circle fill="#FFFFFF" cx="194.567" cy="84.133" r="12.5"/>
<circle fill="#FFFFFF" cx="169.567" cy="109.133" r="12.5"/>
<circle fill="#FFFFFF" cx="194.567" cy="109.133" r="12.5"/>
<circle fill="#FFFFFF" cx="169.567" cy="134.133" r="12.5"/>
<circle fill="#FFFFFF" cx="194.567" cy="134.133" r="12.5"/>
<circle fill="#FFFFFF" cx="169.567" cy="159.133" r="12.5"/>
<circle fill="#FFFFFF" cx="194.567" cy="159.133" r="12.5"/>
<circle fill="#FFFFFF" cx="169.567" cy="184.133" r="12.5"/>
<circle fill="#FFFFFF" cx="194.567" cy="184.133" r="12.5"/>
<circle fill="#FFFFFF" cx="144.567" cy="109.133" r="12.5"/>
<circle fill="#FFFFFF" cx="144.567" cy="134.133" r="12.5"/>
<circle fill="#FFFFFF" cx="119.567" cy="84.133" r="12.5"/>
<circle fill="#FFFFFF" cx="94.567" cy="84.133" r="12.5"/>
<circle fill="#FFFFFF" cx="69.567" cy="84.133" r="12.5"/>
<circle fill="#FFFFFF" cx="119.567" cy="109.133" r="12.5"/>
<circle fill="#FFFFFF" cx="94.567" cy="109.133" r="12.5"/>
<circle fill="#FFFFFF" cx="69.567" cy="109.133" r="12.5"/>
<circle fill="#FFFFFF" cx="44.567" cy="109.133" r="12.5"/>
<circle fill="#FFFFFF" cx="19.567" cy="134.133" r="12.5"/>
<circle fill="#FFFFFF" cx="44.567" cy="134.133" r="12.5"/>
<circle fill="#FFFFFF" cx="69.567" cy="134.133" r="12.5"/>
<circle fill="#FFFFFF" cx="19.567" cy="159.133" r="12.5"/>
<circle fill="#FFFFFF" cx="44.567" cy="159.133" r="12.5"/>
<circle fill="#FFFFFF" cx="19.567" cy="184.133" r="12.5"/>
<circle fill="#FFFFFF" cx="44.567" cy="184.133" r="12.5"/>
<circle fill="#FFFFFF" cx="744.567" cy="84.133" r="12.5"/>
<circle fill="#FFFFFF" cx="719.567" cy="84.133" r="12.5"/>
<circle fill="#FFFFFF" cx="769.567" cy="84.133" r="12.5"/>
<circle fill="#FFFFFF" cx="794.567" cy="84.133" r="12.5"/>
<circle fill="#FFFFFF" cx="819.567" cy="84.133" r="12.5"/>
<circle fill="#FFFFFF" cx="694.567" cy="109.133" r="12.5"/>
<circle fill="#FFFFFF" cx="719.567" cy="109.133" r="12.5"/>
<circle fill="#FFFFFF" cx="744.567" cy="109.133" r="12.5"/>
<circle fill="#FFFFFF" cx="769.567" cy="109.133" r="12.5"/>
<circle fill="#FFFFFF" cx="794.567" cy="109.133" r="12.5"/>
<circle fill="#FFFFFF" cx="819.567" cy="109.133" r="12.5"/>
<circle fill="#FFFFFF" cx="844.567" cy="109.133" r="12.5"/>
<circle fill="#FFFFFF" cx="694.567" cy="134.133" r="12.5"/>
<circle fill="#FFFFFF" cx="719.567" cy="134.133" r="12.5"/>
<circle fill="#FFFFFF" cx="819.567" cy="134.133" r="12.5"/>
<circle fill="#FFFFFF" cx="844.567" cy="134.133" r="12.5"/>
<circle fill="#FFFFFF" cx="719.567" cy="159.133" r="12.5"/>
<circle fill="#FFFFFF" cx="744.567" cy="159.133" r="12.5"/>
<circle fill="#FFFFFF" cx="769.567" cy="159.133" r="12.5"/>
<circle fill="#FFFFFF" cx="794.567" cy="159.133" r="12.5"/>
<circle fill="#FFFFFF" cx="744.567" cy="184.133" r="12.5"/>
<circle fill="#FFFFFF" cx="769.567" cy="184.133" r="12.5"/>
<circle fill="#FFFFFF" cx="794.567" cy="184.133" r="12.5"/>
<circle fill="#FFFFFF" cx="819.567" cy="184.133" r="12.5"/>
<circle fill="#FFFFFF" cx="919.567" cy="9.133" r="12.5"/>
<circle fill="#FFFFFF" cx="944.567" cy="9.133" r="12.5"/>
<circle fill="#FFFFFF" cx="919.567" cy="34.133" r="12.5"/>
<circle fill="#FFFFFF" cx="944.567" cy="34.133" r="12.5"/>
<circle fill="#FFFFFF" cx="919.567" cy="59.133" r="12.5"/>
<circle fill="#FFFFFF" cx="944.567" cy="59.133" r="12.5"/>
<circle fill="#FFFFFF" cx="919.567" cy="84.133" r="12.5"/>
<circle fill="#FFFFFF" cx="944.567" cy="84.133" r="12.5"/>
<circle fill="#FFFFFF" cx="919.567" cy="109.133" r="12.5"/>
<circle fill="#FFFFFF" cx="944.567" cy="109.133" r="12.5"/>
<circle fill="#FFFFFF" cx="919.567" cy="134.133" r="12.5"/>
<circle fill="#FFFFFF" cx="944.567" cy="134.133" r="12.5"/>
<circle fill="#FFFFFF" cx="919.567" cy="159.133" r="12.5"/>
<circle fill="#FFFFFF" cx="944.567" cy="159.133" r="12.5"/>
<circle fill="#FFFFFF" cx="919.567" cy="184.133" r="12.5"/>
<circle fill="#FFFFFF" cx="944.567" cy="184.133" r="12.5"/>
<circle fill="#FFFFFF" cx="894.567" cy="84.133" r="12.5"/>
<circle fill="#FFFFFF" cx="894.567" cy="109.133" r="12.5"/>
<circle fill="#FFFFFF" cx="969.567" cy="84.133" r="12.5"/>
<circle fill="#FFFFFF" cx="994.567" cy="84.133" r="12.5"/>
<circle fill="#FFFFFF" cx="969.567" cy="109.133" r="12.5"/>
<circle fill="#FFFFFF" cx="994.567" cy="109.133" r="12.5"/>
<circle fill="#FFFFFF" cx="19.567" cy="209.133" r="12.5"/>
<circle fill="#FFFFFF" cx="44.567" cy="209.133" r="12.5"/>
<circle fill="#FFFFFF" cx="69.567" cy="209.133" r="12.5"/>
<circle fill="#FFFFFF" cx="144.567" cy="209.133" r="12.5"/>
<circle fill="#FFFFFF" cx="169.567" cy="209.133" r="12.5"/>
<circle fill="#FFFFFF" cx="194.567" cy="209.133" r="12.5"/>
<circle fill="#FFFFFF" cx="44.567" cy="234.133" r="12.5"/>
<circle fill="#FFFFFF" cx="69.567" cy="234.133" r="12.5"/>
<circle fill="#FFFFFF" cx="94.567" cy="234.133" r="12.5"/>
<circle fill="#FFFFFF" cx="119.567" cy="234.133" r="12.5"/>
<circle fill="#FFFFFF" cx="144.567" cy="234.133" r="12.5"/>
<circle fill="#FFFFFF" cx="169.567" cy="234.133" r="12.5"/>
<circle fill="#FFFFFF" cx="194.567" cy="234.133" r="12.5"/>
<circle fill="#FFFFFF" cx="69.567" cy="259.133" r="12.5"/>
<circle fill="#FFFFFF" cx="94.567" cy="259.133" r="12.5"/>
<circle fill="#FFFFFF" cx="119.567" cy="259.133" r="12.5"/>
<circle fill="#FFFFFF" cx="169.567" cy="259.133" r="12.5"/>
<circle fill="#FFFFFF" cx="194.567" cy="259.133" r="12.5"/>
<circle fill="#FFFFFF" cx="244.567" cy="209.133" r="12.5"/>
<circle fill="#FFFFFF" cx="269.567" cy="209.133" r="12.5"/>
<circle fill="#FFFFFF" cx="294.567" cy="209.133" r="12.5"/>
<circle fill="#FFFFFF" cx="369.567" cy="209.133" r="12.5"/>
<circle fill="#FFFFFF" cx="394.567" cy="209.133" r="12.5"/>
<circle fill="#FFFFFF" cx="419.567" cy="209.133" r="12.5"/>
<circle fill="#FFFFFF" cx="269.567" cy="234.133" r="12.5"/>
<circle fill="#FFFFFF" cx="294.567" cy="234.133" r="12.5"/>
<circle fill="#FFFFFF" cx="319.567" cy="234.133" r="12.5"/>
<circle fill="#FFFFFF" cx="344.567" cy="234.133" r="12.5"/>
<circle fill="#FFFFFF" cx="369.567" cy="234.133" r="12.5"/>
<circle fill="#FFFFFF" cx="394.567" cy="234.133" r="12.5"/>
<circle fill="#FFFFFF" cx="419.567" cy="234.133" r="12.5"/>
<circle fill="#FFFFFF" cx="294.567" cy="259.133" r="12.5"/>
<circle fill="#FFFFFF" cx="319.567" cy="259.133" r="12.5"/>
<circle fill="#FFFFFF" cx="344.567" cy="259.133" r="12.5"/>
<circle fill="#FFFFFF" cx="394.567" cy="259.133" r="12.5"/>
<circle fill="#FFFFFF" cx="419.567" cy="259.133" r="12.5"/>
<circle fill="#FFFFFF" cx="244.567" cy="284.133" r="12.5"/>
<circle fill="#FFFFFF" cx="269.567" cy="284.133" r="12.5"/>
<circle fill="#FFFFFF" cx="244.567" cy="309.133" r="12.5"/>
<circle fill="#FFFFFF" cx="269.567" cy="309.133" r="12.5"/>
<circle fill="#FFFFFF" cx="269.567" cy="334.133" r="12.5"/>
<circle fill="#FFFFFF" cx="294.567" cy="309.133" r="12.5"/>
<circle fill="#FFFFFF" cx="319.567" cy="309.133" r="12.5"/>
<circle fill="#FFFFFF" cx="294.567" cy="334.133" r="12.5"/>
<circle fill="#FFFFFF" cx="319.567" cy="334.133" r="12.5"/>
<circle fill="#FFFFFF" cx="344.567" cy="309.133" r="12.5"/>
<circle fill="#FFFFFF" cx="344.567" cy="334.133" r="12.5"/>
<circle fill="#FFFFFF" cx="369.567" cy="309.133" r="12.5"/>
<circle fill="#FFFFFF" cx="369.567" cy="334.133" r="12.5"/>
<circle fill="#FFFFFF" cx="394.567" cy="309.133" r="12.5"/>
<circle fill="#FFFFFF" cx="394.567" cy="284.133" r="12.5"/>
<circle fill="#FFFFFF" cx="419.567" cy="284.133" r="12.5"/>
<circle fill="#FFFFFF" cx="469.567" cy="209.133" r="12.5"/>
<circle fill="#FFFFFF" cx="494.567" cy="209.133" r="12.5"/>
<circle fill="#FFFFFF" cx="469.567" cy="234.133" r="12.5"/>
<circle fill="#FFFFFF" cx="494.567" cy="234.133" r="12.5"/>
<circle fill="#FFFFFF" cx="469.567" cy="259.133" r="12.5"/>
<circle fill="#FFFFFF" cx="494.567" cy="259.133" r="12.5"/>
<circle fill="#FFFFFF" cx="619.567" cy="209.133" r="12.5"/>
<circle fill="#FFFFFF" cx="644.567" cy="209.133" r="12.5"/>
<circle fill="#FFFFFF" cx="619.567" cy="234.133" r="12.5"/>
<circle fill="#FFFFFF" cx="644.567" cy="234.133" r="12.5"/>
<circle fill="#FFFFFF" cx="619.567" cy="259.133" r="12.5"/>
<circle fill="#FFFFFF" cx="644.567" cy="259.133" r="12.5"/>
<circle fill="#FFFFFF" cx="694.567" cy="209.133" r="12.5"/>
<circle fill="#FFFFFF" cx="719.567" cy="209.133" r="12.5"/>
<circle fill="#FFFFFF" cx="694.567" cy="234.133" r="12.5"/>
<circle fill="#FFFFFF" cx="719.567" cy="234.133" r="12.5"/>
<circle fill="#FFFFFF" cx="719.567" cy="259.133" r="12.5"/>
<circle fill="#FFFFFF" cx="819.567" cy="209.133" r="12.5"/>
<circle fill="#FFFFFF" cx="844.567" cy="209.133" r="12.5"/>
<circle fill="#FFFFFF" cx="819.567" cy="234.133" r="12.5"/>
<circle fill="#FFFFFF" cx="844.567" cy="234.133" r="12.5"/>
<circle fill="#FFFFFF" cx="744.567" cy="234.133" r="12.5"/>
<circle fill="#FFFFFF" cx="769.567" cy="234.133" r="12.5"/>
<circle fill="#FFFFFF" cx="794.567" cy="234.133" r="12.5"/>
<circle fill="#FFFFFF" cx="744.567" cy="259.133" r="12.5"/>
<circle fill="#FFFFFF" cx="769.567" cy="259.133" r="12.5"/>
<circle fill="#FFFFFF" cx="794.567" cy="259.133" r="12.5"/>
<circle fill="#FFFFFF" cx="819.567" cy="259.133" r="12.5"/>
<circle fill="#FFFFFF" cx="919.567" cy="209.133" r="12.5"/>
<circle fill="#FFFFFF" cx="944.567" cy="209.133" r="12.5"/>
<circle fill="#FFFFFF" cx="919.567" cy="234.133" r="12.5"/>
<circle fill="#FFFFFF" cx="944.567" cy="234.133" r="12.5"/>
<circle fill="#FFFFFF" cx="944.567" cy="259.133" r="12.5"/>
<circle fill="#FFFFFF" cx="969.567" cy="234.133" r="12.5"/>
<circle fill="#FFFFFF" cx="994.567" cy="234.133" r="12.5"/>
<circle fill="#FFFFFF" cx="969.567" cy="259.133" r="12.5"/>
<circle fill="#FFFFFF" cx="994.567" cy="259.133" r="12.5"/>
<circle fill="#FFFFFF" cx="1194.567" cy="84.133" r="12.5"/>
<circle fill="#FFFFFF" cx="1219.567" cy="84.133" r="12.5"/>
<circle fill="#FFFFFF" cx="1194.567" cy="109.133" r="12.5"/>
<circle fill="#FFFFFF" cx="1219.567" cy="109.133" r="12.5"/>
<circle fill="#FFFFFF" cx="1194.567" cy="134.133" r="12.5"/>
<circle fill="#FFFFFF" cx="1219.567" cy="134.133" r="12.5"/>
<circle fill="#FFFFFF" cx="1194.567" cy="159.133" r="12.5"/>
<circle fill="#FFFFFF" cx="1219.567" cy="159.133" r="12.5"/>
<circle fill="#FFFFFF" cx="1194.567" cy="184.133" r="12.5"/>
<circle fill="#FFFFFF" cx="1219.567" cy="184.133" r="12.5"/>
<circle fill="#FFFFFF" cx="1169.567" cy="109.133" r="12.5"/>
<circle fill="#FFFFFF" cx="1169.567" cy="134.133" r="12.5"/>
<circle fill="#FFFFFF" cx="1144.567" cy="84.133" r="12.5"/>
<circle fill="#FFFFFF" cx="1119.567" cy="84.133" r="12.5"/>
<circle fill="#FFFFFF" cx="1094.567" cy="84.133" r="12.5"/>
<circle fill="#FFFFFF" cx="1144.567" cy="109.133" r="12.5"/>
<circle fill="#FFFFFF" cx="1119.567" cy="109.133" r="12.5"/>
<circle fill="#FFFFFF" cx="1094.567" cy="109.133" r="12.5"/>
<circle fill="#FFFFFF" cx="1069.567" cy="109.133" r="12.5"/>
<circle fill="#FFFFFF" cx="1044.567" cy="134.133" r="12.5"/>
<circle fill="#FFFFFF" cx="1069.567" cy="134.133" r="12.5"/>
<circle fill="#FFFFFF" cx="1094.567" cy="134.133" r="12.5"/>
<circle fill="#FFFFFF" cx="1044.567" cy="159.133" r="12.5"/>
<circle fill="#FFFFFF" cx="1069.567" cy="159.133" r="12.5"/>
<circle fill="#FFFFFF" cx="1044.567" cy="184.133" r="12.5"/>
<circle fill="#FFFFFF" cx="1069.567" cy="184.133" r="12.5"/>
<circle fill="#FFFFFF" cx="1044.567" cy="209.133" r="12.5"/>
<circle fill="#FFFFFF" cx="1069.567" cy="209.133" r="12.5"/>
<circle fill="#FFFFFF" cx="1094.567" cy="209.133" r="12.5"/>
<circle fill="#FFFFFF" cx="1169.567" cy="209.133" r="12.5"/>
<circle fill="#FFFFFF" cx="1194.567" cy="209.133" r="12.5"/>
<circle fill="#FFFFFF" cx="1219.567" cy="209.133" r="12.5"/>
<circle fill="#FFFFFF" cx="1069.567" cy="234.133" r="12.5"/>
<circle fill="#FFFFFF" cx="1094.567" cy="234.133" r="12.5"/>
<circle fill="#FFFFFF" cx="1119.567" cy="234.133" r="12.5"/>
<circle fill="#FFFFFF" cx="1144.567" cy="234.133" r="12.5"/>
<circle fill="#FFFFFF" cx="1169.567" cy="234.133" r="12.5"/>
<circle fill="#FFFFFF" cx="1194.567" cy="234.133" r="12.5"/>
<circle fill="#FFFFFF" cx="1219.567" cy="234.133" r="12.5"/>
<circle fill="#FFFFFF" cx="1094.567" cy="259.133" r="12.5"/>
<circle fill="#FFFFFF" cx="1119.567" cy="259.133" r="12.5"/>
<circle fill="#FFFFFF" cx="1144.567" cy="259.133" r="12.5"/>
<circle fill="#FFFFFF" cx="1194.567" cy="259.133" r="12.5"/>
<circle fill="#FFFFFF" cx="1219.567" cy="259.133" r="12.5"/>
</svg>
