<?xml version="1.0" encoding="UTF-8" standalone="no"?>
<svg width="338px" height="177px" viewBox="0 0 338 177" version="1.1" xmlns="http://www.w3.org/2000/svg" xmlns:xlink="http://www.w3.org/1999/xlink">
    <!-- Generator: Sketch 3.8.3 (29802) - http://www.bohemiancoding.com/sketch -->
    <title>abr-denmark-white</title>
    <desc>Created with Sketch.</desc>
    <defs>
        <polygon id="path-1" points="136.981 0.543 0.06 0.543 0.06 129.949 136.981 129.949 136.981 0.543"></polygon>
    </defs>
    <g id="Denmark-Inverse" stroke="none" stroke-width="1" fill="none" fill-rule="evenodd">
        <g id="abr_logo_Denmark_Magenta">
            <g id="Group-6">
                <mask id="mask-2" fill="white">
                    <use xlink:href="#path-1"></use>
                </mask>
                <g id="Clip-2"></g>
                <path d="M115.12,19.572 C115.12,25.169 120.014,29.707 126.051,29.707 C132.087,29.707 136.981,25.169 136.981,19.572 C136.981,13.975 132.087,9.437 126.051,9.437 C120.014,9.437 115.12,13.975 115.12,19.572" id="Fill-1" fill="#FFFFFF" mask="url(#mask-2)"></path>
                <path d="M123.199,3.894 C123.199,3.894 95.207,9.437 113.713,34.925 C148.261,82.505 117.068,121.22 111.008,128.846 C111.008,128.846 127.503,79.075 97.155,47.769 C71.166,20.957 96.92,-9.753 123.199,3.894" id="Fill-3" fill="#FFFFFF" mask="url(#mask-2)"></path>
                <path d="M35.278,74.745 C39.598,78.655 39.695,85.059 35.494,89.049 C31.293,93.039 24.386,93.105 20.066,89.195 C15.746,85.285 15.65,78.881 19.851,74.891 C24.051,70.901 30.959,70.835 35.278,74.745" id="Fill-4" fill="#FFFFFF" mask="url(#mask-2)"></path>
                <path d="M11.582,78.246 C11.582,78.246 4.492,102.44 35.66,96.978 C84.53,88.414 100.117,121.847 102.719,129.949 C102.719,129.949 80.006,101.039 40.638,114.682 C-1.056,129.131 -10.528,99.711 11.582,78.246" id="Fill-5" fill="#FFFFFF" mask="url(#mask-2)"></path>
            </g>
            <path d="M56.213,28.506 C56.213,28.506 36.767,47.44 66.648,59.583 C113.5,78.624 108.512,118.882 106.291,127.986 C106.291,127.986 102.642,88.046 61.183,79.083 C17.273,69.59 25.322,36.52 56.213,28.506" id="Fill-7" fill="#FFFFFF"></path>
            <path d="M75.399,31.81 C79.718,35.719 79.815,42.124 75.614,46.114 C71.414,50.104 64.506,50.169 60.186,46.259 C55.867,42.349 55.77,35.945 59.971,31.955 C64.172,27.965 71.079,27.9 75.399,31.81" id="Fill-8" fill="#FFFFFF"></path>
            <polyline id="Fill-9" fill="#FFFFFF" points="81.922 139.663 83.289 139.663 83.289 143.608 85.457 143.608 85.457 144.79 83.289 144.79 83.289 154.233 81.922 154.233 81.922 144.79 80.057 144.79 80.057 143.608 81.922 143.608 81.922 139.663"></polyline>
            <path d="M87.508,139.507 L88.875,139.507 L88.875,145.512 C89.428,144.783 90.037,144.238 90.701,143.877 C91.365,143.515 92.085,143.335 92.859,143.335 C93.654,143.335 94.358,143.537 94.974,143.94 C95.589,144.344 96.043,144.886 96.336,145.566 C96.629,146.247 96.775,147.312 96.775,148.764 L96.775,154.233 L95.408,154.233 L95.408,149.165 C95.408,147.941 95.359,147.124 95.262,146.714 C95.092,146.011 94.785,145.481 94.339,145.127 C93.893,144.772 93.309,144.595 92.586,144.595 C91.759,144.595 91.019,144.868 90.364,145.415 C89.71,145.962 89.279,146.638 89.07,147.446 C88.94,147.967 88.875,148.93 88.875,150.337 L88.875,154.233 L87.508,154.233 L87.508,139.507" id="Fill-10" fill="#FFFFFF"></path>
            <path d="M99.188,143.608 L100.584,143.608 L100.584,145.161 C101.001,144.549 101.44,144.092 101.902,143.789 C102.365,143.486 102.846,143.335 103.348,143.335 C103.725,143.335 104.129,143.455 104.559,143.696 L103.846,144.848 C103.559,144.724 103.318,144.663 103.123,144.663 C102.668,144.663 102.228,144.85 101.805,145.224 C101.381,145.598 101.059,146.179 100.838,146.968 C100.669,147.573 100.584,148.797 100.584,150.639 L100.584,154.233 L99.188,154.233 L99.188,143.608" id="Fill-11" fill="#FFFFFF"></path>
            <path d="M105.516,154.233 L106.883,154.233 L106.883,143.608 L105.516,143.608 L105.516,154.233 Z M106.194,139.233 C106.505,139.233 106.772,139.344 106.992,139.565 C107.212,139.787 107.322,140.053 107.322,140.366 C107.322,140.672 107.212,140.935 106.992,141.157 C106.772,141.379 106.505,141.489 106.194,141.489 C105.89,141.489 105.627,141.379 105.407,141.157 C105.187,140.935 105.076,140.672 105.076,140.366 C105.076,140.053 105.187,139.787 105.407,139.565 C105.627,139.344 105.89,139.233 106.194,139.233 L106.194,139.233 Z" id="Fill-12" fill="#FFFFFF"></path>
            <polyline id="Fill-13" fill="#FFFFFF" points="108.719 143.608 110.174 143.608 113.74 151.353 117.264 143.608 118.729 143.608 113.865 154.233 113.611 154.233 108.719 143.608"></polyline>
            <path d="M129.754,147.846 C129.571,147.117 129.306,146.535 128.957,146.098 C128.608,145.662 128.147,145.31 127.573,145.044 C127,144.777 126.397,144.643 125.765,144.643 C124.722,144.643 123.825,144.978 123.076,145.649 C122.528,146.137 122.114,146.87 121.834,147.846 L129.754,147.846 L129.754,147.846 Z M129.754,150.708 L130.906,151.313 C130.528,152.055 130.092,152.654 129.597,153.11 C129.101,153.566 128.544,153.913 127.925,154.15 C127.306,154.387 126.606,154.507 125.823,154.507 C124.09,154.507 122.735,153.938 121.757,152.803 C120.78,151.667 120.291,150.383 120.291,148.95 C120.291,147.602 120.705,146.401 121.532,145.346 C122.582,144.006 123.986,143.335 125.745,143.335 C127.557,143.335 129.003,144.021 130.085,145.395 C130.854,146.365 131.245,147.576 131.258,149.028 L121.697,149.028 C121.723,150.262 122.118,151.274 122.88,152.063 C123.643,152.852 124.585,153.247 125.706,153.247 C126.247,153.247 126.774,153.153 127.285,152.965 C127.797,152.777 128.232,152.527 128.59,152.216 C128.949,151.904 129.337,151.402 129.754,150.708 L129.754,150.708 Z" id="Fill-14" fill="#FFFFFF"></path>
            <path d="M144.466,144.653 C143.705,144.653 143.003,144.841 142.359,145.214 C141.715,145.588 141.203,146.113 140.822,146.79 C140.442,147.466 140.252,148.181 140.252,148.935 C140.252,149.683 140.444,150.398 140.827,151.081 C141.211,151.764 141.727,152.296 142.374,152.677 C143.021,153.056 143.715,153.247 144.456,153.247 C145.204,153.247 145.913,153.058 146.583,152.681 C147.253,152.303 147.768,151.794 148.128,151.149 C148.489,150.506 148.67,149.781 148.67,148.974 C148.67,147.746 148.265,146.718 147.456,145.892 C146.646,145.066 145.649,144.653 144.466,144.653 L144.466,144.653 Z M149.93,143.608 L149.93,154.233 L148.582,154.233 L148.582,152.407 C148.009,153.103 147.366,153.628 146.653,153.979 C145.941,154.331 145.161,154.507 144.315,154.507 C142.811,154.507 141.526,153.962 140.462,152.871 C139.398,151.78 138.865,150.454 138.865,148.891 C138.865,147.361 139.402,146.053 140.477,144.966 C141.551,143.879 142.843,143.335 144.354,143.335 C145.226,143.335 146.015,143.52 146.722,143.891 C147.428,144.262 148.048,144.819 148.582,145.561 L148.582,143.608 L149.93,143.608 L149.93,143.608 Z" id="Fill-15" fill="#FFFFFF"></path>
            <path d="M153.006,143.608 L154.373,143.608 L154.373,145.512 C154.92,144.783 155.525,144.238 156.19,143.877 C156.854,143.515 157.576,143.335 158.357,143.335 C159.152,143.335 159.857,143.537 160.472,143.94 C161.087,144.344 161.541,144.887 161.834,145.571 C162.127,146.255 162.274,147.319 162.274,148.764 L162.274,154.233 L160.906,154.233 L160.906,149.165 C160.906,147.941 160.856,147.124 160.754,146.714 C160.596,146.011 160.292,145.481 159.843,145.127 C159.394,144.772 158.807,144.595 158.085,144.595 C157.258,144.595 156.517,144.868 155.862,145.415 C155.208,145.962 154.777,146.638 154.568,147.446 C154.438,147.973 154.373,148.937 154.373,150.337 L154.373,154.233 L153.006,154.233 L153.006,143.608" id="Fill-16" fill="#FFFFFF"></path>
            <path d="M170.345,144.653 C169.584,144.653 168.881,144.841 168.238,145.214 C167.594,145.588 167.082,146.113 166.701,146.79 C166.321,147.466 166.131,148.181 166.131,148.935 C166.131,149.683 166.323,150.398 166.706,151.081 C167.09,151.764 167.606,152.296 168.253,152.677 C168.899,153.056 169.594,153.247 170.335,153.247 C171.083,153.247 171.792,153.058 172.462,152.681 C173.131,152.303 173.647,151.794 174.007,151.149 C174.368,150.506 174.549,149.781 174.549,148.974 C174.549,147.746 174.144,146.718 173.335,145.892 C172.525,145.066 171.528,144.653 170.345,144.653 L170.345,144.653 Z M175.809,139.507 L175.809,154.233 L174.461,154.233 L174.461,152.407 C173.888,153.103 173.245,153.628 172.532,153.979 C171.819,154.331 171.04,154.507 170.193,154.507 C168.69,154.507 167.405,153.962 166.341,152.871 C165.276,151.78 164.744,150.454 164.744,148.891 C164.744,147.361 165.281,146.053 166.356,144.966 C167.43,143.879 168.722,143.335 170.232,143.335 C171.105,143.335 171.894,143.52 172.601,143.891 C173.307,144.262 173.927,144.819 174.461,145.561 L174.461,139.507 L175.809,139.507 L175.809,139.507 Z" id="Fill-17" fill="#FFFFFF"></path>
            <path d="M188.816,139.507 L188.816,140.845 C188.315,140.63 187.885,140.522 187.527,140.522 C187.26,140.522 187.039,140.576 186.863,140.683 C186.687,140.791 186.577,140.915 186.531,141.054 C186.486,141.194 186.462,141.567 186.462,142.173 L186.462,143.608 L188.679,143.608 L188.679,144.79 L186.461,144.79 L186.453,154.233 L185.086,154.233 L185.086,144.79 L183.689,144.79 L183.689,143.608 L185.086,143.608 L185.086,141.948 C185.086,141.186 185.156,140.642 185.295,140.317 C185.436,139.992 185.673,139.729 186.008,139.531 C186.344,139.333 186.75,139.233 187.224,139.233 C187.668,139.233 188.198,139.324 188.816,139.507" id="Fill-18" fill="#FFFFFF"></path>
            <polygon id="Fill-19" fill="#FFFFFF" points="190.515 154.233 191.882 154.233 191.882 139.507 190.515 139.507"></polygon>
            <path d="M199.749,144.673 C198.612,144.673 197.635,145.093 196.819,145.932 C196.002,146.772 195.593,147.788 195.593,148.979 C195.593,149.748 195.78,150.464 196.152,151.128 C196.525,151.792 197.028,152.304 197.662,152.666 C198.295,153.027 198.991,153.208 199.749,153.208 C200.506,153.208 201.203,153.027 201.837,152.666 C202.47,152.304 202.973,151.792 203.345,151.128 C203.717,150.464 203.904,149.748 203.904,148.979 C203.904,147.788 203.494,146.772 202.674,145.932 C201.854,145.093 200.879,144.673 199.749,144.673 L199.749,144.673 Z M199.753,143.335 C201.39,143.335 202.748,143.928 203.824,145.112 C204.801,146.193 205.291,147.472 205.291,148.95 C205.291,150.434 204.774,151.731 203.74,152.842 C202.707,153.952 201.378,154.507 199.753,154.507 C198.124,154.507 196.791,153.952 195.757,152.842 C194.723,151.731 194.207,150.434 194.207,148.95 C194.207,147.478 194.696,146.203 195.674,145.122 C196.751,143.93 198.11,143.335 199.753,143.335 L199.753,143.335 Z" id="Fill-20" fill="#FFFFFF"></path>
            <path d="M207.644,143.608 L209.011,143.608 L209.011,148.569 C209.011,149.78 209.077,150.613 209.208,151.069 C209.403,151.72 209.776,152.234 210.327,152.612 C210.878,152.99 211.535,153.178 212.297,153.178 C213.06,153.178 213.708,152.995 214.239,152.627 C214.77,152.259 215.137,151.775 215.339,151.177 C215.476,150.766 215.545,149.897 215.545,148.569 L215.545,143.608 L216.941,143.608 L216.941,148.823 C216.941,150.288 216.77,151.391 216.428,152.134 C216.087,152.876 215.573,153.457 214.885,153.877 C214.199,154.297 213.337,154.507 212.302,154.507 C211.267,154.507 210.403,154.297 209.71,153.877 C209.016,153.457 208.499,152.871 208.157,152.119 C207.815,151.367 207.644,150.236 207.644,148.725 L207.644,143.608" id="Fill-21" fill="#FFFFFF"></path>
            <path d="M219.461,143.608 L220.857,143.608 L220.857,145.161 C221.274,144.549 221.713,144.092 222.175,143.789 C222.638,143.486 223.12,143.335 223.621,143.335 C223.999,143.335 224.402,143.455 224.832,143.696 L224.119,144.848 C223.833,144.724 223.591,144.663 223.396,144.663 C222.941,144.663 222.502,144.85 222.078,145.224 C221.655,145.598 221.333,146.179 221.111,146.968 C220.942,147.573 220.857,148.797 220.857,150.639 L220.857,154.233 L219.461,154.233 L219.461,143.608" id="Fill-22" fill="#FFFFFF"></path>
            <path d="M225.789,154.233 L227.156,154.233 L227.156,143.608 L225.789,143.608 L225.789,154.233 Z M226.467,139.233 C226.779,139.233 227.045,139.344 227.265,139.565 C227.485,139.787 227.595,140.053 227.595,140.366 C227.595,140.672 227.485,140.935 227.265,141.157 C227.045,141.379 226.779,141.489 226.467,141.489 C226.163,141.489 225.9,141.379 225.68,141.157 C225.46,140.935 225.349,140.672 225.349,140.366 C225.349,140.053 225.46,139.787 225.68,139.565 C225.9,139.344 226.163,139.233 226.467,139.233 L226.467,139.233 Z" id="Fill-23" fill="#FFFFFF"></path>
            <path d="M235.339,144.77 L234.461,145.678 C233.729,144.969 233.015,144.614 232.317,144.614 C231.873,144.614 231.493,144.761 231.175,145.053 C230.859,145.346 230.701,145.688 230.701,146.079 C230.701,146.424 230.832,146.753 231.092,147.065 C231.353,147.385 231.901,147.759 232.737,148.188 C233.754,148.716 234.446,149.223 234.811,149.712 C235.17,150.207 235.349,150.763 235.349,151.382 C235.349,152.254 235.043,152.993 234.43,153.598 C233.817,154.204 233.05,154.507 232.131,154.507 C231.518,154.507 230.933,154.373 230.376,154.106 C229.818,153.84 229.357,153.471 228.992,153.003 L229.851,152.026 C230.549,152.814 231.291,153.208 232.074,153.208 C232.622,153.208 233.087,153.032 233.473,152.68 C233.858,152.329 234.05,151.916 234.05,151.44 C234.05,151.05 233.923,150.701 233.669,150.395 C233.415,150.095 232.84,149.719 231.947,149.262 C230.988,148.767 230.335,148.279 229.989,147.798 C229.643,147.316 229.47,146.765 229.47,146.147 C229.47,145.34 229.746,144.67 230.297,144.136 C230.848,143.601 231.545,143.335 232.385,143.335 C233.364,143.335 234.348,143.813 235.339,144.77" id="Fill-24" fill="#FFFFFF"></path>
            <path d="M237.761,139.507 L239.128,139.507 L239.128,145.512 C239.682,144.783 240.291,144.238 240.955,143.877 C241.619,143.515 242.338,143.335 243.113,143.335 C243.907,143.335 244.612,143.537 245.227,143.94 C245.842,144.344 246.296,144.886 246.589,145.566 C246.882,146.247 247.029,147.312 247.029,148.764 L247.029,154.233 L245.662,154.233 L245.662,149.165 C245.662,147.941 245.613,147.124 245.515,146.714 C245.346,146.011 245.039,145.481 244.592,145.127 C244.146,144.772 243.562,144.595 242.839,144.595 C242.012,144.595 241.272,144.868 240.618,145.415 C239.963,145.962 239.533,146.638 239.324,147.446 C239.194,147.967 239.128,148.93 239.128,150.337 L239.128,154.233 L237.761,154.233 L237.761,139.507" id="Fill-25" fill="#FFFFFF"></path>
            <path d="M260.984,144.653 C259.801,144.653 258.806,145.066 257.998,145.892 C257.189,146.718 256.785,147.746 256.785,148.974 C256.785,149.781 256.965,150.506 257.326,151.149 C257.686,151.794 258.203,152.303 258.875,152.681 C259.546,153.058 260.256,153.247 261.003,153.247 C261.738,153.247 262.427,153.056 263.074,152.677 C263.72,152.296 264.235,151.764 264.618,151.081 C265.002,150.398 265.193,149.683 265.193,148.935 C265.193,148.181 265.003,147.466 264.623,146.79 C264.243,146.113 263.731,145.588 263.088,145.214 C262.446,144.841 261.744,144.653 260.984,144.653 L260.984,144.653 Z M255.515,143.608 L256.882,143.608 L256.882,145.561 C257.422,144.819 258.044,144.262 258.746,143.891 C259.448,143.52 260.232,143.335 261.097,143.335 C262.606,143.335 263.897,143.879 264.97,144.966 C266.043,146.053 266.58,147.361 266.58,148.891 C266.58,150.454 266.047,151.78 264.985,152.871 C263.921,153.962 262.638,154.507 261.136,154.507 C260.291,154.507 259.513,154.331 258.804,153.979 C258.095,153.628 257.455,153.103 256.882,152.407 L256.882,158.12 L255.515,158.12 L255.515,143.608 L255.515,143.608 Z" id="Fill-26" fill="#FFFFFF"></path>
            <path d="M268.621,143.608 L270.017,143.608 L270.017,145.161 C270.434,144.549 270.874,144.092 271.336,143.789 C271.797,143.486 272.28,143.335 272.781,143.335 C273.159,143.335 273.562,143.455 273.992,143.696 L273.279,144.848 C272.993,144.724 272.752,144.663 272.556,144.663 C272.1,144.663 271.661,144.85 271.238,145.224 C270.815,145.598 270.493,146.179 270.271,146.968 C270.102,147.573 270.017,148.797 270.017,150.639 L270.017,154.233 L268.621,154.233 L268.621,143.608" id="Fill-27" fill="#FFFFFF"></path>
            <path d="M280.1,144.673 C278.963,144.673 277.987,145.093 277.169,145.932 C276.353,146.772 275.945,147.788 275.945,148.979 C275.945,149.748 276.131,150.464 276.503,151.128 C276.876,151.792 277.378,152.304 278.013,152.666 C278.646,153.027 279.342,153.208 280.1,153.208 C280.858,153.208 281.553,153.027 282.187,152.666 C282.821,152.304 283.325,151.792 283.697,151.128 C284.069,150.464 284.255,149.748 284.255,148.979 C284.255,147.788 283.845,146.772 283.025,145.932 C282.206,145.093 281.23,144.673 280.1,144.673 L280.1,144.673 Z M280.105,143.335 C281.742,143.335 283.098,143.928 284.174,145.112 C285.153,146.193 285.642,147.472 285.642,148.95 C285.642,150.434 285.126,151.731 284.091,152.842 C283.058,153.952 281.729,154.507 280.105,154.507 C278.474,154.507 277.142,153.952 276.109,152.842 C275.075,151.731 274.558,150.434 274.558,148.95 C274.558,147.478 275.047,146.203 276.026,145.122 C277.102,143.93 278.461,143.335 280.105,143.335 L280.105,143.335 Z" id="Fill-28" fill="#FFFFFF"></path>
            <path d="M293.298,144.653 C292.524,144.653 291.804,144.841 291.14,145.215 C290.476,145.589 289.956,146.106 289.578,146.767 C289.2,147.428 289.011,148.142 289.011,148.911 C289.011,150.076 289.402,151.04 290.183,151.802 C290.964,152.563 291.977,152.944 293.22,152.944 C294.477,152.944 295.488,152.566 296.253,151.811 C297.017,151.056 297.4,150.063 297.4,148.833 C297.4,148.032 297.224,147.317 296.873,146.689 C296.521,146.061 296.023,145.564 295.378,145.2 C294.734,144.836 294.041,144.653 293.298,144.653 L293.298,144.653 Z M297.332,143.608 L298.699,143.608 L298.699,152.075 C298.699,153.566 298.569,154.656 298.308,155.346 C297.95,156.323 297.329,157.075 296.443,157.602 C295.557,158.13 294.493,158.393 293.25,158.393 C292.338,158.393 291.519,158.264 290.794,158.007 C290.068,157.749 289.477,157.402 289.021,156.969 C288.565,156.534 288.145,155.899 287.761,155.063 L289.246,155.063 C289.65,155.766 290.171,156.287 290.81,156.626 C291.449,156.965 292.241,157.134 293.186,157.134 C294.118,157.134 294.905,156.96 295.547,156.613 C296.189,156.265 296.647,155.829 296.921,155.303 C297.195,154.778 297.332,153.929 297.332,152.759 L297.332,152.212 C296.817,152.863 296.188,153.362 295.445,153.711 C294.702,154.059 293.914,154.233 293.08,154.233 C292.102,154.233 291.183,153.991 290.323,153.506 C289.462,153.02 288.797,152.368 288.329,151.548 C287.859,150.727 287.625,149.826 287.625,148.843 C287.625,147.859 287.869,146.943 288.358,146.094 C288.846,145.244 289.523,144.572 290.386,144.077 C291.25,143.582 292.161,143.335 293.119,143.335 C293.914,143.335 294.655,143.499 295.342,143.828 C296.03,144.157 296.693,144.699 297.332,145.454 L297.332,143.608 L297.332,143.608 Z" id="Fill-29" fill="#FFFFFF"></path>
            <path d="M301.111,143.608 L302.507,143.608 L302.507,145.161 C302.924,144.549 303.364,144.092 303.826,143.789 C304.288,143.486 304.77,143.335 305.271,143.335 C305.649,143.335 306.052,143.455 306.482,143.696 L305.769,144.848 C305.483,144.724 305.242,144.663 305.046,144.663 C304.59,144.663 304.151,144.85 303.728,145.224 C303.305,145.598 302.983,146.179 302.761,146.968 C302.592,147.573 302.507,148.797 302.507,150.639 L302.507,154.233 L301.111,154.233 L301.111,143.608" id="Fill-30" fill="#FFFFFF"></path>
            <path d="M312.766,144.653 C312.005,144.653 311.303,144.841 310.66,145.214 C310.015,145.588 309.503,146.113 309.123,146.79 C308.743,147.466 308.552,148.181 308.552,148.935 C308.552,149.683 308.744,150.398 309.128,151.081 C309.511,151.764 310.027,152.296 310.673,152.677 C311.321,153.056 312.015,153.247 312.756,153.247 C313.504,153.247 314.213,153.058 314.882,152.681 C315.552,152.303 316.068,151.794 316.429,151.149 C316.79,150.506 316.97,149.781 316.97,148.974 C316.97,147.746 316.565,146.718 315.755,145.892 C314.946,145.066 313.95,144.653 312.766,144.653 L312.766,144.653 Z M318.23,143.608 L318.23,154.233 L316.882,154.233 L316.882,152.407 C316.309,153.103 315.667,153.628 314.954,153.979 C314.241,154.331 313.461,154.507 312.615,154.507 C311.111,154.507 309.827,153.962 308.762,152.871 C307.698,151.78 307.166,150.454 307.166,148.891 C307.166,147.361 307.703,146.053 308.777,144.966 C309.851,143.879 311.143,143.335 312.654,143.335 C313.526,143.335 314.316,143.52 315.022,143.891 C315.728,144.262 316.348,144.819 316.882,145.561 L316.882,143.608 L318.23,143.608 L318.23,143.608 Z" id="Fill-31" fill="#FFFFFF"></path>
            <path d="M321.296,143.608 L322.664,143.608 L322.664,145.444 C323.139,144.767 323.628,144.272 324.13,143.96 C324.821,143.543 325.547,143.335 326.31,143.335 C326.826,143.335 327.314,143.435 327.777,143.637 C328.24,143.84 328.618,144.108 328.911,144.443 C329.205,144.778 329.459,145.259 329.673,145.884 C330.128,145.051 330.697,144.417 331.378,143.984 C332.06,143.552 332.794,143.335 333.581,143.335 C334.314,143.335 334.962,143.52 335.524,143.891 C336.086,144.262 336.503,144.78 336.776,145.444 C337.048,146.108 337.185,147.104 337.185,148.432 L337.185,154.233 L335.789,154.233 L335.789,148.432 C335.789,147.293 335.708,146.511 335.545,146.084 C335.383,145.657 335.106,145.314 334.713,145.053 C334.321,144.793 333.852,144.663 333.306,144.663 C332.645,144.663 332.04,144.858 331.492,145.249 C330.943,145.639 330.543,146.16 330.29,146.811 C330.037,147.463 329.91,148.55 329.91,150.073 L329.91,154.233 L328.543,154.233 L328.543,148.794 C328.543,147.512 328.462,146.64 328.303,146.181 C328.144,145.722 327.866,145.354 327.468,145.078 C327.071,144.802 326.599,144.663 326.052,144.663 C325.42,144.663 324.83,144.853 324.28,145.234 C323.73,145.615 323.323,146.128 323.059,146.772 C322.795,147.417 322.664,148.403 322.664,149.731 L322.664,154.233 L321.296,154.233 L321.296,143.608" id="Fill-32" fill="#FFFFFF"></path>
            <g id="Group" transform="translate(136.000000, 55.000000)" fill="#FFFFFF">
                <path d="M26.836,28.148 C23.324,28.148 20.081,29.011 17.109,30.737 C14.136,32.464 11.772,34.888 10.016,38.01 C8.26,41.132 7.383,44.434 7.383,47.916 C7.383,51.369 8.268,54.672 10.039,57.823 C11.81,60.976 14.189,63.429 17.176,65.186 C20.163,66.943 23.368,67.82 26.791,67.82 C30.243,67.82 33.515,66.95 36.607,65.209 C39.699,63.468 42.078,61.111 43.745,58.139 C45.411,55.167 46.244,51.82 46.244,48.097 C46.244,42.424 44.375,37.68 40.637,33.867 C36.9,30.054 32.3,28.148 26.836,28.148 L26.836,28.148 Z M52.059,25.167 L52.059,72.374 L45.838,72.374 L45.838,63.943 C43.193,67.16 40.225,69.579 36.934,71.202 C33.643,72.825 30.044,73.636 26.137,73.636 C19.194,73.636 13.265,71.119 8.352,66.085 C3.438,61.051 0.981,54.927 0.981,47.714 C0.981,40.651 3.461,34.61 8.42,29.59 C13.379,24.572 19.344,22.061 26.317,22.061 C30.344,22.061 33.988,22.918 37.25,24.631 C40.51,26.344 43.374,28.914 45.838,32.341 C45.838,32.341 45.696,30.637 45.804,25.419 C45.914,20.13 52.059,21.074 52.059,25.167 L52.059,25.167 Z" id="Fill-33"></path>
                <path d="M91.912,67.55 C95.421,67.55 98.659,66.686 101.628,64.958 C104.596,63.23 106.957,60.803 108.712,57.677 C110.466,54.551 111.342,51.245 111.342,47.759 C111.342,44.273 110.458,40.951 108.689,37.795 C106.92,34.639 104.544,32.182 101.56,30.424 C98.576,28.666 95.39,27.787 92.003,27.787 C88.553,27.787 85.278,28.666 82.175,30.424 C79.071,32.182 76.687,34.549 75.023,37.525 C73.358,40.5 72.527,43.852 72.527,47.578 C72.527,53.259 74.392,58.008 78.126,61.824 C81.859,65.641 86.455,67.55 91.912,67.55 L91.912,67.55 Z M66.666,72.374 C66.666,72.374 66.749,10.666 66.666,4.389 C66.595,-0.924 73.104,-0.208 72.977,4.389 C72.875,8.082 72.977,31.754 72.977,31.754 C75.619,28.508 78.577,26.082 81.849,24.473 C85.123,22.866 88.71,22.061 92.614,22.061 C99.55,22.061 105.471,24.579 110.381,29.613 C115.29,34.647 117.745,40.756 117.745,47.939 C117.745,55.032 115.267,61.088 110.313,66.107 C105.359,71.127 99.399,73.636 92.433,73.636 C88.44,73.636 84.822,72.779 81.58,71.066 C78.337,69.353 75.469,66.784 72.977,63.357 L72.977,72.374 L66.666,72.374 L66.666,72.374 Z" id="Fill-34"></path>
                <path d="M126.807,25.663 C127.011,19.738 133.521,20.394 133.216,25.176 C132.976,28.928 133.299,30.492 133.299,30.492 C135.221,27.667 137.25,25.555 139.384,24.158 C141.518,22.76 143.742,22.061 146.056,22.061 C147.8,22.061 149.663,22.618 151.647,23.73 L148.356,29.049 C147.033,28.479 145.922,28.193 145.019,28.193 C142.916,28.193 140.886,29.057 138.933,30.785 C136.979,32.513 135.492,35.196 134.47,38.832 C133.688,41.627 133.299,47.278 133.299,55.783 L133.299,72.374 L126.851,72.374 C126.851,72.374 126.6,31.631 126.807,25.663" id="Fill-35"></path>
            </g>
            <path d="M47.624,163.533 C46.863,163.533 46.161,163.72 45.517,164.095 C44.873,164.469 44.361,164.993 43.98,165.67 C43.6,166.345 43.41,167.061 43.41,167.815 C43.41,168.563 43.601,169.279 43.985,169.962 C44.369,170.644 44.884,171.176 45.531,171.556 C46.178,171.937 46.873,172.127 47.614,172.127 C48.362,172.127 49.071,171.938 49.74,171.561 C50.41,171.184 50.925,170.674 51.287,170.03 C51.647,169.387 51.828,168.661 51.828,167.854 C51.828,166.626 51.422,165.598 50.613,164.772 C49.803,163.946 48.807,163.533 47.624,163.533 L47.624,163.533 Z M53.088,162.488 L53.088,173.113 L51.74,173.113 L51.74,171.287 C51.167,171.984 50.524,172.508 49.811,172.859 C49.098,173.211 48.319,173.387 47.472,173.387 C45.968,173.387 44.684,172.842 43.62,171.751 C42.555,170.661 42.023,169.334 42.023,167.771 C42.023,166.242 42.56,164.933 43.634,163.845 C44.709,162.759 46.001,162.215 47.511,162.215 C48.383,162.215 49.173,162.4 49.879,162.771 C50.585,163.142 51.206,163.699 51.74,164.441 L51.74,162.488 L53.088,162.488 L53.088,162.488 Z" id="Fill-36" fill="#FFFFFF"></path>
            <path d="M61.72,172.068 C62.48,172.068 63.182,171.882 63.825,171.507 C64.467,171.133 64.979,170.607 65.359,169.929 C65.739,169.253 65.929,168.537 65.929,167.781 C65.929,167.026 65.738,166.306 65.354,165.623 C64.971,164.939 64.457,164.407 63.81,164.026 C63.164,163.645 62.474,163.455 61.74,163.455 C60.993,163.455 60.283,163.645 59.611,164.026 C58.939,164.407 58.422,164.92 58.062,165.564 C57.702,166.209 57.521,166.935 57.521,167.742 C57.521,168.972 57.925,170.002 58.734,170.828 C59.543,171.655 60.538,172.068 61.72,172.068 L61.72,172.068 Z M56.251,173.113 L56.251,158.387 L57.619,158.387 L57.619,164.314 C58.191,163.611 58.832,163.086 59.541,162.737 C60.25,162.389 61.027,162.215 61.873,162.215 C63.375,162.215 64.658,162.761 65.721,163.85 C66.784,164.941 67.316,166.264 67.316,167.82 C67.316,169.357 66.779,170.669 65.707,171.756 C64.633,172.844 63.342,173.387 61.834,173.387 C60.968,173.387 60.184,173.201 59.482,172.83 C58.78,172.459 58.159,171.902 57.619,171.16 L57.619,173.113 L56.251,173.113 L56.251,173.113 Z" id="Fill-37" fill="#FFFFFF"></path>
            <path d="M69.289,162.488 L70.685,162.488 L70.685,164.041 C71.102,163.429 71.542,162.971 72.004,162.669 C72.465,162.366 72.948,162.215 73.449,162.215 C73.827,162.215 74.23,162.336 74.66,162.576 L73.947,163.728 C73.661,163.605 73.42,163.543 73.224,163.543 C72.768,163.543 72.329,163.73 71.906,164.104 C71.483,164.479 71.161,165.06 70.939,165.847 C70.77,166.453 70.685,167.678 70.685,169.519 L70.685,173.113 L69.289,173.113 L69.289,162.488" id="Fill-38" fill="#FFFFFF"></path>
            <path d="M82.961,171.756 L84.621,171.756 C86.606,171.756 87.983,171.633 88.752,171.386 C89.833,171.034 90.682,170.401 91.3,169.487 C91.919,168.573 92.228,167.456 92.228,166.136 C92.228,164.75 91.893,163.566 91.222,162.584 C90.551,161.601 89.618,160.928 88.42,160.564 C87.521,160.291 86.04,160.154 83.976,160.154 L82.961,160.154 L82.961,171.756 L82.961,171.756 Z M81.584,173.113 L81.584,158.748 L84.562,158.748 C86.711,158.748 88.27,158.921 89.24,159.265 C90.633,159.754 91.722,160.6 92.506,161.804 C93.291,163.01 93.683,164.445 93.683,166.111 C93.683,167.551 93.373,168.816 92.751,169.91 C92.129,171.004 91.322,171.811 90.329,172.332 C89.335,172.853 87.944,173.113 86.154,173.113 L81.584,173.113 L81.584,173.113 Z" id="Fill-39" fill="#FFFFFF"></path>
            <path d="M105.187,166.726 C105.004,165.998 104.739,165.415 104.39,164.978 C104.042,164.543 103.581,164.191 103.006,163.924 C102.433,163.657 101.83,163.523 101.198,163.523 C100.155,163.523 99.258,163.859 98.509,164.529 C97.962,165.017 97.547,165.75 97.267,166.726 L105.187,166.726 L105.187,166.726 Z M105.187,169.588 L106.339,170.193 C105.961,170.935 105.525,171.535 105.03,171.99 C104.535,172.446 103.977,172.793 103.358,173.03 C102.739,173.268 102.039,173.387 101.256,173.387 C99.523,173.387 98.168,172.819 97.19,171.682 C96.213,170.547 95.724,169.262 95.724,167.83 C95.724,166.482 96.138,165.281 96.965,164.226 C98.014,162.886 99.419,162.215 101.178,162.215 C102.99,162.215 104.436,162.902 105.518,164.275 C106.287,165.246 106.678,166.457 106.691,167.908 L97.13,167.908 C97.157,169.142 97.55,170.154 98.313,170.943 C99.076,171.732 100.018,172.127 101.139,172.127 C101.68,172.127 102.207,172.033 102.718,171.845 C103.23,171.657 103.665,171.407 104.023,171.095 C104.382,170.785 104.77,170.282 105.187,169.588 L105.187,169.588 Z" id="Fill-40" fill="#FFFFFF"></path>
            <path d="M109.24,162.488 L110.607,162.488 L110.607,164.392 C111.154,163.664 111.759,163.118 112.423,162.757 C113.087,162.395 113.81,162.215 114.591,162.215 C115.385,162.215 116.09,162.417 116.706,162.82 C117.321,163.224 117.775,163.767 118.068,164.451 C118.361,165.135 118.507,166.199 118.507,167.644 L118.507,173.113 L117.14,173.113 L117.14,168.045 C117.14,166.821 117.089,166.004 116.988,165.594 C116.83,164.89 116.526,164.362 116.077,164.007 C115.628,163.652 115.042,163.474 114.319,163.474 C113.492,163.474 112.751,163.748 112.096,164.295 C111.442,164.842 111.01,165.519 110.802,166.326 C110.672,166.853 110.607,167.817 110.607,169.217 L110.607,173.113 L109.24,173.113 L109.24,162.488" id="Fill-41" fill="#FFFFFF"></path>
            <path d="M121.427,162.488 L122.795,162.488 L122.795,164.324 C123.27,163.647 123.759,163.152 124.261,162.84 C124.952,162.424 125.678,162.215 126.441,162.215 C126.957,162.215 127.445,162.316 127.908,162.517 C128.371,162.72 128.749,162.988 129.042,163.323 C129.336,163.659 129.589,164.138 129.804,164.763 C130.259,163.93 130.828,163.298 131.509,162.864 C132.191,162.431 132.925,162.215 133.712,162.215 C134.445,162.215 135.093,162.4 135.655,162.771 C136.216,163.142 136.634,163.66 136.907,164.324 C137.179,164.988 137.316,165.984 137.316,167.312 L137.316,173.113 L135.92,173.113 L135.92,167.312 C135.92,166.174 135.838,165.39 135.676,164.964 C135.514,164.538 135.237,164.194 134.844,163.933 C134.452,163.674 133.983,163.543 133.437,163.543 C132.776,163.543 132.17,163.738 131.623,164.129 C131.074,164.519 130.673,165.041 130.42,165.691 C130.168,166.343 130.041,167.429 130.041,168.953 L130.041,173.113 L128.673,173.113 L128.673,167.674 C128.673,166.391 128.593,165.52 128.434,165.061 C128.275,164.602 127.997,164.235 127.599,163.958 C127.202,163.681 126.73,163.543 126.183,163.543 C125.551,163.543 124.961,163.733 124.411,164.114 C123.861,164.495 123.454,165.008 123.19,165.652 C122.926,166.297 122.795,167.283 122.795,168.611 L122.795,173.113 L121.427,173.113 L121.427,162.488" id="Fill-42" fill="#FFFFFF"></path>
            <path d="M145.319,163.533 C144.558,163.533 143.856,163.72 143.212,164.095 C142.568,164.469 142.056,164.993 141.675,165.67 C141.295,166.345 141.105,167.061 141.105,167.815 C141.105,168.563 141.296,169.279 141.68,169.962 C142.064,170.644 142.58,171.176 143.226,171.556 C143.874,171.937 144.568,172.127 145.309,172.127 C146.057,172.127 146.766,171.938 147.435,171.561 C148.105,171.184 148.621,170.674 148.982,170.03 C149.342,169.387 149.523,168.661 149.523,167.854 C149.523,166.626 149.118,165.598 148.308,164.772 C147.499,163.946 146.503,163.533 145.319,163.533 L145.319,163.533 Z M150.783,162.488 L150.783,173.113 L149.435,173.113 L149.435,171.287 C148.862,171.984 148.219,172.508 147.506,172.859 C146.794,173.211 146.014,173.387 145.168,173.387 C143.664,173.387 142.379,172.842 141.315,171.751 C140.251,170.661 139.718,169.334 139.718,167.771 C139.718,166.242 140.255,164.933 141.33,163.845 C142.404,162.759 143.696,162.215 145.207,162.215 C146.079,162.215 146.869,162.4 147.575,162.771 C148.281,163.142 148.901,163.699 149.435,164.441 L149.435,162.488 L150.783,162.488 L150.783,162.488 Z" id="Fill-43" fill="#FFFFFF"></path>
            <path d="M153.341,162.488 L154.738,162.488 L154.738,164.041 C155.155,163.429 155.594,162.971 156.056,162.669 C156.518,162.366 157.001,162.215 157.502,162.215 C157.879,162.215 158.283,162.336 158.712,162.576 L158,163.728 C157.713,163.605 157.472,163.543 157.277,163.543 C156.821,163.543 156.381,163.73 155.959,164.104 C155.536,164.479 155.213,165.06 154.992,165.847 C154.823,166.453 154.738,167.678 154.738,169.519 L154.738,173.113 L153.341,173.113 L153.341,162.488" id="Fill-44" fill="#FFFFFF"></path>
            <polyline id="Fill-45" fill="#FFFFFF" points="159.865 158.387 161.232 158.387 161.232 166.776 166.158 162.488 168.166 162.488 162.326 167.556 168.507 173.113 166.584 173.113 161.232 168.33 161.232 173.113 159.865 173.113 159.865 158.387"></polyline>
            <path d="M181.363,161.801 L178.902,167 L183.813,167 L181.363,161.801 L181.363,161.801 Z M181.545,158.748 L188.244,173.113 L186.693,173.113 L184.434,168.387 L178.246,168.387 L176.007,173.113 L174.406,173.113 L181.193,158.748 L181.545,158.748 L181.545,158.748 Z" id="Fill-46" fill="#FFFFFF"></path>
            <path d="M195.734,163.533 C194.551,163.533 193.556,163.946 192.748,164.772 C191.939,165.598 191.535,166.626 191.535,167.854 C191.535,168.661 191.715,169.387 192.076,170.03 C192.436,170.674 192.953,171.184 193.625,171.561 C194.296,171.938 195.006,172.127 195.753,172.127 C196.488,172.127 197.177,171.937 197.824,171.556 C198.47,171.176 198.985,170.644 199.368,169.962 C199.752,169.279 199.943,168.563 199.943,167.815 C199.943,167.061 199.753,166.345 199.373,165.67 C198.993,164.993 198.481,164.469 197.838,164.095 C197.196,163.72 196.494,163.533 195.734,163.533 L195.734,163.533 Z M190.265,162.488 L191.632,162.488 L191.632,164.441 C192.172,163.699 192.794,163.142 193.496,162.771 C194.198,162.4 194.982,162.215 195.847,162.215 C197.356,162.215 198.647,162.759 199.72,163.845 C200.793,164.933 201.33,166.242 201.33,167.771 C201.33,169.334 200.797,170.661 199.735,171.751 C198.671,172.842 197.388,173.387 195.886,173.387 C195.041,173.387 194.263,173.211 193.554,172.859 C192.845,172.508 192.205,171.984 191.632,171.287 L191.632,177 L190.265,177 L190.265,162.488 L190.265,162.488 Z" id="Fill-47" fill="#FFFFFF"></path>
            <path d="M209.23,163.65 L208.351,164.558 C207.62,163.849 206.905,163.494 206.207,163.494 C205.763,163.494 205.382,163.64 205.066,163.933 C204.75,164.226 204.591,164.568 204.591,164.959 C204.591,165.304 204.722,165.633 204.983,165.945 C205.244,166.264 205.792,166.638 206.627,167.068 C207.645,167.595 208.337,168.103 208.702,168.592 C209.06,169.087 209.24,169.643 209.24,170.262 C209.24,171.135 208.933,171.873 208.32,172.478 C207.708,173.084 206.941,173.387 206.022,173.387 C205.409,173.387 204.824,173.254 204.266,172.986 C203.709,172.72 203.248,172.351 202.882,171.883 L203.742,170.906 C204.44,171.694 205.18,172.088 205.963,172.088 C206.512,172.088 206.978,171.912 207.364,171.56 C207.749,171.209 207.941,170.796 207.941,170.32 C207.941,169.929 207.814,169.582 207.559,169.275 C207.305,168.976 206.731,168.598 205.837,168.142 C204.878,167.648 204.225,167.16 203.879,166.678 C203.534,166.196 203.361,165.646 203.361,165.027 C203.361,164.22 203.636,163.55 204.187,163.015 C204.739,162.482 205.434,162.215 206.276,162.215 C207.254,162.215 208.239,162.693 209.23,163.65" id="Fill-48" fill="#FFFFFF"></path>
        </g>
    </g>
</svg>