<?xml version="1.0" encoding="UTF-8" standalone="no"?>
<svg width="223px" height="50px" viewBox="0 0 223 50" version="1.1" xmlns="http://www.w3.org/2000/svg" xmlns:xlink="http://www.w3.org/1999/xlink">
    <!-- Generator: Sketch 3.8.3 (29802) - http://www.bohemiancoding.com/sketch -->
    <title>abr-logo</title>
    <desc>Created with Sketch.</desc>
    <defs>
        <polygon id="path-1" points="52.3191319 0.208846154 0.0229166667 0.208846154 0.0229166667 49.9803846 52.3191319 49.9803846 52.3191319 0.208846154"></polygon>
    </defs>
    <g id="Africa-Logo" stroke="none" stroke-width="1" fill="none" fill-rule="evenodd">
        <g id="abr_logo_Denmark_Magenta">
            <g id="Group-6">
                <mask id="mask-2" fill="white">
                    <use xlink:href="#path-1"></use>
                </mask>
                <g id="Clip-2"></g>
                <path d="M43.9694444,7.52769231 C43.9694444,9.68038462 45.8386806,11.4257692 48.1444792,11.4257692 C50.4498958,11.4257692 52.3191319,9.68038462 52.3191319,7.52769231 C52.3191319,5.375 50.4498958,3.62961538 48.1444792,3.62961538 C45.8386806,3.62961538 43.9694444,5.375 43.9694444,7.52769231" id="Fill-1" fill="#E62565" mask="url(#mask-2)"></path>
                <path d="M47.0551736,1.49769231 C47.0551736,1.49769231 36.3637847,3.62961538 43.4320486,13.4326923 C56.6274653,31.7326923 44.7134722,46.6230769 42.3988889,49.5561538 C42.3988889,49.5561538 48.6990625,30.4134615 37.1078125,18.3726923 C27.1814583,8.06038462 37.0180556,-3.75115385 47.0551736,1.49769231" id="Fill-3" fill="#E62565" mask="url(#mask-2)"></path>
                <path d="M13.4742361,28.7480769 C15.1242361,30.2519231 15.1612847,32.715 13.5567361,34.2496154 C11.9521875,35.7842308 9.31409722,35.8096154 7.66409722,34.3057692 C6.01409722,32.8019231 5.97743056,30.3388462 7.58197917,28.8042308 C9.18614583,27.2696154 11.8246181,27.2442308 13.4742361,28.7480769" id="Fill-4" fill="#E62565" mask="url(#mask-2)"></path>
                <path d="M4.42368056,30.0946154 C4.42368056,30.0946154 1.71569444,39.4 13.6201389,37.2992308 C32.2857639,34.0053846 38.2391319,46.8642308 39.2329514,49.9803846 C39.2329514,49.9803846 30.5578472,38.8611538 15.5214583,44.1084615 C-0.403333333,49.6657692 -4.02111111,38.3503846 4.42368056,30.0946154" id="Fill-5" fill="#E62565" mask="url(#mask-2)"></path>
                <path d="M21.4702431,10.9638462 C21.4702431,10.9638462 14.0429514,18.2461538 25.4558333,22.9165385 C43.3506944,30.24 41.4455556,45.7238462 40.5972569,49.2253846 C40.5972569,49.2253846 39.2035417,33.8638462 23.3685069,30.4165385 C6.59732639,26.7653846 9.67159722,14.0461538 21.4702431,10.9638462" id="Fill-7" fill="#E62565" mask="url(#mask-2)"></path>
                <path d="M28.7982292,12.2346154 C30.4478472,13.7380769 30.4848958,16.2015385 28.8803472,17.7361538 C27.2761806,19.2707692 24.6377083,19.2957692 22.9877083,17.7919231 C21.3380903,16.2880769 21.3010417,13.825 22.9055903,12.2903846 C24.5101389,10.7557692 27.1482292,10.7307692 28.7982292,12.2346154" id="Fill-8" fill="#E62565" mask="url(#mask-2)"></path>
            </g>
        </g>
        <g id="Group-2" transform="translate(52.000000, 13.000000)" font-size="36" font-family="CenturyGothic, Century Gothic" fill="#727272" font-weight="normal">
            <text id="abr-africa">
                <tspan x="0.2578125" y="36">abr-africa</tspan>
            </text>
        </g>
    </g>
</svg>