<?xml version="1.0" encoding="UTF-8" standalone="no"?>
<svg width="110px" height="50px" viewBox="0 0 110 50" version="1.1" xmlns="http://www.w3.org/2000/svg" xmlns:xlink="http://www.w3.org/1999/xlink">
    <!-- Generator: Sketch 3.8.3 (29802) - http://www.bohemiancoding.com/sketch -->
    <title>abr-logo</title>
    <desc>Created with Sketch.</desc>
    <defs>
        <polygon id="path-1" points="52.3191319 0.208846154 0.0229166667 0.208846154 0.0229166667 49.9803846 52.3191319 49.9803846 52.3191319 0.208846154"></polygon>
    </defs>
    <g id="Africa-Logo" stroke="none" stroke-width="1" fill="none" fill-rule="evenodd">
        <g id="abr_logo_Denmark_Magenta">
            <g id="Group-6">
                <mask id="mask-2" fill="white">
                    <use xlink:href="#path-1"></use>
                </mask>
                <g id="Clip-2"></g>
                <path d="M43.9694444,7.52769231 C43.9694444,9.68038462 45.8386806,11.4257692 48.1444792,11.4257692 C50.4498958,11.4257692 52.3191319,9.68038462 52.3191319,7.52769231 C52.3191319,5.375 50.4498958,3.62961538 48.1444792,3.62961538 C45.8386806,3.62961538 43.9694444,5.375 43.9694444,7.52769231" id="Fill-1" fill="#E62565" mask="url(#mask-2)"></path>
                <path d="M47.0551736,1.49769231 C47.0551736,1.49769231 36.3637847,3.62961538 43.4320486,13.4326923 C56.6274653,31.7326923 44.7134722,46.6230769 42.3988889,49.5561538 C42.3988889,49.5561538 48.6990625,30.4134615 37.1078125,18.3726923 C27.1814583,8.06038462 37.0180556,-3.75115385 47.0551736,1.49769231" id="Fill-3" fill="#E62565" mask="url(#mask-2)"></path>
                <path d="M13.4742361,28.7480769 C15.1242361,30.2519231 15.1612847,32.715 13.5567361,34.2496154 C11.9521875,35.7842308 9.31409722,35.8096154 7.66409722,34.3057692 C6.01409722,32.8019231 5.97743056,30.3388462 7.58197917,28.8042308 C9.18614583,27.2696154 11.8246181,27.2442308 13.4742361,28.7480769" id="Fill-4" fill="#E62565" mask="url(#mask-2)"></path>
                <path d="M4.42368056,30.0946154 C4.42368056,30.0946154 1.71569444,39.4 13.6201389,37.2992308 C32.2857639,34.0053846 38.2391319,46.8642308 39.2329514,49.9803846 C39.2329514,49.9803846 30.5578472,38.8611538 15.5214583,44.1084615 C-0.403333333,49.6657692 -4.02111111,38.3503846 4.42368056,30.0946154" id="Fill-5" fill="#E62565" mask="url(#mask-2)"></path>
                <path d="M21.4702431,10.9638462 C21.4702431,10.9638462 14.0429514,18.2461538 25.4558333,22.9165385 C43.3506944,30.24 41.4455556,45.7238462 40.5972569,49.2253846 C40.5972569,49.2253846 39.2035417,33.8638462 23.3685069,30.4165385 C6.59732639,26.7653846 9.67159722,14.0461538 21.4702431,10.9638462" id="Fill-7" fill="#E62565" mask="url(#mask-2)"></path>
                <path d="M28.7982292,12.2346154 C30.4478472,13.7380769 30.4848958,16.2015385 28.8803472,17.7361538 C27.2761806,19.2707692 24.6377083,19.2957692 22.9877083,17.7919231 C21.3380903,16.2880769 21.3010417,13.825 22.9055903,12.2903846 C24.5101389,10.7557692 27.1482292,10.7307692 28.7982292,12.2346154" id="Fill-8" fill="#E62565" mask="url(#mask-2)"></path>
            </g>
            <g id="Group" transform="translate(51.944444, 21.153846)" fill="#636462">
                <path d="M10.2498611,10.8261538 C8.90847222,10.8261538 7.66982639,11.1580769 6.5346875,11.8219231 C5.39916667,12.4861538 4.49625,13.4184615 3.82555556,14.6192308 C3.15486111,15.82 2.81989583,17.09 2.81989583,18.4292308 C2.81989583,19.7573077 3.15791667,21.0276923 3.83434028,22.2396154 C4.51076389,23.4523077 5.41940972,24.3957692 6.56027778,25.0715385 C7.70114583,25.7473077 8.92527778,26.0846154 10.2326736,26.0846154 C11.5511458,26.0846154 12.8008681,25.75 13.9818403,25.0803846 C15.1628125,24.4107692 16.0714583,23.5042308 16.7081597,22.3611538 C17.3444792,21.2180769 17.6626389,19.9307692 17.6626389,18.4988462 C17.6626389,16.3169231 16.9487847,14.4923077 15.5210764,13.0257692 C14.09375,11.5592308 12.3368056,10.8261538 10.2498611,10.8261538 L10.2498611,10.8261538 Z M19.8836458,9.67961538 L19.8836458,27.8361538 L17.5075694,27.8361538 L17.5075694,24.5934615 C16.4973264,25.8307692 15.3637153,26.7611538 14.1067361,27.3853846 C12.8497569,28.0096154 11.4751389,28.3215385 9.98288194,28.3215385 C7.33104167,28.3215385 5.06649306,27.3534615 3.19,25.4173077 C1.313125,23.4811538 0.3746875,21.1257692 0.3746875,18.3515385 C0.3746875,15.635 1.32190972,13.3115385 3.21597222,11.3807692 C5.11003472,9.45076923 7.38833333,8.485 10.0516319,8.485 C11.5897222,8.485 12.9815278,8.81461538 14.2274306,9.47346154 C15.4725694,10.1323077 16.5664583,11.1207692 17.5075694,12.4388462 C17.5075694,12.4388462 17.4533333,11.7834615 17.4945833,9.77653846 C17.5365972,7.74230769 19.8836458,8.10538462 19.8836458,9.67961538 L19.8836458,9.67961538 Z" id="Fill-33"></path>
                <path d="M35.1052778,25.9807692 C36.4455208,25.9807692 37.6822569,25.6484615 38.81625,24.9838462 C39.9498611,24.3192308 40.8516319,23.3857692 41.5219444,22.1834615 C42.191875,20.9811538 42.5264583,19.7096154 42.5264583,18.3688462 C42.5264583,17.0280769 42.1888194,15.7503846 41.5131597,14.5365385 C40.8375,13.3226923 39.93,12.3776923 38.7902778,11.7015385 C37.6505556,11.0253846 36.4336806,10.6873077 35.1400347,10.6873077 C33.8223264,10.6873077 32.5714583,11.0253846 31.3862847,11.7015385 C30.2007292,12.3776923 29.2901736,13.2880769 28.6546181,14.4326923 C28.0186806,15.5769231 27.7012847,16.8661538 27.7012847,18.2992308 C27.7012847,20.4842308 28.4136111,22.3107692 29.8397917,23.7784615 C31.2655903,25.2465385 33.0210069,25.9807692 35.1052778,25.9807692 L35.1052778,25.9807692 Z M25.4627083,27.8361538 C25.4627083,27.8361538 25.4944097,4.10230769 25.4627083,1.68807692 C25.4355903,-0.355384615 27.9216667,-0.08 27.8731597,1.68807692 C27.8342014,3.10846154 27.8731597,12.2130769 27.8731597,12.2130769 C28.8822569,10.9646154 30.0120486,10.0315385 31.2617708,9.41269231 C32.5122569,8.79461538 33.8822917,8.485 35.3734028,8.485 C38.0225694,8.485 40.2840625,9.45346154 42.1594097,11.3896154 C44.034375,13.3257692 44.9720486,15.6753846 44.9720486,18.4380769 C44.9720486,21.1661538 44.0255903,23.4953846 42.1334375,25.4257692 C40.2412847,27.3565385 37.9648958,28.3215385 35.3042708,28.3215385 C33.7791667,28.3215385 32.3972917,27.9919231 31.1590278,27.3330769 C29.9203819,26.6742308 28.8249653,25.6861538 27.8731597,24.3680769 L27.8731597,27.8361538 L25.4627083,27.8361538 L25.4627083,27.8361538 Z" id="Fill-34"></path>
                <path d="M48.4332292,9.87038462 C48.5111458,7.59153846 50.9976042,7.84384615 50.8811111,9.68307692 C50.7894444,11.1261538 50.9128125,11.7276923 50.9128125,11.7276923 C51.6469097,10.6411538 52.421875,9.82884615 53.2369444,9.29153846 C54.0520139,8.75384615 54.9014583,8.485 55.7852778,8.485 C56.4513889,8.485 57.1629514,8.69923077 57.9207292,9.12692308 L56.66375,11.1726923 C56.1584375,10.9534615 55.7340972,10.8434615 55.3892014,10.8434615 C54.5859722,10.8434615 53.810625,11.1757692 53.0646875,11.8403846 C52.3183681,12.505 51.7504167,13.5369231 51.3600694,14.9353846 C51.0613889,16.0103846 50.9128125,18.1838462 50.9128125,21.455 L50.9128125,27.8361538 L48.4500347,27.8361538 C48.4500347,27.8361538 48.3541667,12.1657692 48.4332292,9.87038462" id="Fill-35"></path>
            </g>
        </g>
    </g>
</svg>