<?xml version="1.0" encoding="UTF-8" standalone="no"?>
<svg width="238px" height="50px" viewBox="0 0 238 50" version="1.1" xmlns="http://www.w3.org/2000/svg" xmlns:xlink="http://www.w3.org/1999/xlink">
    <!-- Generator: Sketch 3.8.3 (29802) - http://www.bohemiancoding.com/sketch -->
    <title>abr-logo</title>
    <desc>Created with Sketch.</desc>
    <defs></defs>
    <g id="New" stroke="none" stroke-width="1" fill="none" fill-rule="evenodd">
        <g id="africa" transform="translate(0.000000, 4.000000)" fill="#E62565">
            <path d="M15.1737366,0.168292683 C15.5677442,-0.12804878 16.0669193,0.176341463 16.30836,0.517317073 C16.3246536,0.808536585 16.3135443,1.1004878 16.3150256,1.39170732 C16.3379847,1.60463415 16.1417215,1.76780488 16.1706055,1.98073171 C16.362425,2.26829268 16.7001458,2.38536585 17.0008358,2.52512195 C17.2911572,2.54853659 17.551854,2.70439024 17.8466191,2.68317073 C18.1924866,2.70439024 18.4754019,2.96414634 18.6405592,3.25097561 C18.7649827,3.34317073 18.8901467,3.43390244 19.0175327,3.52097561 C19.3278507,3.62707317 19.6559435,3.69292683 19.9433024,3.85756098 C20.081057,3.95268293 20.2536204,3.9402439 20.4128528,3.92634146 C20.6809558,3.81512195 20.8157478,3.52170732 20.7602016,3.24073171 C21.0527449,2.96121951 21.3349195,2.57634146 21.7718828,2.54414634 C22.5458264,2.79146341 23.3197699,3.0497561 24.0892697,3.31317073 C24.2921984,3.3395122 24.5143832,3.27512195 24.7010183,3.38195122 C24.8491415,3.45292683 25.0194831,3.41634146 25.1779749,3.42512195 C25.4831086,3.41195122 25.8067577,3.47707317 26.0867105,3.32560976 C26.4007316,3.3102439 26.7154933,3.31829268 27.0295144,3.3204878 C27.1643065,3.31756098 27.2709552,3.43097561 27.4079691,3.42292683 C27.7145841,3.44341463 28.0523049,3.36 28.3278139,3.53707317 C28.5122273,3.59341463 28.5477768,3.8004878 28.618876,3.95341463 C28.628504,4.31926829 28.618876,4.68585366 28.622579,5.05170732 C28.6359101,5.28439024 28.4270565,5.4695122 28.4833433,5.7102439 C28.4455719,5.90634146 28.6514631,6.00804878 28.7262652,6.16609756 C28.8877195,6.49902439 29.1039793,6.8004878 29.3232016,7.09902439 C29.511318,7.36170732 29.5150211,7.70926829 29.7112843,7.96756098 C29.9445783,8.25146341 30.2889646,8.44902439 30.4452345,8.79073171 C30.5089275,8.91658537 30.5763235,9.04170732 30.6340916,9.1704878 C30.6755661,9.45146341 30.5652143,9.76317073 30.7325935,10.0170732 C30.8392421,10.265122 31.0754986,10.4158537 31.2510245,10.6119512 C31.554677,10.9763415 31.7990802,11.4095122 31.8153738,11.892439 C32.0819955,12.18 32.1575383,12.5926829 32.4737812,12.8414634 C32.8285362,12.7821951 33.1166357,13.0082927 33.4217695,13.1443902 C33.9875999,13.404878 34.4171571,13.9741463 34.4090103,14.6056098 C34.4460411,14.9568293 34.8393081,15.024878 35.0955612,15.1719512 C35.2496093,15.2795122 35.3969918,15.1031707 35.5562242,15.1104878 C36.0679897,15.1141463 36.5175435,14.8309756 36.9663567,14.6209756 C37.2196473,14.6195122 37.4433133,14.4914634 37.6921602,14.4665854 C37.8973108,14.4534146 38.058765,14.3085366 38.2454002,14.2360976 C38.4150012,14.2178049 38.5868241,14.2295122 38.7579063,14.2317073 C38.8045651,14.3173171 38.899364,14.3853659 38.9060295,14.4892683 C38.928248,15.0417073 38.9193606,15.6021951 38.7534626,16.1341463 C38.5164656,16.6017073 38.4112981,17.1365854 38.0572838,17.5419512 C37.9350822,17.9780488 37.7684436,18.3973171 37.5507026,18.7953659 C37.4314634,19.1034146 37.0789303,19.2431707 36.9685785,19.5570732 C36.9048856,19.7239024 36.8041618,19.8658537 36.6367827,19.9419512 C36.4116355,20.1717073 36.0990956,20.2865854 35.884317,20.5265854 C35.564371,20.8441463 35.2451656,21.1631707 34.9244789,21.48 C34.8074616,21.6117073 34.6074954,21.6409756 34.5112153,21.7909756 C34.3438361,22.0617073 34.1601634,22.3221951 33.9824156,22.5863415 C33.7728213,22.974878 33.3691857,23.2039024 33.108489,23.5521951 C32.8914885,23.9304878 32.7522528,24.354878 32.4700781,24.6943902 C32.2360436,24.965122 32.3145488,25.332439 32.3204738,25.6580488 C32.5182182,25.9595122 32.3249174,26.3378049 32.491556,26.6465854 C32.5856142,26.8097561 32.5211806,27.0160976 32.6330136,27.1726829 C32.8144645,27.4895122 32.9448129,27.8282927 33.0581271,28.1736585 C33.0781237,28.7341463 33.0581271,29.2968293 33.0677551,29.8580488 C33.0899736,30.0197561 32.9885092,30.1543902 32.9374067,30.3 C32.9181507,30.527561 32.9322224,30.7565854 32.9292599,30.9856098 C32.7292937,31.14 32.5885767,31.3456098 32.4604501,31.5585366 C31.9946028,31.8819512 31.4939465,32.1841463 30.9399659,32.3304878 C30.7348153,32.4929268 30.5763235,32.7131707 30.3341422,32.8280488 C30.0290085,33.0563415 29.7897895,33.3578049 29.5061337,33.6109756 C29.4520687,33.9314634 29.6090793,34.2117073 29.6549975,34.5182927 C29.7846052,34.8782927 29.8194142,35.3070732 29.6557381,35.6626829 C29.6401852,35.7695122 29.6431476,35.8778049 29.6401852,35.9860976 C29.5105774,36.1104878 29.389857,36.2443902 29.2535837,36.3614634 C28.9632623,36.57 28.5588861,36.5590244 28.2922644,36.8041463 C28.0797077,36.9643902 28.0878544,37.2497561 27.9878713,37.4743902 C27.9930556,37.8314634 27.8686321,38.1739024 27.7064373,38.4885366 C27.4050067,38.9202439 26.9095347,39.1909756 26.6562441,39.6592683 C26.4118409,39.9490244 26.1178164,40.1956098 25.8578602,40.4721951 C25.5549484,40.8197561 25.1172444,41.0004878 24.7587864,41.2821951 C24.4151406,41.4541463 24.0433515,41.6004878 23.6523064,41.5931707 C23.1464658,41.8390244 22.5324953,41.5229268 22.0355421,41.8068293 C21.7911388,41.844878 21.5245172,41.7709756 21.3060355,41.9187805 C20.8572223,42.0395122 20.3069448,41.9443902 20.0329169,41.5382927 C19.9307119,41.345122 19.8211008,41.1541463 19.7381518,40.9529268 C19.7218583,40.7407317 19.7448174,40.5278049 19.7307457,40.3163415 C19.4485711,39.7404878 19.147881,39.1734146 18.8649658,38.597561 C18.7323956,38.2990244 18.3976372,38.1497561 18.2413673,37.872439 C18.1969303,37.62 18.051029,37.4056098 17.9636364,37.17 C17.9784487,36.7485366 17.7940353,36.3504878 17.8199569,35.9290244 C17.8058852,35.615122 17.8977216,35.2631707 17.6725744,35.0004878 C17.449649,34.745122 17.3452222,34.4180488 17.1356279,34.1546341 C16.8445659,33.6973171 16.6875553,33.1631707 16.3453908,32.7373171 C16.2380015,32.5756098 16.1432027,32.3985366 16.1765304,32.1980488 C16.2113394,31.7531707 16.0869159,31.2797561 16.3039163,30.8670732 C16.2824385,30.5721951 16.4179712,30.3095122 16.449077,30.0219512 C16.5646131,29.7380488 16.6860741,29.4387805 16.9230712,29.2302439 C17.1771024,28.9792683 17.2711606,28.602439 17.1785836,28.2614634 C17.0985971,28.0580488 17.0252761,27.8517073 16.9460302,27.6482927 C16.8904841,27.3307317 16.9860235,26.994878 16.9008527,26.6860976 C16.7179206,26.4234146 16.711255,26.0802439 16.4787017,25.8512195 C16.2757729,25.3726829 16.2765136,24.8202439 15.9736017,24.3819512 C15.7403077,24.1236585 15.4981263,23.8617073 15.1848459,23.6985366 C14.8619374,23.4885366 14.7019644,23.1365854 14.5456944,22.8029268 C14.5256978,22.5746341 14.5308821,22.344878 14.5419913,22.1165854 C14.5849471,21.9629268 14.6908551,21.8334146 14.7567699,21.6878049 C14.8093536,21.5202439 14.7397358,21.33 14.8219441,21.1697561 C14.9693267,20.9429268 14.8982275,20.6656098 14.9152617,20.4117073 C14.9730297,19.9141463 14.5605067,19.4421951 14.0739222,19.3639024 C13.644365,19.3492683 13.2118454,19.3887805 12.7837694,19.3485366 C12.595653,19.1868293 12.4253114,19.0009756 12.3157002,18.7778049 C12.1261026,18.5326829 11.8794775,18.3380488 11.668402,18.1119512 C11.469917,18.1060976 11.2529165,18.1514634 11.0744281,18.042439 C10.8396529,17.9078049 10.5663657,17.9963415 10.3352936,18.0907317 C10.0797811,18.1558537 9.84722775,18.2809756 9.65096456,18.4536585 C9.22807294,18.5707317 8.81110624,18.707561 8.43413279,18.9343902 C8.08382152,19.1217073 7.72610408,18.8619512 7.37208973,18.8319512 C6.74849122,18.5780488 6.11674594,18.9241463 5.49833174,19.0170732 C5.06284965,19.2592683 4.5451592,19.0485366 4.1748513,18.7836585 C3.71196642,18.5260976 3.44608534,18.0373171 3.00319709,17.754878 C2.56030884,17.4739024 2.03299039,17.1892683 1.86561121,16.6602439 C1.74340961,16.2870732 1.59602706,15.8926829 1.2886715,15.6285366 C0.999831337,15.3643902 0.879851577,14.97 0.596936339,14.7029268 C0.357717434,14.4841463 0.0940582073,14.2404878 0.0466587957,13.9068293 C0.0488806432,13.3441463 0.0392526377,12.7807317 0.0511024906,12.2187805 C0.12886715,12.0197561 0.282915238,11.8485366 0.307355559,11.6312195 C0.327352186,11.3012195 0.530280917,11.015122 0.562127396,10.6873171 C0.57027417,10.5058537 0.717656716,10.3587805 0.69395701,10.1729268 C0.693216394,9.80560976 0.695438241,9.43756098 0.69395701,9.0702439 C0.69914132,8.93560976 0.607304961,8.82439024 0.565830475,8.70146341 C0.548796312,8.51268293 0.559164933,8.32317073 0.562127396,8.13439024 C0.830230318,7.94634146 0.980575327,7.66317073 1.10944248,7.37414634 C1.37976725,7.01487805 1.7663687,6.75731707 2.04113716,6.40097561 C2.18629786,6.09292683 2.37885797,5.81268293 2.567715,5.53097561 C2.68399168,5.36853659 2.8958078,5.32682927 3.0365248,5.19365854 C3.26907817,4.98878049 3.44904781,4.70414634 3.76677199,4.61926829 C4.25335657,4.48902439 4.69402298,4.22414634 5.08284627,3.91609756 C5.26577838,3.56780488 5.41242031,3.18512195 5.38427691,2.78634146 C5.49759112,2.58512195 5.71014786,2.44902439 5.82716516,2.24341463 C6.04638744,2.08097561 6.26264725,1.90243902 6.52704709,1.81609756 C6.79070632,1.81170732 7.03066584,1.70195122 7.2817346,1.63463415 C7.56242799,1.37560976 7.48244148,0.914634146 7.82386537,0.701707317 C8.04382826,0.665121951 8.26897547,0.691463415 8.49116021,0.684146341 C8.60965874,0.782195122 8.70890126,0.956341463 8.88738967,0.925609756 C9.22214801,0.900731707 9.57986544,0.990731707 9.89462716,0.845853659 C10.3375154,0.750731707 10.8085471,0.65195122 11.1544146,0.341707317 C11.319572,0.294878049 11.4773231,0.225365854 11.6439617,0.184390244 C12.8200596,0.164634146 13.9983793,0.198292683 15.1737366,0.168292683 L15.1737366,0.168292683 Z" id="Shape"></path>
            <path d="M11.207739,1.1195122 C11.4625108,0.906585366 11.8083784,0.801219512 12.1416555,0.818780488 C13.0066948,0.822439024 13.8724747,0.816585366 14.7382545,0.822439024 C15.0493132,0.832682927 15.3611124,0.750731707 15.6699492,0.821707317 C15.6603212,1.04926829 15.7114237,1.29512195 15.5729285,1.49560976 C15.4981263,1.73487805 15.5196042,2.00634146 15.5536725,2.25146341 C15.7543794,2.47317073 15.9684174,2.68536585 16.1950458,2.88146341 C16.3831622,2.98463415 16.5772036,3.07902439 16.7742074,3.16609756 C17.1252593,3.19609756 17.440021,3.37829268 17.8014415,3.32634146 C18.085838,3.6702439 18.4272619,3.96878049 18.827935,4.17146341 C19.1797275,4.27390244 19.5285576,4.38439024 19.8492442,4.56512195 C20.1254939,4.58121951 20.4024842,4.56292683 20.6787339,4.57463415 C20.9142497,4.35731707 21.1327314,4.12243902 21.3697285,3.90731707 C21.3630629,3.6995122 21.366766,3.48439024 21.5200735,3.32341463 C21.6926369,3.32195122 21.8666817,3.30658537 22.0385045,3.33 C22.5539731,3.52243902 23.0827728,3.6797561 23.6034257,3.86121951 C23.8952284,4.00756098 24.2507239,3.84658537 24.5277142,4.04853659 C25.0379985,4.08365854 25.5542078,4.06243902 26.0667139,4.05878049 C26.3103765,3.93439024 26.5962542,3.88097561 26.8636165,3.95926829 C27.2035592,4.15097561 27.6057135,4.02731707 27.9767621,4.07268293 C27.9663934,4.36609756 27.9871307,4.6602439 27.967134,4.95365854 C27.7834613,5.31365854 27.8908506,5.73439024 27.8730758,6.12219512 C27.9789839,6.26853659 28.104148,6.40170732 28.1737659,6.57073171 C28.3492918,6.95268293 28.6729409,7.24829268 28.8358764,7.63609756 C28.8921632,7.83731707 28.9514125,8.04439024 29.0765765,8.21560976 C29.2758022,8.45487805 29.5350177,8.64 29.725356,8.88658537 C29.8231173,9.07097561 29.9186567,9.25609756 30.0097524,9.44341463 C30.0393771,9.65560976 30.0097524,9.87146341 30.0245648,10.0843902 C30.1215854,10.5307317 30.5963202,10.7341463 30.8014707,11.1204878 C31.0318023,11.4065854 31.1503008,11.7680488 31.1688162,12.1317073 C31.350267,12.3409756 31.4761717,12.5846341 31.5976327,12.8304878 C31.7953771,13.0565854 32.0131182,13.2665854 32.2367842,13.4670732 C32.6426416,13.4385366 32.9685126,13.6960976 33.3225269,13.8497561 C33.5173089,13.9214634 33.5928517,14.1234146 33.671357,14.2953659 C33.6965379,14.4665854 33.6565447,14.6502439 33.7328281,14.8134146 C33.9194633,15.2363415 34.2971773,15.5634146 34.723772,15.7426829 C35.020759,15.9241463 35.4073604,15.8773171 35.7199003,15.7595122 C36.0902082,15.7426829 36.4479256,15.6292683 36.7774997,15.4653659 C37.2344596,15.1858537 37.7825153,15.1668293 38.2861341,15.0087805 C38.2491033,15.317561 38.0869084,15.5963415 38.1120894,15.9160976 C37.8676861,16.3639024 37.7780716,16.89 37.4262791,17.2792683 C37.2766747,17.7856098 37.0789303,18.2780488 36.8041618,18.7317073 C36.6471513,18.917561 36.4301509,19.0602439 36.3375739,19.2929268 C36.2190754,19.5709756 35.8835764,19.6156098 35.6984224,19.83 C35.3540361,20.172439 35.011131,20.5163415 34.6637822,20.8565854 C34.5504679,20.9721951 34.3882731,21.0190244 34.2682933,21.1258537 C33.8728045,21.4353659 33.6683945,21.9021951 33.3736294,22.2943902 C33.1603321,22.6960976 32.7552152,22.9412195 32.4774843,23.292439 C32.2989959,23.5953659 32.1730912,23.9268293 31.9886779,24.2268293 C31.8686981,24.3870732 31.7561245,24.5531707 31.6702131,24.7346341 C31.6539195,25.074878 31.6672506,25.4173171 31.6642882,25.7582927 C31.6457728,25.8965854 31.733906,26.01 31.7835273,26.1321951 C31.8405547,26.3904878 31.733906,26.6729268 31.8627732,26.9165854 C31.9353535,27.0973171 31.9086914,27.3073171 32.0190431,27.4756098 C32.1842004,27.7704878 32.3189925,28.0807317 32.4130507,28.4041463 C32.4123101,28.8753659 32.4382317,29.3509756 32.4026821,29.8207317 C32.2412279,30.0943902 32.3345455,30.42 32.3101051,30.72 C32.0627395,30.9256098 31.880548,31.2168293 31.5702299,31.3382927 C31.2858335,31.4773171 31.0051401,31.6317073 30.6933408,31.7026829 C30.505965,31.8292683 30.3785791,32.027561 30.1808347,32.1402439 C30.0512269,32.2090244 29.9379127,32.3004878 29.837189,32.4058537 C29.5172429,32.7314634 29.1898907,33.0490244 28.8632792,33.3680488 C28.8929038,33.7478049 28.7773677,34.157561 28.9684466,34.5087805 C28.9995525,34.722439 29.0462113,34.9309756 29.1521193,35.1234146 C29.0188085,35.315122 28.9699278,35.5339024 28.9958494,35.7643902 C28.7092311,35.897561 28.3863226,35.9429268 28.1182197,36.1134146 C27.909366,36.2992683 27.7093997,36.4968293 27.522024,36.7031707 C27.4353719,36.9731707 27.3242795,37.2373171 27.3450168,37.5270732 C27.2213339,37.8387805 27.1702314,38.2031707 26.9087941,38.4395122 C26.6014385,38.7680488 26.2192807,39.0380488 25.9993179,39.4382927 C25.6956654,39.75 25.4060846,40.0902439 25.0187425,40.3046341 C24.5491921,40.6456098 24.0181706,40.9726829 23.4138281,40.9529268 C22.9709398,41.2017073 22.4421401,40.997561 21.968146,41.1 C21.817801,41.1863415 21.6444969,41.1834146 21.4763771,41.1819512 C21.2312333,41.1614634 21.0320076,41.3546341 20.784642,41.3195122 C20.6172628,41.1490244 20.4691396,40.9587805 20.3884125,40.734878 C20.3506411,40.4714634 20.4461805,40.1846341 20.3099072,39.9409756 C20.0188452,39.3914634 19.7440768,38.8339024 19.4648646,38.2792683 C19.3019291,37.9719512 18.8782969,37.8292683 18.8323787,37.4619512 C18.7901636,37.2929268 18.687218,37.1480488 18.6176001,36.99 C18.5746444,36.7470732 18.6546309,36.4887805 18.5613133,36.2546341 C18.3894905,35.952439 18.4961391,35.5939024 18.4709582,35.2646341 C18.5102108,34.9617073 18.2895073,34.7202439 18.1236094,34.4904878 C18.0191825,34.3039024 17.9332711,34.104878 17.7962572,33.9387805 C17.4851986,33.474878 17.3304098,32.9217073 16.9778767,32.4834146 C16.7297704,32.1782927 16.851972,31.7670732 16.832716,31.4078049 C16.9193681,31.2197561 16.9452896,31.0207317 16.9423272,30.815122 C17.0193512,30.635122 17.0763786,30.45 17.085266,30.2539024 C17.1733993,30.0563415 17.2681981,29.8609756 17.3778093,29.6743902 C17.5555571,29.4826829 17.7584858,29.2895122 17.817735,29.027561 C17.8266224,28.6990244 17.8281037,28.3690244 17.8169944,28.0404878 C17.7570046,27.845122 17.6792399,27.6541463 17.6074002,27.4631707 C17.5022327,27.0753659 17.7044208,26.6268293 17.4526115,26.2770732 C17.3215225,26.0604878 17.3200412,25.7868293 17.1222968,25.6097561 C16.877153,25.0807317 16.9215899,24.4031707 16.4690737,23.975122 C16.1350559,23.6663415 15.8432533,23.3063415 15.4536894,23.0619512 C15.3411158,22.8687805 15.2315047,22.6719512 15.1507775,22.4634146 C15.1700335,22.2007317 15.4462832,22.0068293 15.4240648,21.7302439 C15.4122149,21.5670732 15.4470239,21.4112195 15.5240479,21.2670732 C15.5455258,20.8368293 15.5255291,20.4058537 15.5336759,19.974878 C15.5477476,19.7853659 15.4262866,19.6207317 15.3263035,19.47 C15.0537569,19.2021951 14.8063912,18.8678049 14.421271,18.7573171 C13.9776421,18.7441463 13.5332726,18.7507317 13.0896437,18.7580488 C13.0096572,18.6190244 12.9341144,18.474878 12.8141347,18.3658537 C12.5260351,18.0878049 12.2483042,17.7987805 11.9572422,17.5236585 C11.7950473,17.4439024 11.6076715,17.4907317 11.435108,17.4570732 C11.1099777,17.2946341 10.731523,17.3882927 10.3812117,17.3714634 C10.0434909,17.4621951 9.69095782,17.5668293 9.42359551,17.8039024 C9.12734919,17.9319512 8.79555331,17.9773171 8.51263807,18.1404878 C8.17269541,18.3636585 7.73499147,18.2670732 7.38690204,18.1185366 C6.91957347,18.1331707 6.42558273,18.0307317 5.98565694,18.2268293 C5.57905886,18.2846341 5.16875771,18.5092683 4.75401286,18.3578049 C4.30742153,18.1412195 3.95636963,17.7812195 3.61864883,17.4256098 C3.34536159,17.1212195 2.94987275,16.967561 2.63659227,16.7158537 C2.42403553,16.295122 2.35812072,15.7821951 1.99447836,15.4478049 C1.70637882,15.204878 1.56418058,14.8485366 1.3353303,14.5580488 C1.09240831,14.3085366 0.793940144,14.0839024 0.698400705,13.7341463 C0.684329004,13.3514634 0.697660089,12.9680488 0.692475778,12.5846341 C0.672479151,12.3373171 0.910957441,12.162439 0.931694683,11.9239024 C0.945025768,11.5682927 1.17757913,11.2646341 1.21016623,10.9104878 C1.22275669,10.7560976 1.33310845,10.6236585 1.31385244,10.4641463 C1.31088998,9.90365854 1.31459305,9.34243902 1.31237121,8.78195122 C1.32644291,8.64365854 1.23016285,8.53463415 1.17831975,8.41536585 C1.43679466,8.21195122 1.60861753,7.93756098 1.73526283,7.6397561 C1.96041004,7.33170732 2.27294991,7.09756098 2.53586852,6.82170732 C2.78101235,6.60439024 2.80545267,6.23780488 3.07133375,6.03585366 C3.40535147,5.75341463 3.65049531,5.33414634 4.09856787,5.21780488 C4.53182811,5.11390244 4.89769232,4.85195122 5.26281591,4.61195122 C5.46426341,4.42829268 5.70200109,4.25414634 5.80494668,3.99439024 C5.94196061,3.66731707 6.07008714,3.33 6.03157512,2.96926829 C6.25894417,2.75195122 6.4900163,2.4995122 6.81736849,2.44682927 C7.05436555,2.43804878 7.27062536,2.33414634 7.49651318,2.27414634 C7.83423399,2.03487805 8.10529938,1.7004878 8.21935421,1.3002439 C8.31785611,1.38804878 8.4156174,1.47658537 8.51337868,1.56512195 C8.98218849,1.55560976 9.45247953,1.57682927 9.92128933,1.55634146 C10.3426997,1.39243902 10.8218782,1.37560976 11.207739,1.1195122 L11.207739,1.1195122 Z" id="Shape"></path>
        </g>
        <g id="Group-2" transform="translate(44.000000, 9.000000)" font-size="38" font-family="CenturyGothic, Century Gothic" fill="#727272" font-weight="normal">
            <text id="ABR-Africa">
                <tspan x="0.864257812" y="38">ABR Africa</tspan>
            </text>
        </g>
    </g>
</svg>