<?xml version="1.0" encoding="UTF-8" ?>
<!DOCTYPE svg PUBLIC "-//W3C//DTD SVG 1.1//EN" "http://www.w3.org/Graphics/SVG/1.1/DTD/svg11.dtd">
<svg width="600pt" height="600pt" viewBox="0 0 600 600" version="1.1" xmlns="http://www.w3.org/2000/svg">
<path fill="#ffffff" d=" M 0.00 0.00 L 600.00 0.00 L 600.00 600.00 L 0.00 600.00 L 0.00 0.00 Z" />
<path fill="#020202" d=" M 241.88 15.30 C 247.20 11.25 253.94 15.41 257.20 20.07 C 257.42 24.05 257.27 28.04 257.29 32.02 C 257.60 34.93 254.95 37.16 255.34 40.07 C 257.93 44.00 262.49 45.60 266.55 47.51 C 270.47 47.83 273.99 49.96 277.97 49.67 C 282.64 49.96 286.46 53.51 288.69 57.43 C 290.37 58.69 292.06 59.93 293.78 61.12 C 297.97 62.57 302.40 63.47 306.28 65.72 C 308.14 67.02 310.47 66.85 312.62 66.66 C 316.24 65.14 318.06 61.13 317.31 57.29 C 321.26 53.47 325.07 48.21 330.97 47.77 C 341.42 51.15 351.87 54.68 362.26 58.28 C 365.00 58.64 368.00 57.76 370.52 59.22 C 372.52 60.19 374.82 59.69 376.96 59.81 C 381.08 59.63 385.45 60.52 389.23 58.45 C 393.47 58.24 397.72 58.35 401.96 58.38 C 403.78 58.34 405.22 59.89 407.07 59.78 C 411.21 60.06 415.77 58.92 419.49 61.34 C 421.98 62.11 422.46 64.94 423.42 67.03 C 423.55 72.03 423.42 77.04 423.47 82.04 C 423.65 85.22 420.83 87.75 421.59 91.04 C 421.08 93.72 423.86 95.11 424.87 97.27 C 427.05 101.82 429.97 105.94 432.93 110.02 C 435.47 113.61 435.52 118.36 438.17 121.89 C 441.32 125.77 445.97 128.47 448.08 133.14 C 448.94 134.86 449.85 136.57 450.63 138.33 C 451.19 142.17 449.70 146.43 451.96 149.90 C 453.40 153.29 456.59 155.35 458.96 158.03 C 463.06 163.01 466.36 168.93 466.58 175.53 C 470.18 179.46 471.20 185.10 475.47 188.50 C 480.26 187.69 484.15 190.78 488.27 192.64 C 495.91 196.20 501.71 203.98 501.60 212.61 C 502.10 217.41 507.41 218.34 510.87 220.35 C 512.95 221.82 514.94 219.41 517.09 219.51 C 524.00 219.56 530.07 215.69 536.13 212.82 C 539.55 212.80 542.57 211.05 545.93 210.71 C 548.70 210.53 550.88 208.55 553.40 207.56 C 555.69 207.31 558.01 207.47 560.32 207.50 C 560.95 208.67 562.23 209.60 562.32 211.02 C 562.62 218.57 562.50 226.23 560.26 233.50 C 557.06 239.89 555.64 247.20 550.86 252.74 C 549.21 258.70 546.96 264.43 544.02 269.87 C 542.41 274.08 537.65 275.99 536.16 280.28 C 535.30 282.56 533.94 284.50 531.68 285.54 C 528.64 288.68 524.42 290.25 521.52 293.53 C 517.20 297.87 512.89 302.23 508.56 306.56 C 506.98 308.36 504.28 308.76 502.98 310.81 C 500.72 314.51 498.24 318.07 495.84 321.68 C 493.01 326.99 487.56 330.12 484.04 334.88 C 481.11 340.05 479.23 345.85 475.42 350.49 C 472.26 354.19 473.32 359.21 473.40 363.66 C 476.07 367.78 473.46 372.95 475.71 377.17 C 476.98 379.40 476.11 382.22 477.62 384.36 C 480.07 388.69 481.83 393.32 483.36 398.04 C 483.63 405.70 483.36 413.39 483.49 421.06 C 483.79 423.27 482.42 425.11 481.73 427.10 C 481.47 430.21 481.66 433.34 481.62 436.47 C 478.92 438.58 477.02 441.39 475.29 444.30 C 469.00 448.72 462.24 452.85 454.76 454.85 C 451.99 457.07 449.85 460.08 446.58 461.65 C 442.46 464.77 439.23 468.89 435.40 472.35 C 434.67 476.73 436.79 480.56 437.41 484.75 C 439.16 489.67 439.63 495.53 437.42 500.39 C 437.21 501.85 437.25 503.33 437.21 504.81 C 435.46 506.51 433.83 508.34 431.99 509.94 C 428.07 512.79 422.61 512.64 419.01 515.99 C 416.14 518.18 416.25 522.08 414.90 525.15 C 414.97 530.03 413.29 534.71 411.10 539.01 C 407.03 544.91 400.34 548.61 396.92 555.01 C 393.62 558.97 389.65 562.34 386.14 566.12 C 382.05 570.87 376.14 573.34 371.30 577.19 C 366.66 579.54 361.64 581.54 356.36 581.44 C 349.53 584.80 341.24 580.48 334.53 584.36 C 331.23 584.88 327.63 583.87 324.68 585.89 C 318.62 587.54 311.19 586.24 307.49 580.69 C 306.11 578.05 304.63 575.44 303.51 572.69 C 303.29 569.79 303.60 566.88 303.41 563.99 C 299.60 556.12 295.54 548.37 291.72 540.50 C 289.93 536.42 285.41 534.38 283.30 530.59 C 282.70 527.14 280.73 524.21 279.55 520.99 C 279.75 515.23 277.26 509.79 277.61 504.03 C 277.42 499.74 278.66 494.93 275.62 491.34 C 272.61 487.85 271.20 483.38 268.37 479.78 C 264.44 473.53 262.32 466.23 257.70 460.41 C 256.25 458.20 254.97 455.78 255.42 453.04 C 255.89 446.96 254.21 440.49 257.14 434.85 C 256.85 430.82 258.68 427.23 259.10 423.30 C 260.66 419.42 262.30 415.33 265.50 412.48 C 268.93 409.05 270.20 403.90 268.95 399.24 C 267.87 396.46 266.88 393.64 265.81 390.86 C 265.06 386.52 266.35 381.93 265.20 377.71 C 262.73 374.12 262.64 369.43 259.50 366.30 C 256.76 359.76 256.77 352.21 252.68 346.22 C 249.53 342.69 246.26 339.11 242.03 336.88 C 237.67 334.01 235.51 329.20 233.40 324.64 C 233.13 321.52 233.20 318.38 233.35 315.26 C 233.93 313.16 235.36 311.39 236.25 309.40 C 236.96 307.11 236.02 304.51 237.13 302.32 C 239.12 299.22 238.16 295.43 238.39 291.96 C 239.17 285.16 233.60 278.71 227.03 277.64 C 221.23 277.44 215.39 277.98 209.61 277.43 C 207.07 275.22 204.77 272.68 203.29 269.63 C 200.73 266.28 197.40 263.62 194.55 260.53 C 191.87 260.45 188.94 261.07 186.53 259.58 C 183.36 257.74 179.67 258.95 176.55 260.24 C 173.10 261.13 169.96 262.84 167.31 265.20 C 161.60 266.80 155.97 268.67 150.88 271.77 C 146.15 274.33 141.32 270.78 136.54 270.37 C 128.12 266.90 119.59 271.63 111.24 272.90 C 105.36 276.21 98.37 273.33 93.37 269.71 C 87.12 266.19 83.53 259.51 77.55 255.65 C 71.57 251.81 64.45 247.92 62.19 240.69 C 60.54 235.59 58.55 230.20 54.40 226.59 C 50.50 222.98 48.88 217.59 45.06 213.94 C 41.83 210.95 38.27 207.62 37.63 203.06 C 37.66 195.37 37.53 187.67 37.69 179.99 C 38.74 177.27 40.82 174.93 41.15 171.96 C 41.42 167.45 44.16 163.54 44.59 159.06 C 44.70 156.58 46.69 154.57 46.37 152.03 C 46.36 147.01 46.39 141.98 46.37 136.96 C 46.44 135.12 45.20 133.60 44.64 131.92 C 44.41 129.34 44.55 126.75 44.59 124.17 C 48.21 121.60 50.24 117.73 51.98 113.78 C 55.63 108.87 60.85 105.35 64.56 100.48 C 66.52 96.27 69.12 92.44 71.67 88.59 C 73.24 86.37 76.10 85.80 78.00 83.98 C 81.14 81.18 83.57 77.29 87.86 76.13 C 94.43 74.35 100.38 70.73 105.63 66.52 C 108.10 61.76 110.08 56.53 109.70 51.08 C 111.23 48.33 114.10 46.47 115.68 43.66 C 118.64 41.44 121.56 39.00 125.13 37.82 C 128.69 37.76 131.93 36.26 135.32 35.34 C 139.11 31.80 138.03 25.50 142.64 22.59 C 145.61 22.09 148.65 22.45 151.65 22.35 C 153.25 23.69 154.59 26.07 157.00 25.65 C 161.52 25.31 166.35 26.54 170.60 24.56 C 176.58 23.26 182.94 21.91 187.61 17.67 C 189.84 17.03 191.97 16.08 194.22 15.52 C 210.10 15.25 226.01 15.71 241.88 15.30 Z" />
<path fill="#ffffff" d=" M 188.33 28.30 C 191.77 25.39 196.44 23.95 200.94 24.19 C 212.62 24.24 224.31 24.16 236.00 24.24 C 240.20 24.38 244.41 23.26 248.58 24.23 C 248.45 27.34 249.14 30.70 247.27 33.44 C 246.26 36.71 246.55 40.42 247.01 43.77 C 249.72 46.80 252.61 49.70 255.67 52.38 C 258.21 53.79 260.83 55.08 263.49 56.27 C 268.23 56.68 272.48 59.17 277.36 58.46 C 281.20 63.16 285.81 67.24 291.22 70.01 C 295.97 71.41 300.68 72.92 305.01 75.39 C 308.74 75.61 312.48 75.36 316.21 75.52 C 319.39 72.55 322.34 69.34 325.54 66.40 C 325.45 63.56 325.50 60.62 327.57 58.42 C 329.90 58.40 332.25 58.19 334.57 58.51 C 341.53 61.14 348.67 63.29 355.70 65.77 C 359.64 67.77 364.44 65.57 368.18 68.33 C 375.07 68.81 382.04 68.52 388.96 68.47 C 392.25 66.77 396.11 66.04 399.72 67.11 C 404.31 69.73 409.74 68.04 414.75 68.66 C 414.61 72.67 414.89 76.69 414.62 80.70 C 412.14 85.62 413.59 91.37 413.35 96.67 C 414.78 98.67 416.47 100.49 417.41 102.80 C 419.78 108.02 424.15 112.06 426.35 117.36 C 427.11 120.11 427.91 122.94 429.60 125.28 C 432.29 128.55 435.79 131.08 438.36 134.45 C 439.68 136.97 440.97 139.50 442.20 142.06 C 442.60 144.96 442.20 147.91 442.40 150.82 C 443.71 156.92 450.12 159.70 452.89 164.98 C 456.00 168.89 457.60 173.83 457.85 178.80 C 460.30 181.66 462.00 184.99 463.64 188.35 C 466.31 191.44 469.25 194.31 472.27 197.05 C 477.75 196.66 482.15 200.18 486.93 202.28 C 489.56 203.26 490.58 206.02 491.64 208.37 C 491.98 210.71 491.44 213.22 492.47 215.45 C 494.99 221.23 500.09 225.70 505.85 228.15 C 509.86 230.63 515.08 229.99 519.30 228.38 C 524.30 228.15 529.13 226.60 533.58 224.36 C 539.75 220.54 547.15 220.28 553.95 218.12 C 553.45 222.34 551.26 226.15 551.60 230.52 C 548.30 236.64 547.09 243.83 542.34 249.15 C 540.32 256.07 537.65 262.80 533.94 269.00 C 531.82 271.54 528.89 273.49 527.64 276.67 C 526.04 280.47 521.51 281.08 519.01 284.01 C 514.36 288.69 509.73 293.39 505.04 298.04 C 503.51 299.62 501.32 300.26 499.70 301.72 C 494.36 305.95 491.60 312.33 487.62 317.69 C 484.74 323.18 479.27 326.53 475.52 331.33 C 473.11 335.47 471.41 340.00 468.92 344.10 C 467.30 346.29 465.78 348.56 464.62 351.04 C 464.40 355.69 464.58 360.37 464.54 365.03 C 464.29 366.92 465.48 368.47 466.15 370.14 C 466.92 373.67 465.48 377.53 467.22 380.86 C 468.20 383.33 467.84 386.20 469.33 388.50 C 471.56 392.53 473.38 396.77 474.65 401.19 C 474.64 407.63 474.99 414.13 474.51 420.55 C 472.33 424.29 473.59 428.74 473.26 432.84 C 469.92 435.65 467.46 439.63 463.27 441.29 C 459.43 443.19 455.64 445.30 451.43 446.27 C 448.90 448.00 447.18 450.71 444.51 452.25 C 442.76 453.19 441.23 454.44 439.87 455.88 C 435.55 460.33 431.13 464.67 426.72 469.03 C 427.12 474.22 425.56 479.82 428.14 484.62 C 428.56 487.54 429.19 490.39 430.62 493.02 C 428.82 495.64 428.16 498.63 428.51 501.78 C 424.64 503.60 420.28 504.22 416.66 506.55 C 413.84 509.09 411.14 511.79 408.61 514.61 C 407.44 518.30 405.94 521.91 406.22 525.87 C 404.55 530.13 403.86 535.11 400.33 538.34 C 396.18 542.83 391.02 546.52 388.05 551.99 C 383.95 556.25 380.04 560.90 374.81 563.83 C 368.47 568.49 361.30 572.96 353.14 572.69 C 347.16 576.09 340.02 573.30 333.62 574.70 C 331.59 575.88 329.25 575.84 326.98 575.82 C 323.67 575.54 320.98 578.18 317.64 577.70 C 315.38 575.37 313.38 572.77 312.29 569.71 C 311.78 566.11 313.07 562.19 311.23 558.86 C 307.30 551.35 303.59 543.73 299.82 536.15 C 297.62 531.95 291.90 530.00 291.28 524.98 C 290.71 522.67 289.32 520.69 288.38 518.53 C 287.80 515.21 288.88 511.68 287.62 508.48 C 285.30 504.35 286.74 499.45 286.40 494.95 C 286.93 490.81 283.95 487.51 281.71 484.37 C 280.30 481.82 279.14 479.10 277.29 476.83 C 273.09 470.49 271.00 462.93 266.24 456.94 C 262.89 452.77 264.54 447.15 264.28 442.24 C 265.45 439.67 265.80 436.95 265.76 434.14 C 266.80 431.68 267.57 429.15 267.69 426.47 C 268.88 423.77 270.16 421.10 271.64 418.55 C 274.04 415.93 276.78 413.29 277.58 409.71 C 277.70 405.22 277.72 400.71 277.57 396.22 C 276.76 393.55 275.71 390.94 274.74 388.33 C 273.32 383.03 276.05 376.90 272.65 372.12 C 270.88 369.16 270.86 365.42 268.19 363.00 C 264.88 355.77 265.48 346.51 259.37 340.66 C 254.86 336.44 250.92 331.52 245.66 328.18 C 244.14 325.54 242.66 322.85 241.57 320.00 C 241.83 316.41 245.56 313.76 245.26 309.98 C 245.10 307.75 245.57 305.62 246.61 303.65 C 246.90 297.77 246.63 291.88 246.74 285.99 C 246.93 283.40 245.29 281.15 243.94 279.09 C 240.26 275.43 236.92 270.86 231.72 269.35 C 225.73 269.17 219.73 269.26 213.74 269.36 C 212.66 267.46 211.64 265.49 210.02 264.00 C 206.13 260.20 202.38 256.25 198.45 252.49 C 196.26 251.40 193.73 252.04 191.40 251.58 C 187.01 249.36 181.90 250.64 177.17 250.41 C 172.61 251.65 167.85 253.08 164.24 256.32 C 160.24 258.07 155.76 258.69 151.94 260.92 C 147.35 263.97 141.44 262.65 136.74 260.62 C 130.43 260.82 123.76 259.42 117.82 262.10 C 112.33 262.89 106.79 265.96 101.19 263.89 C 95.16 260.93 90.42 256.01 85.86 251.15 C 82.17 246.99 76.83 244.89 72.60 241.45 C 69.73 235.70 68.84 228.69 63.93 224.12 C 60.04 220.80 58.12 215.93 55.03 211.96 C 51.75 208.55 47.72 205.48 46.43 200.70 C 46.24 195.47 46.42 190.23 46.35 184.99 C 46.08 181.61 49.30 179.22 49.58 175.96 C 49.76 171.10 52.90 166.95 53.34 162.11 C 53.51 160.00 55.00 158.19 54.74 156.01 C 54.70 148.35 54.75 140.68 54.72 133.02 C 54.91 131.13 53.61 129.64 52.91 128.01 C 56.40 125.23 58.72 121.48 60.43 117.41 C 63.47 113.20 67.69 110.00 71.24 106.23 C 74.55 103.26 74.88 98.25 78.47 95.49 C 82.98 91.63 86.29 85.90 92.34 84.31 C 98.19 82.89 103.13 79.31 108.06 76.03 C 110.78 73.52 113.99 71.14 115.38 67.59 C 117.23 63.12 118.96 58.51 118.44 53.58 C 121.51 50.61 124.63 47.16 129.05 46.44 C 132.25 46.32 135.17 44.90 138.22 44.08 C 142.78 40.81 146.44 36.24 147.98 30.77 C 149.31 31.97 150.63 33.18 151.95 34.39 C 158.28 34.26 164.63 34.55 170.96 34.27 C 176.65 32.03 183.12 31.80 188.33 28.30 Z" />
</svg>
