<?xml version="1.0" encoding="UTF-8" standalone="no"?>
<svg width="139px" height="36px" viewBox="0 0 139 36" version="1.1" xmlns="http://www.w3.org/2000/svg" xmlns:xlink="http://www.w3.org/1999/xlink" xmlns:sketch="http://www.bohemiancoding.com/sketch/ns">
    <!-- Generator: Sketch 3.4.4 (17249) - http://www.bohemiancoding.com/sketch -->
    <title>enterprise-3999</title>
    <desc>Created with Sketch.</desc>
    <defs></defs>
    <g id="Page-1" stroke="none" stroke-width="1" fill="none" fill-rule="evenodd" sketch:type="MSPage">
        <g id="Path" sketch:type="MSLayerGroup" transform="translate(1.000000, 1.000000)">
            <path d="M20.2044271,14.5117188 L22.9192708,14.5117188 C24.9895937,14.5117188 26.5585884,13.9941458 27.6263021,12.9589844 C28.6940158,11.9238229 29.2278646,10.5924561 29.2278646,8.96484375 C29.2278646,7.19400156 28.7265675,5.78125527 27.7239583,4.7265625 C26.7213492,3.67186973 25.2304786,3.14453125 23.2513021,3.14453125 C21.4283763,3.14453125 19.9342506,3.68163525 18.7688802,4.75585938 C17.6035098,5.8300835 17.0208333,7.24608496 17.0208333,9.00390625 L14.8333333,9.00390625 L14.7942708,8.88671875 C14.7291663,6.67316602 15.5038982,4.83073652 17.1184896,3.359375 C18.733081,1.88801348 20.7773314,1.15234375 23.2513021,1.15234375 C25.7903773,1.15234375 27.8118414,1.84895137 29.3157552,3.2421875 C30.819669,4.63542363 31.5716146,6.56899805 31.5716146,9.04296875 C31.5716146,10.3841213 31.1549521,11.6438743 30.3216146,12.8222656 C29.4882771,14.0006569 28.3164138,14.8762992 26.8059896,15.4492188 C28.5768318,15.9570338 29.9016883,16.813145 30.780599,18.0175781 C31.6595096,19.2220112 32.0989583,20.644523 32.0989583,22.2851562 C32.0989583,24.8112105 31.2819092,26.7968678 29.6477865,28.2421875 C28.0136637,29.6875072 25.9140753,30.4101562 23.3489583,30.4101562 C20.8619667,30.4101562 18.7265714,29.7037831 16.9427083,28.2910156 C15.1588452,26.8782481 14.2994788,24.9153771 14.3645833,22.4023438 L14.4036458,22.2851562 L16.5911458,22.2851562 C16.5911458,24.0950611 17.2193948,25.5729109 18.4759115,26.71875 C19.7324282,27.8645891 21.3567609,28.4375 23.3489583,28.4375 C25.3671976,28.4375 26.9427027,27.9134167 28.0755208,26.8652344 C29.208339,25.8170521 29.7747396,24.316416 29.7747396,22.3632812 C29.7747396,20.3710838 29.1822976,18.8964892 27.9973958,17.9394531 C26.8124941,16.9824171 25.1198027,16.5039062 22.9192708,16.5039062 L20.2044271,16.5039062 L20.2044271,14.5117188 Z M38.1942708,29.6484375 L36.1239583,35.0390625 L34.5223958,35.0390625 L35.8700521,29.5898438 L35.8700521,26.328125 L38.1942708,26.328125 L38.1942708,29.6484375 Z M48.9380208,28.4375 C51.0994899,28.4375 52.8182227,27.714851 54.0942708,26.2695312 C55.3703188,24.8242115 56.0083333,22.7539197 56.0083333,20.0585938 L56.0083333,17.2070312 C55.3182257,18.4049539 54.3905006,19.3294238 53.2251302,19.9804688 C52.0597598,20.6315137 50.7609446,20.9570312 49.3286458,20.9570312 C46.737487,20.9570312 44.6509193,20.0586027 43.0688802,18.2617188 C41.486841,16.4648348 40.6958333,14.1406393 40.6958333,11.2890625 C40.6958333,8.41144395 41.5259031,6.00261387 43.1860677,4.0625 C44.8462322,2.12238613 46.9002481,1.15234375 49.348177,1.15234375 C52.0955866,1.15234375 54.2960854,2.04751709 55.9497395,3.83789062 C57.6033936,5.62826416 58.4302083,8.22914961 58.4302083,11.640625 L58.4302083,20.0195312 C58.4302083,23.3138186 57.5578212,25.8691315 55.8130208,27.6855469 C54.0682204,29.5019622 51.7765766,30.4101562 48.9380208,30.4101562 C47.9223907,30.4101562 46.9035207,30.312501 45.8813802,30.1171875 C44.8592396,29.921874 43.8859421,29.6223979 42.9614583,29.21875 L43.3911458,27.265625 C44.2765669,27.6822937 45.1522092,27.9817699 46.0180989,28.1640625 C46.8839887,28.3463551 47.8572862,28.4375 48.9380208,28.4375 L48.9380208,28.4375 Z M49.3286458,18.984375 C51.0213626,18.984375 52.437364,18.5514366 53.5766927,17.6855469 C54.7160213,16.8196571 55.52656,15.7487043 56.0083333,14.4726562 L56.0083333,11.4648438 C56.0083333,8.76951777 55.4191465,6.7089915 54.2407552,5.28320312 C53.0623639,3.85741475 51.4640725,3.14453125 49.4458333,3.14453125 C47.6098866,3.14453125 46.0962299,3.93879414 44.9048177,5.52734375 C43.7134055,7.11589336 43.1177083,9.03644707 43.1177083,11.2890625 C43.1177083,13.4765734 43.6775985,15.3059822 44.7973958,16.7773438 C45.9171931,18.2487053 47.4275946,18.984375 49.3286458,18.984375 L49.3286458,18.984375 Z M69.5059895,28.4375 C71.6674587,28.4375 73.3861915,27.714851 74.6622395,26.2695312 C75.9382876,24.8242115 76.576302,22.7539197 76.576302,20.0585938 L76.576302,17.2070312 C75.8861944,18.4049539 74.9584693,19.3294238 73.7930989,19.9804688 C72.6277285,20.6315137 71.3289133,20.9570312 69.8966145,20.9570312 C67.3054557,20.9570312 65.218888,20.0586027 63.6368489,18.2617188 C62.0548097,16.4648348 61.263802,14.1406393 61.263802,11.2890625 C61.263802,8.41144395 62.0938718,6.00261387 63.7540364,4.0625 C65.4142009,2.12238613 67.4682169,1.15234375 69.9161458,1.15234375 C72.6635553,1.15234375 74.8640542,2.04751709 76.5177083,3.83789062 C78.1713624,5.62826416 78.998177,8.22914961 78.998177,11.640625 L78.998177,20.0195312 C78.998177,23.3138186 78.1257899,25.8691315 76.3809895,27.6855469 C74.6361891,29.5019622 72.3445454,30.4101562 69.5059895,30.4101562 C68.4903594,30.4101562 67.4714894,30.312501 66.4493489,30.1171875 C65.4272084,29.921874 64.4539108,29.6223979 63.529427,29.21875 L63.9591145,27.265625 C64.8445356,27.6822937 65.7201779,27.9817699 66.5860676,28.1640625 C67.4519574,28.3463551 68.4252549,28.4375 69.5059895,28.4375 L69.5059895,28.4375 Z M69.8966145,18.984375 C71.5893313,18.984375 73.0053328,18.5514366 74.1446614,17.6855469 C75.28399,16.8196571 76.0945288,15.7487043 76.576302,14.4726562 L76.576302,11.4648438 C76.576302,8.76951777 75.9871152,6.7089915 74.8087239,5.28320312 C73.6303326,3.85741475 72.0320413,3.14453125 70.013802,3.14453125 C68.1778553,3.14453125 66.6641986,3.93879414 65.4727864,5.52734375 C64.2813742,7.11589336 63.685677,9.03644707 63.685677,11.2890625 C63.685677,13.4765734 64.2455672,15.3059822 65.3653645,16.7773438 C66.4851618,18.2487053 67.9955633,18.984375 69.8966145,18.984375 L69.8966145,18.984375 Z M90.0739582,28.4375 C92.2354274,28.4375 93.9541602,27.714851 95.2302082,26.2695312 C96.5062563,24.8242115 97.1442707,22.7539197 97.1442707,20.0585938 L97.1442707,17.2070312 C96.4541631,18.4049539 95.526438,19.3294238 94.3610676,19.9804688 C93.1956972,20.6315137 91.8968821,20.9570312 90.4645832,20.9570312 C87.8734244,20.9570312 85.7868568,20.0586027 84.2048176,18.2617188 C82.6227785,16.4648348 81.8317707,14.1406393 81.8317707,11.2890625 C81.8317707,8.41144395 82.6618406,6.00261387 84.3220051,4.0625 C85.9821697,2.12238613 88.0361856,1.15234375 90.4841145,1.15234375 C93.2315241,1.15234375 95.4320229,2.04751709 97.085677,3.83789062 C98.7393311,5.62826416 99.5661457,8.22914961 99.5661457,11.640625 L99.5661457,20.0195312 C99.5661457,23.3138186 98.6937586,25.8691315 96.9489582,27.6855469 C95.2041578,29.5019622 92.9125141,30.4101562 90.0739582,30.4101562 C89.0583282,30.4101562 88.0394581,30.312501 87.0173176,30.1171875 C85.9951771,29.921874 85.0218795,29.6223979 84.0973957,29.21875 L84.5270832,27.265625 C85.4125043,27.6822937 86.2881466,27.9817699 87.1540364,28.1640625 C88.0199261,28.3463551 88.9932237,28.4375 90.0739582,28.4375 L90.0739582,28.4375 Z M90.4645832,18.984375 C92.1573,18.984375 93.5733015,18.5514366 94.7126301,17.6855469 C95.8519587,16.8196571 96.6624975,15.7487043 97.1442707,14.4726562 L97.1442707,11.4648438 C97.1442707,8.76951777 96.5550839,6.7089915 95.3766926,5.28320312 C94.1983013,3.85741475 92.60001,3.14453125 90.5817707,3.14453125 C88.7458241,3.14453125 87.2321673,3.93879414 86.0407551,5.52734375 C84.8493429,7.11589336 84.2536457,9.03644707 84.2536457,11.2890625 C84.2536457,13.4765734 84.813536,15.3059822 85.9333332,16.7773438 C87.0531305,18.2487053 88.5635321,18.984375 90.4645832,18.984375 L90.4645832,18.984375 Z" id="3,999" fill="#000000" sketch:type="MSShapeGroup"></path>
            <path d="M2.68164062,8.83789062 L2.68164062,15 L0.7578125,15 L0.7578125,0.791015625 L5.90429688,0.791015625 C7.46029424,0.791015625 8.6484334,1.13606426 9.46875,1.82617188 C10.2890666,2.51627949 10.6992188,3.51887363 10.6992188,4.83398438 C10.6992188,5.56315469 10.508791,6.19791396 10.1279297,6.73828125 C9.74706841,7.27864854 9.19206094,7.70833174 8.46289062,8.02734375 C9.24414453,8.28125127 9.80566235,8.69303101 10.1474609,9.26269531 C10.4892595,9.83235962 10.6601562,10.5371052 10.6601562,11.3769531 L10.6601562,12.7148438 C10.6601562,13.1575543 10.7089839,13.5546857 10.8066406,13.90625 C10.9042974,14.2578143 11.0735665,14.5442697 11.3144531,14.765625 L11.3144531,15 L9.33203125,15 C9.07812373,14.7786447 8.91536494,14.4531271 8.84375,14.0234375 C8.77213506,13.5937479 8.73632812,13.1510439 8.73632812,12.6953125 L8.73632812,11.3964844 C8.73632812,10.6282514 8.511721,10.009768 8.0625,9.54101562 C7.613279,9.07226328 7.01107148,8.83789062 6.25585938,8.83789062 L2.68164062,8.83789062 Z M2.68164062,7.32421875 L5.70898438,7.32421875 C6.79622939,7.32421875 7.57909917,7.11751509 8.05761719,6.70410156 C8.53613521,6.29068804 8.77539062,5.66081152 8.77539062,4.81445312 C8.77539062,4.01366787 8.54264556,3.39355688 8.07714844,2.95410156 C7.61165132,2.51464624 6.88737471,2.29492188 5.90429688,2.29492188 L2.68164062,2.29492188 L2.68164062,7.32421875 Z" id="R" fill="#689F38" sketch:type="MSShapeGroup"></path>
            <g id="Group" transform="translate(106.000000, 18.000000)" fill="#689F38" sketch:type="MSShapeGroup">
                <path d="M1.92234848,12.9765625 L0.609848485,12.9765625 L5.35984848,0.625 L6.66453598,0.625 L1.92234848,12.9765625 Z" id="/"></path>
                <path d="M9.49857955,2.046875 L12.6704545,10.1337891 L12.7114702,10.1337891 L15.8833452,2.046875 L17.6060014,2.046875 L17.6060014,12 L16.2593217,12 L16.2593217,8.0625 L16.3960405,4.015625 L16.3618608,4.00878906 L13.1352983,12 L12.2397905,12 L9.02689986,4.02929688 L8.99272017,4.03613281 L9.12260298,8.0625 L9.12260298,12 L7.7759233,12 L7.7759233,2.046875 L9.49857955,2.046875 Z M27.606978,7.91210938 C27.606978,9.12891233 27.2298659,10.1383423 26.4756303,10.9404297 C25.7213948,11.742517 24.7427262,12.1435547 23.5395952,12.1435547 C22.37748,12.1435547 21.4329907,11.742517 20.7060991,10.9404297 C19.9792074,10.1383423 19.615767,9.12891233 19.615767,7.91210938 L19.615767,6.14160156 C19.615767,4.92935592 19.9792074,3.91992591 20.7060991,3.11328125 C21.4329907,2.30663659 22.37748,1.90332031 23.5395952,1.90332031 C24.7427262,1.90332031 25.7213948,2.30549728 26.4756303,3.10986328 C27.2298659,3.91422928 27.606978,4.9247986 27.606978,6.14160156 L27.606978,7.91210938 Z M26.2602983,6.12792969 C26.2602983,5.2164668 26.014207,4.46907844 25.522017,3.88574219 C25.0298271,3.30240594 24.3690264,3.01074219 23.5395952,3.01074219 C22.7557371,3.01074219 22.1302551,3.30240594 21.6631303,3.88574219 C21.1960056,4.46907844 20.9624467,5.2164668 20.9624467,6.12792969 L20.9624467,7.91210938 C20.9624467,8.83268689 21.1960056,9.5846325 21.6631303,10.1679688 C22.1302551,10.751305 22.7557371,11.0429688 23.5395952,11.0429688 C24.3735837,11.0429688 25.0355237,10.7524443 25.525435,10.1713867 C26.0153463,9.59032913 26.2602983,8.83724421 26.2602983,7.91210938 L26.2602983,6.12792969 Z" id="MO"></path>
            </g>
        </g>
    </g>
</svg>