<?xml version="1.0" encoding="UTF-8" standalone="no"?>
<svg width="175px" height="57px" viewBox="0 0 175 57" version="1.1" xmlns="http://www.w3.org/2000/svg" xmlns:xlink="http://www.w3.org/1999/xlink" xmlns:sketch="http://www.bohemiancoding.com/sketch/ns">
    <!-- Generator: Sketch 3.3.3 (12081) - http://www.bohemiancoding.com/sketch -->
    <title>farmer-499</title>
    <desc>Created with Sketch.</desc>
    <defs></defs>
    <g id="Page-1" stroke="none" stroke-width="1" fill="none" fill-rule="evenodd" sketch:type="MSPage">
        <g id="Path" sketch:type="MSLayerGroup" transform="translate(2.000000, 1.000000)">
            <g id="/-+-MO" transform="translate(139.000000, 42.000000)" fill="#689F38" sketch:type="MSShapeGroup">
                <path d="M20.718,1.969 L20.718,12 L19.528,12 L19.528,4.629 C19.528,4.53099951 19.5315,4.42600056 19.5385,4.314 C19.5455,4.20199944 19.5536666,4.08766725 19.563,3.971 L16.119,10.243 C16.0116661,10.4530011 15.8483344,10.558 15.629,10.558 L15.433,10.558 C15.2136656,10.558 15.0503339,10.4530011 14.943,10.243 L11.429,3.943 C11.4570001,4.19033457 11.471,4.41899895 11.471,4.629 L11.471,12 L10.281,12 L10.281,1.969 L11.282,1.969 C11.4033339,1.969 11.4966663,1.98066655 11.562,2.004 C11.6273337,2.02733345 11.690333,2.09266613 11.751,2.2 L15.216,8.374 C15.2720003,8.48600056 15.3268331,8.60266606 15.3805,8.724 C15.4341669,8.84533394 15.4843331,8.96899937 15.531,9.095 C15.5776669,8.96899937 15.6266664,8.84416729 15.678,8.7205 C15.7293336,8.59683271 15.785333,8.47900056 15.846,8.367 L19.248,2.2 C19.3040003,2.09266613 19.365833,2.02733345 19.4335,2.004 C19.501167,1.98066655 19.5956661,1.969 19.717,1.969 L20.718,1.969 Z M32.548,6.988 C32.548,7.73933709 32.4290012,8.42883019 32.191,9.0565 C31.9529988,9.6841698 31.6170022,10.2243311 31.183,10.677 C30.7489978,11.1296689 30.227503,11.4808321 29.6185,11.7305 C29.009497,11.9801679 28.336337,12.105 27.599,12.105 C26.861663,12.105 26.1896697,11.9801679 25.583,11.7305 C24.9763303,11.4808321 24.4560022,11.1296689 24.022,10.677 C23.5879978,10.2243311 23.2520012,9.6841698 23.014,9.0565 C22.7759988,8.42883019 22.657,7.73933709 22.657,6.988 C22.657,6.23666291 22.7759988,5.5471698 23.014,4.9195 C23.2520012,4.29183019 23.5879978,3.75050227 24.022,3.2955 C24.4560022,2.84049773 24.9763303,2.48700126 25.583,2.235 C26.1896697,1.98299874 26.861663,1.857 27.599,1.857 C28.336337,1.857 29.009497,1.98299874 29.6185,2.235 C30.227503,2.48700126 30.7489978,2.84049773 31.183,3.2955 C31.6170022,3.75050227 31.9529988,4.29183019 32.191,4.9195 C32.4290012,5.5471698 32.548,6.23666291 32.548,6.988 L32.548,6.988 Z M31.155,6.988 C31.155,6.37199692 31.0710008,5.81900245 30.903,5.329 C30.7349992,4.83899755 30.4970015,4.42483503 30.189,4.0865 C29.8809985,3.74816498 29.5076689,3.48800091 29.069,3.306 C28.6303311,3.12399909 28.140336,3.033 27.599,3.033 C27.0623307,3.033 26.5746689,3.12399909 26.136,3.306 C25.6973311,3.48800091 25.3228349,3.74816498 25.0125,4.0865 C24.7021651,4.42483503 24.4630008,4.83899755 24.295,5.329 C24.1269992,5.81900245 24.043,6.37199692 24.043,6.988 C24.043,7.60400308 24.1269992,8.15583089 24.295,8.6435 C24.4630008,9.1311691 24.7021651,9.54416498 25.0125,9.8825 C25.3228349,10.220835 25.6973311,10.4798324 26.136,10.6595 C26.5746689,10.8391676 27.0623307,10.929 27.599,10.929 C28.140336,10.929 28.6303311,10.8391676 29.069,10.6595 C29.5076689,10.4798324 29.8809985,10.220835 30.189,9.8825 C30.4970015,9.54416498 30.7349992,9.1311691 30.903,8.6435 C31.0710008,8.15583089 31.155,7.60400308 31.155,6.988 L31.155,6.988 Z" id="MO"></path>
                <path d="M1.912,12.168 C1.84266632,12.3546676 1.7346674,12.4933329 1.588,12.584 C1.4413326,12.6746671 1.29066744,12.72 1.136,12.72 L0.536,12.72 L5.344,0.744 C5.40800032,0.57333248 5.50533268,0.44266712 5.636,0.352 C5.76666732,0.26133288 5.91733248,0.216 6.088,0.216 L6.696,0.216 L1.912,12.168 Z" id="/"></path>
            </g>
            <path d="M45.2375,35.925 L45.2375,8.1375 C45.2375,7.71249788 45.2562498,7.2500025 45.29375,6.75 C45.3312502,6.2499975 45.3749998,5.73750263 45.425,5.2125 L22.475,35.925 L45.2375,35.925 Z M58.1,35.925 L58.1,37.875 C58.1,38.1500014 58.0187508,38.3687492 57.85625,38.53125 C57.6937492,38.6937508 57.4375017,38.775 57.0875,38.775 L48.3875,38.775 L48.3875,54 L45.2375,54 L45.2375,38.775 L20.15,38.775 C19.7749981,38.775 19.487501,38.6937508 19.2875,38.53125 C19.087499,38.3687492 18.9500004,38.1500014 18.875,37.875 L18.5375,36.1125 L45.2,0.8625 L48.3875,0.8625 L48.3875,35.925 L58.1,35.925 Z M78.4625,28.65 C80.5875106,28.65 82.4874916,28.2875036 84.1625,27.5625 C85.8375084,26.8374964 87.2437443,25.8875059 88.38125,24.7125 C89.5187557,23.5374941 90.387497,22.2187573 90.9875,20.75625 C91.587503,19.2937427 91.8875,17.8125075 91.8875,16.3125 C91.8875,14.3874904 91.5750031,12.625008 90.95,11.025 C90.3249969,9.424992 89.4500056,8.05625569 88.325,6.91875 C87.1999944,5.78124431 85.8687577,4.89375319 84.33125,4.25625 C82.7937423,3.61874681 81.1125091,3.3 79.2875,3.3 C77.3124901,3.3 75.5125081,3.61249688 73.8875,4.2375 C72.2624919,4.86250313 70.8687558,5.73749438 69.70625,6.8625 C68.5437442,7.98750563 67.6375032,9.33124219 66.9875,10.89375 C66.3374967,12.4562578 66.0125,14.1749906 66.0125,16.05 C66.0125,18.0000098 66.3062471,19.7562422 66.89375,21.31875 C67.4812529,22.8812578 68.3187446,24.2062446 69.40625,25.29375 C70.4937554,26.3812554 71.8062423,27.2124971 73.34375,27.7875 C74.8812577,28.3625029 76.5874906,28.65 78.4625,28.65 L78.4625,28.65 Z M85.55,32.1 C86.3000038,31.0249946 86.9999968,30.0187547 87.65,29.08125 C88.3000033,28.1437453 88.8874974,27.2250045 89.4125,26.325 C87.9624927,27.9500081 86.2000104,29.2062456 84.125,30.09375 C82.0499896,30.9812544 79.8375118,31.425 77.4875,31.425 C75.3124891,31.425 73.3062592,31.0687536 71.46875,30.35625 C69.6312408,29.6437464 68.0375068,28.6250066 66.6875,27.3 C65.3374932,25.9749934 64.2875038,24.3812593 63.5375,22.51875 C62.7874963,20.6562407 62.4125,18.5750115 62.4125,16.275 C62.4125,13.9999886 62.8374958,11.8937597 63.6875,9.95625 C64.5375043,8.01874031 65.7124925,6.33750713 67.2125,4.9125 C68.7125075,3.48749288 70.4937397,2.36875406 72.55625,1.55625 C74.6187603,0.743745938 76.8749878,0.3375 79.325,0.3375 C81.6750118,0.3375 83.8312402,0.737496 85.79375,1.5375 C87.7562598,2.337504 89.4437429,3.46874269 90.85625,4.93125 C92.2687571,6.39375731 93.3687461,8.14373981 94.15625,10.18125 C94.9437539,12.2187602 95.3375,14.4874875 95.3375,16.9875 C95.3375,18.3625069 95.1937514,19.6749937 94.90625,20.925 C94.6187486,22.1750062 94.1937528,23.4249937 93.63125,24.675 C93.0687472,25.9250062 92.387504,27.2062434 91.5875,28.51875 C90.787496,29.8312566 89.8750051,31.2374925 88.85,32.7375 L74.9375,53.1375 C74.5624981,53.7125029 73.9500043,54 73.1,54 L69.8375,54 L85.55,32.1 Z M118.9625,28.65 C121.087511,28.65 122.987492,28.2875036 124.6625,27.5625 C126.337508,26.8374964 127.743744,25.8875059 128.88125,24.7125 C130.018756,23.5374941 130.887497,22.2187573 131.4875,20.75625 C132.087503,19.2937427 132.3875,17.8125075 132.3875,16.3125 C132.3875,14.3874904 132.075003,12.625008 131.45,11.025 C130.824997,9.424992 129.950006,8.05625569 128.825,6.91875 C127.699994,5.78124431 126.368758,4.89375319 124.83125,4.25625 C123.293742,3.61874681 121.612509,3.3 119.7875,3.3 C117.81249,3.3 116.012508,3.61249688 114.3875,4.2375 C112.762492,4.86250313 111.368756,5.73749438 110.20625,6.8625 C109.043744,7.98750563 108.137503,9.33124219 107.4875,10.89375 C106.837497,12.4562578 106.5125,14.1749906 106.5125,16.05 C106.5125,18.0000098 106.806247,19.7562422 107.39375,21.31875 C107.981253,22.8812578 108.818745,24.2062446 109.90625,25.29375 C110.993755,26.3812554 112.306242,27.2124971 113.84375,27.7875 C115.381258,28.3625029 117.087491,28.65 118.9625,28.65 L118.9625,28.65 Z M126.05,32.1 C126.800004,31.0249946 127.499997,30.0187547 128.15,29.08125 C128.800003,28.1437453 129.387497,27.2250045 129.9125,26.325 C128.462493,27.9500081 126.70001,29.2062456 124.625,30.09375 C122.54999,30.9812544 120.337512,31.425 117.9875,31.425 C115.812489,31.425 113.806259,31.0687536 111.96875,30.35625 C110.131241,29.6437464 108.537507,28.6250066 107.1875,27.3 C105.837493,25.9749934 104.787504,24.3812593 104.0375,22.51875 C103.287496,20.6562407 102.9125,18.5750115 102.9125,16.275 C102.9125,13.9999886 103.337496,11.8937597 104.1875,9.95625 C105.037504,8.01874031 106.212492,6.33750713 107.7125,4.9125 C109.212507,3.48749288 110.99374,2.36875406 113.05625,1.55625 C115.11876,0.743745938 117.374988,0.3375 119.825,0.3375 C122.175012,0.3375 124.33124,0.737496 126.29375,1.5375 C128.25626,2.337504 129.943743,3.46874269 131.35625,4.93125 C132.768757,6.39375731 133.868746,8.14373981 134.65625,10.18125 C135.443754,12.2187602 135.8375,14.4874875 135.8375,16.9875 C135.8375,18.3625069 135.693751,19.6749937 135.40625,20.925 C135.118749,22.1750062 134.693753,23.4249937 134.13125,24.675 C133.568747,25.9250062 132.887504,27.2062434 132.0875,28.51875 C131.287496,29.8312566 130.375005,31.2374925 129.35,32.7375 L115.4375,53.1375 C115.062498,53.7125029 114.450004,54 113.6,54 L110.3375,54 L126.05,32.1 Z" id="499" fill="#000000" sketch:type="MSShapeGroup"></path>
            <path d="M5.83,11.0235 C6.58600378,11.0235 7.2542471,10.9312509 7.83475,10.74675 C8.4152529,10.5622491 8.90124804,10.3012517 9.29275,9.96375 C9.68425196,9.62624831 9.97899901,9.22350234 10.177,8.7555 C10.375001,8.28749766 10.474,7.77000283 10.474,7.203 C10.474,6.05099424 10.0960038,5.18250293 9.34,4.5975 C8.58399622,4.01249707 7.45000756,3.72 5.938,3.72 L3.076,3.72 L3.076,11.0235 L5.83,11.0235 Z M14.767,21 L12.445,21 C11.9679976,21 11.6170011,20.8155018 11.392,20.4465 L6.37,13.5345 C6.21699923,13.3184989 6.05275088,13.1632505 5.87725,13.06875 C5.70174912,12.9742495 5.42950184,12.927 5.0605,12.927 L3.076,12.927 L3.076,21 L0.4705,21 L0.4705,1.6545 L5.938,1.6545 C7.16200612,1.6545 8.21949554,1.77824876 9.1105,2.02575 C10.0015045,2.27325124 10.7372471,2.63099766 11.31775,3.099 C11.8982529,3.56700234 12.3279986,4.13174669 12.607,4.79325 C12.8860014,5.45475331 13.0255,6.1949959 13.0255,7.014 C13.0255,7.69800342 12.9175011,8.33699703 12.7015,8.931 C12.4854989,9.52500297 12.172752,10.0582476 11.76325,10.53075 C11.353748,11.0032524 10.8542529,11.4059983 10.26475,11.739 C9.67524705,12.0720017 9.00700373,12.3239991 8.26,12.495 C8.59300166,12.6840009 8.88099878,12.9584982 9.124,13.3185 L14.767,21 Z" id="R" fill="#689F38" sketch:type="MSShapeGroup"></path>
        </g>
    </g>
</svg>