<?xml version="1.0" encoding="UTF-8" standalone="no"?>
<svg width="400px" height="200px" viewBox="0 0 400 200" version="1.1" xmlns="http://www.w3.org/2000/svg" xmlns:xlink="http://www.w3.org/1999/xlink" xmlns:sketch="http://www.bohemiancoding.com/sketch/ns">
    <!-- Generator: Sketch 3.4.4 (17249) - http://www.bohemiancoding.com/sketch -->
    <title>settlement</title>
    <desc>Created with Sketch.</desc>
    <defs></defs>
    <g id="Page-1" stroke="none" stroke-width="1" fill="none" fill-rule="evenodd" sketch:type="MSPage">
        <path d="M330.964916,133.151628 L330.964916,42.5082792 C330.964916,36.6078274 326.170162,31.8137104 320.281971,31.8137104 L291.560224,31.8137104 L279.38038,2.21194 C278.684556,0.520243014 276.825127,-0.369507648 275.082643,0.145611156 L167.288386,31.8137104 L108.938568,31.8137104 C107.90945,31.8137104 106.932958,32.0068799 105.991549,32.2820002 C104.389399,33.1249219 100.986293,35.0566174 98.4778183,37.3395303 L89.5665925,50.129696 C89.5607452,50.129696 86.3564462,55.3335667 84,60.2857316 L84,192.870287 C84,196.792215 87.2101463,200 91.1278112,200 L302.471213,200 C306.388878,200 309.593177,196.792215 309.593177,192.870287 L309.593177,185.143505 L320.281971,185.143505 C326.170162,185.143505 330.964916,180.343535 330.964916,174.443083 L330.964916,136.014049 C331.011695,135.147713 331.011695,134.181865 330.964916,133.151628 L330.964916,133.151628 Z M245.501349,51.7160278 L125.293357,51.5813945 L274.012594,7.88995409 L291.981227,51.5696873 L245.501349,51.7160278 L245.501349,51.7160278 Z M98.2497751,50.129696 L105.927229,39.113178 L107.90945,39.113178 C108.236897,39.0136664 108.576038,38.9434229 108.938568,38.9434229 L143.010558,38.9434229 L99.5887979,51.698467 C98.5187491,52.0145626 97.7410634,52.8223625 97.3434496,53.7999175 L95.6886748,53.7999175 L98.2497751,50.129696 L98.2497751,50.129696 Z M323.842953,105.75082 L319.475049,106.956666 L307.58172,110.240548 C306.903437,110.070793 306.201766,109.953721 305.465011,109.953721 L253.816155,109.953721 C248.904455,109.953721 244.910776,113.957599 244.910776,118.868788 L244.910776,137.887209 C244.910776,142.804252 248.904455,146.802276 253.816155,146.802276 L305.465011,146.802276 C306.488282,146.802276 307.458927,146.597399 308.3711,146.27545 C308.400336,146.269597 308.423725,146.287157 308.452962,146.281304 L323.515506,141.457919 L323.842953,141.352553 L323.842953,174.443083 C323.842953,176.4099 322.24665,178.013793 320.281971,178.013793 L309.593177,178.013793 L309.593177,155.828563 C308.265849,156.132951 306.885896,156.314413 305.465011,156.314413 L253.816155,156.314413 C243.671157,156.314413 235.414824,148.049098 235.414824,137.887209 L235.414824,118.868788 C235.414824,108.712753 243.671157,100.447437 253.816155,100.447437 L305.465011,100.447437 C306.885896,100.447437 308.265849,100.623046 309.593177,100.933288 L309.593177,60.9354837 C309.593177,57.0135564 306.388878,53.7999175 302.471213,53.7999175 L300.60009,53.7999175 C300.594243,53.7882103 300.594243,53.776503 300.588395,53.7647958 L294.489702,38.9434229 L320.281971,38.9434229 C322.24665,38.9434229 323.842953,40.5414619 323.842953,42.5082792 L323.842953,105.75082 L323.842953,105.75082 Z M279.643506,121.543894 L279.643506,135.212103 C279.643506,137.828672 277.503409,139.971098 274.889683,139.971098 L261.236329,139.971098 C258.62845,139.971098 256.488353,137.828672 256.488353,135.212103 L256.488353,121.543894 C256.488353,118.933178 258.62845,116.790752 261.236329,116.790752 L274.889683,116.790752 C277.503409,116.790752 279.643506,118.933178 279.643506,121.543894 L279.643506,121.543894 Z" id="Fill-80" fill="#FFFFFF" sketch:type="MSShapeGroup"></path>
    </g>
</svg>