<?xml version="1.0" encoding="UTF-8" standalone="no"?>
<!-- Generator: Adobe Illustrator 19.1.0, SVG Export Plug-In . SVG Version: 6.00 Build 0)  -->
<svg id="svg9498" xmlns:rdf="http://www.w3.org/1999/02/22-rdf-syntax-ns#" xmlns="http://www.w3.org/2000/svg" enable-background="new 211.065 292.364 1008.61 236.792" xml:space="preserve" viewBox="211.065 292.364 128 29.999999" height="30" width="128" version="1.1" y="0px" x="0px" xmlns:cc="http://creativecommons.org/ns#" xmlns:dc="http://purl.org/dc/elements/1.1/"><metadata id="metadata3547"><rdf:RDF><cc:Work rdf:about=""><dc:format>image/svg+xml</dc:format><dc:type rdf:resource="http://purl.org/dc/dcmitype/StillImage"/><dc:title/></cc:Work></rdf:RDF></metadata><g id="g3549" fill="#fff" transform="matrix(.12691 0 0 .12669 184.28 255.32)"><path id="path9291" d="m388.77 375.47h-118.4v-24.931h118.4v24.931zm-1.037 95.549h-26.386v-76.862h26.386v76.862zm-45.076 0h-26.384v-76.862h26.384v76.862zm-44.868 0h-26.382v-76.862h26.382v76.862zm31.677-178.66c-65.389 0-118.4 53.006-118.4 118.39 0 65.39 53.008 118.4 118.4 118.4 65.39 0 118.4-53.009 118.4-118.4 0-65.38-53.01-118.39-118.4-118.39"/><path id="path9307" d="m1178.3 399.87c12.53 0 14.928 10.393 15.471 20.528h-29.596c0.258-9.071 2.931-20.528 14.125-20.528zm1.604 58.377c-13.332 0-15.73-11.464-15.73-22.65h55.459c0-26.936-9.598-50.924-40.79-50.924-26.932 0-40.523 21.859-40.523 46.655 0 25.853 15.454 42.118 41.308 42.118 17.609 0 35.728-7.455 37.064-27.191h-22.387c-1.612 7.991-6.131 11.992-14.401 11.992m-102.38-55.72h-18.662v-33.051h18.921c10.676 0 19.472 4.522 19.472 16.262 0 11.991-8.796 16.789-19.731 16.789zm20.792 8.8c14.936-4.264 26.138-13.326 26.138-29.855 0-23.201-21.602-30.926-41.6-30.926h-49.849v120.5h25.857v-48.788h20.266c23.198 0 17.592 32.256 21.318 48.789h28.268c-12.805-22.667 2.674-53.326-30.398-59.725m-117.84-2.133h-22.396c-0.533-6.135-6.135-9.324-11.992-9.324-5.335 0-13.067 1.597-12.802 8.527 0.267 5.333 6.135 6.931 10.395 7.992l9.606 2.412c14.665 3.194 31.459 9.324 31.459 26.922 0 21.325-21.875 27.724-39.468 27.724-17.327 0-34.388-7.728-35.719-26.39h23.196c0.799 7.463 6.666 11.19 13.865 11.19 6.401 0 14.654-2.662 14.654-10.39 0-15.996-50.118-4.537-50.118-37.061 0-19.727 19.734-26.122 36.263-26.122 15.198 0 30.394 6.129 32.791 22.659l0.266 1.861m-82.377 0h-22.396c-0.544-6.135-6.135-9.324-12.002-9.324-5.335 0-13.067 1.597-12.802 8.527 0.266 5.333 6.135 6.931 10.405 7.992l9.596 2.412c14.665 3.194 31.459 9.324 31.459 26.922 0 21.325-21.865 27.724-39.457 27.724-17.328 0-34.388-7.728-35.73-26.39h23.195c0.799 7.463 6.667 11.19 13.866 11.19 6.4 0 14.665-2.662 14.665-10.39 0-15.996-50.129-4.537-50.129-37.061 0-19.727 19.734-26.122 36.263-26.122 15.198 0 30.394 6.129 32.791 22.659l0.276 1.861m-110.65-37.855h26.668v-20.792h-26.668v20.792zm0.799 99.713h25.06v-83.983h-25.06v83.983zm-70.65 0-11.991-39.992c-2.673-8.796-4.27-17.602-6.134-26.398-1.342 6.402-2.397 12.809-4.271 18.935l-1.864 6.667-11.193 40.789h-29.596l-27.464-83.983h28.262l11.737 43.99 1.597 6.126 1.331 5.871c0.533 3.468 1.065 6.931 1.598 10.394 1.331-10.13 3.738-19.723 6.4-29.322l10.393-37.059h28.798l10.926 38.658c2.672 9.065 4.537 18.126 5.868 27.463l0.799-4.804c1.064-7.992 3.194-15.724 5.602-23.724l10.393-37.592h26.933l-28.796 83.983h-29.328m-102.11-86.652h-24.793c-0.33-11.75-8.86-18.41-20.32-18.41-9.866 0-21.325 3.727-21.325 15.469 0 26.656 69.845 9.064 69.845 52.786 0 26.932-23.195 39.188-47.722 39.188-27.998 0-51.189-9.854-50.92-40.52h26.395c0 13.329 7.199 22.393 21.325 22.393 10.4 0 24.266-3.727 24.266-16.263 0-27.993-68.786-9.061-68.786-54.117 0-26.667 24.792-37.061 47.721-37.061 24.26-0.001 42.656 11.731 44.254 36.524"/></g></svg>
