<?xml version="1.0" encoding="UTF-8" standalone="no"?>
<svg width="208px" height="36px" viewBox="0 0 208 36" version="1.1" xmlns="http://www.w3.org/2000/svg" xmlns:xlink="http://www.w3.org/1999/xlink" xmlns:sketch="http://www.bohemiancoding.com/sketch/ns">
    <!-- Generator: Sketch 3.4.4 (17249) - http://www.bohemiancoding.com/sketch -->
    <title>contact-us</title>
    <desc>Created with Sketch.</desc>
    <defs></defs>
    <g id="Page-1" stroke="none" stroke-width="1" fill="none" fill-rule="evenodd" sketch:type="MSPage">
        <path d="M21.5591376,23.5576172 L21.596247,23.6689453 C21.3612197,26.3779432 20.3963856,28.5086185 18.7017157,30.0610352 C17.0070458,31.6134518 14.7372117,32.3896484 11.8921454,32.3896484 C8.88627099,32.3896484 6.46181607,31.3042101 4.6187079,29.1333008 C2.77559972,26.9623915 1.85405946,24.1513844 1.85405946,20.7001953 L1.85405946,16.3027344 C1.85405946,12.8639151 2.77559972,10.0529081 4.6187079,7.86962891 C6.46181607,5.68634976 8.88627099,4.59472656 11.8921454,4.59472656 C14.7619514,4.59472656 17.0379703,5.35546114 18.7202704,6.87695312 C20.4025705,8.39844511 21.3612197,10.5383977 21.596247,13.296875 L21.5591376,13.4082031 L19.4810126,13.4082031 C19.1841361,11.1692596 18.4141243,9.45606062 17.170954,8.26855469 C15.9277837,7.08104875 14.1681984,6.48730469 11.8921454,6.48730469 C9.52950337,6.48730469 7.63385176,7.40266012 6.20513368,9.23339844 C4.7764156,11.0641368 4.06206727,13.4081888 4.06206727,16.265625 L4.06206727,20.7001953 C4.06206727,23.594741 4.7764156,25.9542552 6.20513368,27.7788086 C7.63385176,29.603362 9.52950337,30.515625 11.8921454,30.515625 C14.1681984,30.515625 15.9308761,29.9342506 17.1802313,28.7714844 C18.4295865,27.6087181 19.196506,25.8707798 19.4810126,23.5576172 L21.5591376,23.5576172 Z M45.2691851,20.7001953 C45.2691851,24.188494 44.3136282,27.0087783 42.4024858,29.1611328 C40.4913435,31.3134873 37.9277298,32.3896484 34.7115679,32.3896484 C31.5448854,32.3896484 29.0183807,31.3134873 27.131978,29.1611328 C25.2455754,27.0087783 24.3023882,24.188494 24.3023882,20.7001953 L24.3023882,16.3027344 C24.3023882,12.8268055 25.242483,10.0065212 27.1227007,7.84179688 C29.0029184,5.67707251 31.5263307,4.59472656 34.6930132,4.59472656 C37.9091751,4.59472656 40.4758812,5.67707251 42.3932085,7.84179688 C44.3105358,10.0065212 45.2691851,12.8268055 45.2691851,16.3027344 L45.2691851,20.7001953 Z M43.0611773,16.265625 C43.0611773,13.3463396 42.3220896,10.9961027 40.8438921,9.21484375 C39.3656946,7.43358484 37.3154221,6.54296875 34.6930132,6.54296875 C32.1200837,6.54296875 30.1161974,7.43358484 28.6812944,9.21484375 C27.2463914,10.9961027 26.5289507,13.3463396 26.5289507,16.265625 L26.5289507,20.7001953 C26.5289507,23.6442204 27.2494839,26.006827 28.6905718,27.7880859 C30.1316597,29.5693448 32.1386383,30.4599609 34.7115679,30.4599609 C37.3463467,30.4599609 39.3966191,29.5724373 40.8624468,27.7973633 C42.3282744,26.0222893 43.0611773,23.6565903 43.0611773,20.7001953 L43.0611773,16.265625 Z M69.2389982,32 L67.0309904,32 L51.6862638,8.76953125 L51.5749357,8.78808594 L51.5749357,32 L49.3483732,32 L49.3483732,4.984375 L51.5749357,4.984375 L66.9196622,28.1777344 L67.0309904,28.1591797 L67.0309904,4.984375 L69.2389982,4.984375 L69.2389982,32 Z M92.1326394,6.87695312 L82.836741,6.87695312 L82.836741,32 L80.6101785,32 L80.6101785,6.87695312 L71.31428,6.87695312 L71.31428,4.984375 L92.1326394,4.984375 L92.1326394,6.87695312 Z M107.808507,24.4667969 L95.4325306,24.4667969 L92.6493275,32 L90.3485463,32 L100.609288,4.984375 L102.705968,4.984375 L112.892492,32 L110.59171,32 L107.808507,24.4667969 Z M96.1747181,22.4814453 L107.084874,22.4814453 L101.704015,7.86035156 L101.592687,7.86035156 L96.1747181,22.4814453 Z M133.670898,23.5576172 L133.708008,23.6689453 C133.472981,26.3779432 132.508146,28.5086185 130.813477,30.0610352 C129.118807,31.6134518 126.848973,32.3896484 124.003906,32.3896484 C120.998032,32.3896484 118.573577,31.3042101 116.730469,29.1333008 C114.887361,26.9623915 113.96582,24.1513844 113.96582,20.7001953 L113.96582,16.3027344 C113.96582,12.8639151 114.887361,10.0529081 116.730469,7.86962891 C118.573577,5.68634976 120.998032,4.59472656 124.003906,4.59472656 C126.873712,4.59472656 129.149731,5.35546114 130.832031,6.87695312 C132.514331,8.39844511 133.472981,10.5383977 133.708008,13.296875 L133.670898,13.4082031 L131.592773,13.4082031 C131.295897,11.1692596 130.525885,9.45606062 129.282715,8.26855469 C128.039545,7.08104875 126.279959,6.48730469 124.003906,6.48730469 C121.641264,6.48730469 119.745613,7.40266012 118.316895,9.23339844 C116.888176,11.0641368 116.173828,13.4081888 116.173828,16.265625 L116.173828,20.7001953 C116.173828,23.594741 116.888176,25.9542552 118.316895,27.7788086 C119.745613,29.603362 121.641264,30.515625 124.003906,30.515625 C126.279959,30.515625 128.042637,29.9342506 129.291992,28.7714844 C130.541347,27.6087181 131.308267,25.8707798 131.592773,23.5576172 L133.670898,23.5576172 Z M155.228602,6.87695312 L145.932704,6.87695312 L145.932704,32 L143.706141,32 L143.706141,6.87695312 L134.410243,6.87695312 L134.410243,4.984375 L155.228602,4.984375 L155.228602,6.87695312 Z M184.223892,4.984375 L184.223892,23.2978516 C184.223892,26.2418767 183.323999,28.4931563 181.524185,30.0517578 C179.724372,31.6103594 177.377227,32.3896484 174.482682,32.3896484 C171.625245,32.3896484 169.312117,31.6072669 167.543228,30.0424805 C165.774339,28.477694 164.889908,26.2295068 164.889908,23.2978516 L164.889908,4.984375 L167.116471,4.984375 L167.116471,23.2978516 C167.116471,25.5986443 167.796802,27.3767841 169.157486,28.6323242 C170.51817,29.8878644 172.293217,30.515625 174.482682,30.515625 C176.709255,30.515625 178.521412,29.8909568 179.919205,28.6416016 C181.316998,27.3922464 182.015885,25.6110142 182.015885,23.2978516 L182.015885,4.984375 L184.223892,4.984375 Z M204.519877,25.3759766 C204.519877,23.903964 203.969427,22.7010138 202.86851,21.7670898 C201.767593,20.8331659 199.850295,20.0074906 197.116557,19.2900391 C194.160162,18.5478479 191.921252,17.5830137 190.39976,16.3955078 C188.878268,15.2080019 188.117534,13.6061299 188.117534,11.5898438 C188.117534,9.52407821 188.967948,7.84180337 190.668803,6.54296875 C192.369658,5.24413413 194.555997,4.59472656 197.227885,4.59472656 C200.011102,4.59472656 202.256197,5.36783081 203.963237,6.9140625 C205.670277,8.46029419 206.499044,10.3466686 206.449565,12.5732422 L206.393901,12.6845703 L204.352885,12.6845703 C204.352885,10.8785717 203.712755,9.39421154 202.432475,8.23144531 C201.152195,7.06867908 199.417349,6.48730469 197.227885,6.48730469 C195.063161,6.48730469 193.371609,6.96972174 192.153178,7.93457031 C190.934748,8.89941889 190.325541,10.0992767 190.325541,11.5341797 C190.325541,12.8948636 190.888361,14.0297806 192.014018,14.9389648 C193.139675,15.8481491 195.081713,16.6490851 197.84019,17.3417969 C200.747106,18.0839881 202.958184,19.0859312 204.473491,20.3476562 C205.988798,21.6093813 206.74644,23.2731017 206.74644,25.3388672 C206.74644,27.4912217 205.865101,29.2044207 204.102397,30.4785156 C202.339693,31.7526105 200.091506,32.3896484 197.357768,32.3896484 C194.66114,32.3896484 192.307811,31.7124091 190.297709,30.3579102 C188.287608,29.0034112 187.313497,27.0273567 187.375346,24.4296875 L187.412456,24.3183594 L189.453471,24.3183594 C189.453471,26.4212345 190.238945,27.9798126 191.809916,28.9941406 C193.380888,30.0084686 195.230153,30.515625 197.357768,30.515625 C199.497753,30.515625 201.226414,30.0455776 202.543803,29.1054688 C203.861193,28.1653599 204.519877,26.9222083 204.519877,25.3759766 L204.519877,25.3759766 Z" id="Path" fill="#000000" sketch:type="MSShapeGroup"></path>
    </g>
</svg>