<?xml version="1.0" encoding="UTF-8" standalone="no"?>
<svg width="150px" height="36px" viewBox="0 0 150 36" version="1.1" xmlns="http://www.w3.org/2000/svg" xmlns:xlink="http://www.w3.org/1999/xlink" xmlns:sketch="http://www.bohemiancoding.com/sketch/ns">
    <!-- Generator: Sketch 3.4.4 (17249) - http://www.bohemiancoding.com/sketch -->
    <title>enterprise-14999</title>
    <desc>Created with Sketch.</desc>
    <defs></defs>
    <g id="Page-1" stroke="none" stroke-width="1" fill="none" fill-rule="evenodd" sketch:type="MSPage">
        <g id="Path" sketch:type="MSLayerGroup" transform="translate(1.000000, 1.000000)">
            <path d="M23.5755208,29.1367188 L21.2317708,29.1367188 L21.2317708,3.00390625 L14.0052083,3.84375 L14.0052083,2.203125 L23.5755208,0.484375 L23.5755208,29.1367188 Z M47.9130208,19.8398438 L52.3661458,19.8398438 L52.3661458,21.8125 L47.9130208,21.8125 L47.9130208,29 L45.5888021,29 L45.5888021,21.8125 L32.2489583,21.8125 L32.2489583,20.484375 L45.3544271,0.5625 L47.9130208,0.5625 L47.9130208,19.8398438 Z M35.0223958,19.8398438 L45.5888021,19.8398438 L45.5888021,3.62890625 L45.4716146,3.58984375 L44.4755208,5.71875 L35.0223958,19.8398438 Z M56.7622395,28.6484375 L54.691927,34.0390625 L53.0903645,34.0390625 L54.4380208,28.5898438 L54.4380208,25.328125 L56.7622395,25.328125 L56.7622395,28.6484375 Z M67.5059895,27.4375 C69.6674587,27.4375 71.3861915,26.714851 72.6622395,25.2695312 C73.9382876,23.8242115 74.576302,21.7539197 74.576302,19.0585938 L74.576302,16.2070312 C73.8861944,17.4049539 72.9584693,18.3294238 71.7930989,18.9804688 C70.6277285,19.6315137 69.3289133,19.9570312 67.8966145,19.9570312 C65.3054557,19.9570312 63.218888,19.0586027 61.6368489,17.2617188 C60.0548097,15.4648348 59.263802,13.1406393 59.263802,10.2890625 C59.263802,7.41144395 60.0938718,5.00261387 61.7540364,3.0625 C63.4142009,1.12238613 65.4682169,0.15234375 67.9161458,0.15234375 C70.6635553,0.15234375 72.8640542,1.04751709 74.5177083,2.83789062 C76.1713624,4.62826416 76.998177,7.22914961 76.998177,10.640625 L76.998177,19.0195312 C76.998177,22.3138186 76.1257899,24.8691315 74.3809895,26.6855469 C72.6361891,28.5019622 70.3445454,29.4101562 67.5059895,29.4101562 C66.4903594,29.4101562 65.4714894,29.312501 64.4493489,29.1171875 C63.4272084,28.921874 62.4539108,28.6223979 61.529427,28.21875 L61.9591145,26.265625 C62.8445356,26.6822937 63.7201779,26.9817699 64.5860676,27.1640625 C65.4519574,27.3463551 66.4252549,27.4375 67.5059895,27.4375 L67.5059895,27.4375 Z M67.8966145,17.984375 C69.5893313,17.984375 71.0053328,17.5514366 72.1446614,16.6855469 C73.28399,15.8196571 74.0945288,14.7487043 74.576302,13.4726562 L74.576302,10.4648438 C74.576302,7.76951777 73.9871152,5.7089915 72.8087239,4.28320312 C71.6303326,2.85741475 70.0320413,2.14453125 68.013802,2.14453125 C66.1778553,2.14453125 64.6641986,2.93879414 63.4727864,4.52734375 C62.2813742,6.11589336 61.685677,8.03644707 61.685677,10.2890625 C61.685677,12.4765734 62.2455672,14.3059822 63.3653645,15.7773438 C64.4851618,17.2487053 65.9955633,17.984375 67.8966145,17.984375 L67.8966145,17.984375 Z M88.0739582,27.4375 C90.2354274,27.4375 91.9541602,26.714851 93.2302082,25.2695312 C94.5062563,23.8242115 95.1442707,21.7539197 95.1442707,19.0585938 L95.1442707,16.2070312 C94.4541631,17.4049539 93.526438,18.3294238 92.3610676,18.9804688 C91.1956972,19.6315137 89.8968821,19.9570312 88.4645832,19.9570312 C85.8734244,19.9570312 83.7868568,19.0586027 82.2048176,17.2617188 C80.6227785,15.4648348 79.8317707,13.1406393 79.8317707,10.2890625 C79.8317707,7.41144395 80.6618406,5.00261387 82.3220051,3.0625 C83.9821697,1.12238613 86.0361856,0.15234375 88.4841145,0.15234375 C91.2315241,0.15234375 93.4320229,1.04751709 95.085677,2.83789062 C96.7393311,4.62826416 97.5661457,7.22914961 97.5661457,10.640625 L97.5661457,19.0195312 C97.5661457,22.3138186 96.6937586,24.8691315 94.9489582,26.6855469 C93.2041578,28.5019622 90.9125141,29.4101562 88.0739582,29.4101562 C87.0583282,29.4101562 86.0394581,29.312501 85.0173176,29.1171875 C83.9951771,28.921874 83.0218795,28.6223979 82.0973957,28.21875 L82.5270832,26.265625 C83.4125043,26.6822937 84.2881466,26.9817699 85.1540364,27.1640625 C86.0199261,27.3463551 86.9932237,27.4375 88.0739582,27.4375 L88.0739582,27.4375 Z M88.4645832,17.984375 C90.1573,17.984375 91.5733015,17.5514366 92.7126301,16.6855469 C93.8519587,15.8196571 94.6624975,14.7487043 95.1442707,13.4726562 L95.1442707,10.4648438 C95.1442707,7.76951777 94.5550839,5.7089915 93.3766926,4.28320312 C92.1983013,2.85741475 90.60001,2.14453125 88.5817707,2.14453125 C86.7458241,2.14453125 85.2321673,2.93879414 84.0407551,4.52734375 C82.8493429,6.11589336 82.2536457,8.03644707 82.2536457,10.2890625 C82.2536457,12.4765734 82.813536,14.3059822 83.9333332,15.7773438 C85.0531305,17.2487053 86.5635321,17.984375 88.4645832,17.984375 L88.4645832,17.984375 Z M108.641927,27.4375 C110.803396,27.4375 112.522129,26.714851 113.798177,25.2695312 C115.074225,23.8242115 115.712239,21.7539197 115.712239,19.0585938 L115.712239,16.2070312 C115.022132,17.4049539 114.094407,18.3294238 112.929036,18.9804688 C111.763666,19.6315137 110.464851,19.9570312 109.032552,19.9570312 C106.441393,19.9570312 104.354825,19.0586027 102.772786,17.2617188 C101.190747,15.4648348 100.399739,13.1406393 100.399739,10.2890625 C100.399739,7.41144395 101.229809,5.00261387 102.889974,3.0625 C104.550138,1.12238613 106.604154,0.15234375 109.052083,0.15234375 C111.799493,0.15234375 113.999992,1.04751709 115.653646,2.83789062 C117.3073,4.62826416 118.134114,7.22914961 118.134114,10.640625 L118.134114,19.0195312 C118.134114,22.3138186 117.261727,24.8691315 115.516927,26.6855469 C113.772127,28.5019622 111.480483,29.4101562 108.641927,29.4101562 C107.626297,29.4101562 106.607427,29.312501 105.585286,29.1171875 C104.563146,28.921874 103.589848,28.6223979 102.665364,28.21875 L103.095052,26.265625 C103.980473,26.6822937 104.856115,26.9817699 105.722005,27.1640625 C106.587895,27.3463551 107.561192,27.4375 108.641927,27.4375 L108.641927,27.4375 Z M109.032552,17.984375 C110.725269,17.984375 112.14127,17.5514366 113.280599,16.6855469 C114.419927,15.8196571 115.230466,14.7487043 115.712239,13.4726562 L115.712239,10.4648438 C115.712239,7.76951777 115.123053,5.7089915 113.944661,4.28320312 C112.76627,2.85741475 111.167979,2.14453125 109.149739,2.14453125 C107.313793,2.14453125 105.800136,2.93879414 104.608724,4.52734375 C103.417312,6.11589336 102.821614,8.03644707 102.821614,10.2890625 C102.821614,12.4765734 103.381505,14.3059822 104.501302,15.7773438 C105.621099,17.2487053 107.131501,17.984375 109.032552,17.984375 L109.032552,17.984375 Z" id="14,999" fill="#000000" sketch:type="MSShapeGroup"></path>
            <path d="M2.68164062,8.83789062 L2.68164062,15 L0.7578125,15 L0.7578125,0.791015625 L5.90429688,0.791015625 C7.46029424,0.791015625 8.6484334,1.13606426 9.46875,1.82617188 C10.2890666,2.51627949 10.6992188,3.51887363 10.6992188,4.83398438 C10.6992188,5.56315469 10.508791,6.19791396 10.1279297,6.73828125 C9.74706841,7.27864854 9.19206094,7.70833174 8.46289062,8.02734375 C9.24414453,8.28125127 9.80566235,8.69303101 10.1474609,9.26269531 C10.4892595,9.83235962 10.6601562,10.5371052 10.6601562,11.3769531 L10.6601562,12.7148438 C10.6601562,13.1575543 10.7089839,13.5546857 10.8066406,13.90625 C10.9042974,14.2578143 11.0735665,14.5442697 11.3144531,14.765625 L11.3144531,15 L9.33203125,15 C9.07812373,14.7786447 8.91536494,14.4531271 8.84375,14.0234375 C8.77213506,13.5937479 8.73632812,13.1510439 8.73632812,12.6953125 L8.73632812,11.3964844 C8.73632812,10.6282514 8.511721,10.009768 8.0625,9.54101562 C7.613279,9.07226328 7.01107148,8.83789062 6.25585938,8.83789062 L2.68164062,8.83789062 Z M2.68164062,7.32421875 L5.70898438,7.32421875 C6.79622939,7.32421875 7.57909917,7.11751509 8.05761719,6.70410156 C8.53613521,6.29068804 8.77539062,5.66081152 8.77539062,4.81445312 C8.77539062,4.01366787 8.54264556,3.39355688 8.07714844,2.95410156 C7.61165132,2.51464624 6.88737471,2.29492188 5.90429688,2.29492188 L2.68164062,2.29492188 L2.68164062,7.32421875 Z" id="R" fill="#689F38" sketch:type="MSShapeGroup"></path>
            <g id="Group" transform="translate(120.000000, 17.000000)" fill="#689F38" sketch:type="MSShapeGroup">
                <path d="M1.92234848,12.9765625 L0.609848485,12.9765625 L5.35984848,0.625 L6.66453598,0.625 L1.92234848,12.9765625 Z" id="/"></path>
                <path d="M9.49857955,2.046875 L12.6704545,10.1337891 L12.7114702,10.1337891 L15.8833452,2.046875 L17.6060014,2.046875 L17.6060014,12 L16.2593217,12 L16.2593217,8.0625 L16.3960405,4.015625 L16.3618608,4.00878906 L13.1352983,12 L12.2397905,12 L9.02689986,4.02929688 L8.99272017,4.03613281 L9.12260298,8.0625 L9.12260298,12 L7.7759233,12 L7.7759233,2.046875 L9.49857955,2.046875 Z M27.606978,7.91210938 C27.606978,9.12891233 27.2298659,10.1383423 26.4756303,10.9404297 C25.7213948,11.742517 24.7427262,12.1435547 23.5395952,12.1435547 C22.37748,12.1435547 21.4329907,11.742517 20.7060991,10.9404297 C19.9792074,10.1383423 19.615767,9.12891233 19.615767,7.91210938 L19.615767,6.14160156 C19.615767,4.92935592 19.9792074,3.91992591 20.7060991,3.11328125 C21.4329907,2.30663659 22.37748,1.90332031 23.5395952,1.90332031 C24.7427262,1.90332031 25.7213948,2.30549728 26.4756303,3.10986328 C27.2298659,3.91422928 27.606978,4.9247986 27.606978,6.14160156 L27.606978,7.91210938 Z M26.2602983,6.12792969 C26.2602983,5.2164668 26.014207,4.46907844 25.522017,3.88574219 C25.0298271,3.30240594 24.3690264,3.01074219 23.5395952,3.01074219 C22.7557371,3.01074219 22.1302551,3.30240594 21.6631303,3.88574219 C21.1960056,4.46907844 20.9624467,5.2164668 20.9624467,6.12792969 L20.9624467,7.91210938 C20.9624467,8.83268689 21.1960056,9.5846325 21.6631303,10.1679688 C22.1302551,10.751305 22.7557371,11.0429688 23.5395952,11.0429688 C24.3735837,11.0429688 25.0355237,10.7524443 25.525435,10.1713867 C26.0153463,9.59032913 26.2602983,8.83724421 26.2602983,7.91210938 L26.2602983,6.12792969 Z" id="MO"></path>
            </g>
        </g>
    </g>
</svg>