<?xml version="1.0" encoding="UTF-8" standalone="no"?>
<svg width="70px" height="36px" viewBox="0 0 70 36" version="1.1" xmlns="http://www.w3.org/2000/svg" xmlns:xlink="http://www.w3.org/1999/xlink" xmlns:sketch="http://www.bohemiancoding.com/sketch/ns">
    <!-- Generator: Sketch 3.4.4 (17249) - http://www.bohemiancoding.com/sketch -->
    <title>enterprise-0</title>
    <desc>Created with Sketch.</desc>
    <defs></defs>
    <g id="Page-1" stroke="none" stroke-width="1" fill="none" fill-rule="evenodd" sketch:type="MSPage">
        <g id="Font-Copy" sketch:type="MSLayerGroup" transform="translate(1.000000, 1.000000)">
            <path d="M34.0169271,18.9648438 C34.0169271,22.6367371 33.2226642,25.4622297 31.6341146,27.4414062 C30.045565,29.4205828 27.8385558,30.4101562 25.0130208,30.4101562 C22.2005068,30.4101562 19.9902424,29.4173276 18.3821615,27.4316406 C16.7740805,25.4459536 15.9700521,22.6237162 15.9700521,18.9648438 L15.9700521,12.6171875 C15.9700521,8.95831504 16.764315,6.13282246 18.3528646,4.140625 C19.9414142,2.14842754 22.1484234,1.15234375 24.9739583,1.15234375 C27.7994933,1.15234375 30.0130128,2.14842754 31.6145833,4.140625 C33.2161538,6.13282246 34.0169271,8.95831504 34.0169271,12.6171875 L34.0169271,18.9648438 Z M31.6731771,12.2265625 C31.6731771,9.30988125 31.1002661,7.06706514 29.9544271,5.49804688 C28.808588,3.92902861 27.1484484,3.14453125 24.9739583,3.14453125 C22.7994683,3.14453125 21.145839,3.92902861 20.0130208,5.49804688 C18.8802027,7.06706514 18.3138021,9.30988125 18.3138021,12.2265625 L18.3138021,19.3164062 C18.3138021,22.2070457 18.8899682,24.4498618 20.0423177,26.0449219 C21.1946672,27.6399819 22.8515517,28.4375 25.0130208,28.4375 C27.17449,28.4375 28.8248641,27.6432371 29.9641927,26.0546875 C31.1035213,24.4661379 31.6731771,22.2200666 31.6731771,19.3164062 L31.6731771,12.2265625 Z" id="0" fill="#000000" sketch:type="MSShapeGroup"></path>
            <path d="M2.68164062,8.83789062 L2.68164062,15 L0.7578125,15 L0.7578125,0.791015625 L5.90429688,0.791015625 C7.46029424,0.791015625 8.6484334,1.13606426 9.46875,1.82617188 C10.2890666,2.51627949 10.6992188,3.51887363 10.6992188,4.83398438 C10.6992188,5.56315469 10.508791,6.19791396 10.1279297,6.73828125 C9.74706841,7.27864854 9.19206094,7.70833174 8.46289062,8.02734375 C9.24414453,8.28125127 9.80566235,8.69303101 10.1474609,9.26269531 C10.4892595,9.83235962 10.6601562,10.5371052 10.6601562,11.3769531 L10.6601562,12.7148438 C10.6601562,13.1575543 10.7089839,13.5546857 10.8066406,13.90625 C10.9042974,14.2578143 11.0735665,14.5442697 11.3144531,14.765625 L11.3144531,15 L9.33203125,15 C9.07812373,14.7786447 8.91536494,14.4531271 8.84375,14.0234375 C8.77213506,13.5937479 8.73632812,13.1510439 8.73632812,12.6953125 L8.73632812,11.3964844 C8.73632812,10.6282514 8.511721,10.009768 8.0625,9.54101562 C7.613279,9.07226328 7.01107148,8.83789062 6.25585938,8.83789062 L2.68164062,8.83789062 Z M2.68164062,7.32421875 L5.70898438,7.32421875 C6.79622939,7.32421875 7.57909917,7.11751509 8.05761719,6.70410156 C8.53613521,6.29068804 8.77539062,5.66081152 8.77539062,4.81445312 C8.77539062,4.01366787 8.54264556,3.39355688 8.07714844,2.95410156 C7.61165132,2.51464624 6.88737471,2.29492188 5.90429688,2.29492188 L2.68164062,2.29492188 L2.68164062,7.32421875 Z" id="R" fill="#689F38" sketch:type="MSShapeGroup"></path>
            <g id="Group" transform="translate(37.000000, 19.000000)" fill="#689F38" sketch:type="MSShapeGroup">
                <path d="M1.92234848,12.9765625 L0.609848485,12.9765625 L5.35984848,0.625 L6.66453598,0.625 L1.92234848,12.9765625 Z" id="/"></path>
                <path d="M9.49857955,2.046875 L12.6704545,10.1337891 L12.7114702,10.1337891 L15.8833452,2.046875 L17.6060014,2.046875 L17.6060014,12 L16.2593217,12 L16.2593217,8.0625 L16.3960405,4.015625 L16.3618608,4.00878906 L13.1352983,12 L12.2397905,12 L9.02689986,4.02929688 L8.99272017,4.03613281 L9.12260298,8.0625 L9.12260298,12 L7.7759233,12 L7.7759233,2.046875 L9.49857955,2.046875 Z M27.606978,7.91210938 C27.606978,9.12891233 27.2298659,10.1383423 26.4756303,10.9404297 C25.7213948,11.742517 24.7427262,12.1435547 23.5395952,12.1435547 C22.37748,12.1435547 21.4329907,11.742517 20.7060991,10.9404297 C19.9792074,10.1383423 19.615767,9.12891233 19.615767,7.91210938 L19.615767,6.14160156 C19.615767,4.92935592 19.9792074,3.91992591 20.7060991,3.11328125 C21.4329907,2.30663659 22.37748,1.90332031 23.5395952,1.90332031 C24.7427262,1.90332031 25.7213948,2.30549728 26.4756303,3.10986328 C27.2298659,3.91422928 27.606978,4.9247986 27.606978,6.14160156 L27.606978,7.91210938 Z M26.2602983,6.12792969 C26.2602983,5.2164668 26.014207,4.46907844 25.522017,3.88574219 C25.0298271,3.30240594 24.3690264,3.01074219 23.5395952,3.01074219 C22.7557371,3.01074219 22.1302551,3.30240594 21.6631303,3.88574219 C21.1960056,4.46907844 20.9624467,5.2164668 20.9624467,6.12792969 L20.9624467,7.91210938 C20.9624467,8.83268689 21.1960056,9.5846325 21.6631303,10.1679688 C22.1302551,10.751305 22.7557371,11.0429688 23.5395952,11.0429688 C24.3735837,11.0429688 25.0355237,10.7524443 25.525435,10.1713867 C26.0153463,9.59032913 26.2602983,8.83724421 26.2602983,7.91210938 L26.2602983,6.12792969 Z" id="MO"></path>
            </g>
        </g>
    </g>
</svg>