<?xml version="1.0" encoding="UTF-8" standalone="no"?>
<svg width="99px" height="57px" viewBox="0 0 99 57" version="1.1" xmlns="http://www.w3.org/2000/svg" xmlns:xlink="http://www.w3.org/1999/xlink" xmlns:sketch="http://www.bohemiancoding.com/sketch/ns">
    <!-- Generator: Sketch 3.3.3 (12081) - http://www.bohemiancoding.com/sketch -->
    <title>Viewframe</title>
    <desc>Created with Sketch.</desc>
    <defs></defs>
    <g id="Page-1" stroke="none" stroke-width="1" fill="none" fill-rule="evenodd" sketch:type="MSPage">
        <g id="Shape" sketch:type="MSLayerGroup" transform="translate(2.000000, 1.000000)">
            <g id="/-+-MO" transform="translate(63.000000, 42.000000)" fill="#689F38" sketch:type="MSShapeGroup">
                <path d="M20.718,1.969 L20.718,12 L19.528,12 L19.528,4.629 C19.528,4.53099951 19.5315,4.42600056 19.5385,4.314 C19.5455,4.20199944 19.5536666,4.08766725 19.563,3.971 L16.119,10.243 C16.0116661,10.4530011 15.8483344,10.558 15.629,10.558 L15.433,10.558 C15.2136656,10.558 15.0503339,10.4530011 14.943,10.243 L11.429,3.943 C11.4570001,4.19033457 11.471,4.41899895 11.471,4.629 L11.471,12 L10.281,12 L10.281,1.969 L11.282,1.969 C11.4033339,1.969 11.4966663,1.98066655 11.562,2.004 C11.6273337,2.02733345 11.690333,2.09266613 11.751,2.2 L15.216,8.374 C15.2720003,8.48600056 15.3268331,8.60266606 15.3805,8.724 C15.4341669,8.84533394 15.4843331,8.96899937 15.531,9.095 C15.5776669,8.96899937 15.6266664,8.84416729 15.678,8.7205 C15.7293336,8.59683271 15.785333,8.47900056 15.846,8.367 L19.248,2.2 C19.3040003,2.09266613 19.365833,2.02733345 19.4335,2.004 C19.501167,1.98066655 19.5956661,1.969 19.717,1.969 L20.718,1.969 Z M32.548,6.988 C32.548,7.73933709 32.4290012,8.42883019 32.191,9.0565 C31.9529988,9.6841698 31.6170022,10.2243311 31.183,10.677 C30.7489978,11.1296689 30.227503,11.4808321 29.6185,11.7305 C29.009497,11.9801679 28.336337,12.105 27.599,12.105 C26.861663,12.105 26.1896697,11.9801679 25.583,11.7305 C24.9763303,11.4808321 24.4560022,11.1296689 24.022,10.677 C23.5879978,10.2243311 23.2520012,9.6841698 23.014,9.0565 C22.7759988,8.42883019 22.657,7.73933709 22.657,6.988 C22.657,6.23666291 22.7759988,5.5471698 23.014,4.9195 C23.2520012,4.29183019 23.5879978,3.75050227 24.022,3.2955 C24.4560022,2.84049773 24.9763303,2.48700126 25.583,2.235 C26.1896697,1.98299874 26.861663,1.857 27.599,1.857 C28.336337,1.857 29.009497,1.98299874 29.6185,2.235 C30.227503,2.48700126 30.7489978,2.84049773 31.183,3.2955 C31.6170022,3.75050227 31.9529988,4.29183019 32.191,4.9195 C32.4290012,5.5471698 32.548,6.23666291 32.548,6.988 L32.548,6.988 Z M31.155,6.988 C31.155,6.37199692 31.0710008,5.81900245 30.903,5.329 C30.7349992,4.83899755 30.4970015,4.42483503 30.189,4.0865 C29.8809985,3.74816498 29.5076689,3.48800091 29.069,3.306 C28.6303311,3.12399909 28.140336,3.033 27.599,3.033 C27.0623307,3.033 26.5746689,3.12399909 26.136,3.306 C25.6973311,3.48800091 25.3228349,3.74816498 25.0125,4.0865 C24.7021651,4.42483503 24.4630008,4.83899755 24.295,5.329 C24.1269992,5.81900245 24.043,6.37199692 24.043,6.988 C24.043,7.60400308 24.1269992,8.15583089 24.295,8.6435 C24.4630008,9.1311691 24.7021651,9.54416498 25.0125,9.8825 C25.3228349,10.220835 25.6973311,10.4798324 26.136,10.6595 C26.5746689,10.8391676 27.0623307,10.929 27.599,10.929 C28.140336,10.929 28.6303311,10.8391676 29.069,10.6595 C29.5076689,10.4798324 29.8809985,10.220835 30.189,9.8825 C30.4970015,9.54416498 30.7349992,9.1311691 30.903,8.6435 C31.0710008,8.15583089 31.155,7.60400308 31.155,6.988 L31.155,6.988 Z" id="MO"></path>
                <path d="M1.912,12.168 C1.84266632,12.3546676 1.7346674,12.4933329 1.588,12.584 C1.4413326,12.6746671 1.29066744,12.72 1.136,12.72 L0.536,12.72 L5.344,0.744 C5.40800032,0.57333248 5.50533268,0.44266712 5.636,0.352 C5.76666732,0.26133288 5.91733248,0.216 6.088,0.216 L6.696,0.216 L1.912,12.168 Z" id="/"></path>
            </g>
            <path d="M5.83,11.0235 C6.58600378,11.0235 7.2542471,10.9312509 7.83475,10.74675 C8.4152529,10.5622491 8.90124804,10.3012517 9.29275,9.96375 C9.68425196,9.62624831 9.97899901,9.22350234 10.177,8.7555 C10.375001,8.28749766 10.474,7.77000283 10.474,7.203 C10.474,6.05099424 10.0960038,5.18250293 9.34,4.5975 C8.58399622,4.01249707 7.45000756,3.72 5.938,3.72 L3.076,3.72 L3.076,11.0235 L5.83,11.0235 Z M14.767,21 L12.445,21 C11.9679976,21 11.6170011,20.8155018 11.392,20.4465 L6.37,13.5345 C6.21699923,13.3184989 6.05275088,13.1632505 5.87725,13.06875 C5.70174912,12.9742495 5.42950184,12.927 5.0605,12.927 L3.076,12.927 L3.076,21 L0.4705,21 L0.4705,1.6545 L5.938,1.6545 C7.16200612,1.6545 8.21949554,1.77824876 9.1105,2.02575 C10.0015045,2.27325124 10.7372471,2.63099766 11.31775,3.099 C11.8982529,3.56700234 12.3279986,4.13174669 12.607,4.79325 C12.8860014,5.45475331 13.0255,6.1949959 13.0255,7.014 C13.0255,7.69800342 12.9175011,8.33699703 12.7015,8.931 C12.4854989,9.52500297 12.172752,10.0582476 11.76325,10.53075 C11.353748,11.0032524 10.8542529,11.4059983 10.26475,11.739 C9.67524705,12.0720017 9.00700373,12.3239991 8.26,12.495 C8.59300166,12.6840009 8.88099878,12.9584982 9.124,13.3185 L14.767,21 Z" id="R" fill="#689F38" sketch:type="MSShapeGroup"></path>
            <path d="M60.7625,27.45 C60.7625,32.1000232 60.262505,36.124983 59.2625,39.525 C58.262495,42.925017 56.9000086,45.7374889 55.175,47.9625 C53.4499914,50.1875111 51.4312616,51.8437446 49.11875,52.93125 C46.8062384,54.0187554 44.3375131,54.5625 41.7125,54.5625 C39.0874869,54.5625 36.6250115,54.0187554 34.325,52.93125 C32.0249885,51.8437446 30.0125086,50.1875111 28.2875,47.9625 C26.5624914,45.7374889 25.2062549,42.925017 24.21875,39.525 C23.2312451,36.124983 22.7375,32.1000232 22.7375,27.45 C22.7375,22.7999767 23.2312451,18.775017 24.21875,15.375 C25.2062549,11.974983 26.5624914,9.16251113 28.2875,6.9375 C30.0125086,4.71248887 32.0249885,3.05625544 34.325,1.96875 C36.6250115,0.881244563 39.0874869,0.3375 41.7125,0.3375 C44.3375131,0.3375 46.8062384,0.881244563 49.11875,1.96875 C51.4312616,3.05625544 53.4499914,4.71248887 55.175,6.9375 C56.9000086,9.16251113 58.262495,11.974983 59.2625,15.375 C60.262505,18.775017 60.7625,22.7999767 60.7625,27.45 L60.7625,27.45 Z M57.0125,27.45 C57.0125,23.1499785 56.6000041,19.4750152 55.775,16.425 C54.9499959,13.3749847 53.8437569,10.8812597 52.45625,8.94375 C51.0687431,7.00624031 49.4437593,5.5875045 47.58125,4.6875 C45.7187407,3.7874955 43.7625102,3.3375 41.7125,3.3375 C39.6624897,3.3375 37.7125092,3.7874955 35.8625,4.6875 C34.0124907,5.5875045 32.387507,7.00624031 30.9875,8.94375 C29.587493,10.8812597 28.4750041,13.3749847 27.65,16.425 C26.8249959,19.4750152 26.4125,23.1499785 26.4125,27.45 C26.4125,31.7750216 26.8249959,35.4562348 27.65,38.49375 C28.4750041,41.5312652 29.587493,44.0187403 30.9875,45.95625 C32.387507,47.8937597 34.0124907,49.3062456 35.8625,50.19375 C37.7125092,51.0812544 39.6624897,51.525 41.7125,51.525 C43.7625102,51.525 45.7187407,51.0812544 47.58125,50.19375 C49.4437593,49.3062456 51.0687431,47.8937597 52.45625,45.95625 C53.8437569,44.0187403 54.9499959,41.5312652 55.775,38.49375 C56.6000041,35.4562348 57.0125,31.7750216 57.0125,27.45 L57.0125,27.45 Z" id="0" fill="#000000" sketch:type="MSShapeGroup"></path>
        </g>
    </g>
</svg>