<?xml version="1.0" encoding="utf-8"?>
<!-- Generator: Adobe Illustrator 19.1.0, SVG Export Plug-In . SVG Version: 6.00 Build 0)  -->
<svg version="1.1" xmlns="http://www.w3.org/2000/svg" xmlns:xlink="http://www.w3.org/1999/xlink" x="0px" y="0px"
	 viewBox="0 0 190.181 43.979" enable-background="new 0 0 190.181 43.979" xml:space="preserve">
<g id="Background">
</g>
<g id="Guides">
</g>
<g id="Foreground">
	<path fill="#FFFFFF" d="M24.233,20.358c-8.499,0.947-17.29,5.713-17.29,10.54c0,5.646,8.227,11.111,26.21,12.931
		C15.284,45.112,0,37.901,0,30.581c0-6.191,10.331-11.697,25.367-12.864L24.233,20.358z M16.235,32.092
		c0-2.838,2.301-5.138,5.138-5.138c2.837,0,5.138,2.3,5.138,5.138c0,2.838-2.3,5.138-5.138,5.138
		C18.536,37.229,16.235,34.93,16.235,32.092z M44.599,20.229l4.005,6.932c2.555,4.423,4.105,6.62,6.284,6.95
		c3.121-0.096,5.575-1.915,5.735-3.79C61.006,25.838,54.179,21.952,44.599,20.229z M51.083,37.458
		c-4.052,0-7.631-2.025-10.296-6.637L28.709,9.915L32.913,0l10.498,18.172c12.198,1.93,20.991,6.792,20.587,12.368
		C63.768,33.71,59.195,37.458,51.083,37.458z M91.306,40.301l-3.541-6.918l-12.472,0.001l-3.472,6.917L67.769,40.3L83.848,9.73
		L100.323,40.3L91.306,40.301z M76.937,30.125h9.166c-2.184-4.157-4.645-9.05-4.645-9.05S77.873,28.307,76.937,30.125z
		 M147.767,21.762c4.623,1.732,9.924,3.248,9.924,9.526c0,5.413-5.559,9.311-12.834,9.311c-4.781,0-8.471-1.126-10.289-1.732
		l-0.208-8.184c0.831,3.074,4.105,7.317,9.509,7.317c4.625,0,6.34-2.512,6.34-4.633c0-4.071-5.404-4.417-9.77-6.625
		c-4.519-2.253-6.131-4.721-6.131-7.882c0-6.495,7.379-8.703,11.898-8.703c1.664,0,5.354,0.303,8.367,1.515l0.26,7.189
		c-0.988-2.511-4.002-5.976-9.041-5.976c-3.43,0-5.145,1.905-5.145,3.768C140.648,19.294,143.089,20.116,147.767,21.762z
		 M111.39,13.411v24.248c0,0,0.572,0.087,1.092,0.087c5.352,0,8.227-2.121,8.227-6.018c0-4.943-4.02-6.205-6.756-7.015
		c2.736-0.601,4.885-2.729,4.885-6.279c0-2.468-2.078-5.108-6.184-5.108C111.927,13.325,111.39,13.411,111.39,13.411z
		 M114.109,10.856c3.533,0,11.951,1.213,11.951,6.971c0,5.543-7.43,6.886-7.43,6.886s10.6,0.433,10.6,7.361
		c0,3.464-3.014,8.226-13.769,8.226h-11.367V10.856H114.109z M181.166,40.301l-3.543-6.918l-12.471,0.001l-3.473,6.917l-4.053-0.001
		l16.08-30.569L190.181,40.3L181.166,40.301z M166.796,30.125h9.164c-2.182-4.157-4.645-9.05-4.645-9.05
		S167.732,28.307,166.796,30.125z"/>
</g>
</svg>
