<?xml version="1.0" encoding="UTF-8" standalone="no"?>
<svg width="200px" height="200px" viewBox="0 0 200 200" version="1.1" xmlns="http://www.w3.org/2000/svg" xmlns:xlink="http://www.w3.org/1999/xlink" xmlns:sketch="http://www.bohemiancoding.com/sketch/ns">
    <!-- Generator: Sketch 3.3.3 (12081) - http://www.bohemiancoding.com/sketch -->
    <title>ferticore-logo</title>
    <desc>Created with Sketch.</desc>
    <defs></defs>
    <g id="Page-1" stroke="none" stroke-width="1" fill="none" fill-rule="evenodd" sketch:type="MSPage">
        <g id="Logo-+-Ferticore" sketch:type="MSLayerGroup" transform="translate(25.000000, 36.000000)">
            <g id="Logo" transform="translate(29.824561, 0.000000)" sketch:type="MSShapeGroup">
                <ellipse id="Oval-1" fill="#83B441" cx="43.8596491" cy="43.877551" rx="43.8596491" ry="43.877551"></ellipse>
                <path d="M19.7157895,35.4416531 C23.75,42.5305102 29.1122807,42.8271224 29.1122807,42.8271224 L46.772807,42.7270816 C46.772807,42.7270816 48.7903509,41.9899388 48.7903509,39.7741224 C48.7903509,37.5600612 46.6754386,36.8694286 46.6754386,36.8694286 L35.7017544,36.8211633 C34.9622807,36.3771224 35.7017544,35.8856939 35.7017544,35.8856939 C35.7017544,35.8856939 57.9517544,35.8251429 59.4070175,36.3683469 C61.5219298,37.1607755 67.8491228,44.2689388 67.8491228,44.2689388 L67.8868421,44.2329592 C68.454386,44.8367143 69.2482456,45.2254694 70.1421053,45.2254694 C71.8587719,45.2254694 73.2517544,43.8319184 73.2517544,42.114551 C73.2517544,41.2036531 72.8464912,40.4033265 72.2210526,39.835551 L62.5798246,30.0306735 C60.0403509,27.2865714 56.4701754,27.5515918 56.4701754,27.5515918 L40.45,27.5515918 C31.0122807,27.5515918 30.1552632,20.9699592 30.1552632,20.9699592 L12.7131579,20.9699592 L19.7157895,35.4416531" id="Fill-3" fill="#FFFFFF"></path>
                <path d="M44.4859649,53.3103469 C44.4859649,53.3103469 40.2070175,58.3518776 35.8561404,58.3518776 C31.5052632,58.3518776 27.2263158,53.3103469 27.2263158,53.3103469 C27.2263158,53.3103469 31.5052632,48.2688163 35.8561404,48.2688163 C40.2070175,48.2688163 44.4859649,53.3103469 44.4859649,53.3103469" id="Fill-4" fill="#FFFFFF"></path>
                <path d="M67.2640351,53.3103469 C67.2640351,53.3103469 62.9850877,58.3518776 58.6342105,58.3518776 C54.2833333,58.3518776 50.004386,53.3103469 50.004386,53.3103469 C50.004386,53.3103469 54.2833333,48.2688163 58.6342105,48.2688163 C62.9850877,48.2688163 67.2640351,53.3103469 67.2640351,53.3103469" id="Fill-5" fill="#FFFFFF"></path>
                <path d="M57.1245614,65.0168776 C57.1245614,65.0168776 52.845614,70.0584082 48.4947368,70.0584082 C44.1438596,70.0584082 39.8649123,65.0168776 39.8649123,65.0168776 C39.8649123,65.0168776 44.1438596,59.9753469 48.4947368,59.9753469 C52.845614,59.9753469 57.1245614,65.0168776 57.1245614,65.0168776" id="Fill-6" fill="#FFFFFF"></path>
            </g>
            <text id="Ferticore" sketch:type="MSTextLayer" font-family="Lucida Grande" font-size="35.0877193" font-weight="normal" fill="#779635">
                <tspan x="0" y="121.755102">Ferticore</tspan>
            </text>
        </g>
    </g>
</svg>