<?xml version="1.0" encoding="UTF-8" standalone="no"?>
<svg width="64px" height="40px" viewBox="0 0 64 40" version="1.1" xmlns="http://www.w3.org/2000/svg" xmlns:xlink="http://www.w3.org/1999/xlink" xmlns:sketch="http://www.bohemiancoding.com/sketch/ns">
    <!-- Generator: Sketch 3.3.3 (12081) - http://www.bohemiancoding.com/sketch -->
    <title>fresh-beef-logo-white</title>
    <desc>Created with Sketch.</desc>
    <defs></defs>
    <g id="Page-1" stroke="none" stroke-width="1" fill="none" fill-rule="evenodd" sketch:type="MSPage">
        <g id="fresh-beef-logo-white" sketch:type="MSLayerGroup">
            <path d="M50.4968583,0.607714286 C49.8690495,0.607714286 49.4695348,1.62314286 48.841726,1.304 C48.2133548,0.984857143 48.4034125,-0.156 47.1475137,0.0182857143 C46.297315,0.136 45.9017364,0.202285714 45.5311802,0.202285714 C45.1600617,0.202285714 44.5319717,0.172857143 44.4175435,0.840285714 C44.3036776,1.50742857 44.1636647,1.65314286 43.678118,1.45057143 C43.1928524,1.24771429 42.7053377,1.10114286 42.0488515,1.072 C41.3929277,1.04314286 41.44972,1.30428571 41.8776309,2.14542857 C42.305823,2.986 43.4759709,2.986 43.9612364,2.84142857 C41.8354584,3.89628571 40.8227547,2.03314286 40.6445053,2.05028571 C40.3835978,2.076 39.8494121,2.08942857 39.559546,2.08942857 C37.4776274,2.08942857 37.4573846,1.56371429 33.9978291,2.02314286 C30.5180308,2.48571429 27.4608015,2.02314286 25.3800075,1.82485714 C23.726281,1.66714286 21.376426,1.78171429 20.1208084,2.89542857 C19.0597469,3.192 18.5036314,3.73571429 18.3442191,5.06342857 C18.1721551,6.49228571 18.5050372,8.33142857 18.033548,10.4017143 C17.5609342,12.4717143 17.1009721,13.1845714 16.706237,13.8954286 C16.3109396,14.6062857 16.3860067,15.6951429 16.7599367,16.1097143 C17.1636687,15.5971429 17.3621608,14.8614286 17.3062119,14.268 C17.250263,13.6751429 17.4248574,13.1388571 17.9314904,11.9605714 C18.4386857,10.7822857 18.6321171,9.08771429 18.6090628,7.66628571 C18.5905069,6.52342857 18.6042832,5.65857143 19.0968587,5.25742857 C18.953472,6.52914286 19.3673254,7.37085714 19.4929996,8.89771429 C19.6552234,10.8811429 19.3844756,11.8062857 18.6366155,12.7317143 C17.8884744,13.6571429 17.9317715,14.5491429 18.2238868,15.9705714 C18.5171266,17.3917143 18.5494589,18.2185714 18.2570625,19.0111429 C17.9641038,19.8042857 18.158941,19.9362857 18.4513374,20.0022857 C18.7448584,20.0685714 18.7771907,20.3657143 18.7119638,20.6634286 C18.6472993,20.9608571 18.8747499,20.9937143 19.6552234,20.9608571 C20.4356969,20.9277143 21.1841192,20.8951429 20.5984829,19.9362857 C20.0131278,18.978 19.7674024,19.6422857 19.7204503,18.5482857 C19.6332937,16.5214286 20.3058054,15.8714286 20.4680291,14.9788571 C20.6308152,14.086 21.1512246,13.9542857 21.7039662,14.086 C22.2572702,14.2185714 23.1462677,15.2211429 24.3386265,15.3754286 C25.3833813,15.5102857 26.6153823,15.2434286 27.6129039,14.3622857 C29.6613656,15.1551429 31.8183513,14.88 33.3801417,14.7148571 C34.9408075,14.5491429 35.8511724,13.8222857 36.4041952,14.3842857 C36.9572181,14.946 36.4694221,15.5411429 36.85994,16.3014286 C37.2498956,17.0608571 37.770305,17.7554286 37.5099597,18.6802857 C37.2496145,19.6057143 37.3800682,19.9034286 37.770305,19.9034286 C38.1605417,19.9034286 37.9977556,20.1674286 37.8678641,20.4322857 C37.7376915,20.6965714 38.1605417,20.6965714 39.0382932,20.7297143 C39.9171693,20.7628571 40.1772334,20.7628571 39.9492204,20.0688571 C39.7212075,19.3745714 39.2986385,19.5071429 38.9084017,18.6145714 C38.5178838,17.7222857 39.1035201,17.1602857 39.3635842,16.0697143 C39.6244918,14.9788571 40.1550225,14.1082857 41.2928381,13.6125714 C42.4317783,13.1168571 43.1369035,13.1282857 43.6561883,11.4757143 C44.1765976,9.82314286 44.1015305,9.24571429 44.9576334,8.23685714 C45.51403,7.58057143 46.1623628,7.606 46.9436797,7.61285714 C47.2461975,8.126 47.7972523,8.59942857 49.2505186,8.13742857 C50.593574,7.70971429 50.4723982,6.21342857 49.8847939,5.74171429 C49.5752473,5.49371429 48.5673232,5.378 47.770543,5.65885714 C47.9170223,5.09685714 49.0385312,4.75 49.4776881,4.88342857 C49.3151832,4.568 49.1389019,3.88714286 49.1833237,3.39228571 C49.2401161,2.75457143 49.3261481,2.14514286 50.0104681,2.08714286 C50.6961939,2.02914286 51.152501,1.62342857 51.4381498,1.04314286 C51.7243609,0.462571429 51.1246671,0.607714286 50.4968583,0.607714286 L50.4968583,0.607714286 Z" id="Shape" fill="#FFFFFF" sketch:type="MSShapeGroup"></path>
            <path d="M25.2712023,17.8648571 C25.1548061,17.3474286 25.1067293,16.7751429 25.1016686,16.2191429 C23.9807221,16.284 23.0214369,15.9205714 22.4197751,15.5408571 C22.8915455,16.5422857 23.8738849,17.4985714 23.5795205,18.394 C23.3160825,19.1977143 23.9050926,19.3302857 24.1977701,19.3962857 C24.4904477,19.4625714 24.5230611,19.7602857 24.4581154,20.0571429 C24.3928885,20.3551429 24.6209015,20.388 25.4010938,20.3551429 C26.1815673,20.322 26.9299896,20.2891429 26.3440722,19.3305714 C25.7587171,18.372 25.5101801,18.9328571 25.2712023,17.8648571 L25.2712023,17.8648571 Z" id="Shape" fill="#FFFFFF" sketch:type="MSShapeGroup"></path>
            <path d="M43.2234978,18.0194286 C42.8324176,17.1268571 43.4323926,16.5868571 43.2881624,15.4745714 C43.203255,14.818 43.1554594,14.2545714 43.1641751,13.7065714 C42.3721745,14.2848571 40.8902308,14.4331429 40.89248,14.9625714 C40.8933234,15.2745714 40.9588315,15.672 41.1033428,15.9542857 C41.4935795,16.7142857 41.9546661,17.1602857 41.6943209,18.0854286 C41.4342568,19.0111429 41.5647106,19.3085714 41.9549473,19.3085714 C42.3454652,19.3085714 42.1829603,19.5728571 42.0522253,19.8377143 C41.9228961,20.1017143 42.3454652,19.9694286 43.2234978,20.0022857 C44.1012493,20.0354286 44.3615946,19.9034286 44.1338628,19.2091429 C43.9064121,18.5151429 43.6137346,18.9117143 43.2234978,18.0194286 L43.2234978,18.0194286 Z" id="Shape" fill="#FFFFFF" sketch:type="MSShapeGroup"></path>
            <path d="M63.7649072,28.66 C55.8255015,22.4357143 39.5190604,19.6591429 31.8830159,19.6591429 C24.246128,19.6591429 8.91331064,21.9245714 0,28.66 L3.75616914,33.5228571 L4.49728155,39.7717143 C15.2279483,34.398 24.1221407,33.4648571 31.8827348,33.4648571 C39.6430477,33.4648571 48.789432,34.1054286 59.5203799,39.4788571 L60.0084569,33.5228571 L63.7649072,28.66 L63.7649072,28.66 Z" id="Shape" fill="#FFFFFF" sketch:type="MSShapeGroup"></path>
            <g id="Group" transform="translate(7.309910, 22.857143)" fill="#679F37" sketch:type="MSShapeGroup">
                <path d="M3.07690981,4.48114286 L1.6087425,4.97457143 L2.23823821,6.90685714 L3.22338916,6.57571429 L3.5852297,7.68685714 L2.60007876,8.01828571 L3.64370898,11.222 L2.57983593,11.58 L0.1830289,4.22171429 L2.71478811,3.37 L3.07690981,4.48114286 L3.07690981,4.48114286 Z" id="Shape"></path>
                <path d="M8.85792402,9.71142857 L7.51824243,6.68057143 L7.22584603,6.754 L8.00153995,9.92771429 L6.91348796,10.2022857 L5.07476444,2.67771429 L6.16281643,2.40314286 C7.46229351,2.07514286 8.19862636,2.68285714 8.54697169,4.10571429 C8.72971944,4.85285714 8.7032913,5.57714286 8.36000669,5.96828571 L9.945976,9.43771429 L8.85792402,9.71142857 L8.85792402,9.71142857 Z M6.97590334,5.73 C7.1268811,5.692 7.32340522,5.62085714 7.44964174,5.43657143 C7.57615941,5.25257143 7.63941825,4.94285714 7.50924562,4.41028571 C7.37907299,3.87857143 7.17805047,3.62457143 6.98208865,3.522 C6.78556453,3.41971429 6.5817305,3.46028571 6.4304716,3.49828571 L6.97590334,5.73 L6.97590334,5.73 Z" id="Shape"></path>
                <path d="M10.6702194,1.39 L13.1969179,0.952857143 L13.3900682,2.10657143 L11.9685719,2.35257143 L12.3037031,4.35914286 L13.3270905,4.18257143 L13.5323303,5.40885714 L12.5095052,5.58628571 L12.8609432,7.68628571 L14.2830018,7.44 L14.4764333,8.59428571 L11.9494536,9.03114286 L10.6702194,1.39 L10.6702194,1.39 Z" id="Shape"></path>
                <path d="M17.8164999,2.49085714 C17.7926021,2.23885714 17.7549279,1.95628571 17.661586,1.74285714 C17.5696498,1.54028571 17.4417264,1.40457143 17.2660074,1.42171429 C16.9781094,1.46028571 16.9140071,1.774 16.9570231,2.22542857 C16.9817644,2.48828571 17.1209338,2.75 17.3143653,3.028 C17.5077967,3.30542857 17.7535222,3.58885714 18.001778,3.89314286 C18.2967047,4.25628571 18.5933184,4.62971429 18.8261109,4.99914286 C19.0594657,5.36828571 19.2320921,5.75428571 19.2720154,6.17428571 C19.3206544,6.68857143 19.2838237,7.17971429 19.0802708,7.56028571 C18.8764368,7.94057143 18.5157209,8.20942857 17.906468,8.26914286 C17.1940329,8.33942857 16.7644351,8.10542857 16.4970611,7.708 C16.2299683,7.31028571 16.1256615,6.75914286 16.0702748,6.18142857 L17.1555153,5.96885714 C17.186723,6.29428571 17.2280521,6.61885714 17.3337647,6.852 C17.4296369,7.09685714 17.5696498,7.25285714 17.8075031,7.22942857 C18.1386982,7.19685714 18.228104,6.82771429 18.1814331,6.33457143 C18.1575353,6.08228571 18.0057141,5.80057143 17.811158,5.51257143 C17.7043209,5.37457143 17.596078,5.226 17.4779948,5.07857143 C17.2311448,4.78485714 16.9589912,4.45085714 16.6747482,4.08714286 C16.3896617,3.72285714 16.1653037,3.34228571 16.0132013,2.944 C15.9319488,2.75028571 15.8807795,2.54342857 15.8613801,2.33342857 C15.8211756,1.91314286 15.8712204,1.45314286 16.0758978,1.08314286 C16.2814188,0.723714286 16.620205,0.446571429 17.1465185,0.384285714 C17.8173433,0.307714286 18.2368197,0.553142857 18.4923854,0.941142857 C18.7490757,1.34 18.8604112,1.84828571 18.9014592,2.27885714 L17.8164999,2.49085714 L17.8164999,2.49085714 Z" id="Shape"></path>
                <path d="M23.3911497,4.49657143 L22.5184589,4.51514286 L22.587903,7.89 L21.4675188,7.914 L21.3081065,0.162 L22.4290531,0.138285714 L22.4945611,3.34457143 L23.3666896,3.32628571 L23.3006193,0.12 L24.4215659,0.0962857143 L24.5804158,7.84742857 L23.4600315,7.87142857 L23.3911497,4.49657143 L23.3911497,4.49657143 Z" id="Shape"></path>
                <path d="M29.8975319,8.06628571 L30.6704143,0.354 L31.6510668,0.455428571 C32.3123325,0.523714286 32.8153106,0.703428571 33.1234514,1.06371429 C33.4318734,1.424 33.5572665,1.94571429 33.4805124,2.71171429 C33.4436817,3.07914286 33.3852024,3.34857143 33.2465953,3.58857143 C33.107707,3.82885714 32.9111829,4.02057143 32.6286267,4.23514286 C32.8917835,4.42142857 33.0689082,4.73628571 33.1847422,5.24685714 C33.2429403,5.49657143 33.2527806,5.816 33.2139818,6.20428571 C33.156346,6.78114286 33.0014321,7.28457143 32.7036939,7.65685714 C32.4051122,8.02885714 31.9353099,8.24542857 31.2712327,8.20857143 L29.8975319,8.06628571 L29.8975319,8.06628571 Z M31.1253156,7.05885714 C31.2180953,7.06828571 31.432613,7.112 31.6322298,6.99457143 C31.8318465,6.87742857 32.0070032,6.58828571 32.0702621,5.95857143 C32.1329586,5.32857143 32.0193738,5.00971429 31.8467475,4.854 C31.6749646,4.69828571 31.4559485,4.69714286 31.3626065,4.68685714 L31.1253156,7.05885714 L31.1253156,7.05885714 Z M31.4669133,3.64857143 C31.559693,3.65828571 31.7753353,3.69085714 31.9738275,3.58457143 C32.172882,3.478 32.3426968,3.24057143 32.3958342,2.70571429 C32.4498151,2.17028571 32.3303262,1.90342857 32.1568564,1.75885714 C31.9836677,1.61342857 31.7654951,1.60171429 31.6727154,1.592 L31.4669133,3.64857143 L31.4669133,3.64857143 Z" id="Shape"></path>
                <path d="M36.3932304,1.06428571 L38.9176797,1.52 L38.7160949,2.67257143 L37.2957231,2.41571429 L36.9451286,4.41942857 L37.9665479,4.60457143 L37.7520302,5.82971429 L36.7306108,5.64514286 L36.3637096,7.74228571 L37.7840813,7.99885714 L37.5824965,9.15114286 L35.0588907,8.69571429 L36.3932304,1.06428571 L36.3932304,1.06428571 Z" id="Shape"></path>
                <path d="M41.4556242,2.08228571 L43.9409936,2.72085714 L43.6584375,3.85542857 L42.2602766,3.49657143 L41.769388,5.46942857 L42.775063,5.728 L42.4753567,6.93428571 L41.4691194,6.676 L40.9557388,8.74142857 L42.3538997,9.10057143 L42.0719058,10.2354286 L39.5870987,9.59685714 L41.4556242,2.08228571 L41.4556242,2.08228571 Z" id="Shape"></path>
                <path d="M48.6002178,5.43085714 L47.1320505,4.93714286 L46.5031171,6.86914286 L47.4877057,7.20057143 L47.1261463,8.31171429 L46.1407142,7.98028571 L45.097084,11.1837143 L44.0332109,10.8257143 L46.4305803,3.468 L48.9620583,4.31942857 L48.6002178,5.43085714 L48.6002178,5.43085714 Z" id="Shape"></path>
            </g>
        </g>
    </g>
</svg>