<?xml version="1.0" encoding="UTF-8" standalone="no"?>
<svg width="128px" height="40px" viewBox="0 0 128 40" version="1.1" xmlns="http://www.w3.org/2000/svg" xmlns:xlink="http://www.w3.org/1999/xlink" xmlns:sketch="http://www.bohemiancoding.com/sketch/ns">
    <!-- Generator: Sketch 3.3.3 (12081) - http://www.bohemiancoding.com/sketch -->
    <title>syngrow-logo-white</title>
    <desc>Created with Sketch.</desc>
    <defs></defs>
    <g id="Page-1" stroke="none" stroke-width="1" fill="none" fill-rule="evenodd" sketch:type="MSPage">
        <g id="Shape-+-syngrow" sketch:type="MSLayerGroup" fill="#FFFFFF">
            <path d="M77.935,0 C75.3505435,4.42857143 76.4725,8.43714286 73.9445652,10.9942857 C71.9140217,13.0471429 70.0304348,12.9814286 67.8161957,12.9814286 C67.046087,12.9814286 65.5496739,13.0485714 64.9222826,13.5085714 C64.5591304,12.3385714 64.4022826,11.0514286 64.4022826,9.82428571 C64.4022826,7.71571429 64.87,5.84142857 66.3692391,4.32714286 C69.2405435,1.42571429 74.4419565,0.502857143 77.935,0" id="Shape" sketch:type="MSShapeGroup"></path>
            <path d="M12.6608144,14.2864118 L12.6608144,21.1572266 C11.752359,21.1572266 11.128524,21.3287046 10.7892907,21.6716657 C10.4500574,22.0146269 10.2344462,22.6918197 10.1424507,23.7032645 C9.84346544,27.0631213 8.55554807,29.4347494 6.27865999,30.8182199 C5.07121934,31.5390196 3.35782926,31.8994141 1.13843835,31.8994141 L0.241486923,31.8994141 L0.241486923,24.9937221 L0.534721043,24.9937221 C1.56967017,24.9937221 2.30849777,24.7757416 2.75122601,24.339774 C3.19395425,23.9038064 3.44981283,23.1394214 3.51880944,22.046596 C3.61080492,20.2678482 3.77466941,19.0180933 4.01040782,18.2972935 C4.24614623,17.5764938 4.72624043,16.8615177 5.45070482,16.1523438 C6.71564265,14.9083829 8.46928014,14.2864118 10.7116699,14.2864118 L12.6608144,14.2864118 Z M16.9903299,39.0492467 L16.9903299,33.3816964 C17.864287,33.7537221 18.6289879,33.9397321 19.2844557,33.9397321 C21.3773528,33.9397321 22.7342657,32.7481053 23.3552352,30.3648158 C22.2282906,31.0391124 21.1243614,31.3762556 20.0434146,31.3762556 C18.4449931,31.3762556 17.1283276,30.7746293 16.0933785,29.5713588 C15.0584294,28.3680883 14.5409626,26.8364118 14.5409626,24.9762835 L14.5409626,14.0422712 L20.9921132,14.0422712 L20.9921132,23.3893694 C20.9921132,24.4240658 21.4175859,24.9414062 22.2685441,24.9414062 C23.0850039,24.9414062 23.4932278,24.3717505 23.4932278,23.2324219 L23.4932278,14.0422712 L29.9443784,14.0422712 L29.9443784,29.5626395 C29.9443784,32.4574643 29.13943,34.7942154 27.5295092,36.5729632 C25.6091036,38.6888592 23.2862526,39.7467913 20.5608865,39.7467913 C19.3649453,39.7467913 18.1747717,39.5142787 16.9903299,39.0492467 L16.9903299,39.0492467 Z M49.0390943,31.4285714 L42.5879437,31.4285714 L42.5879437,21.6106306 C42.5879437,20.6108116 42.1797199,20.1109096 41.36326,20.1109096 C40.5582996,20.1109096 40.1558254,20.6108116 40.1558254,21.6106306 L40.1558254,31.4285714 L33.7046748,31.4285714 L33.7046748,21.7327009 C33.7046748,19.4656695 34.4463772,17.5561601 35.9298043,16.0041155 C37.4132313,14.4520709 39.2301148,13.6760603 41.3805091,13.6760603 C43.8413881,13.6760603 45.8135116,14.5770464 47.2969387,16.3790458 C48.4583816,17.7857678 49.0390943,19.7446861 49.0390943,22.2558594 L49.0390943,31.4285714 Z M61.9758938,24.2613002 L61.9758938,30.2427455 C61.0444396,30.5915196 60.1532467,30.765904 59.3022886,30.765904 C57.2208909,30.765904 55.4586289,29.9695485 54.0154499,28.3768136 C52.5722708,26.7840787 51.8506921,24.8367861 51.8506921,22.5348772 C51.8506921,20.0469556 52.7188864,17.9485298 54.455301,16.2395368 C56.1917157,14.5305439 58.3248288,13.6760603 60.8547045,13.6760603 C62.2001384,13.6760603 63.4880557,13.9492625 64.7184952,14.4956752 C65.9489348,15.0420879 66.9148728,15.7745025 67.6163383,16.6929408 C68.7892807,18.2159209 69.375743,20.4247902 69.375743,23.319615 L69.375743,29.039481 C69.375743,32.1435702 68.5046739,34.663425 66.7625096,36.5991211 C65.0203452,38.5348172 62.7521157,39.5026507 59.9577531,39.5026507 C59.1067949,39.5026507 58.0316139,39.2875766 56.7321777,38.8574219 L56.7321777,32.9282924 C57.5716365,33.3933245 58.4225819,33.6258371 59.2850395,33.6258371 C60.4464824,33.6258371 61.3434249,33.2392849 61.9758938,32.4661691 C62.6083627,31.6930532 62.9245924,30.5857122 62.9245924,29.1441127 L62.9245924,22.6046317 C62.9245924,20.7793808 62.1943892,19.866769 60.733961,19.866769 C60.1129915,19.866769 59.5696514,20.1080007 59.1039243,20.5904715 C58.6381972,21.0729423 58.4053371,21.6280661 58.4053371,22.2558594 C58.4053371,22.9185301 58.6266979,23.4707474 59.0694262,23.9125279 C59.5121544,24.3543084 60.0612442,24.5751953 60.716712,24.5751953 C61.1536905,24.5751953 61.5734136,24.4705647 61.9758938,24.2613002 L61.9758938,24.2613002 Z M82.6057766,13.867885 L82.6057766,20.8433315 C82.1572986,20.5875638 81.7490748,20.4596819 81.3810929,20.4596819 C80.2081506,20.4596819 79.6216882,21.3664809 79.6216882,23.180106 L79.6216882,31.4285714 L73.1705375,31.4285714 L73.1705375,21.9245257 C73.1705375,19.4133524 73.848994,17.410838 75.2059273,15.9169224 C76.5628606,14.4230069 78.3739944,13.6760603 80.6393831,13.6760603 C81.1453582,13.6760603 81.8008161,13.7400012 82.6057766,13.867885 L82.6057766,13.867885 Z M92.661982,13.6760603 C95.0998622,13.6760603 97.1898531,14.5625144 98.9320175,16.3354492 C100.674182,18.1083841 101.545251,20.2329675 101.545251,22.7092634 C101.545251,25.2204367 100.662683,27.3595522 98.8975193,29.1266741 C97.1323561,30.893796 95.0021177,31.7773438 92.5067404,31.7773438 C90.0113631,31.7773438 87.8782499,30.8908896 86.107337,29.1179548 C84.336424,27.34502 83.4509808,25.2088109 83.4509808,22.7092634 C83.4509808,20.1632127 84.336424,18.0211908 86.107337,16.2831334 C87.8782499,14.5450759 90.0631097,13.6760603 92.661982,13.6760603 L92.661982,13.6760603 Z M92.4894913,20.1109096 C91.7995253,20.1109096 91.2130629,20.363767 90.7300866,20.8694894 C90.2471104,21.3752118 90.0056258,21.9942765 90.0056258,22.726702 C90.0056258,23.4475017 90.2499852,24.06366 90.7387111,24.5751953 C91.2274371,25.0867306 91.8110247,25.3424944 92.4894913,25.3424944 C93.1794574,25.3424944 93.7687946,25.0867306 94.2575206,24.5751953 C94.7462466,24.06366 94.9906059,23.4475017 94.9906059,22.726702 C94.9906059,21.9942765 94.7491214,21.3752118 94.2661451,20.8694894 C93.7831689,20.363767 93.1909569,20.1109096 92.4894913,20.1109096 L92.4894913,20.1109096 Z M104.236105,14.2864118 L110.687256,14.2864118 L110.687256,23.6509487 C110.687256,24.3833742 110.762001,24.8919954 110.911494,25.1768276 C111.060986,25.4616597 111.331219,25.6040737 111.7222,25.6040737 C112.446664,25.6040737 112.808891,24.9530385 112.808891,23.6509487 L112.808891,14.2864118 L119.260042,14.2864118 L119.260042,23.6509487 C119.260042,24.3833742 119.337662,24.8919954 119.492904,25.1768276 C119.648146,25.4616597 119.921254,25.6040737 120.312235,25.6040737 C121.0252,25.6040737 121.381677,24.9530385 121.381677,23.6509487 L121.381677,14.2864118 L127.832827,14.2864118 L127.832827,24.9937221 C127.832827,26.9468569 127.183119,28.6064152 125.883683,29.972447 C124.584247,31.3384787 123.008848,32.0214844 121.157439,32.0214844 C119.248533,32.0214844 117.535143,31.2076904 116.017217,29.5800781 C114.3383,31.2076904 112.647908,32.0214844 110.945992,32.0214844 C108.795598,32.0214844 107.070708,31.2309417 105.771272,29.6498326 C104.747822,28.4058718 104.236105,26.6097123 104.236105,24.2613002 L104.236105,14.2864118 Z" id="syngrow" sketch:type="MSShapeGroup"></path>
        </g>
    </g>
</svg>